<?xml version="1.0" encoding="UTF-8"?>
<svg width="63px" height="61px" viewBox="0 0 63 61" version="1.1" xmlns="http://www.w3.org/2000/svg" xmlns:xlink="http://www.w3.org/1999/xlink">
    <title>Group 30</title>
    <g id="Page-1" stroke="none" stroke-width="1" fill="none" fill-rule="evenodd">
        <g id="Layout-2.3-Copy" transform="translate(-971.000000, -3254.000000)">
            <g id="Group-30" transform="translate(971.000000, 3254.000000)">
                <circle id="Oval" fill-opacity="0.279092002" fill="#ABAEEF" cx="36" cy="34" r="27"></circle>
                <g id="Group" fill-rule="nonzero">
                    <g id="think" transform="translate(3.000000, 0.000000)">
                        <path d="M42.6350769,49.4683776 L42.6350769,42.3065894 C42.6350769,38.0441004 39.9225787,34.2541366 35.8878691,32.879389 L26.4289444,30.4863582 L21.5260792,34.457679 L16.471081,30.5245717 L7.16428923,32.879389 C3.12957962,34.2541366 0.417081514,38.0441004 0.417081514,42.3065894 L0.417081514,49.4676566 L42.6350769,49.4683776 Z" id="Path" fill="#05AFD6"></path>
                        <path d="M42.6372401,42.3101944 L42.6372401,49.4698196 L0.414918486,49.4698196 L0.414918486,47.1265385 L40.1137063,47.1265385 L40.1137063,39.9669133 C40.1168227,37.7910543 39.4021527,35.6749215 38.0804593,33.9464832 C40.9217466,35.779103 42.6379834,38.9291579 42.6372401,42.3101944 L42.6372401,42.3101944 Z" id="Path" fill="#27A2DB"></path>
                        <polygon id="Path" fill="#FE7058" points="19.1972182 34.4778673 23.8635923 34.4778673 22.8512948 37.1412767 20.2095157 37.1412767"></polygon>
                        <path d="M22.8520158,37.5017815 L20.2095157,37.5017815 C20.0597291,37.5020082 19.9254071,37.4095901 19.8720832,37.2696164 L18.8626698,34.606928 C18.8204242,34.4960354 18.8354572,34.3714551 18.9028688,34.2737948 C18.9702803,34.1761344 19.0814354,34.1179038 19.2001023,34.1180831 L23.8671973,34.1180831 C23.9858642,34.1179038 24.0970192,34.1761344 24.1644308,34.2737948 C24.2318424,34.3714551 24.2468754,34.4960354 24.2046298,34.606928 L23.1952164,37.2696164 C23.1411586,37.4115855 23.0039053,37.5044333 22.8520158,37.5017815 L22.8520158,37.5017815 Z M20.458264,36.7807719 L22.6039885,36.7807719 L23.3415813,34.8405351 L19.7192292,34.8405351 L20.458264,36.7807719 Z" id="Shape" fill="#323C6B"></path>
                        <polygon id="Path" fill="#FE7058" points="24.5471094 46.3673154 21.5260792 49.4683776 18.5137011 46.3673154 20.2095157 37.1412767 22.8512948 37.1412767"></polygon>
                        <path d="M21.5260792,49.8288885 C21.4288799,49.8288885 21.3358029,49.7896142 21.2679578,49.72001 L18.2555797,46.6196687 C18.1739887,46.5360492 18.1379785,46.4180756 18.1589644,46.3031455 L19.854779,37.0756648 C19.8861202,36.9043905 20.0353974,36.7800509 20.2095157,36.7800509 L22.8520158,36.7800509 C23.0261341,36.7800509 23.1754113,36.9043905 23.2067525,37.0756648 L24.9025671,46.3045876 C24.923553,46.4195176 24.8875428,46.5374913 24.8059518,46.6211108 L21.7849216,49.721452 C21.7166607,49.7907058 21.6233177,49.829447 21.5260792,49.8288885 L21.5260792,49.8288885 Z M18.9016043,46.2497908 L21.5260792,48.9514137 L24.1584852,46.2490698 L22.5520758,37.5017815 L20.5094557,37.5017815 L18.9016043,46.2497908 Z" id="Shape" fill="#323C6B"></path>
                        <path d="M15.9339288,27.5532912 L27.0915522,27.5532912 L27.0915522,29.8713371 C27.0915522,32.4043038 25.0381769,34.457679 22.5052102,34.457679 L20.5202708,34.457679 C17.9873041,34.457679 15.9339288,32.4043038 15.9339288,29.8713371 L15.9339288,27.5532912 L15.9339288,27.5532912 Z" id="Path" fill="#84879C"></path>
                        <path d="M27.0555017,27.5532912 C27.5530616,25.5504769 28.503731,23.6886057 29.8342727,22.1111109 C32.6272542,18.7538726 33.1546742,14.0566606 31.1757805,10.1636188 C29.1968869,6.27057706 25.0912469,3.92842155 20.7329686,4.2062798 C15.2085932,4.54587532 10.7441018,8.62390554 10.5011216,14.1562121 C10.3735674,17.0461675 11.2828701,19.8865878 13.0650317,22.1651866 C14.4253134,23.7150748 15.4073709,25.5594867 15.9339288,27.5532912 L27.0555017,27.5532912 Z" id="Path" fill="#FCD462"></path>
                        <path d="M30.837197,16.6588364 C30.8414383,19.1785794 30.0487507,21.6351289 28.5725059,23.6771437 L28.8299063,23.6771437 C29.1180968,23.2353835 29.4310336,22.8102708 29.7672188,22.4038408 C33.5352492,17.8969281 33.0651896,11.2172677 28.7031021,7.2824859 C24.3410145,3.3477041 17.6484055,3.56634371 13.5524342,7.77744029 C15.2083546,6.57850479 17.1699661,5.87305459 19.2101964,5.74275123 C22.2249328,5.55174905 25.1843919,6.61630191 27.3866728,8.68392768 C29.5889537,10.7515534 30.837864,13.6380555 30.837197,16.6588364 L30.837197,16.6588364 Z" id="Path" fill="#F7BE56"></path>
                        <g id="Group" fill="#323C6B">
                            <path d="M27.0555017,27.913796 L15.9339288,27.913796 C15.7664465,27.913796 15.6209831,27.7985573 15.5827972,27.6354863 C15.0663884,25.6983076 14.1106047,23.9061516 12.789606,22.3980727 C10.9424224,20.0527926 10.0024652,17.1202901 10.1420588,14.1381869 C10.3893651,8.53666338 14.8351102,4.20844283 20.7127804,3.84721703 C23.8303815,3.64008306 26.8930672,4.74285894 29.1630127,6.88987748 C33.5137468,10.9803 33.9288505,17.750535 30.1104193,22.3418339 C28.8140335,23.875613 27.8885804,25.6875371 27.4059124,27.6369283 C27.3672179,27.7991643 27.2222883,27.913796 27.0555017,27.913796 L27.0555017,27.913796 Z M16.2158436,27.1927864 L26.773587,27.1927864 C27.3024506,25.2398728 28.2523805,23.4263927 29.556684,21.8796668 C32.2560411,18.633085 32.7653764,14.0918973 30.8523092,10.3279903 C28.9392419,6.56408339 24.9704868,4.29895839 20.756762,4.56606359 C15.2532958,4.90421708 11.0930705,8.94331279 10.8630684,14.1691903 C10.7422419,16.9693337 11.6199771,19.7213593 13.3397363,21.9344635 C14.6675241,23.4585518 15.6488011,25.2525988 16.2158436,27.1927864 L16.2158436,27.1927864 Z" id="Shape"></path>
                            <path d="M22.5044892,34.8181838 L20.5202708,34.8181838 C17.7895205,34.8150053 15.5766026,32.6020874 15.573424,29.8713371 L15.573424,27.5532912 C15.573424,27.3541899 15.7348275,27.1927864 15.9339288,27.1927864 L27.0915522,27.1927864 C27.2906535,27.1927864 27.452057,27.3541899 27.452057,27.5532912 L27.452057,29.8713371 C27.4488777,32.6023685 25.2355211,34.8154026 22.5044892,34.8181838 L22.5044892,34.8181838 Z M16.2944336,27.913796 L16.2944336,29.8713371 C16.2972147,32.2040496 18.1875583,34.0943932 20.5202708,34.0971742 L22.5044892,34.0971742 C24.8372017,34.0943932 26.7275453,32.2040496 26.7303264,29.8713371 L26.7303264,27.913796 L16.2944336,27.913796 Z" id="Shape"></path>
                            <path d="M21.5260792,3.01949802 C21.3269779,3.01949802 21.1655744,2.85809453 21.1655744,2.65899323 L21.1655744,0.439725722 C21.1655744,0.240624422 21.3269779,0.0792209283 21.5260792,0.0792209283 C21.7251805,0.0792209283 21.886584,0.240624422 21.886584,0.439725722 L21.886584,2.65899323 C21.886584,2.85809453 21.7251805,3.01949802 21.5260792,3.01949802 Z" id="Path"></path>
                            <path d="M15.2763681,4.64104858 C15.1475754,4.64104531 15.0285673,4.57233392 14.9641709,4.46079619 L13.8545372,2.53930564 C13.7834963,2.42755309 13.7794413,2.28584842 13.8439752,2.17021621 C13.9085091,2.054584 14.0312427,1.98363967 14.163652,1.98543188 C14.2960613,1.98722409 14.4168299,2.06146433 14.4782105,2.17880084 L15.5878442,4.1010124 C15.6522414,4.21255156 15.6522423,4.34997326 15.5878465,4.46151323 C15.5234508,4.5730532 15.4044414,4.64176959 15.2756471,4.64176959 L15.2763681,4.64104858 Z" id="Path"></path>
                            <path d="M10.6748849,9.17259384 C10.6116023,9.17259384 10.5494353,9.1559303 10.4946325,9.12428619 L8.57242095,8.01465244 C8.40146467,7.91443003 8.34345404,7.69501193 8.44254025,7.52339461 C8.54162647,7.35177729 8.76065494,7.29231249 8.93292574,7.39025814 L10.8551373,8.49628684 C10.996434,8.5778741 11.0653191,8.74419021 11.0230896,8.90179069 C10.9808601,9.05939116 10.8380451,9.16898161 10.6748849,9.16898879 L10.6748849,9.17259384 Z" id="Path"></path>
                            <path d="M8.95383502,15.3920225 L6.73456751,15.3920225 C6.53546621,15.3920225 6.37406272,15.230619 6.37406272,15.0315177 C6.37406272,14.8324164 6.53546621,14.6710129 6.73456751,14.6710129 L8.95383502,14.6710129 C9.15293632,14.6710129 9.31433981,14.8324164 9.31433981,15.0315177 C9.31433981,15.230619 9.15293632,15.3920225 8.95383502,15.3920225 Z" id="Path"></path>
                            <path d="M8.65317402,22.7513786 C8.49001386,22.7513602 8.34719881,22.6417698 8.30496931,22.4841693 C8.26273982,22.3265688 8.33162492,22.1602527 8.47292163,22.0786654 L10.3958542,20.9683107 C10.568125,20.870365 10.7871535,20.9298298 10.8862397,21.1014471 C10.9853259,21.2730645 10.9273153,21.4924826 10.756359,21.592705 L8.83631046,22.7030597 C8.78066162,22.735197 8.71743396,22.7518752 8.65317402,22.7513786 Z" id="Path"></path>
                            <path d="M27.7757903,4.64104858 C27.646996,4.64104858 27.5279866,4.57233219 27.4635908,4.46079222 C27.3991951,4.34925225 27.399196,4.21183055 27.4635931,4.10029139 L28.5732269,2.17880084 C28.6346075,2.06146433 28.755376,1.98722409 28.8877853,1.98543188 C29.0201946,1.98363967 29.1429283,2.054584 29.2074622,2.17021621 C29.2719961,2.28584842 29.267941,2.42755309 29.1969002,2.53930564 L28.0872664,4.46079619 C28.022999,4.57211116 27.9043253,4.6407881 27.7757903,4.64104858 Z" id="Path"></path>
                            <path d="M32.3772735,9.17259384 C32.2141133,9.17259384 32.0712982,9.06299621 32.0290688,8.90539573 C31.9868393,8.74779526 32.0557244,8.58147915 32.1970211,8.49989189 L34.1192326,7.39025814 C34.2915034,7.29231249 34.5105319,7.35177729 34.6096181,7.52339461 C34.7087043,7.69501193 34.6506937,7.91443003 34.4797374,8.01465244 L32.5575259,9.12140216 C32.5030042,9.15405578 32.4408195,9.17171625 32.3772735,9.17259384 Z" id="Path"></path>
                            <path d="M36.3175909,15.3920225 L34.0983233,15.3920225 C33.899222,15.3920225 33.7378186,15.230619 33.7378186,15.0315177 C33.7378186,14.8324164 33.899222,14.6710129 34.0983233,14.6710129 L36.3175909,14.6710129 C36.5166922,14.6710129 36.6780957,14.8324164 36.6780957,15.0315177 C36.6780957,15.230619 36.5166922,15.3920225 36.3175909,15.3920225 Z" id="Path"></path>
                            <path d="M34.3989843,22.7513674 C34.3357017,22.7513674 34.2735347,22.7347038 34.218732,22.7030597 L32.2957994,21.592705 C32.1248431,21.4924826 32.0668325,21.2730645 32.1659187,21.1014471 C32.2650049,20.9298298 32.4840334,20.870365 32.6563042,20.9683107 L34.5763527,22.0786654 C34.7176494,22.1602527 34.7865345,22.3265688 34.744305,22.4841693 C34.7020755,22.6417698 34.5592605,22.7513674 34.3961003,22.7513674 L34.3989843,22.7513674 Z" id="Path"></path>
                            <path d="M42.6350769,49.828894 L0.417081514,49.828894 C0.217980215,49.828894 0.056576721,49.6674789 0.056576721,49.4683776 L0.056576721,42.3065894 C0.056576721,37.8891228 2.86847901,33.961658 7.05036971,32.5383515 L16.248289,30.1373896 C16.3557788,30.1094231 16.4701592,30.1325651 16.5583231,30.2001174 L21.5260792,34.003443 L26.4289444,30.2541931 C26.5164583,30.1870601 26.6298891,30.1636833 26.7368155,30.1907443 L35.9794374,32.5296994 C40.172923,33.9472212 42.9963456,37.880001 42.9984657,42.3065894 L42.9984657,49.4683776 C42.9984657,49.5644912 42.9600915,49.6566268 42.8918587,49.7243181 C42.8236259,49.7920094 42.7311874,49.8296513 42.6350769,49.828894 L42.6350769,49.828894 Z M0.776865298,49.1078728 L42.2745721,49.1078728 L42.2745721,42.3065894 C42.2745721,38.1986363 39.6596463,34.5463378 35.7710656,33.2218686 L26.7260003,30.9326632 L21.7423821,34.7439198 C21.6131857,34.8426011 21.4339256,34.8426011 21.3047292,34.7439198 L16.2576621,30.8800295 L7.25513644,33.2283577 C3.37740434,34.5587209 0.774266497,38.2069966 0.777586308,42.3065894 L0.776865298,49.1078728 Z" id="Shape"></path>
                        </g>
                        <polygon id="Path" fill="#FFFFFF" points="27.3453476 30.0047238 21.5260792 34.457679 25.8672779 36.8853183 28.4708435 31.0473037"></polygon>
                        <path d="M25.8672779,37.2458231 C25.8057194,37.2459092 25.7451537,37.2303127 25.6913516,37.2003995 L21.3501528,34.7727602 C21.2443563,34.7135165 21.1754295,34.6050558 21.1667182,34.4841143 C21.1580069,34.3631728 21.2106783,34.2459536 21.3068923,34.1721592 L27.1254396,29.719204 C27.2648217,29.6123454 27.4609256,29.6214807 27.5897698,29.7408343 L28.7159868,30.7834142 C28.8291326,30.8882516 28.8630433,31.0534579 28.8003449,31.1943896 L26.1975003,37.0345673 C26.1561191,37.1272431 26.0775889,37.198182 25.9811974,37.2299609 C25.9443179,37.2413109 25.9058553,37.2466665 25.8672779,37.2458231 L25.8672779,37.2458231 Z M22.1807559,34.4079294 L25.6992827,36.3755645 L28.0360747,31.1338248 L27.3229963,30.472659 L22.1807559,34.4079294 Z" id="Shape" fill="#323C6B"></path>
                        <polygon id="Path" fill="#FFFFFF" points="15.7068108 30.0047238 21.5260792 34.457679 17.1848805 36.8853183 14.5813148 31.0473037"></polygon>
                        <path d="M17.1848805,37.2458237 C17.1464278,37.2458237 17.108212,37.2398049 17.071682,37.2277979 C16.9752905,37.196019 16.8967603,37.1250801 16.8553791,37.0324043 L14.2525345,31.1922266 C14.189836,31.0512948 14.2237468,30.8860886 14.3368926,30.7812512 L15.4631096,29.7386713 C15.5919538,29.6193177 15.7880577,29.6101824 15.9274397,29.717041 L21.7459871,34.1699962 C21.8422011,34.2437905 21.8948725,34.3610098 21.8861612,34.4819513 C21.8774499,34.6028928 21.8085231,34.7113535 21.7027265,34.7705972 L17.3615278,37.1982365 C17.3077166,37.2290238 17.2468751,37.2454138 17.1848805,37.2458237 L17.1848805,37.2458237 Z M15.0160836,31.1359879 L17.3528757,36.3777276 L20.8714025,34.4100924 L15.7291621,30.4755431 L15.0160836,31.1359879 Z" id="Shape" fill="#323C6B"></path>
                        <path d="M44.7981056,51.9919112 L41.8946,51.9919112 C41.6954987,51.9919112 41.5340952,51.8305077 41.5340952,51.6314064 C41.5340952,51.4323051 41.6954987,51.2709016 41.8946,51.2709016 L44.4376008,51.2709016 L44.4376008,47.5526551 C44.4376008,47.3535538 44.5990043,47.1921504 44.7981056,47.1921504 C44.9972069,47.1921504 45.1586111,47.3535538 45.1586111,47.5526551 L45.1586111,51.6306854 C45.1588019,51.726422 45.1209048,51.8183032 45.0532763,51.886067 C44.9856477,51.9538308 44.8938425,51.9919112 44.7981056,51.9919112 L44.7981056,51.9919112 Z" id="Path" fill="#323C6B"></path>
                        <path d="M44.7981056,46.3961558 C44.5990043,46.3961558 44.4376008,46.2347523 44.4376008,46.035651 L44.4376008,45.6030452 C44.4376008,45.4039439 44.5990043,45.2425404 44.7981056,45.2425404 C44.9972069,45.2425404 45.1586104,45.4039439 45.1586104,45.6030452 L45.1586104,46.035651 C45.1586104,46.2347523 44.9972069,46.3961558 44.7981056,46.3961558 Z" id="Path" fill="#323C6B"></path>
                        <path d="M12.5365317,33.1548147 L12.9345289,33.0437792 C13.0428816,33.013632 13.1587964,33.0281632 13.2563545,33.0841236 C13.3539126,33.1400841 13.4249764,33.2328058 13.4536559,33.3415562 C13.4860498,33.456746 13.4685188,33.5802482 13.4053482,33.6818727 C13.3480109,33.7717959 13.2598122,33.8376886 13.1573209,33.8671722 L12.7650917,33.9767656 C12.6166652,34.022753 12.4549734,33.9844468 12.3429541,33.8767578 C12.2309349,33.7690687 12.1862874,33.6090118 12.2263906,33.4588886 C12.2664938,33.3087654 12.3850114,33.1922956 12.5358106,33.1548147 L12.5365317,33.1548147 Z" id="Path" fill="#FFFFFF"></path>
                        <path d="M11.2012219,34.3935092 L5.83691058,35.9112344 C5.68848412,35.9572217 5.52679228,35.9189156 5.41477301,35.8112265 C5.30275375,35.7035375 5.25810629,35.5434806 5.29820951,35.3933573 C5.33831272,35.2432341 5.45683023,35.1267643 5.60762953,35.0892834 L10.9712198,33.5708372 C11.1406272,33.5242511 11.321289,33.586043 11.4266812,33.726619 C11.5320734,33.867195 11.5407391,34.0579352 11.4485282,34.2074887 C11.3906354,34.296744 11.3030311,34.3626388 11.2012219,34.3935092 L11.2012219,34.3935092 Z" id="Path" fill="#FFFFFF"></path>
                    </g>
                </g>
            </g>
        </g>
    </g>
</svg>