<?xml version="1.0" encoding="UTF-8"?>
<svg width="63px" height="61px" viewBox="0 0 63 61" version="1.1" xmlns="http://www.w3.org/2000/svg" xmlns:xlink="http://www.w3.org/1999/xlink">
    <title>Group 22</title>
    <g id="Page-1" stroke="none" stroke-width="1" fill="none" fill-rule="evenodd">
        <g id="Layout-2.3-Copy" transform="translate(-566.000000, -3254.000000)">
            <g id="Group-22" transform="translate(566.000000, 3254.000000)">
                <circle id="Oval" fill-opacity="0.279092002" fill="#ABAEEF" cx="36" cy="34" r="27"></circle>
                <g id="Group" fill-rule="nonzero">
                    <g id="technology-(1)" transform="translate(5.000000, 5.000000)">
                        <path d="M39.9723151,12.7368627 L1.62768244,12.7368627 C1.44543483,12.7368627 1.29752373,12.5889516 1.29752373,12.406704 C1.29752373,12.2244564 1.44543483,12.0765453 1.62768244,12.0765453 L39.9723151,12.0765453 C40.1545627,12.0765453 40.3024738,12.2244564 40.3024738,12.406704 C40.3024738,12.5889516 40.1545627,12.7368627 39.9723151,12.7368627 Z" id="Path" fill="#000000"></path>
                        <path d="M39.9723151,21.1301575 L1.62768244,21.1301575 C1.44543483,21.1301575 1.29752373,20.9822464 1.29752373,20.7999988 C1.29752373,20.6177512 1.44543483,20.46984 1.62768244,20.46984 L39.9723151,20.46984 C40.1545627,20.46984 40.3024738,20.6177512 40.3024738,20.7999988 C40.3024738,20.9822464 40.1545627,21.1301575 39.9723151,21.1301575 Z" id="Path" fill="#000000"></path>
                        <path d="M39.9723151,29.5234522 L1.62768244,29.5234522 C1.44543483,29.5234522 1.29752373,29.3755411 1.29752373,29.1932935 C1.29752373,29.0110459 1.44543483,28.8631348 1.62768244,28.8631348 L39.9723151,28.8631348 C40.1545627,28.8631348 40.3024738,29.0110459 40.3024738,29.1932935 C40.3024738,29.3755411 40.1545627,29.5234522 39.9723151,29.5234522 Z" id="Path" fill="#000000"></path>
                        <path d="M29.1934586,40.3023087 C29.011211,40.3023087 28.8632999,40.1543976 28.8632999,39.97215 L28.8632999,1.62784752 C28.8632999,1.44559991 29.011211,1.29768881 29.1934586,1.29768881 C29.3757062,1.29768881 29.5236173,1.44559991 29.5236173,1.62784752 L29.5236173,39.97215 C29.5236173,40.1545627 29.3757062,40.3023087 29.1934586,40.3023087 Z" id="Path" fill="#000000"></path>
                        <path d="M20.7999988,40.3023087 C20.6177512,40.3023087 20.46984,40.1543976 20.46984,39.97215 L20.46984,1.62784752 C20.46984,1.44559991 20.6177512,1.29768881 20.7999988,1.29768881 C20.9822464,1.29768881 21.1301575,1.44559991 21.1301575,1.62784752 L21.1301575,39.97215 C21.1301575,40.1545627 20.9822464,40.3023087 20.7999988,40.3023087 Z" id="Path" fill="#000000"></path>
                        <path d="M12.4065389,40.3023087 C12.2242913,40.3023087 12.0763802,40.1543976 12.0763802,39.97215 L12.0763802,1.62784752 C12.0763802,1.44559991 12.2242913,1.29768881 12.4065389,1.29768881 C12.5887866,1.29768881 12.7366977,1.44559991 12.7366977,1.62784752 L12.7366977,39.97215 C12.7366977,40.1545627 12.5889516,40.3023087 12.4065389,40.3023087 Z" id="Path" fill="#000000"></path>
                        <path d="M31.4005696,33.0175218 L10.199428,33.0175218 C9.30634865,33.0175218 8.5823106,32.2934838 8.5823106,31.4004045 L8.5823106,10.199428 C8.5823106,9.30634865 9.30634865,8.5823106 10.199428,8.5823106 L31.4005696,8.5823106 C32.2936489,8.5823106 33.0176869,9.30634865 33.0176869,10.199428 L33.0176869,31.4005696 C33.0176869,32.2936489 32.2936489,33.0175218 31.4005696,33.0175218 Z" id="Path" fill="#526FAA"></path>
                        <circle id="Oval" fill="#FCC24C" cx="12.406704" cy="1.62784752" r="1.29768881"></circle>
                        <circle id="Oval" fill="#FCC24C" cx="29.1932935" cy="1.62784752" r="1.29768881"></circle>
                        <circle id="Oval" fill="#FCC24C" cx="12.406704" cy="39.97215" r="1.29768881"></circle>
                        <circle id="Oval" fill="#FCC24C" cx="29.1932935" cy="39.97215" r="1.29768881"></circle>
                        <circle id="Oval" fill="#FCC24C" cx="39.97215" cy="12.406704" r="1.29768881"></circle>
                        <circle id="Oval" fill="#FCC24C" cx="39.97215" cy="29.1932935" r="1.29768881"></circle>
                        <circle id="Oval" fill="#FCC24C" cx="1.62784752" cy="12.406704" r="1.29768881"></circle>
                        <circle id="Oval" fill="#FCC24C" cx="1.62784752" cy="29.1932935" r="1.29768881"></circle>
                        <path d="M31.4005696,8.5823106 L29.749776,8.5823106 C30.6428553,8.5823106 31.3668934,9.30634865 31.3668934,10.199428 L31.3668934,31.4005696 C31.3668934,32.2936489 30.6428553,33.0176869 29.749776,33.0176869 L31.4005696,33.0176869 C32.2936489,33.0176869 33.0176869,32.2936489 33.0176869,31.4005696 L33.0176869,10.199428 C33.0175218,9.30634865 32.2936489,8.5823106 31.4005696,8.5823106 Z" id="Path" fill="#34518C"></path>
                        <path d="M10.199428,33.0175218 L11.8502215,33.0175218 C10.9571422,33.0175218 10.2331042,32.2934838 10.2331042,31.4004045 L10.2331042,10.199428 C10.2331042,9.30634865 10.9571422,8.5823106 11.8502215,8.5823106 L10.199428,8.5823106 C9.30634865,8.5823106 8.5823106,9.30634865 8.5823106,10.199428 L8.5823106,31.4005696 C8.5823106,32.2936489 9.30634865,33.0175218 10.199428,33.0175218 Z" id="Path" fill="#708DC8"></path>
                        <path d="M27.5763412,29.1932935 L14.0236563,29.1932935 C13.130577,29.1932935 12.4065389,28.4692554 12.4065389,27.5761761 L12.4065389,14.0236563 C12.4065389,13.130577 13.130577,12.4065389 14.0236563,12.4065389 L27.5761761,12.4065389 C28.4692554,12.4065389 29.1932935,13.130577 29.1932935,14.0236563 L29.1932935,27.5761761 C29.1932935,28.4694205 28.4694205,29.1932935 27.5763412,29.1932935 Z" id="Path" fill="#F4EFED"></path>
                        <path d="M31.4005696,33.3478456 L10.199428,33.3478456 C9.12575184,33.3478456 8.25215189,32.4742457 8.25215189,31.4005696 L8.25215189,10.199428 C8.25215189,9.12575184 9.12575184,8.25215189 10.199428,8.25215189 L31.4005696,8.25215189 C32.4742457,8.25215189 33.3478456,9.12575184 33.3478456,10.199428 L33.3478456,31.4005696 C33.3478456,32.4742457 32.4742457,33.3478456 31.4005696,33.3478456 Z M10.199428,8.91246931 C9.48975182,8.91246931 8.91246931,9.48975182 8.91246931,10.199428 L8.91246931,31.4005696 C8.91246931,32.1102457 9.48975182,32.6875282 10.199428,32.6875282 L31.4005696,32.6875282 C32.1102457,32.6875282 32.6875282,32.1102457 32.6875282,31.4005696 L32.6875282,10.199428 C32.6875282,9.48975182 32.1102457,8.91246931 31.4005696,8.91246931 L10.199428,8.91246931 Z" id="Shape" fill="#000000"></path>
                        <path d="M10.0680248,16.8983482 C9.88577719,16.8983482 9.73786609,16.7504371 9.73786609,16.5681895 L9.73786609,14.5872372 C9.73786609,14.4049896 9.88577719,14.2570785 10.0680248,14.2570785 C10.2502724,14.2570785 10.3981835,14.4049896 10.3981835,14.5872372 L10.3981835,16.5681895 C10.3981835,16.7506022 10.2504375,16.8983482 10.0680248,16.8983482 L10.0680248,16.8983482 Z" id="Path" fill="#000000"></path>
                        <path d="M27.5763412,29.5234522 L14.0236563,29.5234522 C12.9499802,29.5234522 12.0763802,28.6498523 12.0763802,27.5763412 L12.0763802,14.0236563 C12.0763802,12.9499802 12.9499802,12.0765453 14.0236563,12.0765453 L27.5763412,12.0765453 C28.6500173,12.0765453 29.5236173,12.9501453 29.5236173,14.0236563 L29.5236173,27.5763412 C29.5236173,28.6500173 28.6500173,29.5234522 27.5763412,29.5234522 L27.5763412,29.5234522 Z M14.0236563,12.7368627 C13.3139802,12.7368627 12.7366977,13.3141452 12.7366977,14.0236563 L12.7366977,27.5763412 C12.7366977,28.2858523 13.3139802,28.8631348 14.0236563,28.8631348 L27.5763412,28.8631348 C28.2860174,28.8631348 28.8632999,28.2858523 28.8632999,27.5763412 L28.8632999,14.0236563 C28.8632999,13.3141452 28.2860174,12.7368627 27.5763412,12.7368627 L14.0236563,12.7368627 Z" id="Shape" fill="#000000"></path>
                        <path d="M12.4065389,3.25552996 C11.5088374,3.25552996 10.7788565,2.52538398 10.7788565,1.62784752 C10.7788565,0.730145988 11.5090025,0 12.4065389,0 C13.3040754,0 14.0343865,0.730145988 14.0343865,1.62784752 C14.0345515,2.52538398 13.3042405,3.25552996 12.4065389,3.25552996 Z M12.4065389,0.660317421 C11.8731675,0.660317421 11.4391739,1.09431105 11.4391739,1.62784752 C11.4391739,2.161384 11.8731675,2.59521254 12.4065389,2.59521254 C12.9400754,2.59521254 13.374069,2.16121892 13.374069,1.62784752 C13.374069,1.09447613 12.9402405,0.660317421 12.4065389,0.660317421 Z" id="Shape" fill="#000000"></path>
                        <path d="M29.1934586,3.25552996 C28.295757,3.25552996 27.5656111,2.52538398 27.5656111,1.62784752 C27.5656111,0.730145988 28.2959221,0 29.1934586,0 C30.090995,0 30.821141,0.730145988 30.821141,1.62784752 C30.821141,2.52538398 30.090995,3.25552996 29.1934586,3.25552996 L29.1934586,3.25552996 Z M29.1934586,0.660317421 C28.6599221,0.660317421 28.2259285,1.09431105 28.2259285,1.62784752 C28.2259285,2.161384 28.6599221,2.59521254 29.1934586,2.59521254 C29.72683,2.59521254 30.1608236,2.16121892 30.1608236,1.62784752 C30.1608236,1.09447613 29.72683,0.660317421 29.1934586,0.660317421 Z" id="Shape" fill="#000000"></path>
                        <path d="M12.4065389,41.5999975 C11.5088374,41.5999975 10.7788565,40.8698515 10.7788565,39.97215 C10.7788565,39.0746135 11.5090025,38.3444676 12.4065389,38.3444676 C13.3040754,38.3444676 14.0343865,39.0746135 14.0343865,39.97215 C14.0345515,40.8698515 13.3042405,41.5999975 12.4065389,41.5999975 Z M12.4065389,39.004785 C11.8731675,39.004785 11.4391739,39.4387786 11.4391739,39.97215 C11.4391739,40.5055214 11.8731675,40.9396801 12.4065389,40.9396801 C12.9400754,40.9396801 13.374069,40.5056865 13.374069,39.97215 C13.374069,39.4386135 12.9402405,39.004785 12.4065389,39.004785 Z" id="Shape" fill="#000000"></path>
                        <path d="M29.1934586,41.5999975 C28.295757,41.5999975 27.5656111,40.8698515 27.5656111,39.97215 C27.5656111,39.0746135 28.2959221,38.3444676 29.1934586,38.3444676 C30.090995,38.3444676 30.821141,39.0746135 30.821141,39.97215 C30.821141,40.8698515 30.090995,41.5999975 29.1934586,41.5999975 L29.1934586,41.5999975 Z M29.1934586,39.004785 C28.6599221,39.004785 28.2259285,39.4387786 28.2259285,39.97215 C28.2259285,40.5055214 28.6599221,40.9396801 29.1934586,40.9396801 C29.72683,40.9396801 30.1608236,40.5056865 30.1608236,39.97215 C30.1608236,39.4386135 29.72683,39.004785 29.1934586,39.004785 Z" id="Shape" fill="#000000"></path>
                        <path d="M39.9723151,14.0343865 C39.0746135,14.0343865 38.3444676,13.3042405 38.3444676,12.406704 C38.3444676,11.5090025 39.0747786,10.7788565 39.9723151,10.7788565 C40.8698515,10.7788565 41.5999975,11.5090025 41.5999975,12.406704 C41.5999975,13.3042405 40.8698515,14.0343865 39.9723151,14.0343865 Z M39.9723151,11.4391739 C39.4387786,11.4391739 39.004785,11.8731675 39.004785,12.406704 C39.004785,12.9402405 39.4387786,13.374069 39.9723151,13.374069 C40.5056865,13.374069 40.9396801,12.9400754 40.9396801,12.406704 C40.9396801,11.8733326 40.5056865,11.4391739 39.9723151,11.4391739 Z" id="Shape" fill="#000000"></path>
                        <path d="M39.9723151,30.821141 C39.0746135,30.821141 38.3444676,30.090995 38.3444676,29.1932935 C38.3444676,28.295757 39.0747786,27.5656111 39.9723151,27.5656111 C40.8698515,27.5656111 41.5999975,28.295757 41.5999975,29.1932935 C41.5999975,30.090995 40.8698515,30.821141 39.9723151,30.821141 L39.9723151,30.821141 Z M39.9723151,28.2259285 C39.4387786,28.2259285 39.004785,28.6599221 39.004785,29.1932935 C39.004785,29.7266649 39.4387786,30.1608236 39.9723151,30.1608236 C40.5056865,30.1608236 40.9396801,29.72683 40.9396801,29.1932935 C40.9396801,28.659757 40.5056865,28.2259285 39.9723151,28.2259285 Z" id="Shape" fill="#000000"></path>
                        <path d="M1.62768244,14.0343865 C0.729980909,14.0343865 0,13.3042405 0,12.406704 C0,11.5090025 0.730145988,10.7788565 1.62768244,10.7788565 C2.5252189,10.7788565 3.25552999,11.5090025 3.25552999,12.406704 C3.25569504,13.3042405 2.52538398,14.0343865 1.62768244,14.0343865 Z M1.62768244,11.4391739 C1.09431105,11.4391739 0.660317421,11.8731675 0.660317421,12.406704 C0.660317421,12.9402405 1.09431105,13.374069 1.62768244,13.374069 C2.16121892,13.374069 2.59521254,12.9400754 2.59521254,12.406704 C2.59521254,11.8733326 2.161384,11.4391739 1.62768244,11.4391739 Z" id="Shape" fill="#000000"></path>
                        <path d="M1.62768244,30.821141 C0.729980909,30.821141 0,30.090995 0,29.1932935 C0,28.295757 0.730145988,27.5656111 1.62768244,27.5656111 C2.5252189,27.5656111 3.25552999,28.295757 3.25552999,29.1932935 C3.25569504,30.090995 2.52538398,30.821141 1.62768244,30.821141 L1.62768244,30.821141 Z M1.62768244,28.2259285 C1.09431105,28.2259285 0.660317421,28.6599221 0.660317421,29.1932935 C0.660317421,29.7266649 1.09431105,30.1608236 1.62768244,30.1608236 C2.16121892,30.1608236 2.59521254,29.72683 2.59521254,29.1932935 C2.59521254,28.659757 2.161384,28.2259285 1.62768244,28.2259285 Z" id="Shape" fill="#000000"></path>
                        <path d="M25.2774461,18.813929 C25.2774461,16.2830974 23.1774716,14.2425515 20.6250146,14.3399484 C18.3054846,14.4284309 16.4151609,16.3179292 16.3260181,18.6376243 C16.2528879,20.5413194 17.3689894,22.1924431 18.990729,22.9097129 C19.3139544,23.0526716 19.5244306,23.3702843 19.5244306,23.7237192 L19.5244306,25.9521254 C19.5244306,26.6390206 20.0521893,27.2298396 20.7382591,27.2621952 C21.4707162,27.2966968 22.0754019,26.7129762 22.0754019,25.9881127 L22.0754019,23.7235541 C22.0754019,23.3711097 22.2842272,23.0531669 22.6066272,22.9108685 C24.1795033,22.2162145 25.2774461,20.6436686 25.2774461,18.813929 Z" id="Path" fill="#FCC24C"></path>
                        <path d="M20.8011543,27.5936745 C20.7750718,27.5936745 20.7489892,27.5931793 20.7227416,27.5918587 C19.8656496,27.5514142 19.1942719,26.831173 19.1942719,25.9519604 L19.1942719,23.7233891 C19.1942719,23.5030081 19.0618782,23.3019415 18.8570147,23.2113129 C17.0429577,22.4090272 15.9197578,20.6085067 15.9958594,18.624583 C16.0917705,16.1317197 18.1194402,14.1047103 20.6123035,14.0096246 C21.9307923,13.9596055 23.1835796,14.4351991 24.1337763,15.3497388 C25.0841382,16.2646086 25.6076048,17.4947799 25.6076048,18.8135989 C25.6076048,20.7166337 24.4820938,22.4431987 22.7400113,23.2123034 C22.5369637,23.3019415 22.4057256,23.5025129 22.4057256,23.7230589 L22.4057256,25.9876175 C22.4057256,26.4308556 22.2290907,26.843554 21.9081765,27.1496111 C21.6065765,27.4376746 21.2159987,27.5936745 20.8011543,27.5936745 L20.8011543,27.5936745 Z M20.8013194,14.6666404 C20.7468432,14.6666404 20.692367,14.6676309 20.6375607,14.6697769 C18.4875672,14.7518213 16.7385514,16.5001768 16.6558466,18.6501703 C16.5903101,20.3620432 17.5591609,21.91544 19.1242782,22.6076177 C19.5680115,22.8038971 19.8547544,23.2418526 19.8547544,23.7235541 L19.8547544,25.9521254 C19.8547544,26.4693191 20.2580432,26.9090905 20.7537765,26.9323666 C21.0141067,26.9449127 21.2635416,26.8523032 21.4523924,26.6722016 C21.6412432,26.4921 21.7452431,26.2491032 21.7452431,25.9881127 L21.7452431,23.7235541 C21.7452431,23.2416875 22.0308304,22.8042272 22.473078,22.6087733 C23.9759605,21.9451542 24.9471223,20.4558083 24.9471223,18.8140941 C24.9471223,17.6763672 24.4956303,16.615072 23.6756811,15.8258276 C22.8956812,15.0747166 21.8802781,14.6666404 20.8013194,14.6666404 L20.8013194,14.6666404 Z" id="Shape" fill="#690589"></path>
                        <path d="M19.5244306,23.7235541 L19.5244306,25.9519604 C19.5244306,26.6388556 20.0521893,27.2296746 20.7382591,27.2620301 C21.4707162,27.2965317 22.0754019,26.7128111 22.0754019,25.9879477 L22.0754019,23.7235541 L19.5244306,23.7235541 Z" id="Path" fill="#8852A8"></path>
                        <path d="M20.8013194,27.5936745 C20.7752369,27.5936745 20.7491543,27.5931793 20.7229067,27.5918587 C19.8658147,27.5515793 19.1942719,26.831173 19.1942719,25.9519604 L19.1942719,23.7235541 C19.1942719,23.5413065 19.342183,23.3933954 19.5244306,23.3933954 L22.0754019,23.3933954 C22.2576495,23.3933954 22.4055606,23.5413065 22.4055606,23.7235541 L22.4055606,25.9879477 C22.4055606,26.4311857 22.2289257,26.8438841 21.9080114,27.1499412 C21.6065765,27.4376746 21.2159987,27.5936745 20.8013194,27.5936745 L20.8013194,27.5936745 Z M19.8545893,24.0537129 L19.8545893,25.9519604 C19.8545893,26.469154 20.2578782,26.9089254 20.7537765,26.9322016 C21.0160876,26.9452428 21.2637067,26.8521381 21.4522273,26.6720365 C21.6412432,26.4917698 21.7450781,26.2489381 21.7450781,25.9877826 L21.7450781,24.0537129 L19.8545893,24.0537129 Z" id="Shape" fill="#690589"></path>
                        <path d="M21.9588558,25.6617509 L19.6411417,25.6617509 C19.4588941,25.6617509 19.310983,25.5138397 19.310983,25.3315921 C19.310983,25.1493445 19.4588941,25.0014334 19.6411417,25.0014334 L21.9586908,25.0014334 C22.1409384,25.0014334 22.2888495,25.1493445 22.2888495,25.3315921 C22.2888495,25.5138397 22.1411034,25.6617509 21.9588558,25.6617509 Z" id="Path" fill="#690589"></path>
                        <path d="M25.2774461,18.813929 C25.2774461,16.2830974 23.1774716,14.2425515 20.6250146,14.3399484 C18.3054846,14.4284309 16.4151609,16.3179292 16.3260181,18.6376243 C16.2528879,20.5413194 17.3689894,22.1924431 18.990729,22.9097129 C19.3139544,23.0526716 19.5244306,23.3702843 19.5244306,23.7237192 L19.5244306,25.9521254 C19.5244306,26.6390206 20.0521893,27.2298396 20.7382591,27.2621952 C21.4707162,27.2966968 22.0754019,26.7129762 22.0754019,25.9881127 L22.0754019,23.7235541 C22.0754019,23.3711097 22.2842272,23.0531669 22.6066272,22.9108685 C24.1795033,22.2162145 25.2774461,20.6436686 25.2774461,18.813929 Z" id="Path" fill="#FCC24C"></path>
                        <path d="M20.8011543,27.5936745 C20.7750718,27.5936745 20.7489892,27.5931793 20.7227416,27.5918587 C19.8656496,27.5514142 19.1942719,26.831173 19.1942719,25.9519604 L19.1942719,23.7233891 C19.1942719,23.5030081 19.0618782,23.3019415 18.8570147,23.2113129 C17.0429577,22.4090272 15.9197578,20.6085067 15.9958594,18.624583 C16.0917705,16.1317197 18.1194402,14.1047103 20.6123035,14.0096246 C21.9307923,13.9596055 23.1835796,14.4351991 24.1337763,15.3497388 C25.0841382,16.2646086 25.6076048,17.4947799 25.6076048,18.8135989 C25.6076048,20.7166337 24.4820938,22.4431987 22.7400113,23.2123034 C22.5369637,23.3019415 22.4057256,23.5025129 22.4057256,23.7230589 L22.4057256,25.9876175 C22.4057256,26.4308556 22.2290907,26.843554 21.9081765,27.1496111 C21.6065765,27.4376746 21.2159987,27.5936745 20.8011543,27.5936745 L20.8011543,27.5936745 Z M20.8013194,14.6666404 C20.7468432,14.6666404 20.692367,14.6676309 20.6375607,14.6697769 C18.4875672,14.7518213 16.7385514,16.5001768 16.6558466,18.6501703 C16.5903101,20.3620432 17.5591609,21.91544 19.1242782,22.6076177 C19.5680115,22.8038971 19.8547544,23.2418526 19.8547544,23.7235541 L19.8547544,25.9521254 C19.8547544,26.4693191 20.2580432,26.9090905 20.7537765,26.9323666 C21.0141067,26.9449127 21.2635416,26.8523032 21.4523924,26.6722016 C21.6412432,26.4921 21.7452431,26.2491032 21.7452431,25.9881127 L21.7452431,23.7235541 C21.7452431,23.2416875 22.0308304,22.8042272 22.473078,22.6087733 C23.9759605,21.9451542 24.9471223,20.4558083 24.9471223,18.8140941 C24.9471223,17.6763672 24.4956303,16.615072 23.6756811,15.8258276 C22.8956812,15.0747166 21.8802781,14.6666404 20.8013194,14.6666404 L20.8013194,14.6666404 Z" id="Shape" fill="#000000"></path>
                        <path d="M19.5244306,23.7235541 L19.5244306,25.9519604 C19.5244306,26.6388556 20.0521893,27.2296746 20.7382591,27.2620301 C21.4707162,27.2965317 22.0754019,26.7128111 22.0754019,25.9879477 L22.0754019,23.7235541 L19.5244306,23.7235541 Z" id="Path" fill="#000000"></path>
                        <path d="M20.8013194,27.5936745 C20.7752369,27.5936745 20.7491543,27.5931793 20.7229067,27.5918587 C19.8658147,27.5515793 19.1942719,26.831173 19.1942719,25.9519604 L19.1942719,23.7235541 C19.1942719,23.5413065 19.342183,23.3933954 19.5244306,23.3933954 L22.0754019,23.3933954 C22.2576495,23.3933954 22.4055606,23.5413065 22.4055606,23.7235541 L22.4055606,25.9879477 C22.4055606,26.4311857 22.2289257,26.8438841 21.9080114,27.1499412 C21.6065765,27.4376746 21.2159987,27.5936745 20.8013194,27.5936745 L20.8013194,27.5936745 Z M19.8545893,24.0537129 L19.8545893,25.9519604 C19.8545893,26.469154 20.2578782,26.9089254 20.7537765,26.9322016 C21.0160876,26.9452428 21.2637067,26.8521381 21.4522273,26.6720365 C21.6412432,26.4917698 21.7450781,26.2489381 21.7450781,25.9877826 L21.7450781,24.0537129 L19.8545893,24.0537129 Z" id="Shape" fill="#1C1C1C"></path>
                        <path d="M21.9588558,25.6617509 L19.6411417,25.6617509 C19.4588941,25.6617509 19.310983,25.5138397 19.310983,25.3315921 C19.310983,25.1493445 19.4588941,25.0014334 19.6411417,25.0014334 L21.9586908,25.0014334 C22.1409384,25.0014334 22.2888495,25.1493445 22.2888495,25.3315921 C22.2888495,25.5138397 22.1411034,25.6617509 21.9588558,25.6617509 Z" id="Path" fill="#690589"></path>
                    </g>
                </g>
            </g>
        </g>
    </g>
</svg>