<?xml version="1.0" encoding="UTF-8"?>
<svg width="63px" height="61px" viewBox="0 0 63 61" version="1.1" xmlns="http://www.w3.org/2000/svg" xmlns:xlink="http://www.w3.org/1999/xlink">
    <title>Group 19</title>
    <g id="Page-1" stroke="none" stroke-width="1" fill="none" fill-rule="evenodd">
        <g id="Layout-2.3-Copy" transform="translate(-971.000000, -2958.000000)">
            <g id="Group-19" transform="translate(971.000000, 2958.000000)">
                <circle id="Oval" fill-opacity="0.279092002" fill="#ABAEEF" cx="36" cy="34" r="27"></circle>
                <g id="Group" fill-rule="nonzero">
                    <g id="idea" transform="translate(10.000000, 0.000000)">
                        <path d="M0.464665491,22.3038252 C0.496576333,25.85679 1.76679766,29.2873519 4.05644381,32.0043535 C5.96556067,34.1793936 7.34389558,36.7677904 8.08299243,39.5658724 L23.5097636,39.5658724 C24.2739245,36.7437275 25.6691313,34.1320207 27.5900905,31.9278521 C29.8438889,29.2237298 31.0940206,25.8238638 31.128848,22.3038252 L0.464665491,22.3038252 Z" id="Path" fill="#FCD462"></path>
                        <path d="M31.1273331,22.3045826 C31.0918249,25.8228585 29.8423057,29.2209088 27.5900905,31.9240649 C25.6706748,34.1313731 24.2750306,36.7439982 23.5074913,39.5666299 L21.0003664,39.5666299 C21.7648827,36.7427985 23.1608719,34.1295274 25.0829656,31.9240649 C27.3351808,29.2209088 28.5847,25.8228585 28.6202083,22.3045826 L31.1273331,22.3045826 Z" id="Path" fill="#F7BE56"></path>
                        <path d="M19.6051628,48.7619459 L18.9598243,50.6517576 C18.7744362,51.1846431 18.2734943,51.5429789 17.7092916,51.5462937 L13.8849793,51.5462937 C13.3201879,51.5448005 12.8183009,51.1857887 12.6344467,50.6517576 L11.9883507,48.7619459" id="Path" fill="#707583"></path>
                        <path d="M17.7085342,51.9234987 L13.8849793,51.9234987 C13.1576031,51.9237026 12.5106431,51.4612404 12.2754203,50.7729479 L11.6308393,48.8838937 C11.5827517,48.754772 11.6085852,48.6097212 11.698295,48.5051412 C11.7880048,48.4005612 11.9274347,48.3529545 12.0623705,48.3808321 C12.1973063,48.4087096 12.3064553,48.5076724 12.3473771,48.6392407 L12.9927156,50.5290524 C13.1232213,50.9105214 13.481804,51.1668258 13.8849793,51.1668165 L17.7085342,51.1668165 C18.1122734,51.1631447 18.4700922,50.9060004 18.6023128,50.5245078 L19.2468939,48.6392407 C19.2878157,48.5076724 19.3969646,48.4087096 19.5319004,48.3808321 C19.6668362,48.3529545 19.8062662,48.4005612 19.895976,48.5051412 C19.9856858,48.6097212 20.0115193,48.754772 19.9634317,48.8838937 L19.3173358,50.7737054 C19.0780989,51.4585631 18.4339605,51.9189218 17.7085342,51.9234987 L17.7085342,51.9234987 Z" id="Path" fill="#323C6B"></path>
                        <path d="M15.7967568,22.3038252 L15.7967568,9.93105024 C15.8259726,8.6602368 14.8330471,7.5996348 13.5630675,7.54511568 L13.5365572,7.54511568 C12.1351622,7.5624496 10.9204192,8.51957636 10.575726,9.87802947 C10.0941985,9.53816611 9.51919572,9.35584815 8.92980984,9.35615363 C7.16202586,9.42236232 5.77698484,10.899289 5.82430771,12.6676793 C5.82286808,13.0213589 5.88336681,13.3725592 6.00306344,13.7053715 C4.37715615,13.9303268 3.18104141,15.3428192 3.22704751,16.9835698 C3.22476977,17.3487017 3.28734619,17.7113372 3.41186276,18.0545894 C2.44108865,18.6630914 1.85402734,19.7303453 1.85982594,20.8760517 C1.85850036,21.3688782 1.96447243,21.8560912 2.17041935,22.3038252 L15.7967568,22.3038252 Z" id="Path" fill="#E87A72"></path>
                        <path d="M15.7967568,22.682548 L2.16966191,22.682548 C2.02184349,22.682548 1.88757244,22.5964153 1.82578435,22.4621301 C1.59651773,21.9649004 1.47863908,21.4235893 1.48033626,20.8760517 C1.47396008,19.7032189 2.02531409,18.597137 2.96573087,17.8962845 C2.88689471,17.5982231 2.84742485,17.2911222 2.84832774,16.9828124 C2.8104366,15.3165756 3.91469813,13.8396415 5.52360421,13.404668 C5.47264151,13.1620757 5.44725474,12.9148086 5.44786026,12.6669219 C5.39520274,10.6873631 6.95276372,9.03770287 8.93208216,8.97667642 C9.43138915,8.9778622 9.92375488,9.09369771 10.3712173,9.31525189 C10.900446,8.02864344 12.146972,7.18252032 13.538072,7.16563846 C15.0287618,7.20367259 16.2083342,8.4394473 16.1769914,9.9302928 L16.1769914,22.3038252 C16.1769922,22.404531 16.1368836,22.5010901 16.0655319,22.5721575 C15.9941802,22.643225 15.8974617,22.6829478 15.7967568,22.682548 L15.7967568,22.682548 Z M2.4203744,21.9251054 L15.418037,21.9251054 L15.418037,9.9302928 C15.4527022,8.86565798 14.6249146,7.97102617 13.5607952,7.92307801 C12.3231592,7.93840305 11.2496958,8.7820825 10.9423267,9.98104125 C10.9097677,10.1004071 10.8209545,10.1963425 10.7044495,10.2379945 C10.5879446,10.2796465 10.4584395,10.2617627 10.3575834,10.1900946 C9.94021531,9.89553249 9.44216861,9.73683466 8.93132472,9.73563084 C7.3702612,9.79642557 6.15167314,11.1070847 6.20454236,12.6684368 C6.20201068,12.9779 6.25326899,13.2854498 6.35603027,13.5773642 C6.39610316,13.686911 6.38345943,13.8088123 6.32175683,13.9078027 C6.26005424,14.0067932 6.15617766,14.0718274 6.04017798,14.0840913 C4.60549695,14.2847508 3.55353324,15.5357346 3.60198009,16.9835698 C3.60007669,17.304011 3.6549553,17.6222557 3.76407215,17.9235523 C3.82643103,18.0937665 3.75942643,18.2843009 3.6042524,18.378016 C2.74839137,18.920435 2.23098119,19.864301 2.23403074,20.8775665 C2.23436115,21.2350944 2.29795708,21.5897443 2.42188927,21.9251054 L2.4203744,21.9251054 Z" id="Shape" fill="#323C6B"></path>
                        <path d="M15.7967568,22.3038252 L15.7967568,9.93105024 C15.7690683,8.66310966 16.7575301,7.60440355 18.0243865,7.54511568 L18.0577138,7.54511568 C19.4582373,7.56077869 20.6719083,8.51926757 21.011728,9.87802947 C21.4937001,9.53906252 22.0684114,9.35683696 22.6576442,9.35615363 C24.4390969,9.42354673 25.8308075,10.9185351 25.7707207,12.7002492 C25.7681384,13.0405297 25.7171308,13.37871 25.6192328,13.7046141 C27.2291853,13.9496186 28.4048998,15.3548913 28.3619214,16.9828124 C28.3674579,17.3482058 28.3047806,17.7114255 28.1771061,18.0538319 C29.1586528,18.6660127 29.749811,19.745831 29.7366741,20.902562 C29.7351828,21.3857409 29.6319507,21.8631893 29.4336983,22.3038252 L15.7967568,22.3038252 Z" id="Path" fill="#E87A72"></path>
                        <path d="M29.7412188,20.9033195 C29.7391723,21.3872488 29.63327,21.8651006 29.4306686,22.3045826 L28.3551044,22.3045826 C28.3240524,21.2037895 27.7402413,20.1927995 26.8023533,19.6156723 C26.9325859,19.2748932 26.9968467,18.9124626 26.9917132,18.5476825 C27.0372257,16.9188468 25.8609053,15.5118116 24.2497821,15.2679693 C24.3467325,14.940817 24.3977167,14.6017717 24.40127,14.2605747 C24.4600647,12.480001 23.0684927,10.9868544 21.2881935,10.9202663 C20.6971227,10.9204257 20.1204936,11.1029368 19.6369752,11.4428996 C19.2978639,10.08368 18.0837655,9.12485363 16.682961,9.10998578 L16.6526634,9.10998578 C16.3926331,9.10972441 16.1351513,9.16122077 15.8952239,9.26147368 C16.1432639,8.27871856 17.0106914,7.57798536 18.023629,7.54208592 L18.061501,7.54208592 C19.4612771,7.55986041 20.6738147,8.51745419 21.0155152,9.87499972 C21.4978488,9.53840088 22.0710008,9.35615437 22.659159,9.35236643 C24.44083,9.42260304 25.8315135,10.91818 25.7722356,12.7002492 C25.7686823,13.0414462 25.717698,13.3804915 25.6207477,13.7076438 C27.2294648,13.9502024 28.4053269,15.3534411 28.3626788,16.9797826 C28.3671709,17.346312 28.3055922,17.7106525 28.1808933,18.0553468 C29.1621629,18.6675194 29.753481,19.7468183 29.7412188,20.9033195 L29.7412188,20.9033195 Z" id="Path" fill="#D66E6B"></path>
                        <g id="Group" transform="translate(5.950043, 0.000000)" fill="#323C6B">
                            <path d="M4.98016501,14.6014231 L4.94153559,14.6014231 C4.84159047,14.5912887 4.7497663,14.5418612 4.68626888,14.4640165 C4.62277146,14.3861718 4.59280375,14.2862884 4.60296011,14.1863456 C4.62827775,13.6849083 4.86806006,13.2185883 5.26117508,12.9062728 C5.70159399,12.6124962 6.23651333,12.4953981 6.7593905,12.5783015 C6.96541423,12.6146955 7.10292626,12.8112139 7.06653222,13.0172377 C7.03013818,13.2232614 6.83361975,13.3607734 6.62759602,13.3243794 C6.31026404,13.2764501 5.98625434,13.3436163 5.71412393,13.5137393 C5.49355983,13.701265 5.36372464,13.974167 5.3573699,14.2636044 C5.33646162,14.4560704 5.17376294,14.6017804 4.98016501,14.6014231 L4.98016501,14.6014231 Z" id="Path"></path>
                            <path d="M2.87827027,17.92128 C2.76315447,17.9215304 2.6541738,17.8694092 2.58211141,17.7796388 C2.37635812,17.5336372 2.08894395,17.3698998 1.77240853,17.3183581 C1.48282992,17.3124492 1.20469818,17.4313726 1.00890947,17.6448146 C0.90997425,17.7389875 0.767994197,17.7725898 0.637342951,17.7327531 C0.506691704,17.6929163 0.407614048,17.5858132 0.378053427,17.4524607 C0.348492806,17.3191082 0.393029724,17.1801697 0.494608023,17.0888539 C0.844910904,16.7287666 1.33360706,16.5374297 1.83527602,16.5639483 C2.35981115,16.6343283 2.83839547,16.9002686 3.17518657,17.3085114 C3.2655488,17.4222656 3.28287571,17.577685 3.21978446,17.7085469 C3.15669322,17.8394088 3.02430441,17.9226472 2.87902771,17.9227949 L2.87827027,17.92128 Z" id="Path"></path>
                            <path d="M5.788353,22.2568642 C5.64212752,22.2570352 5.50886723,22.1730104 5.44599033,22.0409937 C5.20611687,21.5984299 5.1688471,21.0738923 5.34373599,20.6018585 C5.56629272,20.1211084 5.96241552,19.7423024 6.45262748,19.5414432 C6.64642075,19.4702075 6.86156206,19.567326 6.93631705,19.7597891 C7.01107203,19.9522522 6.91788966,20.1691274 6.7268206,20.2473768 C6.43059159,20.3707701 6.18863053,20.5966005 6.04512501,20.8836261 C5.95379598,21.1584423 5.98439564,21.459201 6.1292008,21.7099926 C6.18506219,21.8272792 6.17690959,21.9650128 6.10760212,22.0748905 C6.03829465,22.1847682 5.91750562,22.2514542 5.78759556,22.2515619 L5.788353,22.2568642 Z" id="Path"></path>
                            <path d="M14.7132632,14.6014277 C14.5183037,14.602439 14.3544269,14.4552777 14.3345434,14.2613321 C14.3281886,13.9718947 14.1983535,13.6989927 13.9777894,13.511467 C13.7058115,13.3409642 13.3816603,13.2737687 13.0643173,13.3221071 C12.8582935,13.3585011 12.6617751,13.2209891 12.6253811,13.0149653 C12.588987,12.8089416 12.7264991,12.6124232 12.9325228,12.5760291 C13.4553977,12.4932015 13.9902897,12.6102936 14.4307382,12.9040005 C14.8238532,13.2163159 15.0636355,13.682636 15.0889532,14.1840733 C15.0991095,14.2840161 15.0691418,14.3838995 15.0056444,14.4617442 C14.942147,14.5395889 14.8503228,14.5890164 14.7503777,14.5991502 L14.7132632,14.6014277 Z" id="Path"></path>
                            <path d="M16.8151579,17.9212804 C16.6698812,17.9211323 16.5374924,17.8378939 16.4744011,17.707032 C16.4113099,17.5761701 16.4286368,17.4207507 16.518999,17.3069965 C16.8557901,16.8987537 17.3343745,16.6328134 17.8589096,16.5624335 C18.3605785,16.5359148 18.8492747,16.7272517 19.1995776,17.0873391 C19.349554,17.2300963 19.3570803,17.4668368 19.2164744,17.618832 C19.0758684,17.7708272 18.8392593,17.7817258 18.6852761,17.6432997 C18.4881215,17.4291795 18.2082078,17.3104784 17.9172324,17.3176007 C17.6028666,17.3700711 17.3175886,17.5331255 17.1128316,17.7773665 C17.0408922,17.8684052 16.9311894,17.9214421 16.8151579,17.9212804 L16.8151579,17.9212804 Z" id="Path"></path>
                            <path d="M13.9050752,22.256876 C13.7751651,22.2567563 13.6543761,22.1900703 13.5850686,22.0801926 C13.5157611,21.9703149 13.5076085,21.8325813 13.5634699,21.7152947 C13.7082751,21.4645031 13.7388747,21.1637444 13.6475457,20.8889281 C13.5038753,20.6020258 13.2619675,20.3762452 12.9658501,20.2526789 C12.7709119,20.1767534 12.6744331,19.957175 12.7503586,19.7622368 C12.8262841,19.5672986 13.0458625,19.4708198 13.2408007,19.5467453 C13.7310126,19.7476045 14.1271354,20.1264105 14.3496922,20.6071606 C14.5245811,21.0791944 14.4873113,21.6037319 14.2474378,22.0462958 C14.1830491,22.1762488 14.0501005,22.258018 13.9050752,22.256876 L13.9050752,22.256876 Z" id="Path"></path>
                            <path d="M2.39502384,6.3771439 C2.32153044,6.37694288 2.24968328,6.35536242 2.18824284,6.31503385 L0.240108336,5.0402631 C0.126859265,4.96611676 0.0617694113,4.83718506 0.0693574926,4.70203532 C0.0769455739,4.56688557 0.15605878,4.44605026 0.276895932,4.38504686 C0.397733083,4.32404346 0.541936141,4.33213986 0.655185206,4.4062862 L2.60256228,5.68105696 C2.74245833,5.77288112 2.80550778,5.94563373 2.75764746,6.10598326 C2.70978714,6.2663328 2.56236352,6.37626446 2.39502384,6.37638646 L2.39502384,6.3771439 Z" id="Path"></path>
                            <path d="M7.03055385,3.01941469 C6.86733494,3.01961688 6.72234716,2.91522568 6.67077007,2.76037007 L5.93453883,0.550161479 C5.88983438,0.421195749 5.91798584,0.278151451 6.00822528,0.175743004 C6.09846473,0.0733345564 6.23682969,0.0274073027 6.3703956,0.0555284094 C6.50396151,0.083649516 6.61206212,0.181467891 6.65334896,0.311568023 L7.3895802,2.52101917 C7.42147782,2.61633789 7.41417506,2.72042712 7.36928055,2.8103582 C7.32438605,2.90028927 7.24558273,2.9686847 7.1502293,3.00047841 C7.11157308,3.01300944 7.07119042,3.01941469 7.03055385,3.01941469 L7.03055385,3.01941469 Z" id="Path"></path>
                            <path d="M12.6628743,3.01941469 C12.6222377,3.01941469 12.5818551,3.01300944 12.5431989,3.00047841 C12.4478454,2.9686847 12.3690421,2.90028927 12.3241476,2.8103582 C12.2792531,2.72042712 12.2719503,2.61633789 12.303848,2.52101917 L13.0400792,0.311568023 C13.081366,0.181467891 13.1894667,0.083649516 13.3230326,0.0555284094 C13.4565985,0.0274073027 13.5949634,0.0733345564 13.6852029,0.175743004 C13.7754423,0.278151451 13.8035938,0.421195749 13.7588893,0.550161479 L13.0226581,2.76037007 C12.971081,2.91522568 12.8260932,3.01961688 12.6628743,3.01941469 L12.6628743,3.01941469 Z" id="Path"></path>
                            <path d="M17.2984043,6.3771439 C17.1310646,6.3770219 16.983641,6.26709024 16.9357807,6.1067407 C16.8879204,5.94639117 16.9509698,5.77363856 17.0908659,5.6818144 L19.038243,4.4062862 C19.2133108,4.2916659 19.4481495,4.34066834 19.5627698,4.51573622 C19.6773901,4.69080411 19.6283877,4.92564279 19.4533198,5.0402631 L17.5051853,6.31503385 C17.4437449,6.35536242 17.3718977,6.37694288 17.2984043,6.3771439 L17.2984043,6.3771439 Z" id="Path"></path>
                        </g>
                        <path d="M8.08374987,39.5658724 L23.5097636,39.5658724 L23.5097636,44.2248831 C23.5097636,46.8214096 21.404863,48.9263103 18.8083364,48.9263103 L12.7851771,48.9263103 C10.1886506,48.9263103 8.08374987,46.8214096 8.08374987,44.2248831 L8.08374987,39.5658724 L8.08374987,39.5658724 Z" id="Path" fill="#9297AB"></path>
                        <path d="M23.5074919,39.5666299 L23.5074919,44.2248831 C23.5087474,46.8202276 21.4067093,48.925656 18.8113661,48.9285826 L16.395134,48.9285826 C18.9929155,48.9285826 21.0988336,46.8226646 21.0988336,44.2248831 L21.0988336,39.5666299 L23.5074919,39.5666299 Z" id="Path" fill="#84879C"></path>
                        <path d="M29.4306686,22.6825543 L15.7967568,22.6825543 C15.5875956,22.6825543 15.418037,22.5129864 15.418037,22.3038252 L15.418037,9.9302928 C15.3867528,8.45332274 16.5444331,7.22354019 18.0205993,7.16563846 C19.4229989,7.17004103 20.6849941,8.01784604 21.2192665,9.31449445 C21.6667455,9.09307434 22.1591384,8.97749158 22.6584016,8.97667642 C24.6487898,9.04460377 26.2097476,10.7088353 26.1501979,12.6994918 C26.1499134,12.9370071 26.1265758,13.1739341 26.0805135,13.4069403 C27.6778775,13.8544798 28.7715376,15.324212 28.7413986,16.9828124 C28.7435577,17.2912542 28.7051028,17.5986381 28.6270252,17.8970419 C29.5736124,18.6046502 30.1266103,19.7207721 30.1162971,20.902562 C30.1149888,21.4391462 30.000111,21.9693909 29.7790908,22.4583429 C29.7177508,22.5956133 29.581017,22.6835985 29.4306686,22.6825543 L29.4306686,22.6825543 Z M16.1754765,21.9251054 L29.1784412,21.9251054 C29.2976116,21.597331 29.358867,21.2513275 29.3594692,20.902562 C29.3740956,19.8787752 28.8527825,18.921742 27.9847165,18.3787735 C27.8261392,18.2841393 27.7589361,18.0889303 27.8256542,17.9167354 C27.9358021,17.6178972 27.9897298,17.3012644 27.9847165,16.9828124 C28.0261175,15.5464149 26.9933992,14.3031298 25.5737864,14.0803041 C25.4639328,14.0666589 25.3655484,14.0056336 25.3045145,13.9132817 C25.2434807,13.8209297 25.225908,13.7064973 25.2564192,13.6000874 C25.3447494,13.3079441 25.3909141,13.0046854 25.3935158,12.6994918 C25.4529086,11.1271751 24.2311248,9.80216588 22.659159,9.73411596 C22.1483151,9.73531978 21.6502685,9.89401761 21.2329004,10.1885797 C21.1317311,10.2602169 21.0019069,10.277807 20.8853226,10.2356736 C20.7687383,10.1935401 20.6801543,10.0970175 20.648157,9.97725405 C20.3479177,8.78721445 19.2871381,7.94622763 18.0599861,7.92535033 C16.9885016,7.96524378 16.1490992,8.86074153 16.1785063,9.93256512 L16.1754765,21.9251054 Z" id="Shape" fill="#323C6B"></path>
                        <path d="M23.5097636,39.9438348 L8.08374987,39.9438348 C7.90780532,39.9438348 7.75499216,39.8227735 7.71487681,39.6514631 C6.98471707,36.9139986 5.63416996,34.3813665 3.76785935,32.2497639 C1.42763317,29.4618765 0.126430313,25.9488162 0.0859184123,22.3091273 C0.0847308967,22.2078995 0.124094674,22.110399 0.195250505,22.0383892 C0.266406336,21.9663795 0.363430372,21.9258629 0.464665491,21.9258629 L31.128848,21.9258629 C31.2300831,21.9258629 31.3271072,21.9663795 31.398263,22.0383892 C31.4694188,22.110399 31.5087826,22.2078995 31.5075951,22.3091273 C31.4641173,25.9148013 30.183856,29.3962137 27.8809473,32.1709902 C26.0035734,34.3344511 24.6353808,36.8914648 23.8771218,39.6537354 C23.8362405,39.8235932 23.6844714,39.9434439 23.5097636,39.9438348 L23.5097636,39.9438348 Z M8.38066617,39.1863952 L23.2136048,39.1863952 C24.024508,36.4238232 25.4176212,33.8669415 27.2992337,31.6877437 C29.4071026,29.1483069 30.6168218,25.9835451 30.7402815,22.6855747 L0.853231977,22.6855747 C0.974593331,26.0159677 2.20427787,29.2105352 4.3473006,31.7627302 C6.21995329,33.911519 7.59695234,36.445973 8.38066617,39.1863952 L8.38066617,39.1863952 Z" id="Shape" fill="#323C6B"></path>
                        <path d="M18.8083364,49.3050301 L12.7851771,49.3050301 C9.98028247,49.3021077 7.70719508,47.0290203 7.70427266,44.2241256 L7.70427266,39.565115 C7.70427266,39.3559538 7.87383128,39.1863952 8.08299243,39.1863952 L23.5097636,39.1863952 C23.7189248,39.1863952 23.8884834,39.3559538 23.8884834,39.565115 L23.8884834,44.2248831 C23.8851445,47.0291866 21.6126399,49.3016911 18.8083364,49.3050301 L18.8083364,49.3050301 Z M8.46246964,39.9438348 L8.46246964,44.2248831 C8.46497454,46.6116285 10.3991892,48.5458431 12.7859346,48.548348 L18.8083364,48.548348 C21.194786,48.5454258 23.1285398,46.6113332 23.1310439,44.2248831 L23.1310439,39.9438348 L8.46246964,39.9438348 Z" id="Shape" fill="#323C6B"></path>
                        <path d="M1.06985969,16.273849 C1.04596832,16.2737534 1.02213583,16.2714716 0.99866037,16.267032 C0.899615543,16.2486578 0.811971923,16.1915814 0.755114106,16.1084269 C0.698256289,16.0252723 0.676869711,15.922892 0.695684552,15.8239299 L0.71613542,15.7095565 C0.735071408,15.6004852 0.755522276,15.4921714 0.7827901,15.3868873 C0.817563107,15.2560488 0.919496217,15.1537001 1.05019221,15.1183952 C1.18088821,15.0830902 1.32049125,15.1201926 1.41641424,15.2157262 C1.51233722,15.3112598 1.55000715,15.4507107 1.51523414,15.5815492 C1.49251095,15.6663825 1.47736216,15.7542455 1.46221337,15.8421084 L1.43949018,15.9663285 C1.4054976,16.1439348 1.25068621,16.2727328 1.06985969,16.273849 L1.06985969,16.273849 Z" id="Path" fill="#323C6B"></path>
                        <path d="M1.77200615,14.4120626 C1.635485,14.4119822 1.5095732,14.3384308 1.44244865,14.2195513 C1.37532411,14.1006719 1.37737707,13.9548659 1.44782202,13.8379234 C1.89155647,13.0941165 2.49420844,12.4575815 3.21265616,11.9738647 C3.36205364,10.6556957 3.94064572,9.42319342 4.85932973,8.46616216 C4.95309508,8.36860831 5.09178221,8.32848805 5.223149,8.3609143 C5.3545158,8.39334056 5.45860452,8.493387 5.49620596,8.62336711 C5.5338074,8.75334721 5.499209,8.89351391 5.40544364,8.99106777 C4.56292699,9.86831017 4.04875012,11.0092906 3.94964484,12.2215474 C3.93984841,12.3416558 3.87347611,12.4499327 3.7708891,12.5131617 C3.08472101,12.9426071 2.51107202,13.5297598 2.09770515,14.2257325 C2.02970045,14.3410405 1.90587379,14.4118808 1.77200615,14.4120626 L1.77200615,14.4120626 Z" id="Path" fill="#323C6B"></path>
                        <path d="M32.4445205,28.5905734 C32.4027803,28.5904571 32.3613371,28.5835499 32.3218153,28.5701226 C32.1239569,28.5023452 32.0184956,28.2870141 32.0862516,28.0891484 C32.1279108,27.9672007 32.1619956,27.843738 32.2013824,27.7202754 C32.2392674,27.590384 32.3435708,27.4905708 32.4750026,27.4584345 C32.6064343,27.4262981 32.7450268,27.4667209 32.8385736,27.564476 C32.9321203,27.6622311 32.9664094,27.8024671 32.9285244,27.9323585 C32.8891375,28.0671827 32.8482358,28.2012495 32.8027894,28.3345589 C32.7503462,28.4876893 32.6063822,28.5905734 32.4445205,28.5905734 L32.4445205,28.5905734 Z" id="Path" fill="#323C6B"></path>
                        <path d="M28.2589096,35.1621189 C28.117319,35.1621189 27.9875569,35.0831269 27.9225199,34.9573569 C27.857483,34.8315869 27.8680349,34.6800423 27.9498743,34.5644991 C28.2892072,34.0842824 28.6573228,33.6048232 29.0451318,33.1397553 C29.9580058,32.0403447 30.7295336,30.8308883 31.3416885,29.5396452 C31.393515,29.4076859 31.5147031,29.3157234 31.6557421,29.3013285 C31.7967811,29.2869335 31.934049,29.352517 32.0114656,29.4712853 C32.0888822,29.5900535 32.0934814,29.7421143 32.0233841,29.8653442 C31.3837204,31.2135594 30.5778557,32.4764286 29.6245731,33.6245166 C29.2496405,34.0736783 28.8936439,34.5372313 28.5641577,35.0015417 C28.4941006,35.1009827 28.3805424,35.1607205 28.2589096,35.1621189 Z" id="Path" fill="#323C6B"></path>
                        <path d="M12.4117594,25.162402 L5.79325269,25.169219 C5.59382528,25.186119 5.40187581,25.0892812 5.29696067,24.9188414 C5.19204552,24.7484016 5.19204552,24.5334082 5.29696067,24.3629685 C5.40187581,24.1925287 5.59382528,24.0956908 5.79325269,24.1125908 L12.4193338,24.1057706 C12.5454204,24.1053234 12.667173,24.1517568 12.7609391,24.2360535 C12.9250466,24.3820399 12.9821522,24.6140962 12.9045333,24.8195679 C12.8269144,25.0250396 12.6306432,25.1613804 12.411002,25.162402 L12.4117594,25.162402 Z" id="Path" fill="#FFFFFF"></path>
                        <path d="M14.2061337,24.1080462 L14.5447092,24.1080462 C14.6750179,24.1053503 14.8009066,24.1553235 14.8938888,24.2466576 C15.0114859,24.3449716 15.0773922,24.4918646 15.0726446,24.6450708 C15.0697301,24.9350942 14.8324639,25.167954 14.5424369,25.1654318 L14.2061337,25.1654318 C14.0067063,25.1823318 13.8147568,25.085494 13.7098417,24.9150542 C13.6049265,24.7446144 13.6049265,24.529621 13.7098417,24.3591813 C13.8147568,24.1887415 14.0067063,24.0919036 14.2061337,24.1088036 L14.2061337,24.1080462 Z" id="Path" fill="#FFFFFF"></path>
                    </g>
                </g>
            </g>
        </g>
    </g>
</svg>