<?xml version="1.0" encoding="UTF-8"?>
<svg width="63px" height="61px" viewBox="0 0 63 61" version="1.1" xmlns="http://www.w3.org/2000/svg" xmlns:xlink="http://www.w3.org/1999/xlink">
    <title>Group 9</title>
    <g id="Page-1" stroke="none" stroke-width="1" fill="none" fill-rule="evenodd">
        <g id="Layout-2.3-Copy-2" transform="translate(-150.000000, -998.000000)">
            <g id="Group-9" transform="translate(150.000000, 998.000000)">
                <circle id="Oval" fill-opacity="0.279092002" fill="#ABAEEF" cx="36" cy="34" r="27"></circle>
                <g id="Group" fill-rule="nonzero">
                    <g id="success" transform="translate(7.000000, 1.000000)">
                        <polygon id="Path" fill="#E7AA6C" points="38.1796114 20.6839787 28.0835247 20.6839787 28.0835247 26.0212328 19.0564111 26.0212328 19.0564111 31.1273951 9.08832446 31.1273951 9.08832446 35.5368222 0.366335141 35.5368222 0.366335141 47.1405412 38.1796114 47.1405412"></polygon>
                        <polygon id="Path" fill="#D09865" points="35.9337303 20.6825949 38.1823789 20.6825949 38.1823789 47.1405412 35.9337303 47.1405412"></polygon>
                        <polygon id="Path" fill="#D09865" points="0.363567573 35.537514 9.08832446 35.537514 9.08832446 37.7169735 0.363567573 37.7169735"></polygon>
                        <polygon id="Path" fill="#D09865" points="9.08832446 31.1301626 19.0584868 31.1301626 19.0584868 33.3027032 9.08832446 33.3027032"></polygon>
                        <polygon id="Path" fill="#D09865" points="19.0584868 26.0240004 28.0807572 26.0240004 28.0807572 28.196541 19.0584868 28.196541"></polygon>
                        <polygon id="Path" fill="#D09865" points="28.0807572 20.6825949 38.1823789 20.6825949 38.1823789 22.8620544 28.0807572 22.8620544"></polygon>
                        <path d="M9.49723257,26.9317626 L4.30804331,33.3462924 C3.74393235,33.9977228 2.77150254,34.1005614 2.08361084,33.5815356 C1.7341742,33.31781 1.50487357,32.9251566 1.44689484,32.4912262 C1.38891611,32.0572957 1.50708642,31.6182157 1.77502705,31.2720005 L6.31176226,25.0325193 L7.83184877,12.5459461 L5.4282163,13.6073083 L3.9413406,16.2171246 C3.75279324,16.5469557 3.43261648,16.7808014 3.06105527,16.8600537 C2.68949405,16.939306 2.30176689,16.8564529 1.99504868,16.6322597 C1.46234689,16.2433612 1.29359493,15.5236664 1.59790273,14.9385083 L3.47915681,11.3206056 C3.62311258,11.0437379 3.84169402,10.8126935 4.11016222,10.6536218 L8.20823796,8.2257731 C8.8678774,7.83490853 9.67263559,7.7759988 10.3821623,8.06663796 L14.2685191,9.65798933 C14.7109915,9.83875166 15.0908031,10.1451988 15.3610164,10.5394596 L16.9966489,12.9271786 L20.2167138,11.9924326 C20.8926545,11.7914467 21.6108355,12.1358744 21.8772544,12.7888002 C22.0195464,13.1376083 22.0120802,13.5295919 21.8566087,13.8727285 C21.7011372,14.2158651 21.4113532,14.4799335 21.0552868,14.6029408 L17.3425949,15.8967786 C16.7731151,16.0934044 16.1418864,15.9683746 15.690357,15.5695137 L14.0374272,14.1103137 L13.6347461,18.0810814 C13.6347461,18.0810814 13.6748759,18.096303 13.7468326,18.1274381 C15.7336295,19.0030319 16.9335513,21.0554563 16.7219678,23.216303 L16.2459462,29.5242815 C16.2044305,29.9693199 15.9852558,30.3788296 15.6379775,30.66022 C15.2906993,30.9416104 14.844646,31.0711176 14.4006705,31.0194599 C13.5056288,30.9161186 12.8562907,30.1178778 12.9373191,29.220541 L13.3524543,23.5380328 C13.4233232,22.7445741 12.8744819,22.0291255 12.0897515,21.8920219 C11.6798297,21.8203158 11.2583723,21.9183933 10.9222265,22.1637171 C10.5860808,22.4090408 10.3641522,22.7805152 10.307438,23.1927787 L9.94834609,25.9347463 C9.89764182,26.303742 9.74093188,26.6500902 9.49723257,26.9317626 L9.49723257,26.9317626 Z" id="Path" fill="#89C5CD"></path>
                        <path d="M16.7198921,23.2149193 L16.2424867,29.5180545 C16.1781804,30.2448477 15.6480839,30.8450627 14.934811,30.9987032 C14.9638607,30.9065245 14.9824283,30.8113653 14.9901624,30.7150275 L15.4675678,24.4049733 C15.6747105,22.2459708 14.4759644,20.1969513 12.4924326,19.3195679 C12.4163245,19.2849733 12.1215786,19.1562814 12.1215786,19.1562814 L12.6937732,14.1130813 C12.7182689,13.8978267 12.8575641,13.712783 13.057645,13.6297034 C13.2577259,13.5466238 13.4871239,13.5785751 13.6568867,13.7131678 L14.1128435,14.0743353 L13.6340543,18.0810814 C13.6340543,18.0810814 13.6755678,18.0949192 13.744757,18.1225949 C15.7317985,18.9997836 16.9314858,21.0532018 16.7198921,23.2149193 L16.7198921,23.2149193 Z" id="Path" fill="#6EAAAD"></path>
                        <path d="M21.9782745,13.3070272 C21.9796655,13.8906807 21.6098451,14.4106537 21.0580544,14.6008651 L20.7121084,14.7254056 C20.7190273,14.6562164 20.7259463,14.5801083 20.7259463,14.5040002 C20.7249356,14.3259737 20.6897013,14.1498022 20.6221625,13.9850813 C20.3593089,13.3288355 19.63778,12.9831029 18.9616219,13.1894056 L16.8250597,13.807957 C16.1744811,13.9965816 15.4763975,13.7452715 15.09533,13.1852543 L14.1017732,11.7322813 C13.8300525,11.3381568 13.4505137,11.0306823 13.008584,10.8466596 L9.12707041,9.25530825 C8.41536953,8.96652187 7.60981509,9.02534013 6.94761091,9.41444338 L3.35945951,11.5496218 L3.47708113,11.3212975 C3.61611327,11.0515194 3.82832483,10.8263593 4.08940547,10.671611 L8.20962174,8.22854066 C8.86823086,7.8360023 9.67338406,7.77702611 10.3821623,8.06940553 L14.2705948,9.6607569 C14.7133974,9.83991056 15.0936174,10.1455304 15.363784,10.5394596 L16.9966489,12.9264867 L20.2139462,11.9924326 C20.8897003,11.7913613 21.6078091,12.1354551 21.8744868,12.7881083 C21.9420257,12.9528292 21.9772599,13.1290007 21.9782745,13.3070272 L21.9782745,13.3070272 Z" id="Path" fill="#6EAAAD"></path>
                        <circle id="Oval" fill="#89C5CD" transform="translate(14.050597, 3.977948) rotate(-3.554889) translate(-14.050597, -3.977948) " cx="14.0505967" cy="3.97794843" r="3.60171548"></circle>
                        <path d="M17.6470273,3.75200006 C17.7409975,5.2350048 16.9135766,6.62320263 15.5644327,7.24605416 C16.1856258,6.53811178 16.4993292,5.6119397 16.4362165,4.67221629 C16.3775065,3.71857898 15.9418883,2.82745706 15.2254232,2.19535835 C14.5089581,1.56325964 13.5704921,1.24210073 12.6169732,1.30270272 C12.1711674,1.32790672 11.7343193,1.43829306 11.3300542,1.62789192 C11.9569209,0.888188986 12.8597761,0.438011853 13.827784,0.382486492 C14.7813029,0.321884501 15.7197689,0.643043412 16.436234,1.27514212 C17.1526991,1.90724083 17.5883173,2.79836275 17.6470273,3.75200006 L17.6470273,3.75200006 Z" id="Path" fill="#6EAAAD"></path>
                        <g id="Group" fill="#323C6B">
                            <path d="M38.1796114,47.4864872 L0.366335141,47.4864872 C0.175274468,47.4864872 0.0203891895,47.3316019 0.0203891895,47.1405412 L0.0203891895,35.5368222 C0.0203891895,35.3457615 0.175274468,35.1908762 0.366335141,35.1908762 L8.74237851,35.1908762 L8.74237851,31.1273951 C8.74237851,30.9363344 8.89726379,30.7814491 9.08832446,30.7814491 L18.7104651,30.7814491 L18.7104651,26.0219247 C18.7104651,25.830864 18.8653504,25.6759788 19.0564111,25.6759788 L27.7375788,25.6759788 L27.7375788,20.6839787 C27.7375788,20.492918 27.8924641,20.3380327 28.0835247,20.3380327 L38.1796114,20.3380327 C38.3706721,20.3380327 38.5255573,20.492918 38.5255573,20.6839787 L38.5255573,47.1405412 C38.5255573,47.3316019 38.3706721,47.4864872 38.1796114,47.4864872 Z M0.712972984,46.7945953 L37.8336654,46.7945953 L37.8336654,21.0299246 L28.4294707,21.0299246 L28.4294707,26.0219247 C28.4294707,26.2129854 28.2745854,26.3678707 28.0835247,26.3678707 L19.402357,26.3678707 L19.402357,31.1273951 C19.402357,31.3184557 19.2474718,31.473341 19.0564111,31.473341 L9.43427041,31.473341 L9.43427041,35.5368222 C9.43427041,35.7278828 9.27938513,35.8827681 9.08832446,35.8827681 L0.712281092,35.8827681 L0.712972984,46.7945953 Z" id="Shape"></path>
                            <path d="M3.06678923,34.2554386 C2.31114789,34.254367 1.62189101,33.8236331 1.28973122,33.1449101 C0.957571431,32.4661871 1.04033476,31.6576347 1.50311354,31.0602815 L5.98103793,24.9024436 L7.41463795,13.1105299 L5.67176225,13.8785299 L4.24231358,16.3887138 C3.78675563,17.1793023 2.78359467,17.461965 1.98229414,17.0255239 C1.1809936,16.5890829 0.874322157,15.5929992 1.29139461,14.7814489 L3.1726487,11.1621623 C3.34638677,10.8280665 3.60998233,10.5491345 3.93372979,10.3568002 L8.03180553,7.92895147 C8.78529072,7.48480582 9.7028906,7.41776422 10.5129299,7.74767579 L14.3999786,9.33902717 C14.9045906,9.5453076 15.3376042,9.89508633 15.645384,10.345038 L17.1398705,12.5265732 L20.1191571,11.6610164 C21.0125513,11.4003569 21.9509954,11.8987699 22.2353133,12.7849188 C22.5196311,13.6710678 22.0463425,14.6224304 21.1680652,14.9302056 L17.4560651,16.2226597 C16.7686252,16.4596074 16.0068896,16.3090041 15.4613408,15.8282813 L14.3128002,14.8146597 L14.0042164,17.858984 C16.0643134,18.8217245 17.2916384,20.9806402 17.0651462,23.2432868 L16.5891246,29.5450383 C16.4901551,30.6487958 15.5151523,31.4633374 14.4113948,31.364368 C13.3076373,31.2653985 12.4930957,30.2903958 12.5920651,29.1866383 L13.0072002,23.5131247 C13.0614676,22.8978992 12.6379409,22.3426951 12.0302488,22.2324328 C11.7122416,22.1757741 11.3848795,22.2512082 11.1237358,22.4413208 C10.8625921,22.6314334 10.690239,22.9197919 10.646465,23.2398274 L10.288065,25.9797193 C10.2296932,26.4147678 10.0460301,26.8234423 9.7594596,27.1559355 L4.57649737,33.566314 C4.19712551,34.0042435 3.64618992,34.2557246 3.06678923,34.2554386 L3.06678923,34.2554386 Z M7.83184877,12.2000002 C7.93140288,12.1992562 8.02645173,12.2414378 8.09269235,12.3157598 C8.15893297,12.3900818 8.18994344,12.4893387 8.17779472,12.5881515 L6.65701632,25.0740328 C6.64982153,25.1323005 6.62791601,25.1877786 6.59336226,25.2352436 L2.05662706,31.4747248 C1.6022848,32.0255527 1.68050187,32.8404041 2.23132978,33.2947464 C2.78215769,33.7490887 3.59700913,33.6708716 4.05135141,33.1200437 L9.2301623,26.7145085 L9.23777311,26.7055139 C9.43783908,26.4748301 9.56645494,26.1909136 9.60793528,25.8883896 L9.96633528,23.1484976 C10.0351519,22.6435149 10.3061996,22.1881676 10.7172918,21.8869261 C11.1283841,21.5856846 11.6442327,21.4644074 12.1464867,21.5509192 C13.1052604,21.724062 13.775375,22.5975774 13.6942489,23.568476 L13.2791137,29.2419896 C13.2354848,29.7096715 13.4446754,30.1651032 13.8278854,30.4367279 C14.2110953,30.7083525 14.710106,30.754904 15.1369448,30.5588468 C15.5637837,30.3627896 15.8536038,29.9539094 15.8972327,29.4862275 L16.3732543,23.184476 C16.5789954,21.1696409 15.4607159,19.2523507 13.6056867,18.4394814 L13.5060543,18.3979678 C13.3604517,18.3419768 13.2703342,18.195465 13.2860326,18.0402597 L13.6887137,14.0729516 C13.7015407,13.9436549 13.7857348,13.8324484 13.9067022,13.7850245 C14.0276697,13.7376005 14.1650098,13.7619572 14.2622921,13.8480867 L15.9200651,15.3135137 C16.2781126,15.629464 16.778358,15.7285617 17.2298165,15.5729732 L20.9418165,14.2756759 C21.4639881,14.0903487 21.7444807,13.5237208 21.5752226,12.9961215 C21.4059644,12.4685223 20.8481869,12.1708182 20.3156544,12.3238488 L17.0935138,13.2620543 C16.9496757,13.3033973 16.7955628,13.2475593 16.7115894,13.1236759 L15.075957,10.7359569 C14.8446761,10.397669 14.5191752,10.1347182 14.1398272,9.97971907 L10.2527785,8.38836769 C9.64261795,8.14033696 8.95162688,8.19152148 8.3846704,8.52674607 L4.28728655,10.9545948 C4.07421127,11.0808528 3.90069826,11.2641918 3.78635681,11.4838921 L1.90648651,15.0997191 C1.651685,15.5781569 1.82993419,16.1725497 2.30596373,16.4318225 C2.78199327,16.6910954 3.37802995,16.518423 3.64175141,16.0448435 L5.12793521,13.4357191 C5.16469596,13.3712484 5.2212151,13.3203084 5.28914602,13.2904218 L7.69277849,12.2311353 C7.73647199,12.2112176 7.78383354,12.2006142 7.83184877,12.2000002 L7.83184877,12.2000002 Z" id="Shape"></path>
                            <path d="M14.0498813,7.92272444 C11.891746,7.9213295 10.1339339,6.18862991 10.1014873,4.03073805 C10.0690407,1.87284619 11.7739633,0.088080057 13.931081,0.0217999027 C16.0881988,-0.0444802517 17.8994801,1.6322461 17.9995775,3.7880593 C18.0996749,5.9438725 16.4515571,7.78122357 14.2975786,7.91511363 C14.2145516,7.92018751 14.1319858,7.92272444 14.0498813,7.92272444 L14.0498813,7.92272444 Z M13.8284759,0.381102708 L13.8499245,0.727048659 C12.5352366,0.808886018 11.3993683,1.67477784 10.9721676,2.92081202 C10.5449668,4.16684619 10.9106017,5.54752592 11.8985148,6.41880625 C12.8864279,7.29008657 14.301978,7.48030565 15.4848542,6.90073208 C16.6677304,6.32115851 17.3848795,5.08598134 17.3017732,3.77137303 C17.2529506,2.90797322 16.8604293,2.10007555 16.2118525,1.5280695 C15.5632756,0.956063441 14.7126568,0.66758582 13.8499245,0.727048659 L13.8284759,0.381102708 Z" id="Shape"></path>
                            <path d="M24.2891896,49.5621629 L17.6733192,49.5621629 C17.4822585,49.5621629 17.3273732,49.4072776 17.3273732,49.2162169 C17.3273732,49.0251563 17.4822585,48.870271 17.6733192,48.870271 L24.2891896,48.870271 C24.4802502,48.870271 24.6351355,49.0251563 24.6351355,49.2162169 C24.6351355,49.4072776 24.4802502,49.5621629 24.2891896,49.5621629 Z" id="Path"></path>
                            <path d="M16.3324327,49.5621629 L15.7055786,49.5621629 C15.5145179,49.5621629 15.3596327,49.4072776 15.3596327,49.2162169 C15.3596327,49.0251563 15.5145179,48.870271 15.7055786,48.870271 L16.3324327,48.870271 C16.5234933,48.870271 16.6783786,49.0251563 16.6783786,49.2162169 C16.6783786,49.4072776 16.5234933,49.5621629 16.3324327,49.5621629 Z" id="Path"></path>
                            <path d="M29.8243248,18.9542489 L29.1760221,18.9542489 C28.9849614,18.9542489 28.8300761,18.7993637 28.8300761,18.608303 C28.8300761,18.4172423 28.9849614,18.262357 29.1760221,18.262357 L29.8250167,18.262357 C30.0160773,18.262357 30.1709626,18.4172423 30.1709626,18.608303 C30.1709626,18.7993637 30.0160773,18.9542489 29.8250167,18.9542489 L29.8243248,18.9542489 Z" id="Path"></path>
                            <path d="M36.61386,18.9542489 L31.2945951,18.9542489 C31.1035344,18.9542489 30.9486491,18.7993637 30.9486491,18.608303 C30.9486491,18.4172423 31.1035344,18.262357 31.2945951,18.262357 L36.61386,18.262357 C36.8049207,18.262357 36.959806,18.4172423 36.959806,18.608303 C36.959806,18.7993637 36.8049207,18.9542489 36.61386,18.9542489 Z" id="Path"></path>
                        </g>
                        <path d="M3.03911356,44.5853844 L3.03911356,44.9818385 C3.03985673,45.0897798 2.99730573,45.1935156 2.92097791,45.2698434 C2.84465009,45.3461712 2.74091429,45.3887222 2.63297301,45.3879791 C2.51817602,45.3890839 2.40820217,45.3418805 2.32992436,45.2579034 C2.26092917,45.1820847 2.22204708,45.083649 2.22060544,44.9811466 L2.22060544,44.5909196 C2.21339451,44.4408089 2.28896755,44.2988036 2.41750497,44.2209361 C2.54604239,44.1430686 2.70690037,44.1418448 2.83660764,44.2177476 C2.96631491,44.2936505 3.04403976,44.4344895 3.03911356,44.5846926 L3.03911356,44.5853844 Z" id="Path" fill="#FFFFFF"></path>
                        <path d="M2.22683247,43.0383142 L2.16594598,37.6892979 C2.15873505,37.5391872 2.23430809,37.3971819 2.36284551,37.3193144 C2.49138293,37.2414468 2.65224091,37.2402231 2.78194818,37.3161259 C2.91165545,37.3920288 2.9893803,37.5328678 2.9844541,37.6830708 L3.04534511,43.0320871 C3.04612932,43.2006818 2.94370173,43.3525977 2.78711121,43.4150811 C2.63052069,43.4775645 2.45164588,43.4378951 2.33615139,43.3150709 C2.26811945,43.2386556 2.22938504,43.1405938 2.22683247,43.0383142 L2.22683247,43.0383142 Z" id="Path" fill="#FFFFFF"></path>
                    </g>
                </g>
            </g>
        </g>
    </g>
</svg>