<svg xmlns="http://www.w3.org/2000/svg" width="55.98" height="59.98" viewBox="0 0 55.98 59.98">
  <g id="s1" transform="translate(-37.02 -41.02)">
    <circle id="Oval" cx="27" cy="27" r="27" transform="translate(39 47)" fill="rgba(171,174,239,0.28)"/>
    <g id="Rectangle" transform="translate(37.02 41.02)">
      <g id="success" transform="translate(-0.02 -0.02)">
        <path id="Path" d="M37.813,0h-10.1V5.337H18.69v5.106H8.722v4.409H0v11.6H37.813Z" transform="translate(0.366 20.684)" fill="#e7aa6c"/>
        <path id="Path-2" data-name="Path" d="M0,0H2.249V26.458H0Z" transform="translate(35.934 20.683)" fill="#d09865"/>
        <path id="Path-3" data-name="Path" d="M0,0H8.725V2.179H0Z" transform="translate(0.364 35.538)" fill="#d09865"/>
        <path id="Path-4" data-name="Path" d="M0,0H9.97V2.173H0Z" transform="translate(9.088 31.13)" fill="#d09865"/>
        <path id="Path-5" data-name="Path" d="M0,0H9.022V2.173H0Z" transform="translate(19.058 26.024)" fill="#d09865"/>
        <path id="Path-6" data-name="Path" d="M0,0H10.1V2.179H0Z" transform="translate(28.081 20.683)" fill="#d09865"/>
        <path id="Path-7" data-name="Path" d="M8.065,19.048,2.876,25.462A1.638,1.638,0,0,1,.343,23.388l4.537-6.239L6.4,4.662,4,5.723,2.509,8.333A1.335,1.335,0,0,1,.165,7.054L2.047,3.436a1.672,1.672,0,0,1,.631-.667L6.776.342A2.446,2.446,0,0,1,8.95.183l3.886,1.591a2.446,2.446,0,0,1,1.092.881l1.636,2.388,3.22-.935a1.371,1.371,0,0,1,.839,2.611L15.91,8.013a1.672,1.672,0,0,1-1.652-.327L12.6,6.226,12.2,10.2s.04.015.112.046a5.026,5.026,0,0,1,2.975,5.089l-.476,6.308a1.661,1.661,0,0,1-3.309-.3l.415-5.683a1.533,1.533,0,0,0-3.045-.345l-.359,2.742a1.924,1.924,0,0,1-.451,1Z" transform="translate(1.432 7.884)" fill="#89c5cd"/>
        <path id="Path-8" data-name="Path" d="M4.6,9.631l-.477,6.3a1.665,1.665,0,0,1-1.308,1.481,1.286,1.286,0,0,0,.055-.284l.477-6.31A5.035,5.035,0,0,0,.371,5.735C.295,5.7,0,5.572,0,5.572L.572.529a.6.6,0,0,1,.963-.4L1.991.49,1.512,4.5s.042.014.111.042A5.031,5.031,0,0,1,4.6,9.631Z" transform="translate(12.122 13.584)" fill="#6eaaad"/>
        <path id="Path-9" data-name="Path" d="M18.619,5.421a1.365,1.365,0,0,1-.92,1.294l-.346.125c.007-.069.014-.145.014-.221a1.389,1.389,0,0,0-.1-.519A1.361,1.361,0,0,0,15.6,5.3l-2.137.619a1.565,1.565,0,0,1-1.73-.623l-.994-1.453a2.491,2.491,0,0,0-1.093-.886L5.768,1.37a2.469,2.469,0,0,0-2.179.159L0,3.664l.118-.228a1.616,1.616,0,0,1,.612-.65L4.85.343A2.432,2.432,0,0,1,7.023.184l3.888,1.591A2.431,2.431,0,0,1,12,2.654l1.633,2.387,3.217-.934a1.371,1.371,0,0,1,1.661.8,1.389,1.389,0,0,1,.1.519Z" transform="translate(3.359 7.886)" fill="#6eaaad"/>
        <circle id="Oval-2" data-name="Oval" cx="3.602" cy="3.602" r="3.602" transform="translate(10.232 0.606) rotate(-3.555)" fill="#89c5cd"/>
        <path id="Path-10" data-name="Path" d="M6.317,3.377A3.6,3.6,0,0,1,4.234,6.871,3.542,3.542,0,0,0,5.106,4.3,3.6,3.6,0,0,0,1.287.927,3.5,3.5,0,0,0,0,1.253,3.54,3.54,0,0,1,2.5.007a3.6,3.6,0,0,1,3.819,3.37Z" transform="translate(11.33 0.375)" fill="#6eaaad"/>
        <g id="Group">
          <path id="Shape" d="M.346,27.149A.346.346,0,0,1,0,26.8V15.2a.346.346,0,0,1,.346-.347H8.722V10.789a.346.346,0,0,1,.346-.346H18.69V5.684a.346.346,0,0,1,.346-.346h8.681V.346A.346.346,0,0,1,28.063,0h10.1a.346.346,0,0,1,.347.346V26.8a.346.346,0,0,1-.347.346Z" transform="translate(0.02 20.338)" fill="none"/>
          <path id="Shape-2" data-name="Shape" d="M.2,25.6A1.982,1.982,0,0,1,.415,23.52l4.478-6.158L6.327,5.57l-1.743.768L3.155,8.848A1.681,1.681,0,0,1,.2,7.24L2.084,3.622a2.024,2.024,0,0,1,.761-.806L6.944.389A2.8,2.8,0,0,1,9.425.207L13.312,1.8A2.784,2.784,0,0,1,14.557,2.8l1.494,2.182,2.98-.866A1.717,1.717,0,0,1,20.08,7.39L16.368,8.682a2.023,2.023,0,0,1-2-.394L13.225,7.274l-.309,3.045A5.354,5.354,0,0,1,15.977,15.7L15.5,22a2.006,2.006,0,1,1-4-.358l.416-5.674A1.188,1.188,0,0,0,9.559,15.7L9.2,18.439a2.269,2.269,0,0,1-.528,1.176l-5.183,6.41A1.986,1.986,0,0,1,.2,25.6Z" transform="translate(1.088 7.541)" fill="none"/>
          <path id="Shape-3" data-name="Shape" d="M0,4.01A3.951,3.951,0,1,1,4.2,7.895c-.083.005-.166.008-.247.008A3.952,3.952,0,0,1,0,4.01Z" transform="translate(10.101 0.02)" fill="none"/>
          <path id="Path-11" data-name="Path" d="M6.962.692H.346A.346.346,0,0,1,.346,0H6.962a.346.346,0,0,1,0,.692Z" transform="translate(17.327 48.87)" fill="none"/>
          <path id="Path-12" data-name="Path" d="M.973.692H.346A.346.346,0,0,1,.346,0H.973a.346.346,0,0,1,0,.692Z" transform="translate(15.36 48.87)" fill="none"/>
          <path id="Path-13" data-name="Path" d="M.994.692H.346A.346.346,0,0,1,.346,0H.995a.346.346,0,0,1,0,.692Z" transform="translate(28.83 18.262)" fill="none"/>
          <path id="Path-14" data-name="Path" d="M5.665.692H.346A.346.346,0,0,1,.346,0H5.665a.346.346,0,1,1,0,.692Z" transform="translate(30.949 18.262)" fill="none"/>
        </g>
        <path id="Path-15" data-name="Path" d="M.819.424v.4a.4.4,0,0,1-.406.406.409.409,0,0,1-.3-.13A.42.42,0,0,1,0,.819V.429A.41.41,0,1,1,.819.423Z" transform="translate(2.22 44.162)" fill="#fff"/>
        <path id="Path-16" data-name="Path" d="M.061,5.778,0,.429A.41.41,0,1,1,.819.423L.88,5.772a.41.41,0,0,1-.709.283.432.432,0,0,1-.109-.277Z" transform="translate(2.165 37.26)" fill="#fff"/>
      </g>
    </g>
  </g>
</svg>
