<?xml version="1.0" encoding="UTF-8"?>
<svg width="56px" height="60px" viewBox="0 0 56 60" version="1.1" xmlns="http://www.w3.org/2000/svg" xmlns:xlink="http://www.w3.org/1999/xlink">
    <title>s1</title>
    <g id="Page-1" stroke="none" stroke-width="1" fill="none" fill-rule="evenodd">
        <g id="s1" fill-rule="nonzero">
            <circle id="Oval" fill-opacity="0.279092002" fill="#ABAEEF" cx="29" cy="33" r="27"></circle>
            <g id="group">
                <path d="M43.7321902,14.2780254 L1.83070248,14.2780254 C1.63154956,14.2780254 1.46991819,14.1138285 1.46991819,13.9115145 C1.46991819,13.7092003 1.63154956,13.5450034 1.83070248,13.5450034 L43.7321902,13.5450034 C43.9313431,13.5450034 44.0929745,13.7092003 44.0929745,13.9115145 C44.0929745,14.1138285 43.9313431,14.2780254 43.7321902,14.2780254 Z" id="Path" fill="#000000"></path>
                <path d="M43.7321902,23.5954688 L1.83070248,23.5954688 C1.63154956,23.5954688 1.46991819,23.4312718 1.46991819,23.2289578 C1.46991819,23.0266437 1.63154956,22.8624467 1.83070248,22.8624467 L43.7321902,22.8624467 C43.9313431,22.8624467 44.0929745,23.0266437 44.0929745,23.2289578 C44.0929745,23.4312718 43.9313431,23.5954688 43.7321902,23.5954688 Z" id="Path" fill="#000000"></path>
                <path d="M43.7321902,32.9129121 L1.83070248,32.9129121 C1.63154956,32.9129121 1.46991819,32.7487151 1.46991819,32.5464011 C1.46991819,32.344087 1.63154956,32.1798901 1.83070248,32.1798901 L43.7321902,32.1798901 C43.9313431,32.1798901 44.0929745,32.344087 44.0929745,32.5464011 C44.0929745,32.7487151 43.9313431,32.9129121 43.7321902,32.9129121 Z" id="Path" fill="#000000"></path>
                <path d="M31.953485,44.8785809 C31.7543321,44.8785809 31.5927007,44.714384 31.5927007,44.5120698 L31.5927007,1.94584568 C31.5927007,1.74353159 31.7543321,1.57933465 31.953485,1.57933465 C32.1526379,1.57933465 32.3142693,1.74353159 32.3142693,1.94584568 L32.3142693,44.5120698 C32.3142693,44.7145672 32.1526379,44.8785809 31.953485,44.8785809 Z" id="Path" fill="#000000"></path>
                <path d="M22.7814463,44.8785809 C22.5822934,44.8785809 22.420662,44.714384 22.420662,44.5120698 L22.420662,1.94584568 C22.420662,1.74353159 22.5822934,1.57933465 22.7814463,1.57933465 C22.9805993,1.57933465 23.1422306,1.74353159 23.1422306,1.94584568 L23.1422306,44.5120698 C23.1422306,44.7145672 22.9805993,44.8785809 22.7814463,44.8785809 Z" id="Path" fill="#000000"></path>
                <path d="M13.6094077,44.8785809 C13.4102547,44.8785809 13.2486233,44.714384 13.2486233,44.5120698 L13.2486233,1.94584568 C13.2486233,1.74353159 13.4102547,1.57933465 13.6094077,1.57933465 C13.8085606,1.57933465 13.970192,1.74353159 13.970192,1.94584568 L13.970192,44.5120698 C13.970192,44.7145672 13.808741,44.8785809 13.6094077,44.8785809 Z" id="Path" fill="#000000"></path>
                <path d="M34.365328,36.7916984 L11.1975647,36.7916984 C10.2216431,36.7916984 9.43044322,35.9879396 9.43044322,34.9965273 L9.43044322,11.461205 C9.43044322,10.4697927 10.2216431,9.66603394 11.1975647,9.66603394 L34.365328,9.66603394 C35.3412495,9.66603394 36.1324494,10.4697927 36.1324494,11.461205 L36.1324494,34.9967105 C36.1324494,35.9881229 35.3412495,36.7916984 34.365328,36.7916984 Z" id="Path" fill="#526FAA"></path>
                <ellipse id="Oval" fill="#FCC24C" cx="13.6095881" cy="1.94584568" rx="1.41806266" ry="1.44057159"></ellipse>
                <ellipse id="Oval" fill="#FCC24C" cx="31.9533046" cy="1.94584568" rx="1.41806266" ry="1.44057159"></ellipse>
                <ellipse id="Oval" fill="#FCC24C" cx="13.6095881" cy="44.5120698" rx="1.41806266" ry="1.44057159"></ellipse>
                <ellipse id="Oval" fill="#FCC24C" cx="31.9533046" cy="44.5120698" rx="1.41806266" ry="1.44057159"></ellipse>
                <ellipse id="Oval" fill="#FCC24C" cx="43.7320098" cy="13.9115145" rx="1.41806266" ry="1.44057159"></ellipse>
                <ellipse id="Oval" fill="#FCC24C" cx="43.7320098" cy="32.5464011" rx="1.41806266" ry="1.44057159"></ellipse>
                <ellipse id="Oval" fill="#FCC24C" cx="1.83088287" cy="13.9115145" rx="1.41806266" ry="1.44057159"></ellipse>
                <ellipse id="Oval" fill="#FCC24C" cx="1.83088287" cy="32.5464011" rx="1.41806266" ry="1.44057159"></ellipse>
                <path d="M34.3653281,9.66603394 L32.5614066,9.66603394 C33.5373281,9.66603394 34.328528,10.4697927 34.328528,11.461205 L34.328528,34.9967105 C34.328528,35.9881229 33.5373281,36.7918815 32.5614066,36.7918815 L34.3653281,36.7918815 C35.3412495,36.7918815 36.1324494,35.9881229 36.1324494,34.9967105 L36.1324494,11.461205 C36.1322691,10.4697927 35.3412495,9.66603394 34.3653281,9.66603394 Z" id="Path" fill="#34518C"></path>
                <path d="M11.1975647,36.7916984 L13.0014861,36.7916984 C12.0255646,36.7916984 11.2343648,35.9879396 11.2343648,34.9965273 L11.2343648,11.461205 C11.2343648,10.4697927 12.0255646,9.66603394 13.0014861,9.66603394 L11.1975647,9.66603394 C10.2216431,9.66603394 9.43044322,10.4697927 9.43044322,11.461205 L9.43044322,34.9967105 C9.43044322,35.9881229 10.2216431,36.7916984 11.1975647,36.7916984 Z" id="Path" fill="#708DC8"></path>
                <path d="M30.1863635,32.5464011 L15.3765291,32.5464011 C14.4006077,32.5464011 13.6094077,31.7426424 13.6094077,30.7512301 L13.6094077,15.7065022 C13.6094077,14.7150898 14.4006077,13.9113312 15.3765291,13.9113312 L30.1861831,13.9113312 C31.1621046,13.9113312 31.9533046,14.7150898 31.9533046,15.7065022 L31.9533046,30.7512301 C31.9533046,31.7428257 31.162285,32.5464011 30.1863635,32.5464011 Z" id="Path" fill="#F4EFED"></path>
                <path d="M34.365328,37.1583926 L11.1975647,37.1583926 C10.0242941,37.1583926 9.06965891,36.1886044 9.06965891,34.9967105 L9.06965891,11.461205 C9.06965891,10.2693111 10.0242941,9.29952289 11.1975647,9.29952289 L34.365328,9.29952289 C35.5385986,9.29952289 36.4932338,10.2693111 36.4932338,11.461205 L36.4932338,34.9967105 C36.4932338,36.1886044 35.5385986,37.1583926 34.365328,37.1583926 Z M11.1975647,10.032545 C10.4220588,10.032545 9.79122754,10.6733895 9.79122754,11.461205 L9.79122754,34.9967105 C9.79122754,35.784526 10.4220588,36.4253706 11.1975647,36.4253706 L34.365328,36.4253706 C35.1408338,36.4253706 35.7716651,35.784526 35.7716651,34.9967105 L35.7716651,11.461205 C35.7716651,10.6733895 35.1408338,10.032545 34.365328,10.032545 L11.1975647,10.032545 Z" id="Shape" fill="#000000"></path>
                <path d="M11.0539725,18.8977137 C10.8548196,18.8977137 10.6931882,18.7335168 10.6931882,18.5312026 L10.6931882,16.3321365 C10.6931882,16.1298224 10.8548196,15.9656255 11.0539725,15.9656255 C11.2531255,15.9656255 11.4147568,16.1298224 11.4147568,16.3321365 L11.4147568,18.5312026 C11.4147568,18.7337001 11.2533059,18.8977137 11.0539725,18.8977137 L11.0539725,18.8977137 Z" id="Path" fill="#000000"></path>
                <path d="M30.1863635,32.9129121 L15.3765291,32.9129121 C14.2032586,32.9129121 13.2486233,31.9431239 13.2486233,30.7514134 L13.2486233,15.7065022 C13.2486233,14.5146083 14.2032586,13.5450034 15.3765291,13.5450034 L30.1863635,13.5450034 C31.359634,13.5450034 32.3142693,14.5147916 32.3142693,15.7065022 L32.3142693,30.7514134 C32.3142693,31.9433072 31.359634,32.9129121 30.1863635,32.9129121 L30.1863635,32.9129121 Z M15.3765291,14.2780254 C14.6010233,14.2780254 13.970192,14.91887 13.970192,15.7065022 L13.970192,30.7514134 C13.970192,31.5390456 14.6010233,32.1798901 15.3765291,32.1798901 L30.1863635,32.1798901 C30.9618694,32.1798901 31.5927007,31.5390456 31.5927007,30.7514134 L31.5927007,15.7065022 C31.5927007,14.91887 30.9618694,14.2780254 30.1863635,14.2780254 L15.3765291,14.2780254 Z" id="Shape" fill="#000000"></path>
                <path d="M13.6094077,3.75274504 C12.6284352,3.75274504 11.8307411,2.9422059 11.8307411,1.94584568 C11.8307411,0.949302195 12.6286156,0.138763059 13.6094077,0.138763059 C14.5901997,0.138763059 15.3882547,0.949302195 15.3882547,1.94584568 C15.388435,2.9422059 14.5903801,3.75274504 13.6094077,3.75274504 Z M13.6094077,0.871785113 C13.0265606,0.871785113 12.5523097,1.35356385 12.5523097,1.94584568 C12.5523097,2.5381275 13.0265606,3.01972299 13.6094077,3.01972299 C14.1924351,3.01972299 14.666686,2.53794425 14.666686,1.94584568 C14.666686,1.35374711 14.1926155,0.871785113 13.6094077,0.871785113 Z" id="Shape" fill="#000000"></path>
                <path d="M31.953485,3.75274504 C30.9725125,3.75274504 30.174638,2.9422059 30.174638,1.94584568 C30.174638,0.949302195 30.9726929,0.138763059 31.953485,0.138763059 C32.9342771,0.138763059 33.7321516,0.949302195 33.7321516,1.94584568 C33.7321516,2.9422059 32.9342771,3.75274504 31.953485,3.75274504 L31.953485,3.75274504 Z M31.953485,0.871785113 C31.3704576,0.871785113 30.8962067,1.35356385 30.8962067,1.94584568 C30.8962067,2.5381275 31.3704576,3.01972299 31.953485,3.01972299 C32.5363321,3.01972299 33.010583,2.53794425 33.010583,1.94584568 C33.010583,1.35374711 32.5363321,0.871785113 31.953485,0.871785113 Z" id="Shape" fill="#000000"></path>
                <path d="M13.6094077,46.3191524 C12.6284352,46.3191524 11.8307411,45.5086133 11.8307411,44.5120698 C11.8307411,43.5157097 12.6286156,42.7051704 13.6094077,42.7051704 C14.5901997,42.7051704 15.3882547,43.5157097 15.3882547,44.5120698 C15.388435,45.5086133 14.5903801,46.3191524 13.6094077,46.3191524 Z M13.6094077,43.4381925 C13.0265606,43.4381925 12.5523097,43.9199713 12.5523097,44.5120698 C12.5523097,45.1041684 13.0265606,45.5861304 13.6094077,45.5861304 C14.1924351,45.5861304 14.666686,45.1043517 14.666686,44.5120698 C14.666686,43.919788 14.1926155,43.4381925 13.6094077,43.4381925 Z" id="Shape" fill="#000000"></path>
                <path d="M31.953485,46.3191524 C30.9725125,46.3191524 30.174638,45.5086133 30.174638,44.5120698 C30.174638,43.5157097 30.9726929,42.7051704 31.953485,42.7051704 C32.9342771,42.7051704 33.7321516,43.5157097 33.7321516,44.5120698 C33.7321516,45.5086133 32.9342771,46.3191524 31.953485,46.3191524 L31.953485,46.3191524 Z M31.953485,43.4381925 C31.3704576,43.4381925 30.8962067,43.9199713 30.8962067,44.5120698 C30.8962067,45.1041684 31.3704576,45.5861304 31.953485,45.5861304 C32.5363321,45.5861304 33.010583,45.1043517 33.010583,44.5120698 C33.010583,43.919788 32.5363321,43.4381925 31.953485,43.4381925 Z" id="Shape" fill="#000000"></path>
                <path d="M43.7321902,15.7184138 C42.7512177,15.7184138 41.9533432,14.9078746 41.9533432,13.9115145 C41.9533432,12.9149709 42.7513981,12.1044318 43.7321902,12.1044318 C44.7129822,12.1044318 45.5108567,12.9149709 45.5108567,13.9115145 C45.5108567,14.9078746 44.7129822,15.7184138 43.7321902,15.7184138 Z M43.7321902,12.8374539 C43.1491628,12.8374539 42.6749118,13.3192326 42.6749118,13.9115145 C42.6749118,14.5037962 43.1491628,14.9853918 43.7321902,14.9853918 C44.3150372,14.9853918 44.7892881,14.503613 44.7892881,13.9115145 C44.7892881,13.3194159 44.3150372,12.8374539 43.7321902,12.8374539 Z" id="Shape" fill="#000000"></path>
                <path d="M43.7321902,34.3534837 C42.7512177,34.3534837 41.9533432,33.5429446 41.9533432,32.5464011 C41.9533432,31.5500408 42.7513981,30.7395017 43.7321902,30.7395017 C44.7129822,30.7395017 45.5108567,31.5500408 45.5108567,32.5464011 C45.5108567,33.5429446 44.7129822,34.3534837 43.7321902,34.3534837 L43.7321902,34.3534837 Z M43.7321902,31.4725238 C43.1491628,31.4725238 42.6749118,31.9543025 42.6749118,32.5464011 C42.6749118,33.1384997 43.1491628,33.6204617 43.7321902,33.6204617 C44.3150372,33.6204617 44.7892881,33.1386829 44.7892881,32.5464011 C44.7892881,31.9541193 44.3150372,31.4725238 43.7321902,31.4725238 Z" id="Shape" fill="#000000"></path>
                <path d="M1.83070248,15.7184138 C0.849729991,15.7184138 0.0520359216,14.9078746 0.0520359216,13.9115145 C0.0520359216,12.9149709 0.849910384,12.1044318 1.83070248,12.1044318 C2.81149458,12.1044318 3.6095495,12.9149709 3.6095495,13.9115145 C3.60972982,14.9078746 2.81167497,15.7184138 1.83070248,15.7184138 Z M1.83070248,12.8374539 C1.24785546,12.8374539 0.773604506,13.3192326 0.773604506,13.9115145 C0.773604506,14.5037962 1.24785546,14.9853918 1.83070248,14.9853918 C2.41372989,14.9853918 2.88798085,14.503613 2.88798085,13.9115145 C2.88798085,13.3194159 2.41391029,12.8374539 1.83070248,12.8374539 Z" id="Shape" fill="#000000"></path>
                <path d="M1.83070248,34.3534837 C0.849729991,34.3534837 0.0520359216,33.5429446 0.0520359216,32.5464011 C0.0520359216,31.5500408 0.849910384,30.7395017 1.83070248,30.7395017 C2.81149458,30.7395017 3.6095495,31.5500408 3.6095495,32.5464011 C3.60972982,33.5429446 2.81167497,34.3534837 1.83070248,34.3534837 L1.83070248,34.3534837 Z M1.83070248,31.4725238 C1.24785546,31.4725238 0.773604506,31.9543025 0.773604506,32.5464011 C0.773604506,33.1384997 1.24785546,33.6204617 1.83070248,33.6204617 C2.41372989,33.6204617 2.88798085,33.1386829 2.88798085,32.5464011 C2.88798085,31.9541193 2.41391029,31.4725238 1.83070248,31.4725238 Z" id="Shape" fill="#000000"></path>
                <path d="M27.6742225,21.0242107 C27.6742225,18.2147204 25.379454,15.949499 22.5902306,16.0576197 C20.0555406,16.1558447 17.9898701,18.2533874 17.8924584,20.8284938 C17.8125446,22.9417964 19.0321759,24.774718 20.8043484,25.5709632 C21.1575562,25.7296625 21.3875562,26.0822461 21.3875562,26.4745962 L21.3875562,28.9483624 C21.3875562,29.7108885 21.96427,30.36676 22.7139797,30.4026781 C23.5143796,30.4409785 24.175156,29.792987 24.175156,28.988312 L24.175156,26.4744129 C24.175156,26.0831624 24.4033521,25.7302123 24.755658,25.572246 C26.4744344,24.8011068 27.6742225,23.0554148 27.6742225,21.0242107 Z" id="Path" fill="#FCC24C"></path>
                <path d="M22.7827091,30.7706552 C22.7542071,30.7706552 22.7257052,30.7701054 22.6970228,30.7686394 C21.7604268,30.7237418 21.0267719,29.924198 21.0267719,28.9481791 L21.0267719,26.4742296 C21.0267719,26.2295835 20.8820974,26.0063783 20.6582307,25.905771 C18.6759015,25.0151492 17.4485134,23.0163813 17.5316741,20.8140166 C17.6364819,18.0466751 19.8522387,15.7964806 22.5763405,15.6909254 C24.0171325,15.635399 25.3861285,16.1633581 26.4244658,17.1785937 C27.4629833,18.1941958 28.0350068,19.5598159 28.0350068,21.0238441 C28.0350068,23.1364137 26.8050931,25.0530832 24.9014149,25.9068706 C24.6795325,26.0063783 24.5361208,26.2290338 24.5361208,26.4738632 L24.5361208,28.9877623 C24.5361208,29.4798033 24.3431011,29.9379422 23.9924188,30.2776978 C23.6628423,30.5974787 23.2360346,30.7706552 22.7827091,30.7706552 L22.7827091,30.7706552 Z M22.7828895,16.4202824 C22.7233601,16.4202824 22.6638306,16.421382 22.6039405,16.4237642 C20.2545132,16.5148423 18.3432584,18.4557014 18.2528819,20.8424212 C18.1812662,22.7427809 19.2399877,24.4672153 20.9502856,25.2356056 C21.4351798,25.4534964 21.7485209,25.9396733 21.7485209,26.4744129 L21.7485209,28.9483624 C21.7485209,29.5225019 22.1892189,30.0106946 22.7309365,30.0365336 C23.015415,30.050461 23.2879875,29.9476546 23.4943561,29.7477229 C23.7007247,29.5477911 23.8143717,29.2780391 23.8143717,28.988312 L23.8143717,26.4744129 C23.8143717,25.9394901 24.1264502,25.453863 24.6097208,25.2368885 C26.2520109,24.5002012 27.3132578,22.8468701 27.3132578,21.0243939 C27.3132578,19.761397 26.8198853,18.5832472 25.9238775,17.7071026 C25.0715246,16.87329 23.9619325,16.4202824 22.7828895,16.4202824 L22.7828895,16.4202824 Z" id="Shape" fill="#690589"></path>
                <path d="M21.3875562,26.4744129 L21.3875562,28.9481791 C21.3875562,29.7107053 21.96427,30.3665767 22.7139797,30.4024948 C23.5143796,30.4407952 24.175156,29.7928038 24.175156,28.9881287 L24.175156,26.4744129 L21.3875562,26.4744129 Z" id="Path" fill="#8852A8"></path>
                <path d="M22.7828895,30.7706552 C22.7543875,30.7706552 22.7258855,30.7701054 22.6972032,30.7686394 C21.7606072,30.723925 21.0267719,29.924198 21.0267719,28.9481791 L21.0267719,26.4744129 C21.0267719,26.2720988 21.1884033,26.1079019 21.3875562,26.1079019 L24.175156,26.1079019 C24.374309,26.1079019 24.5359404,26.2720988 24.5359404,26.4744129 L24.5359404,28.9881287 C24.5359404,29.4801698 24.3429208,29.9383086 23.9922384,30.2780643 C23.6628423,30.5974787 23.2360346,30.7706552 22.7828895,30.7706552 L22.7828895,30.7706552 Z M21.7483405,26.840924 L21.7483405,28.9481791 C21.7483405,29.5223186 22.1890385,30.0105113 22.7309365,30.0363503 C23.0175797,30.0508275 23.2881679,29.9474714 23.4941757,29.7475397 C23.7007247,29.5474246 23.8141913,29.2778558 23.8141913,28.9879456 L23.8141913,26.840924 L21.7483405,26.840924 Z" id="Shape" fill="#690589"></path>
                <path d="M24.0477992,28.6260159 L21.5150935,28.6260159 C21.3159405,28.6260159 21.1543092,28.4618189 21.1543092,28.2595049 C21.1543092,28.0571908 21.3159405,27.8929938 21.5150935,27.8929938 L24.0476188,27.8929938 C24.2467717,27.8929938 24.4084031,28.0571908 24.4084031,28.2595049 C24.4084031,28.4618189 24.2469521,28.6260159 24.0477992,28.6260159 Z" id="Path" fill="#690589"></path>
                <path d="M27.6742225,21.0242107 C27.6742225,18.2147204 25.379454,15.949499 22.5902306,16.0576197 C20.0555406,16.1558447 17.9898701,18.2533874 17.8924584,20.8284938 C17.8125446,22.9417964 19.0321759,24.774718 20.8043484,25.5709632 C21.1575562,25.7296625 21.3875562,26.0822461 21.3875562,26.4745962 L21.3875562,28.9483624 C21.3875562,29.7108885 21.96427,30.36676 22.7139797,30.4026781 C23.5143796,30.4409785 24.175156,29.792987 24.175156,28.988312 L24.175156,26.4744129 C24.175156,26.0831624 24.4033521,25.7302123 24.755658,25.572246 C26.4744344,24.8011068 27.6742225,23.0554148 27.6742225,21.0242107 Z" id="Path" fill="#FCC24C"></path>
                <path d="M22.7827091,30.7706552 C22.7542071,30.7706552 22.7257052,30.7701054 22.6970228,30.7686394 C21.7604268,30.7237418 21.0267719,29.924198 21.0267719,28.9481791 L21.0267719,26.4742296 C21.0267719,26.2295835 20.8820974,26.0063783 20.6582307,25.905771 C18.6759015,25.0151492 17.4485134,23.0163813 17.5316741,20.8140166 C17.6364819,18.0466751 19.8522387,15.7964806 22.5763405,15.6909254 C24.0171325,15.635399 25.3861285,16.1633581 26.4244658,17.1785937 C27.4629833,18.1941958 28.0350068,19.5598159 28.0350068,21.0238441 C28.0350068,23.1364137 26.8050931,25.0530832 24.9014149,25.9068706 C24.6795325,26.0063783 24.5361208,26.2290338 24.5361208,26.4738632 L24.5361208,28.9877623 C24.5361208,29.4798033 24.3431011,29.9379422 23.9924188,30.2776978 C23.6628423,30.5974787 23.2360346,30.7706552 22.7827091,30.7706552 L22.7827091,30.7706552 Z M22.7828895,16.4202824 C22.7233601,16.4202824 22.6638306,16.421382 22.6039405,16.4237642 C20.2545132,16.5148423 18.3432584,18.4557014 18.2528819,20.8424212 C18.1812662,22.7427809 19.2399877,24.4672153 20.9502856,25.2356056 C21.4351798,25.4534964 21.7485209,25.9396733 21.7485209,26.4744129 L21.7485209,28.9483624 C21.7485209,29.5225019 22.1892189,30.0106946 22.7309365,30.0365336 C23.015415,30.050461 23.2879875,29.9476546 23.4943561,29.7477229 C23.7007247,29.5477911 23.8143717,29.2780391 23.8143717,28.988312 L23.8143717,26.4744129 C23.8143717,25.9394901 24.1264502,25.453863 24.6097208,25.2368885 C26.2520109,24.5002012 27.3132578,22.8468701 27.3132578,21.0243939 C27.3132578,19.761397 26.8198853,18.5832472 25.9238775,17.7071026 C25.0715246,16.87329 23.9619325,16.4202824 22.7828895,16.4202824 L22.7828895,16.4202824 Z" id="Shape" fill="#000000"></path>
                <path d="M21.3875562,26.4744129 L21.3875562,28.9481791 C21.3875562,29.7107053 21.96427,30.3665767 22.7139797,30.4024948 C23.5143796,30.4407952 24.175156,29.7928038 24.175156,28.9881287 L24.175156,26.4744129 L21.3875562,26.4744129 Z" id="Path" fill="#000000"></path>
                <path d="M22.7828895,30.7706552 C22.7543875,30.7706552 22.7258855,30.7701054 22.6972032,30.7686394 C21.7606072,30.723925 21.0267719,29.924198 21.0267719,28.9481791 L21.0267719,26.4744129 C21.0267719,26.2720988 21.1884033,26.1079019 21.3875562,26.1079019 L24.175156,26.1079019 C24.374309,26.1079019 24.5359404,26.2720988 24.5359404,26.4744129 L24.5359404,28.9881287 C24.5359404,29.4801698 24.3429208,29.9383086 23.9922384,30.2780643 C23.6628423,30.5974787 23.2360346,30.7706552 22.7828895,30.7706552 L22.7828895,30.7706552 Z M21.7483405,26.840924 L21.7483405,28.9481791 C21.7483405,29.5223186 22.1890385,30.0105113 22.7309365,30.0363503 C23.0175797,30.0508275 23.2881679,29.9474714 23.4941757,29.7475397 C23.7007247,29.5474246 23.8141913,29.2778558 23.8141913,28.9879456 L23.8141913,26.840924 L21.7483405,26.840924 Z" id="Shape" fill="#1C1C1C"></path>
                <path d="M24.0477992,28.6260159 L21.5150935,28.6260159 C21.3159405,28.6260159 21.1543092,28.4618189 21.1543092,28.2595049 C21.1543092,28.0571908 21.3159405,27.8929938 21.5150935,27.8929938 L24.0476188,27.8929938 C24.2467717,27.8929938 24.4084031,28.0571908 24.4084031,28.2595049 C24.4084031,28.4618189 24.2469521,28.6260159 24.0477992,28.6260159 Z" id="Path" fill="#690589"></path>
            </g>
        </g>
    </g>
</svg>