<?xml version="1.0" encoding="UTF-8"?>
<svg width="63px" height="61px" viewBox="0 0 63 61" version="1.1" xmlns="http://www.w3.org/2000/svg" xmlns:xlink="http://www.w3.org/1999/xlink">
    <title>Group 19</title>
    <g id="Page-1" stroke="none" stroke-width="1" fill="none" fill-rule="evenodd">
        <g id="Layout-2.3-Copy-2" transform="translate(-758.000000, -1812.000000)">
            <g id="Group-19" transform="translate(758.000000, 1812.000000)">
                <circle id="Oval" fill-opacity="0.279092002" fill="#ABAEEF" cx="36" cy="34" r="27"></circle>
                <g id="Group" fill-rule="nonzero">
                    <g id="eco-services" transform="translate(2.000000, 1.000000)">
                        <path d="M47.4799791,28.9808653 L47.4799791,23.0610382 L41.2065952,22.0833949 C40.7655857,20.1429767 39.9984556,18.2914771 38.9378817,16.6077624 L42.6824006,11.4794596 L38.4964546,7.29351362 L33.3681518,11.0380326 C31.6844433,9.97744669 29.8329416,9.21031578 27.8925193,8.76931905 L26.915568,2.49662706 L20.9957409,2.49662706 L20.0174057,8.77001094 C18.0769834,9.21100767 16.2254817,9.97813858 14.5417732,11.0387245 L9.41347041,7.29420551 L5.2275244,11.4801515 L8.97135149,16.6077624 C7.91076558,18.2914709 7.14363467,20.1429726 6.70263794,22.0833949 L0.431329736,23.0610382 L0.431329736,28.9808653 L6.70471361,29.9592004 C7.14514125,31.8992513 7.91156497,33.7505062 8.97135149,35.4341411 L5.22890819,40.5624438 L9.41485419,44.7483899 L14.5424651,41.0059466 C16.2261736,42.0665325 18.0776753,42.8336634 20.0180976,43.2746601 L20.9964327,49.548044 L26.9162599,49.548044 L27.894595,43.2746601 C29.834537,42.8335149 31.6855593,42.0663888 33.3688437,41.0059466 L38.4971465,44.7504655 L42.6830925,40.5645195 L38.9385736,35.4362167 C39.9991475,33.7525021 40.7662776,31.9010025 41.2072871,29.9605842 L47.4799791,28.9808653 Z" id="Path" fill="#FE7058"></path>
                        <path d="M27.8925193,8.77208662 C29.8858026,9.38775777 31.7971329,10.2427104 33.584714,11.3182488 L32.2355248,12.3007353 C30.2497976,11.0078788 28.0879822,10.0081819 25.8168436,9.33251906 L24.841276,3.05705951 L20.9044111,3.05705951 L20.9943571,2.49662706 L26.9169518,2.49662706 L27.8925193,8.77208662 Z" id="Path" fill-opacity="0.350988855" fill="#000000"></path>
                        <path d="M38.9351141,35.4306816 L42.6851682,40.5645195 L38.4992222,44.7504655 L37.6205195,44.1070061 L40.6094925,41.118033 L36.8594384,35.991114 C37.9902827,34.1040896 38.8232019,32.0538808 39.3288006,29.9128437 L41.342206,29.6014923 C40.8332064,31.6531244 40.0219719,33.617669 38.9351141,35.4306816 L38.9351141,35.4306816 Z" id="Path" fill-opacity="0.245164991" fill="#000000"></path>
                        <path d="M47.4799791,23.0596544 L47.4799791,28.9822491 L45.4043034,29.3074383 L45.4043034,23.6200868 L39.1288438,22.6445193 C38.6898314,20.7020552 37.9223318,18.8488245 36.8594384,17.1647354 L40.6094925,12.0378164 L36.97706,8.40538391 L38.4992222,7.29143795 L42.6851682,11.477384 L38.9351141,16.6112219 C39.9991397,18.2922299 40.7667516,20.1433916 41.2045195,22.0840868 L47.4799791,23.0596544 Z" id="Path" fill-opacity="0.350988855" fill="#000000"></path>
                        <circle id="Oval" fill="#FFFFFF" cx="23.9556544" cy="26.0209517" r="10.5624218"></circle>
                        <path d="M23.9563463,36.9293195 C17.9318212,36.9293195 13.0479786,32.0454769 13.0479786,26.0209517 C13.0479786,19.9964266 17.9318212,15.112584 23.9563463,15.112584 C29.9808714,15.112584 34.864714,19.9964266 34.864714,26.0209517 C34.8578508,32.0426318 29.9780263,36.9224563 23.9563463,36.9293195 L23.9563463,36.9293195 Z M23.9563463,15.8044759 C18.3139425,15.8044759 13.7398705,20.3785479 13.7398705,26.0209517 C13.7398705,31.6633555 18.3139425,36.2374276 23.9563463,36.2374276 C29.5987501,36.2374276 34.1728221,31.6633555 34.1728221,26.0209517 C34.1663403,20.381235 29.5960631,15.8109577 23.9563463,15.8044759 L23.9563463,15.8044759 Z" id="Shape" fill="#323C6B"></path>
                        <circle id="Oval" fill="#FFFFFF" cx="23.9556544" cy="26.0209517" r="10.5624218"></circle>
                        <path d="M23.9563463,36.9293195 C17.9318212,36.9293195 13.0479786,32.0454769 13.0479786,26.0209517 C13.0479786,19.9964266 17.9318212,15.112584 23.9563463,15.112584 C29.9808714,15.112584 34.864714,19.9964266 34.864714,26.0209517 C34.8578508,32.0426318 29.9780263,36.9224563 23.9563463,36.9293195 L23.9563463,36.9293195 Z M23.9563463,15.8044759 C18.3139425,15.8044759 13.7398705,20.3785479 13.7398705,26.0209517 C13.7398705,31.6633555 18.3139425,36.2374276 23.9563463,36.2374276 C29.5987501,36.2374276 34.1728221,31.6633555 34.1728221,26.0209517 C34.1663403,20.381235 29.5960631,15.8109577 23.9563463,15.8044759 L23.9563463,15.8044759 Z" id="Shape" fill="#323C6B"></path>
                        <path d="M31.8037843,33.1384437 L27.9056653,27.4303355 C29.1024876,25.4172593 29.0230606,22.8927639 27.7020577,20.9589048 C26.3810549,19.0250456 24.0583186,18.0329359 21.7478274,18.415676 L24.054595,21.7831138 L23.6941193,23.7017301 L21.7416003,25.0287788 L19.829903,24.6683031 L17.5300543,21.3001733 C16.3374645,23.3129151 16.4191167,25.8343445 17.7394297,27.7657103 C19.0597427,29.697076 21.3795235,30.6884843 23.6878922,30.307914 L27.5389626,35.9482168 C29.1606357,35.3578265 30.621321,34.3954899 31.8037843,33.1384437 L31.8037843,33.1384437 Z" id="Path" fill="#E1E6E9"></path>
                        <path d="M31.8037843,33.1405194 C31.4701702,33.4974227 31.1118039,33.8303565 30.7313518,34.1368438 L26.524649,28.0620329 C27.554454,26.3270423 27.6465568,24.1915107 26.769954,22.3742991 C25.8933511,20.5570875 24.1646371,19.299898 22.1657301,19.0259246 L21.7505949,18.4170597 C24.0602738,18.0377849 26.380546,19.0308176 27.7007096,20.9635964 C29.0208732,22.8963753 29.1018758,25.4189167 27.9084328,27.4324112 L31.8037843,33.1405194 Z" id="Path" fill="#EEEFEE"></path>
                        <g id="Group" fill="#323C6B">
                            <path d="M42.7668114,43.6856445 C42.6266972,43.6858946 42.5002681,43.6016047 42.4466147,43.4721698 C42.3929614,43.342735 42.4226804,43.1937186 42.5218817,43.0947682 L42.9114169,42.705925 C43.0471587,42.5748211 43.2629273,42.576696 43.3963703,42.7101391 C43.5298134,42.8435821 43.5316883,43.0593506 43.4005844,43.1950925 L43.0117412,43.5846277 C42.9467374,43.6494676 42.8586247,43.6858079 42.7668114,43.6856445 L42.7668114,43.6856445 Z" id="Path"></path>
                            <path d="M38.7088654,47.8183142 C38.6351978,47.8175725 38.5636907,47.7933328 38.5047573,47.749125 L36.0935141,45.9875683 C35.939137,45.8748425 35.905372,45.6583128 36.0180978,45.5039358 C36.1308236,45.3495588 36.3473532,45.3157938 36.5017303,45.4285196 L38.6770384,47.0164115 L41.5712222,44.1194601 C41.7069641,43.9883562 41.9227327,43.9902312 42.0561757,44.1236742 C42.1896187,44.2571173 42.1914937,44.4728858 42.0603898,44.6086277 L38.9537952,47.7152223 C38.8891326,47.7808239 38.8009776,47.8179287 38.7088654,47.8183142 L38.7088654,47.8183142 Z" id="Path"></path>
                            <path d="M18.3022057,6.24806496 C18.2843686,6.24800884 18.2665605,6.2466212 18.24893,6.24391361 C18.0601696,6.2144779 17.9310018,6.03760786 17.9604111,5.84884333 L18.0427462,5.31885413 C18.0754747,5.13351128 18.2503697,5.00833819 18.4363631,5.03714081 C18.6223565,5.06594343 18.7511993,5.23815283 18.7263354,5.42471359 L18.6440003,5.95470279 C18.6180529,6.12342589 18.4729123,6.248 18.3022057,6.24806496 L18.3022057,6.24806496 Z" id="Path"></path>
                            <path d="M18.6343138,4.11842188 C18.6143803,4.11842188 18.5944788,4.11682277 18.5748111,4.11357844 C18.4843063,4.09787358 18.4037632,4.04681903 18.3509385,3.97167042 C18.2981139,3.89652182 18.2773451,3.80344971 18.2932111,3.71297303 L18.8778597,0.361448654 C18.9067938,0.195733709 19.0507406,0.0748535056 19.2189624,0.0750052635 L21.7097733,0.0750052635 C21.900834,0.0750052635 22.0557192,0.229890685 22.0557192,0.420951358 C22.0557192,0.612012031 21.900834,0.766897309 21.7097733,0.766897309 L19.509557,0.766897309 L18.9747246,3.83197844 C18.9458355,3.99743604 18.8022744,4.11823742 18.6343138,4.11842188 L18.6343138,4.11842188 Z" id="Path"></path>
                            <path d="M26.915568,49.891223 L20.9957409,49.891223 C20.8252589,49.891223 20.6802005,49.7670003 20.6539463,49.5985521 L19.7122814,43.5555682 C17.8932765,43.117929 16.1541737,42.3976804 14.5583786,41.4210817 L9.61827041,45.0279142 C9.48068472,45.128331 9.29047684,45.1136545 9.16992446,44.9933196 L4.98397845,40.8073736 C4.86364359,40.6868212 4.84896706,40.4966133 4.94938386,40.3590276 L8.55621634,35.4189194 C7.57936573,33.8231721 6.85888208,32.0840656 6.42103793,30.2650167 L0.37805406,29.3226599 C0.209605859,29.2964057 0.0853837851,29.1513472 0.0853837851,28.9808653 L0.0853837851,23.0610382 C0.0853837851,22.8905563 0.209605859,22.7454978 0.37805406,22.7192436 L6.42103793,21.7775787 C6.85881362,19.95829 7.5792993,18.2189451 8.55621634,16.622984 L4.94938386,11.6835677 C4.84896706,11.5459821 4.86364359,11.3557742 4.98397845,11.2352218 L9.16992446,7.04927578 C9.29047684,6.92894092 9.48068472,6.91426438 9.61827041,7.01468119 L14.5583786,10.6222056 C16.1542038,9.645508 17.8932856,8.92503462 19.7122814,8.48702715 L20.6539463,2.44404328 C20.6802005,2.27559508 20.8252589,2.15137301 20.9957409,2.15137301 L26.915568,2.15137301 C27.0860499,2.15137301 27.2311084,2.27559508 27.2573626,2.44404328 L28.1997193,8.48702715 C30.0188301,8.92502175 31.7579486,9.64574383 33.3536221,10.6228975 L38.2937303,7.01537308 C38.431316,6.91495628 38.6215239,6.92963281 38.7420763,7.04996767 L42.9280223,11.2359137 C43.0483571,11.3564661 43.0630337,11.5466739 42.9626169,11.6842596 L39.3550925,16.6236759 C40.3319431,18.2194232 41.0524267,19.9585298 41.4902709,21.7775787 L47.5332548,22.7192436 C47.701703,22.7454978 47.825925,22.8905563 47.825925,23.0610382 L47.825925,28.9808653 C47.825925,29.1513472 47.701703,29.2964057 47.5332548,29.3226599 L41.4902709,30.2643248 C41.0524267,32.0833737 40.3319431,33.8224802 39.3550925,35.4182276 L42.9626169,40.3576438 C43.0630337,40.4952295 43.0483571,40.6854374 42.9280223,40.8059898 L38.7420763,44.9919358 C38.6215239,45.1122707 38.431316,45.1269472 38.2937303,45.0265304 L33.3529302,41.4210817 C31.75735,42.3977741 30.0184967,43.1182495 28.1997193,43.5562601 L27.2580545,49.5985521 C27.2317602,49.7672596 27.0863119,49.891223 26.915568,49.891223 L26.915568,49.891223 Z M21.2918706,49.1993305 L26.6194382,49.1993305 L27.5521085,43.2200006 C27.5738053,43.0798567 27.6788357,42.9671479 27.8171031,42.9356331 C29.7205001,42.5038788 31.5365669,41.7514347 33.1875681,40.7105087 C33.3077408,40.6348883 33.461918,40.6403751 33.5764113,40.7243466 L38.4653195,44.2945088 L42.231979,40.5278493 L38.6618168,35.6389411 C38.57806,35.5243038 38.5728477,35.3701302 38.6486708,35.2500978 C39.6871739,33.5995533 40.4374974,31.7844585 40.8675682,29.8824004 C40.899083,29.744133 41.0117918,29.6391026 41.1519357,29.6174058 L47.1333412,28.6847356 L47.1333412,23.3571679 L41.1519357,22.4244976 C41.0117918,22.4028009 40.899083,22.2977705 40.8675682,22.159503 C40.4368629,20.2565492 39.6855925,18.4407256 38.6459033,16.78973 C38.5700801,16.6696976 38.5752924,16.515524 38.6590492,16.4008867 L42.2292114,11.5119785 L38.4625519,7.74531903 L33.5736437,11.3154812 C33.4590064,11.3992381 33.3048329,11.4044503 33.1848005,11.3286272 C31.5342622,10.2901121 29.7191653,9.53978784 27.8171031,9.10972987 C27.6788357,9.07821508 27.5738053,8.96550622 27.5521085,8.82536229 L26.6194382,2.84257302 L21.2918706,2.84257302 L20.3598922,8.82328662 C20.337936,8.96316439 20.232958,9.07554284 20.0948976,9.1069623 C18.1928106,9.53907959 16.3779786,10.2912628 14.7278921,11.3313948 C14.6078597,11.4072179 14.4536862,11.4020056 14.3390489,11.3182488 L9.45014068,7.7480866 L5.68278927,11.5147461 L9.25295149,16.4036543 C9.33692298,16.5181476 9.34240971,16.6723248 9.26678933,16.7924975 C8.2264567,18.4426502 7.47447898,20.257785 7.04304875,22.1601949 C7.01153397,22.2984624 6.89882511,22.4034928 6.75868118,22.4251895 L0.777967579,23.3571679 L0.777967579,28.6847356 L6.7572974,29.616714 C6.89744133,29.6384107 7.01015019,29.7434411 7.04166497,29.8817086 C7.47309519,31.7841185 8.22507292,33.5992533 9.26540554,35.2494059 C9.34102593,35.3695786 9.33553919,35.5237559 9.25156771,35.6382492 L5.68140549,40.5271574 L9.44806501,44.2938169 L14.3369732,40.7236547 C14.4514665,40.6396832 14.6056437,40.6341964 14.7258164,40.7098168 C16.3757633,41.7500654 18.1906562,42.5020399 20.0928219,42.9335574 C20.2310894,42.9650722 20.3361198,43.077781 20.3578165,43.217925 L21.2918706,49.1993305 Z" id="Shape"></path>
                            <path d="M27.5368869,36.2941754 C27.4225653,36.2941754 27.3156129,36.2377341 27.2511355,36.1433303 L23.5225301,30.6815356 C21.1090249,30.992976 18.7291574,29.9011129 17.3910918,27.8684834 C16.0530262,25.8358539 15.9909488,23.2182059 17.231157,21.1244327 C17.2912273,21.0224249 17.3992865,20.9582158 17.5176003,20.9542273 C17.6365676,20.9478787 17.7499182,21.0053448 17.8151138,21.1050598 L20.0340111,24.3569517 L21.6648003,24.6641517 L23.3800003,23.4983139 L23.6872004,21.8619895 L21.462076,18.6100976 C21.3951932,18.5124399 21.3828821,18.3873663 21.4294407,18.2785424 C21.4759994,18.1697186 21.574964,18.0922526 21.6917841,18.0731895 C24.0955948,17.6750439 26.5157779,18.6840309 27.9248872,20.6718027 C29.3339965,22.6595745 29.4847662,25.2773233 28.3131896,27.4137301 L32.0895356,32.9440221 C32.1808505,33.0780865 32.1667545,33.2575947 32.0556329,33.3757627 C30.8352966,34.6704837 29.3297405,35.6626582 27.6586599,36.2734059 C27.61962,36.2874879 27.5783873,36.2945162 27.5368869,36.2941754 L27.5368869,36.2941754 Z M23.6865085,29.961968 C23.80083,29.9619423 23.9077825,30.0183966 23.9722598,30.1128004 L27.6683464,35.5268546 C29.0532005,34.9828729 30.3097665,34.1567862 31.3582059,33.1010816 L27.6219896,27.6247572 C27.5462096,27.5137143 27.5416228,27.3688249 27.6102274,27.2532112 C28.6862532,25.4422953 28.6703827,23.1842889 27.5690083,21.388677 C26.4676338,19.5930651 24.4620813,18.5554699 22.3601517,18.6938165 L24.3417301,21.5873084 C24.3936866,21.6631028 24.4133526,21.7564544 24.3963896,21.8467679 L24.0359139,23.7653841 C24.018935,23.8557894 23.9666503,23.9357102 23.8906166,23.9874814 L21.9380976,25.3138382 C21.862386,25.3653712 21.769329,25.3847788 21.6793301,25.3678058 L19.7648652,25.008022 C19.6748256,24.9910427 19.5951994,24.9390369 19.5434598,24.8634166 L17.5688003,21.9713084 C16.6796178,23.8780544 16.9185807,26.1202923 18.1896441,27.7968136 C19.4607075,29.4733349 21.5551467,30.3088336 23.6311571,29.9675031 C23.6491823,29.9640792 23.6674709,29.9622272 23.6858166,29.961968 L23.6865085,29.961968 Z" id="Shape"></path>
                        </g>
                        <path d="M11.6005407,31.6024437 C11.4190407,31.6022579 11.2553848,31.4931539 11.1854056,31.325687 C9.87110068,28.1749369 9.77761333,24.647578 10.9231785,21.4316328 C11.0057168,21.1972013 11.2626714,21.0740675 11.4971029,21.1566057 C11.7315343,21.2391439 11.8546681,21.4960986 11.7721299,21.7305301 C10.700551,24.7366528 10.7873799,28.0341775 12.0156759,30.979741 C12.0731386,31.1185501 12.0576123,31.2768709 11.9742781,31.4018722 C11.8909439,31.5268736 11.7507732,31.6020982 11.6005407,31.6024437 L11.6005407,31.6024437 Z" id="Path" fill="#FFFFFF"></path>
                        <path d="M12.149211,20.1855517 C12.0767071,20.1850109 12.0054375,20.1667184 11.9416434,20.1322598 C11.8362974,20.076308 11.7575424,19.9807404 11.722755,19.866643 C11.6879676,19.7525456 11.7000069,19.6292955 11.7562164,19.5240868 C11.9347245,19.1892111 12.1402164,18.8481084 12.4010596,18.4509624 C12.4876155,18.3128219 12.6421484,18.2323359 12.8049564,18.2405995 C12.9677644,18.248863 13.1133539,18.344582 13.1854779,18.4907766 C13.257602,18.6369712 13.244967,18.8107491 13.1524543,18.9449733 C12.9075245,19.3185949 12.7151786,19.6368652 12.5498164,19.9475246 C12.4709988,20.0952492 12.3166408,20.1869576 12.149211,20.1855517 L12.149211,20.1855517 Z" id="Path" fill="#FFFFFF"></path>
                    </g>
                </g>
            </g>
        </g>
    </g>
</svg>