<svg xmlns="http://www.w3.org/2000/svg" width="63" height="61" viewBox="0 0 63 61">
  <g id="s11" transform="translate(-30 -40)">
    <circle id="Oval" cx="27" cy="27" r="27" transform="translate(39 47)" fill="rgba(171,174,239,0.28)"/>
    <g id="Rectangle" transform="translate(30 40)">
      <g id="eco-services" transform="translate(2 1)">
        <path id="Path" d="M47.049,26.484v-5.92l-6.273-.978a17.587,17.587,0,0,0-2.269-5.476l3.745-5.128L38.065,4.8,32.937,8.541a17.586,17.586,0,0,0-5.476-2.269L26.484,0h-5.92l-.978,6.273A17.586,17.586,0,0,0,14.11,8.542L8.982,4.8,4.8,8.984,8.54,14.111a17.586,17.586,0,0,0-2.269,5.476L0,20.564v5.92l6.273.978A17.586,17.586,0,0,0,8.54,32.938L4.8,38.066l4.186,4.186,5.128-3.742a17.586,17.586,0,0,0,5.476,2.269l.978,6.273h5.92l.978-6.273a17.586,17.586,0,0,0,5.474-2.269l5.128,3.745,4.186-4.186L38.507,32.94a17.587,17.587,0,0,0,2.269-5.476Z" transform="translate(0.431 2.497)" fill="#fe7058"/>
        <path id="Path-2" data-name="Path" d="M6.988,6.275A25.823,25.823,0,0,1,12.68,8.822L11.331,9.8A24.642,24.642,0,0,0,4.912,6.836L3.937.56H0L.09,0H6.013Z" transform="translate(20.904 2.497)" fill="rgba(0,0,0,0.35)"/>
        <path id="Path-3" data-name="Path" d="M2.076,5.829l3.75,5.134L1.64,15.149l-.879-.643L3.75,11.517,0,6.39A21.386,21.386,0,0,0,2.469.311L4.483,0A21.323,21.323,0,0,1,2.076,5.829Z" transform="translate(36.859 29.601)" fill="rgba(0,0,0,0.25)"/>
        <path id="Path-4" data-name="Path" d="M10.621,15.768v5.923l-2.076.325V16.329l-6.275-.976A17.492,17.492,0,0,0,0,9.873L3.75,4.746.118,1.114,1.64,0,5.826,4.186,2.076,9.32a17.386,17.386,0,0,1,2.269,5.473Z" transform="translate(36.859 7.291)" fill="rgba(0,0,0,0.35)"/>
        <circle id="Oval-2" data-name="Oval" cx="10.562" cy="10.562" r="10.562" transform="translate(13.393 15.459)" fill="#fff"/>
        <path id="Shape" d="M0,10.908A10.908,10.908,0,1,1,10.908,21.817,10.908,10.908,0,0,1,0,10.908Z" transform="translate(13.048 15.113)" fill="#323c6b"/>
        <circle id="Oval-3" data-name="Oval" cx="10.562" cy="10.562" r="10.562" transform="translate(13.393 15.459)" fill="#fff"/>
        <path id="Shape-2" data-name="Shape" d="M0,10.908A10.908,10.908,0,1,1,10.908,21.817,10.908,10.908,0,0,1,0,10.908Z" transform="translate(13.048 15.113)" fill="#323c6b"/>
        <path id="Path-5" data-name="Path" d="M15.115,14.8,11.216,9.1A6.019,6.019,0,0,0,5.059.081L7.365,3.449,7,5.367,5.052,6.694l-1.912-.36L.841,2.966A6.019,6.019,0,0,0,7,11.973l3.851,5.64a11.041,11.041,0,0,0,4.265-2.81Z" transform="translate(16.689 18.335)" fill="#e1e6e9"/>
        <path id="Path-6" data-name="Path" d="M10.053,14.8a10.392,10.392,0,0,1-1.072,1L4.774,9.725a6.019,6.019,0,0,0,.245-5.688A6.019,6.019,0,0,0,.415.689L0,.08A6.024,6.024,0,0,1,6.158,9.1Z" transform="translate(21.751 18.337)" fill="#eeefee"/>
        <g id="Group">
          <path id="Path-7" data-name="Path" d="M.347,1.077A.346.346,0,0,1,.1.486L.491.1A.346.346,0,0,1,.98.586L.592.976a.346.346,0,0,1-.245.1Z" transform="translate(42.42 42.609)" fill="#323c6b"/>
          <path id="Path-8" data-name="Path" d="M2.757,3.8a.346.346,0,0,1-.2-.069L.142,1.965A.346.346,0,0,1,.55,1.406L2.726,2.994,5.62.1a.346.346,0,0,1,.489.489L3,3.693a.346.346,0,0,1-.245.1Z" transform="translate(35.951 44.022)" fill="#323c6b"/>
          <path id="Path-9" data-name="Path" d="M.346,1.215a.358.358,0,0,1-.053,0A.346.346,0,0,1,0,.816L.087.286A.346.346,0,0,1,.77.392L.688.922a.346.346,0,0,1-.342.293Z" transform="translate(17.956 5.033)" fill="#323c6b"/>
          <path id="Path-10" data-name="Path" d="M.346,4.043a.363.363,0,0,1-.06,0,.346.346,0,0,1-.282-.4L.59.286A.346.346,0,0,1,.931,0H3.422a.346.346,0,0,1,0,.692h-2.2L.687,3.757a.346.346,0,0,1-.34.286Z" transform="translate(18.288 0.075)" fill="#323c6b"/>
          <path id="Shape-3" data-name="Shape" d="M26.83,47.74H20.911a.346.346,0,0,1-.342-.292L19.627,41.4a17.915,17.915,0,0,1-5.154-2.135l-4.94,3.607a.346.346,0,0,1-.448-.035L4.9,38.656a.346.346,0,0,1-.035-.448l3.607-4.94a17.88,17.88,0,0,1-2.135-5.154L.293,27.171A.345.345,0,0,1,0,26.83V20.91a.346.346,0,0,1,.293-.342l6.043-.941a17.88,17.88,0,0,1,2.135-5.154L4.864,9.532A.346.346,0,0,1,4.9,9.084L9.085,4.9a.345.345,0,0,1,.448-.034l4.94,3.607a17.89,17.89,0,0,1,5.154-2.135L20.569.293A.346.346,0,0,1,20.911,0H26.83a.346.346,0,0,1,.342.293l.942,6.043a17.867,17.867,0,0,1,5.154,2.136l4.94-3.608a.346.346,0,0,1,.448.035l4.186,4.186a.345.345,0,0,1,.034.448L39.27,14.472A17.89,17.89,0,0,1,41.4,19.626l6.043.941a.346.346,0,0,1,.292.342v5.92a.345.345,0,0,1-.292.341l-6.043.942a17.885,17.885,0,0,1-2.135,5.153l3.607,4.939a.346.346,0,0,1-.034.449l-4.186,4.186a.346.346,0,0,1-.448.034L33.268,39.27A17.885,17.885,0,0,1,28.114,41.4l-.941,6.043a.345.345,0,0,1-.341.293Z" transform="translate(0.085 2.151)" fill="#323c6b"/>
          <path id="Shape-4" data-name="Shape" d="M10.909,18.156,7.18,12.694A6.366,6.366,0,0,1,.888,3.137a.347.347,0,0,1,.287-.171.333.333,0,0,1,.3.151L3.692,6.369l1.631.308L7.037,5.511l.308-1.636L5.119.623A.346.346,0,0,1,5.35.086a6.366,6.366,0,0,1,6.621,9.341l3.776,5.53a.346.346,0,0,1-.034.432,11.442,11.442,0,0,1-4.4,2.9.38.38,0,0,1-.122.021A.345.345,0,0,1,10.909,18.156Z" transform="translate(16.342 17.987)" fill="#323c6b"/>
        </g>
        <path id="Path-11" data-name="Path" d="M1.474,10.472a.45.45,0,0,1-.415-.277A13.731,13.731,0,0,1,.8.3a.45.45,0,0,1,.849.3,12.835,12.835,0,0,0,.244,9.249.45.45,0,0,1-.415.623Z" transform="translate(10.127 21.131)" fill="#fff"/>
        <path id="Path-12" data-name="Path" d="M.446,1.946a.444.444,0,0,1-.208-.053.449.449,0,0,1-.185-.608C.231.949.437.608.7.211A.45.45,0,1,1,1.449.7c-.245.374-.437.692-.6,1a.45.45,0,0,1-.4.238Z" transform="translate(11.703 18.24)" fill="#fff"/>
      </g>
    </g>
  </g>
</svg>
