<?xml version="1.0" encoding="UTF-8"?>
<svg width="63px" height="61px" viewBox="0 0 63 61" version="1.1" xmlns="http://www.w3.org/2000/svg" xmlns:xlink="http://www.w3.org/1999/xlink">
    <title>Group 22</title>
    <g id="Page-1" stroke="none" stroke-width="1" fill="none" fill-rule="evenodd">
        <g id="Layout-2.3-Copy-2" transform="translate(-454.000000, -1812.000000)">
            <g id="Group-22" transform="translate(454.000000, 1812.000000)">
                <circle id="Oval" fill-opacity="0.279092002" fill="#ABAEEF" cx="36" cy="34" r="27"></circle>
                <g id="Group">
                    <g id="dollar" transform="translate(2.000000, 2.000000)" fill-rule="nonzero">
                        <circle id="Oval" fill="#E7AA6C" cx="23.9130814" cy="24.1950923" r="23.5243247"></circle>
                        <g id="Group" fill="#323C6B">
                            <path d="M12.2982921,47.3305764 C12.2434095,47.3307913 12.189288,47.3177356 12.1405407,47.2925196 L11.9696434,47.2053412 C11.7115677,47.0745737 11.4534921,46.9424223 11.2023353,46.8005845 C11.0904966,46.7420062 11.0194499,46.6271546 11.0169691,46.500928 C11.0144883,46.3747014 11.0809674,46.257147 11.190418,46.1942196 C11.2998687,46.1312922 11.4349081,46.1329859 11.5427461,46.1986385 C11.7856002,46.3370169 12.0346813,46.4622493 12.2830705,46.5888656 L12.4553515,46.6767358 C12.5975834,46.7496034 12.6713922,46.9104124 12.6339101,47.0657659 C12.596428,47.2211193 12.4574113,47.3305764 12.2976002,47.3305764 L12.2982921,47.3305764 Z" id="Path"></path>
                            <path d="M9.33561095,45.5572547 C9.26483365,45.5572547 9.19576725,45.5354948 9.13772987,45.4949845 C6.97806556,43.9948283 5.05698965,42.1775502 3.43930816,40.1044547 C3.36013294,40.0072009 3.33978961,39.8747144 3.38613858,39.7581864 C3.43248756,39.6416584 3.53827005,39.5593384 3.662613,39.543034 C3.78695596,39.5267295 3.91038584,39.578994 3.98521087,39.679633 C5.56046133,41.6978357 7.43116897,43.466844 9.53418393,44.9269412 C9.65805109,45.013401 9.71149844,45.1702328 9.66620738,45.3143407 C9.62091632,45.4584486 9.48736033,45.5565079 9.33630284,45.5565628 L9.33561095,45.5572547 Z" id="Path"></path>
                            <path d="M33.945514,1.0132601 C33.8979158,1.0135368 33.8507833,1.00387463 33.8071356,0.984886501 C33.7296437,0.95167569 33.6528437,0.915697311 33.5767356,0.881102716 C33.4833302,0.838205418 33.3906167,0.79530812 33.2958275,0.756562173 C33.1811317,0.710461397 33.0997429,0.606673051 33.0823195,0.484293204 C33.0648961,0.361913357 33.114085,0.23953442 33.2113573,0.163255355 C33.3086297,0.08697629 33.4392074,0.0683857029 33.5539032,0.114486488 C33.6597627,0.157383786 33.7614708,0.205124327 33.8673302,0.252864869 L34.0804329,0.349037843 C34.2312477,0.414187872 34.315442,0.57642095 34.2819019,0.737245922 C34.2483618,0.898070894 34.1063387,1.01312621 33.9420546,1.01256218 L33.945514,1.0132601 Z" id="Path"></path>
                            <path d="M41.5127358,6.00179468 C41.4241918,6.00182171 41.3390079,5.96789673 41.2747249,5.90700549 C39.5795337,4.29676497 37.6703785,2.9279938 35.6012113,1.839373 C35.4319316,1.75052979 35.3667249,1.54127978 35.4555681,1.37200002 C35.5444113,1.20272026 35.7536613,1.13751356 35.9229411,1.22635678 C38.0486673,2.34477119 40.0099799,3.75103047 41.7514385,5.40538386 C41.8542754,5.50279494 41.8873391,5.65305589 41.8348899,5.78463644 C41.7824406,5.91621698 41.6550764,6.00248659 41.5134276,6.00248659 L41.5127358,6.00179468 Z" id="Path"></path>
                            <path d="M23.9130814,48.0653629 C10.729895,48.0653629 0.0428108114,37.3782787 0.0428108114,24.1950923 C0.0428108114,11.0119058 10.729895,0.324821626 23.9130814,0.324821626 C37.0962679,0.324821626 47.7833521,11.0119058 47.7833521,24.1950923 C47.7684815,37.3721142 37.0901034,48.0504923 23.9130814,48.0653629 L23.9130814,48.0653629 Z M23.9130814,1.01671353 C11.1120163,1.01671353 0.734702714,11.3940272 0.734702714,24.1950923 C0.734702714,36.9961573 11.1120163,47.373471 23.9130814,47.373471 C36.7141465,47.373471 47.0914602,36.9961573 47.0914602,24.1950923 C47.076971,11.4000336 36.7081401,1.03120269 23.9130814,1.01671353 Z" id="Shape"></path>
                        </g>
                        <path d="M9.42486501,22.122876 C9.38058392,22.4079355 9.348065,22.6964544 9.31969744,22.9863571" id="Path" fill="#FCD462"></path>
                        <path d="M9.32177311,23.436087 L9.27749203,23.436087 C9.03052632,23.4116804 8.85000811,23.1918383 8.87411905,22.9448436 C8.90317851,22.6466382 8.93708121,22.3498165 8.98205419,22.0564544 C9.0067731,21.8976353 9.11434328,21.7640679 9.26424406,21.7060656 C9.41414484,21.6480633 9.58360274,21.674438 9.70878461,21.7752548 C9.83396647,21.8760715 9.8958542,22.0360137 9.87113528,22.1948328 C9.82823798,22.4715895 9.79641096,22.7518057 9.76873528,23.0334057 C9.74497325,23.262349 9.55194609,23.4362527 9.32177311,23.436087 L9.32177311,23.436087 Z" id="Path" fill="#FFFFFF"></path>
                        <path d="M14.455611,13.2057732 C12.3016894,15.0152659 10.7160274,17.408174 9.88912447,20.0970165" id="Path" fill="#FCD462"></path>
                        <path d="M9.8870488,20.5467478 C9.74449604,20.5463837 9.61052943,20.4785606 9.52585076,20.363883 C9.44117209,20.2492055 9.41577807,20.1012117 9.45738392,19.9648652 C10.3079298,17.1918262 11.9435079,14.7245208 14.1664002,12.861211 C14.3574609,12.7014843 14.6418302,12.7268855 14.801557,12.9179461 C14.9612837,13.1090068 14.9358825,13.3933762 14.7448218,13.5531029 C12.6550444,15.3052781 11.1171208,17.6248996 10.3167137,20.2319354 C10.2579111,20.4196594 10.0837663,20.5472534 9.8870488,20.5467478 L9.8870488,20.5467478 Z" id="Path" fill="#FFFFFF"></path>
                    </g>
                    <path d="M31,14.0991736 C22.3333333,13.3057851 18,17.2727273 18,26 C18,34.7272727 22.3333333,38.6942149 31,37.9008264" id="Path-2" stroke="#FFFFFF" stroke-width="1.5" stroke-linecap="round"></path>
                </g>
            </g>
        </g>
    </g>
</svg>