<?xml version="1.0" encoding="UTF-8"?>
<svg width="63px" height="61px" viewBox="0 0 63 61" version="1.1" xmlns="http://www.w3.org/2000/svg" xmlns:xlink="http://www.w3.org/1999/xlink">
    <title>Group 23</title>
    <g id="Page-1" stroke="none" stroke-width="1" fill="none" fill-rule="evenodd">
        <g id="Layout-2.3-Copy-2" transform="translate(-150.000000, -1812.000000)">
            <g id="Group-23" transform="translate(150.000000, 1812.000000)">
                <circle id="Oval" fill-opacity="0.279092002" fill="#ABAEEF" cx="36" cy="34" r="27"></circle>
                <g id="Group" fill-rule="nonzero">
                    <g id="web-browser" transform="translate(2.000000, 3.000000)">
                        <path d="M47.1803899,13.5696651 L47.1803899,43.1335142 C47.1792448,45.0340934 45.6388069,46.5745313 43.7382277,46.5756764 L5.73468117,46.5756764 C3.83410196,46.5745313 2.293664,45.0340934 2.29251895,43.1335142 L2.29251895,13.5696651 L47.1803899,13.5696651 Z" id="Path" fill="#EEEFEE"></path>
                        <polygon id="Path" fill="#FCD462" points="19.4818814 16.5627894 28.8964545 16.5627894 28.8964545 22.1269841 19.4818814 22.1269841"></polygon>
                        <polygon id="Path" fill="#27CCBC" points="10.145492 26.5640869 17.4020543 26.5640869 17.4020543 32.1282816 10.145492 32.1282816"></polygon>
                        <polygon id="Path" fill="#FCD462" points="32.0715464 37.0434816 39.3281087 37.0434816 39.3281087 42.6076763 32.0715464 42.6076763"></polygon>
                        <polygon id="Path" fill="#89C5CD" transform="translate(35.691969, 29.573481) rotate(-45.000000) translate(-35.691969, -29.573481) " points="33.1437701 27.0252821 38.240168 27.0252821 38.240168 32.12168 33.1437701 32.12168"></polygon>
                        <circle id="Oval" fill="#FE7058" cx="13.7737732" cy="39.825579" r="2.78209734"></circle>
                        <polygon id="Path" fill="#F7BE56" points="28.8943788 16.5641732 28.8943788 22.1256003 27.4358707 22.1256003 27.4358707 17.7763678 19.4825733 17.7763678 19.4825733 16.5641732"></polygon>
                        <polygon id="Path" fill="#21B3A9" points="17.4020543 26.5661626 17.4020543 32.1275897 16.1123678 32.1275897 16.1123678 27.7845842 10.1427245 27.7845842 10.1427245 26.5661626"></polygon>
                        <polygon id="Path" fill="#F7BE56" points="39.3308763 37.0407141 39.3308763 42.6090601 38.0404979 42.6090601 38.0404979 38.2660546 32.0708545 38.2660546 32.0708545 37.0407141"></polygon>
                        <polygon id="Path" fill="#6EAAAD" points="39.3045844 29.5738167 35.7005195 33.1771897 35.6811465 33.1578167 38.3131033 30.5265518 34.7284113 26.9418599 35.7005195 25.9697517"></polygon>
                        <path d="M16.5531199,39.8297303 C16.5535758,40.8316479 16.0134331,41.7558685 15.1402597,42.2472006 C15.4161408,41.8085093 15.5622249,41.3006933 15.5616219,40.7824655 C15.5630916,40.0439522 15.2707954,39.335173 14.749171,38.8123805 C14.2275466,38.289588 13.519423,37.9957071 12.7809083,37.9955249 C12.3040258,37.9942074 11.8350078,38.1170057 11.4199569,38.3518492 C12.0762836,37.298412 13.3520338,36.8085172 14.5447512,37.1519118 C15.7374686,37.4953063 16.5574122,38.5885711 16.5531199,39.8297303 L16.5531199,39.8297303 Z" id="Path" fill="#EA6453"></path>
                        <path d="M19.4818814,19.6887571 L15.1748543,19.6887571 C14.9837936,19.6887571 14.8289083,19.5338718 14.8289083,19.3428111 C14.8289083,19.1517504 14.9837936,18.9968651 15.1748543,18.9968651 L19.4818814,18.9968651 C19.672942,18.9968651 19.8278273,19.1517504 19.8278273,19.3428111 C19.8278273,19.5338718 19.672942,19.6887571 19.4818814,19.6887571 Z" id="Path" fill="#323C6B"></path>
                        <path d="M13.7758489,26.908649 C13.5847882,26.908649 13.4299029,26.7537638 13.4299029,26.5627031 L13.4299029,20.7418165 C13.4299029,20.5507559 13.5847882,20.3958706 13.7758489,20.3958706 C13.9669095,20.3958706 14.1217948,20.5507559 14.1217948,20.7418165 L14.1217948,26.5627031 C14.1217948,26.7537638 13.9669095,26.908649 13.7758489,26.908649 Z" id="Path" fill="#323C6B"></path>
                        <circle id="Oval" fill="#FE7058" cx="24.438595" cy="29.5738167" r="1.39900543"></circle>
                        <path d="M24.438595,31.3194599 C23.4748849,31.3194599 22.6936436,30.5382186 22.6936436,29.5745085 C22.6936436,28.6107985 23.4748849,27.8295572 24.438595,27.8295572 C25.402305,27.8295572 26.1835463,28.6107985 26.1835463,29.5745085 C26.1824026,30.5377444 25.4018308,31.3183162 24.438595,31.3194599 L24.438595,31.3194599 Z M24.438595,28.5207572 C24.0126722,28.5207572 23.6286885,28.7773269 23.4656949,29.1708282 C23.3027013,29.5643296 23.3927966,30.0172693 23.6939695,30.3184422 C23.9951424,30.6196151 24.448082,30.7097104 24.8415834,30.5467168 C25.2350847,30.3837232 25.4916544,29.9997395 25.4916544,29.5738167 C25.4912733,28.9922738 25.0201374,28.5208283 24.438595,28.5200653 L24.438595,28.5207572 Z" id="Shape" fill="#323C6B"></path>
                        <path d="M32.0929951,29.9197626 L25.8382923,29.9197626 C25.6472316,29.9197626 25.4923463,29.7648773 25.4923463,29.5738167 C25.4923463,29.382756 25.6472316,29.2278707 25.8382923,29.2278707 L32.0929951,29.2278707 C32.2840557,29.2278707 32.438941,29.382756 32.438941,29.5738167 C32.438941,29.7648773 32.2840557,29.9197626 32.0929951,29.9197626 Z" id="Path" fill="#323C6B"></path>
                        <path d="M24.438595,28.5200653 C24.2475343,28.5200653 24.092649,28.36518 24.092649,28.1741193 L24.092649,22.1269841 C24.092649,21.9359234 24.2475343,21.7810382 24.438595,21.7810382 C24.6296556,21.7810382 24.7845409,21.9359234 24.7845409,22.1269841 L24.7845409,28.1741193 C24.7845409,28.36518 24.6296556,28.5200653 24.438595,28.5200653 Z" id="Path" fill="#323C6B"></path>
                        <path d="M13.7737732,37.3894276 C13.5827125,37.3894276 13.4278272,37.2345423 13.4278272,37.0434816 L13.4278272,32.1310491 C13.4278272,31.9399885 13.5827125,31.7851032 13.7737732,31.7851032 C13.9648339,31.7851032 14.1197191,31.9399885 14.1197191,32.1310491 L14.1197191,37.0434816 C14.1197191,37.2345423 13.9648339,37.3894276 13.7737732,37.3894276 Z" id="Path" fill="#323C6B"></path>
                        <path d="M22.7898166,40.1694492 L16.5558705,40.1694492 C16.3648098,40.1694492 16.2099246,40.014564 16.2099246,39.8235033 C16.2099246,39.6324426 16.3648098,39.4775573 16.5558705,39.4775573 L22.7898166,39.4775573 C22.9808772,39.4775573 23.1357625,39.6324426 23.1357625,39.8235033 C23.1357625,40.014564 22.9808772,40.1694492 22.7898166,40.1694492 Z" id="Path" fill="#323C6B"></path>
                        <path d="M32.0929951,40.1694492 L25.5892112,40.1694492 C25.3981505,40.1694492 25.2432652,40.014564 25.2432652,39.8235033 C25.2432652,39.6324426 25.3981505,39.4775573 25.5892112,39.4775573 L32.0929951,39.4775573 C32.2840557,39.4775573 32.438941,39.6324426 32.438941,39.8235033 C32.438941,40.014564 32.2840557,40.1694492 32.0929951,40.1694492 Z" id="Path" fill="#323C6B"></path>
                        <path d="M35.6991357,37.3894276 C35.508075,37.3894276 35.3531897,37.2345423 35.3531897,37.0434816 L35.3531897,33.1771897 C35.3531897,32.986129 35.508075,32.8312437 35.6991357,32.8312437 C35.8901963,32.8312437 36.0450816,32.986129 36.0450816,33.1771897 L36.0450816,37.0434816 C36.0450816,37.2345423 35.8901963,37.3894276 35.6991357,37.3894276 Z" id="Path" fill="#323C6B"></path>
                        <circle id="Oval" fill="#84879C" cx="24.188822" cy="39.8235033" r="1.39900543"></circle>
                        <path d="M24.188822,41.5684547 C23.2251119,41.5684547 22.4438706,40.7872133 22.4438706,39.8235033 C22.4438706,38.8597933 23.2251119,38.0785519 24.188822,38.0785519 C25.152532,38.0785519 25.9337734,38.8597933 25.9337734,39.8235033 C25.9326296,40.7867392 25.1520579,41.5673109 24.188822,41.5684547 Z M24.188822,38.7704438 C23.6072333,38.7704438 23.1357625,39.2419146 23.1357625,39.8235033 C23.1357625,40.405092 23.6072333,40.8765628 24.188822,40.8765628 C24.7704107,40.8765628 25.2418815,40.405092 25.2418815,39.8235033 C25.2411191,39.2422307 24.7700946,38.7712061 24.188822,38.7704438 Z" id="Shape" fill="#323C6B"></path>
                        <circle id="Oval" fill="#84879C" cx="13.7758489" cy="19.343503" r="1.39900543"></circle>
                        <path d="M13.7758489,21.0877625 C12.8138265,21.0866161 12.0346681,20.3062186 12.0350501,19.3441957 C12.0354323,18.3821728 12.8152105,17.6023946 13.7772335,17.6020123 C14.7392564,17.6016303 15.5196538,18.3807888 15.5208002,19.3428111 C15.5196565,20.306047 14.7390847,21.0866187 13.7758489,21.0877625 Z M13.7758489,18.2939027 C13.1954082,18.2950505 12.7257981,18.7665204 12.7269427,19.3469611 C12.7280916,19.9274017 13.1995609,20.3970125 13.7800016,20.3958686 C14.3604422,20.3947205 14.8300536,19.9232518 14.8289104,19.3428111 C14.8270014,18.7626859 14.3559771,18.2935184 13.7758489,18.2939027 Z" id="Shape" fill="#323C6B"></path>
                        <path d="M47.1803899,5.77827036 L47.1803899,13.5696651 L2.29251895,13.5696651 L2.29251895,5.77827036 C2.293664,3.87769115 3.83410196,2.33725319 5.73468117,2.33610814 L43.7382277,2.33610814 C45.6388069,2.33725319 47.1792448,3.87769115 47.1803899,5.77827036 L47.1803899,5.77827036 Z" id="Path" fill="#FE7058"></path>
                        <path d="M47.1803899,13.5696651 L47.1803899,43.1335142 C47.1797834,44.9829488 45.716484,46.5006597 43.8683034,46.5687575 C44.5531825,45.9250383 44.9404929,45.0261575 44.9379682,44.0862493 L44.9379682,13.5696651 L47.1803899,13.5696651 Z" id="Path" fill="#E1E6E9"></path>
                        <path d="M47.1803899,5.77827036 L47.1803899,13.5696651 L44.9372763,13.5696651 L44.9372763,7.85256228 C44.9361313,5.95198308 43.3956933,4.41154511 41.4951141,4.41040007 L3.49225951,4.41040007 C3.16397246,4.40787526 2.8372564,4.4559492 2.52361085,4.5529298 C3.02844174,3.21944435 4.30606774,2.33775291 5.7319136,2.33887464 L43.7382277,2.33887464 C45.6377275,2.34001857 47.1777192,3.87877205 47.1803899,5.77827036 L47.1803899,5.77827036 Z" id="Path" fill="#EA6453"></path>
                        <circle id="Oval" fill="#EEEFEE" cx="41.387179" cy="7.9528866" r="1.51939462"></circle>
                        <path d="M41.387179,9.81822717 C40.3554514,9.81822717 39.5190709,8.98184667 39.5190709,7.95011904 C39.5190709,6.9183914 40.3554514,6.0820109 41.387179,6.0820109 C42.4189066,6.0820109 43.2552871,6.9183914 43.2552871,7.95011904 C43.2552871,8.98184667 42.4189066,9.81822717 41.387179,9.81822717 Z M41.387179,6.77943794 C40.7375727,6.77943794 40.2109628,7.30604788 40.2109628,7.95565417 C40.2109628,8.60526046 40.7375727,9.13187041 41.387179,9.13187041 C42.0367853,9.13187041 42.5633952,8.60526046 42.5633952,7.95565417 C42.5633952,7.30604788 42.0367853,6.77943794 41.387179,6.77943794 Z" id="Shape" fill="#323C6B"></path>
                        <circle id="Oval" fill="#EEEFEE" cx="35.3504221" cy="7.9528866" r="1.51939462"></circle>
                        <path d="M35.3504221,9.81822717 C34.3186945,9.81822717 33.482314,8.98184667 33.482314,7.95011904 C33.482314,6.9183914 34.3186945,6.0820109 35.3504221,6.0820109 C36.3821498,6.0820109 37.2185303,6.9183914 37.2185303,7.95011904 C37.2185303,8.98184667 36.3821498,9.81822717 35.3504221,9.81822717 Z M35.3504221,6.77943794 C34.7008159,6.77943794 34.1742059,7.30604788 34.1742059,7.95565417 C34.1742059,8.60526046 34.7008159,9.13187041 35.3504221,9.13187041 C36.0000284,9.13187041 36.5266384,8.60526046 36.5266384,7.95565417 C36.5266384,7.64370223 36.402716,7.34452703 36.1821326,7.1239437 C35.9615493,6.90336036 35.6623741,6.77943794 35.3504221,6.77943794 Z" id="Shape" fill="#323C6B"></path>
                        <circle id="Oval" fill="#EEEFEE" cx="29.3136653" cy="7.9528866" r="1.51939462"></circle>
                        <g id="Group" transform="translate(1.875676, 1.975676)" fill="#323C6B">
                            <path d="M27.4372977,7.84255147 C26.4055701,7.84255147 25.5691896,7.00617097 25.5691896,5.97444333 C25.5691896,4.9427157 26.4055701,4.1063352 27.4372977,4.1063352 C28.4690253,4.1063352 29.3054058,4.9427157 29.3054058,5.97444333 C29.3054058,7.00617097 28.4690253,7.84255147 27.4372977,7.84255147 Z M27.4372977,4.80376223 C26.7876914,4.80376223 26.2610815,5.33037218 26.2610815,5.97997847 C26.2610815,6.62958476 26.7876914,7.1561947 27.4372977,7.1561947 C28.086904,7.1561947 28.6135139,6.62958476 28.6135139,5.97997847 C28.6135139,5.33037218 28.086904,4.80376223 27.4372977,4.80376223 Z" id="Shape"></path>
                            <path d="M21.348649,6.32315685 L4.69065953,6.32315685 C4.49959886,6.32315685 4.34471358,6.16827157 4.34471358,5.9772109 C4.34471358,5.78615023 4.49959886,5.63126495 4.69065953,5.63126495 L21.348649,5.63126495 C21.5397096,5.63126495 21.6945949,5.78615023 21.6945949,5.9772109 C21.6945949,6.16827157 21.5397096,6.32315685 21.348649,6.32315685 Z" id="Path"></path>
                            <path d="M41.862552,44.9459466 L3.85900546,44.9459466 C1.76783952,44.9436587 0.0731852281,43.2490044 0.0708972984,41.1578385 L0.0708972984,11.5939894 C0.0708972984,11.4029287 0.225782576,11.2480434 0.416843249,11.2480434 L45.3047142,11.2480434 C45.4957749,11.2480434 45.6506601,11.4029287 45.6506601,11.5939894 L45.6506601,41.1578385 C45.6483722,43.2490044 43.9537179,44.9436587 41.862552,44.9459466 Z M0.764172984,11.9427029 L0.764172984,41.1578385 C0.766079515,42.8670411 2.15118656,44.2521482 3.86038925,44.2540547 L41.862552,44.2540547 C43.5717547,44.2521482 44.9568617,42.8670411 44.9587682,41.1578385 L44.9587682,11.9399353 L0.764172984,11.9427029 Z" id="Shape"></path>
                            <path d="M45.3047142,11.9399353 L0.417535141,11.9399353 C0.226474468,11.9399353 0.0715891903,11.78505 0.0715891903,11.5939894 L0.0715891903,3.80259465 C0.07387712,1.71142871 1.76853141,0.0167744165 3.85969735,0.0144864867 L41.862552,0.0144864867 C43.9537179,0.0167744165 45.6483722,1.71142871 45.6506601,3.80259465 L45.6506601,11.5939894 C45.6506601,11.78505 45.4957749,11.9399353 45.3047142,11.9399353 L45.3047142,11.9399353 Z M0.763481092,11.2480434 L44.9587682,11.2480434 L44.9587682,3.80259465 C44.9568617,2.09339196 43.5717547,0.708284919 41.862552,0.706378389 L3.85900546,0.706378389 C2.15007298,0.708666077 0.765386854,2.0936617 0.763481092,3.80259465 L0.763481092,11.2480434 Z" id="Shape"></path>
                            <path d="M27.0221626,20.4972544 L17.6062057,20.4972544 C17.415145,20.4972544 17.2602597,20.3423691 17.2602597,20.1513084 L17.2602597,14.5871137 C17.2602597,14.3960531 17.415145,14.2411678 17.6062057,14.2411678 L27.0221626,14.2411678 C27.2132232,14.2411678 27.3681085,14.3960531 27.3681085,14.5871137 L27.3681085,20.1513084 C27.3681085,20.3423691 27.2132232,20.4972544 27.0221626,20.4972544 Z M17.9535354,19.8053625 L26.6762166,19.8053625 L26.6762166,14.9330597 L17.9521516,14.9330597 L17.9535354,19.8053625 Z" id="Shape"></path>
                            <path d="M15.5256867,30.4992437 L8.27189202,30.4992437 C8.08083134,30.4992437 7.92594606,30.3443584 7.92594606,30.1532977 L7.92594606,24.5891031 C7.92594606,24.3980424 8.08083134,24.2431571 8.27189202,24.2431571 L15.5256867,24.2431571 C15.7167474,24.2431571 15.8716327,24.3980424 15.8716327,24.5891031 L15.8716327,30.1532977 C15.8716327,30.3443584 15.7167474,30.4992437 15.5256867,30.4992437 L15.5256867,30.4992437 Z M8.6150704,29.8073518 L15.1797408,29.8073518 L15.1797408,24.935049 L8.61783797,24.935049 L8.6150704,29.8073518 Z" id="Shape"></path>
                            <path d="M37.4517411,40.9786384 L30.1958707,40.9786384 C30.00481,40.9786384 29.8499248,40.8237532 29.8499248,40.6326925 L29.8499248,35.0678059 C29.8499248,34.8767453 30.00481,34.72186 30.1958707,34.72186 L37.4517411,34.72186 C37.6428018,34.72186 37.7976877,34.8767453 37.7976877,35.0678059 L37.7976877,40.6320006 C37.7978708,40.723871 37.7615041,40.8120416 37.6966068,40.8770687 C37.6317094,40.9420959 37.5436117,40.9786384 37.4517411,40.9786384 Z M30.5411248,40.2867465 L37.1057951,40.2867465 L37.1057951,35.4137519 L30.5418167,35.4137519 L30.5411248,40.2867465 Z" id="Shape"></path>
                            <path d="M33.82346,31.5474605 C33.7316467,31.5476239 33.643534,31.5112836 33.5785302,31.4464437 L29.9744653,27.8423788 C29.8394143,27.707287 29.8394143,27.4883031 29.9744653,27.3532112 L33.5785302,23.7491463 C33.7136221,23.6140952 33.932606,23.6140952 34.0676978,23.7491463 L37.6717627,27.3532112 C37.8068138,27.4883031 37.8068138,27.707287 37.6717627,27.8423788 L34.0676978,31.4464437 C34.0028637,31.5111141 33.9150336,31.5474605 33.82346,31.5474605 L33.82346,31.5474605 Z M30.7099464,27.5974491 L33.82346,30.7109626 L36.9369735,27.5974491 L33.82346,24.4839355 L30.7099464,27.5974491 Z" id="Shape"></path>
                            <path d="M11.8980975,40.9786384 C10.1705269,40.9786384 8.77005418,39.5781658 8.77005418,37.8505952 C8.77005418,36.1230246 10.1705269,34.7225519 11.8980975,34.7225519 C13.6256681,34.7225519 15.0261408,36.1230246 15.0261408,37.8505952 C15.0238538,39.5772176 13.6247199,40.9763515 11.8980975,40.9786384 L11.8980975,40.9786384 Z M11.8980975,35.4144438 C10.5526482,35.4144438 9.46194609,36.5051459 9.46194609,37.8505952 C9.46194609,39.1960444 10.5526482,40.2867465 11.8980975,40.2867465 C13.2435467,40.2867465 14.3342489,39.1960444 14.3342489,37.8505952 C14.333105,36.505508 13.2431843,35.4152777 11.8980975,35.4137519 L11.8980975,35.4144438 Z" id="Shape"></path>
                        </g>
                        <path d="M18.0731919,11.6129948 C18.0728231,11.7172236 18.0310667,11.8170379 17.9571062,11.8904793 C17.8831458,11.9639207 17.7830399,12.0049732 17.6788111,12.004608 L12.0689515,12.0004542 C11.9285481,12.0004542 11.7988099,11.9255499 11.7286082,11.8039569 C11.6584065,11.682364 11.6584065,11.5325553 11.7286082,11.4109623 C11.7988099,11.2893694 11.9285481,11.214465 12.0689515,11.214465 L17.6788111,11.2186164 C17.7835195,11.218247 17.8840459,11.2596789 17.9580864,11.3337194 C18.032127,11.4077599 18.0735588,11.5082863 18.0731919,11.6129948 L18.0731919,11.6129948 Z" id="Path" fill="#FFFFFF"></path>
                        <path d="M19.7309631,11.6171461 C19.7305961,11.721375 19.6888397,11.8211893 19.6148792,11.8946307 C19.5409188,11.9680721 19.4408129,12.0091246 19.3365841,12.0087594 L19.1165624,12.0087594 C18.8995175,12.0087594 18.7235678,11.8328073 18.7235678,11.6157623 C18.7235678,11.3987174 18.8995175,11.2227671 19.1165624,11.2227671 L19.3365841,11.2227671 C19.441236,11.2225836 19.5416547,11.264075 19.615655,11.3380752 C19.6896552,11.4120755 19.7311465,11.5124941 19.7309631,11.6171461 L19.7309631,11.6171461 Z" id="Path" fill="#FFFFFF"></path>
                        <path d="M0.348302708,37.0905303 C0.157242035,37.0905303 0.00235675679,36.935645 0.00235675679,36.7445843 L0.00235675679,36.3668114 C0.00235675679,36.1757507 0.157242035,36.0208654 0.348302708,36.0208654 C0.539363381,36.0208654 0.694248659,36.1757507 0.694248659,36.3668114 L0.694248659,36.7445843 C0.694248659,36.935645 0.539363381,37.0905303 0.348302708,37.0905303 Z" id="Path" fill="#323C6B"></path>
                        <path d="M0.348302708,35.3082167 C0.157242035,35.3082167 0.00235675679,35.1533315 0.00235675679,34.9622708 L0.00235675679,29.9356761 C0.00235675679,29.7446154 0.157242035,29.5897302 0.348302708,29.5897302 C0.539363381,29.5897302 0.694248659,29.7446154 0.694248659,29.9356761 L0.694248659,34.9588113 C0.69517219,35.0511598 0.659132529,35.1400439 0.59415471,35.2056715 C0.529176891,35.2712991 0.440655826,35.3082167 0.348302708,35.3082167 L0.348302708,35.3082167 Z" id="Path" fill="#323C6B"></path>
                        <path d="M33.3792221,0.737837849 L32.784887,0.737837849 C32.5938263,0.737837849 32.438941,0.582952571 32.438941,0.391891898 C32.438941,0.200831225 32.5938263,0.0459459466 32.784887,0.0459459466 L33.3792221,0.0459459466 C33.5702828,0.0459459466 33.7251681,0.200831225 33.7251681,0.391891898 C33.7251681,0.582952571 33.5702828,0.737837849 33.3792221,0.737837849 Z" id="Path" fill="#323C6B"></path>
                        <path d="M41.3193736,0.737837849 L35.1885194,0.737837849 C34.9974588,0.737837849 34.8425735,0.582952571 34.8425735,0.391891898 C34.8425735,0.200831225 34.9974588,0.0459459466 35.1885194,0.0459459466 L41.3193736,0.0459459466 C41.5104343,0.0459459466 41.6653195,0.200831225 41.6653195,0.391891898 C41.6653195,0.582952571 41.5104343,0.737837849 41.3193736,0.737837849 L41.3193736,0.737837849 Z" id="Path" fill="#323C6B"></path>
                    </g>
                </g>
            </g>
        </g>
    </g>
</svg>