<svg xmlns="http://www.w3.org/2000/svg" width="63" height="61" viewBox="0 0 63 61">
  <g id="s12" transform="translate(-30 -40)">
    <circle id="Oval" cx="27" cy="27" r="27" transform="translate(39 47)" fill="rgba(171,174,239,0.28)"/>
    <g id="Rectangle" transform="translate(30 40)">
      <g id="user_5_" data-name="user (5)" transform="translate(3 1)">
        <path id="Path" d="M0,6.38c0,3.838,2.368,5.965,5.29,5.965s5.287-2.13,5.287-5.965V5.965C10.577,2.127,8.209,0,5.29,0S0,2.128,0,5.965Z" transform="translate(5.823 0.401)" fill="#89c5cd"/>
        <path id="Path-2" data-name="Path" d="M0,6.38c0,3.838,2.368,5.965,5.29,5.965s5.287-2.126,5.287-5.965V5.965C10.577,2.127,8.209,0,5.29,0S0,2.128,0,5.965Z" transform="translate(29.447 0.401)" fill="#fcd462"/>
        <path id="Path-3" data-name="Path" d="M9.846,5.966v.415a5.915,5.915,0,0,1-2.131,4.933,6.906,6.906,0,0,0,.747-3.286V7.613c0-3.84-2.366-5.964-5.286-5.964A5.092,5.092,0,0,0,0,2.693,4.982,4.982,0,0,1,4.56,0c2.92,0,5.286,2.124,5.286,5.964Z" transform="translate(6.554 0.399)" fill="#6eaaad"/>
        <path id="Path-4" data-name="Path" d="M9.832,5.966v.415A5.915,5.915,0,0,1,7.7,11.314a6.906,6.906,0,0,0,.747-3.286V7.613c0-3.84-2.366-5.964-5.286-5.964A5.089,5.089,0,0,0,0,2.686,4.962,4.962,0,0,1,4.546,0c2.92,0,5.286,2.124,5.286,5.964Z" transform="translate(30.189 0.399)" fill="#f7be56"/>
        <path id="Path-5" data-name="Path" d="M10.716,19.165V30.139a3.211,3.211,0,0,0,6.423,0V14.355a2.145,2.145,0,0,0,4.29,0V7.106A7.108,7.108,0,0,0,14.294,0L10.717,4.782,7.138,0A7.108,7.108,0,0,0,0,7.106v7.25a2.145,2.145,0,1,0,4.29,0V30.139a3.213,3.213,0,0,0,6.426,0Z" transform="translate(24.02 14.391)" fill="#fcd462"/>
        <g id="Group" transform="translate(2.268 0.1)">
          <path id="Path-6" data-name="Path" d="M3.8,5.44a.346.346,0,0,1-.12-.019A5.611,5.611,0,0,1,0,.36.346.346,0,0,1,.332,0a.339.339,0,0,1,.36.331,4.921,4.921,0,0,0,3.23,4.436.346.346,0,0,1-.119.67Z" transform="translate(0.017 44.296)" fill="#323c6b"/>
          <path id="Path-7" data-name="Path" d="M.346,1.146A.346.346,0,0,1,0,.8V.346a.346.346,0,0,1,.692,0V.8a.346.346,0,0,1-.346.346Z" transform="translate(0.001 42.516)" fill="#323c6b"/>
          <path id="Path-8" data-name="Path" d="M2.492,6.054a.346.346,0,0,1-.346-.329A7.854,7.854,0,0,0,.1.585.346.346,0,1,1,.6.107,8.535,8.535,0,0,1,2.838,5.691a.346.346,0,0,1-.328.363Z" transform="translate(37.317 0.014)" fill="#323c6b"/>
          <path id="Path-9" data-name="Path" d="M.346,1.151H.309A.346.346,0,0,1,0,.77L.017.644C.029.539.041.436.048.325A.353.353,0,0,1,.414,0,.346.346,0,0,1,.738.366C.731.487.717.605.7.723L.69.844a.346.346,0,0,1-.344.307Z" transform="translate(39.413 6.993)" fill="#323c6b"/>
        </g>
        <path id="Path-10" data-name="Path" d="M10.715,19.165V30.139a3.211,3.211,0,0,0,6.423,0V14.355a2.145,2.145,0,0,0,4.29,0V7.106A7.108,7.108,0,0,0,14.3,0L10.718,4.782,7.14,0A7.108,7.108,0,0,0,0,7.106v7.25a2.145,2.145,0,0,0,4.29,0V30.139a3.213,3.213,0,0,0,6.426,0Z" transform="translate(0.396 14.391)" fill="#89c5cd"/>
        <path id="Path-11" data-name="Path" d="M2.65,0A1.84,1.84,0,0,0,.81,1.84V16.047A3.176,3.176,0,0,1,0,18.171a3.215,3.215,0,0,0,2.65-3.162Z" transform="translate(38.506 29.521)" fill="#f7be56"/>
        <path id="Path-12" data-name="Path" d="M7.971,7.106v7.251A2.15,2.15,0,0,1,5.826,16.5H5.812a2.1,2.1,0,0,0,.311-1.107V8.144A7.1,7.1,0,0,0,0,1.107L.83,0a7.106,7.106,0,0,1,7.14,7.106Z" transform="translate(37.482 14.391)" fill="#f7be56"/>
        <path id="Path-13" data-name="Path" d="M2.657,0A1.847,1.847,0,0,0,.81,1.847v14.2A3.176,3.176,0,0,1,0,18.171a3.212,3.212,0,0,0,2.657-3.162Z" transform="translate(14.878 29.521)" fill="#6eaaad"/>
        <path id="Path-14" data-name="Path" d="M7.971,7.106v7.251A2.15,2.15,0,0,1,5.819,16.5H5.812a2.1,2.1,0,0,0,.311-1.107V8.144A7.1,7.1,0,0,0,0,1.107L.83,0a7.106,7.106,0,0,1,7.14,7.106Z" transform="translate(13.861 14.391)" fill="#6eaaad"/>
        <path id="Shape" d="M0,6.723V6.311C0,2.536,2.264,0,5.636,0s5.633,2.538,5.633,6.311v.415c0,3.772-2.263,6.308-5.633,6.308S0,10.5,0,6.723Z" transform="translate(5.477 0.055)" fill="#323c6b"/>
        <path id="Shape-2" data-name="Shape" d="M0,6.723V6.311C0,2.536,2.264,0,5.636,0s5.633,2.536,5.633,6.311v.415c0,3.772-2.263,6.308-5.633,6.308S0,10.5,0,6.723Z" transform="translate(29.102 0.055)" fill="#323c6b"/>
        <path id="Shape-3" data-name="Shape" d="M7.069,33.954a3.556,3.556,0,0,1-2.774-3.469V16.422A2.491,2.491,0,0,1,0,14.7V7.452A7.453,7.453,0,0,1,7.488,0a.346.346,0,0,1,.276.138l3.3,4.412,3.3-4.412A.381.381,0,0,1,14.673,0a7.453,7.453,0,0,1,7.453,7.451V14.7a2.49,2.49,0,0,1-4.294,1.721V30.486a3.557,3.557,0,0,1-6.769,1.526,3.553,3.553,0,0,1-3.994,1.942Z" transform="translate(23.674 14.045)" fill="#323c6b"/>
        <path id="Shape-4" data-name="Shape" d="M7.068,33.954a3.556,3.556,0,0,1-2.773-3.469V16.422A2.491,2.491,0,0,1,0,14.7V7.452A7.455,7.455,0,0,1,7.454,0a.376.376,0,0,1,.31.139l3.3,4.412,3.3-4.412A.384.384,0,0,1,14.675,0a7.454,7.454,0,0,1,7.45,7.452V14.7a2.49,2.49,0,0,1-4.294,1.721V30.485a3.557,3.557,0,0,1-6.769,1.527,3.554,3.554,0,0,1-4,1.942Z" transform="translate(0.049 14.045)" fill="#323c6b"/>
        <path id="Path-15" data-name="Path" d="M0,5.059V.415a.415.415,0,0,1,.83,0V5.059a.415.415,0,1,1-.83,0Z" transform="translate(30.137 34.569)" fill="#fff"/>
        <path id="Path-16" data-name="Path" d="M0,.671V.415a.415.415,0,0,1,.83,0V.671a.415.415,0,1,1-.83,0Z" transform="translate(30.137 40.607)" fill="#fff"/>
      </g>
    </g>
  </g>
</svg>
