<?xml version="1.0" encoding="UTF-8"?>
<svg width="62px" height="52px" viewBox="0 0 62 52" version="1.1" xmlns="http://www.w3.org/2000/svg" xmlns:xlink="http://www.w3.org/1999/xlink">
    <title>Group 10</title>
    <g id="Page-1" stroke="none" stroke-width="1" fill="none" fill-rule="evenodd">
        <g id="Layout-2.3-Copy-2" transform="translate(-454.000000, -998.000000)">
            <g id="Group-10" transform="translate(454.000000, 998.000000)">
                <circle id="Oval" fill="#FFFFFF" cx="39" cy="29" r="23"></circle>
                <g id="organization-chart" transform="translate(3.000000, 3.000000)">
                    <path d="M18.5442003,10.0616001 C18.5442003,10.7272002 18.0044003,11.2666002 17.3386003,11.2666002 C16.6728002,11.2666002 16.1330002,10.7270002 16.1330002,10.0616001 C16.1330002,9.39600014 16.6728002,8.85660008 17.3386003,8.85660008 C18.0044003,8.85640013 18.5442003,9.39600014 18.5442003,10.0616001 Z" id="Path" fill="#F8E4C8"></path>
                    <path d="M17.3384003,11.5666002 C16.5082002,11.5666002 15.8328002,10.8914002 15.8328002,10.0616001 C15.8328002,9.23180014 16.5082002,8.55660013 17.3384003,8.55660013 C18.1686003,8.55660013 18.8440003,9.23180014 18.8440003,10.0616001 C18.8440003,10.8914002 18.1688003,11.5666002 17.3384003,11.5666002 Z M17.3384003,9.15640014 C16.8390003,9.15640014 16.4328002,9.56240014 16.4328002,10.0614001 C16.4328002,10.5604002 16.8390003,10.9664002 17.3384003,10.9664002 C17.8378003,10.9664002 18.2440003,10.5604002 18.2440003,10.0614001 C18.2442003,9.56240014 17.8378003,9.15640014 17.3384003,9.15640014 L17.3384003,9.15640014 Z" id="Shape" fill="#3A312A" fill-rule="nonzero"></path>
                    <ellipse id="Oval" fill="#F8E4C8" cx="27.8618004" cy="10.0616001" rx="1.20560002" ry="1.20500002"></ellipse>
                    <path d="M27.8620004,11.5666002 C27.0318004,11.5666002 26.3562004,10.8914002 26.3562004,10.0616001 C26.3562004,9.23180014 27.0316004,8.55660013 27.8620004,8.55660013 C28.6922004,8.55660013 29.3676004,9.23180014 29.3676004,10.0616001 C29.3676004,10.8914002 28.6922004,11.5666002 27.8620004,11.5666002 Z M27.8620004,9.15640014 C27.3626004,9.15640014 26.9562004,9.56240014 26.9562004,10.0614001 C26.9562004,10.5604002 27.3626004,10.9664002 27.8620004,10.9664002 C28.3614004,10.9664002 28.7676004,10.5604002 28.7676004,10.0614001 C28.7676004,9.56240014 28.3614004,9.15640014 27.8620004,9.15640014 L27.8620004,9.15640014 Z" id="Shape" fill="#3A312A" fill-rule="nonzero"></path>
                    <path d="M27.9450004,9.47660014 C27.9450004,12.4270002 25.1020004,16.9556003 22.6002003,16.9556003 C20.2120003,16.9556003 17.2554003,12.4270002 17.2554003,9.47660014 C17.2554003,6.5262001 19.6484003,4.13440006 22.6002003,4.13440006 C25.5520004,4.13440006 27.9450004,6.5262001 27.9450004,9.47660014 Z" id="Path" fill="#F8E4C8" fill-rule="nonzero"></path>
                    <path d="M22.6002003,17.2554003 C21.3896003,17.2554003 19.9992003,16.2486002 18.7854003,14.4930002 C17.6566003,12.8604002 16.9554003,10.9382002 16.9554003,9.47660014 C16.9554003,6.36540009 19.4878003,3.83440006 22.6004003,3.83440006 C25.7130004,3.83440006 28.2452004,6.36540009 28.2452004,9.47660014 C28.2450004,12.6188002 25.2716004,17.2554003 22.6002003,17.2554003 Z M22.6002003,4.43440007 C19.8184003,4.43440007 17.5552003,6.6962001 17.5552003,9.47660014 C17.5552003,12.2046002 20.3736003,16.6554002 22.6002003,16.6554002 C24.8904004,16.6554002 27.6450004,12.2460002 27.6450004,9.47660014 C27.6450004,6.6962001 25.3820004,4.43440007 22.6002003,4.43440007 Z" id="Shape" fill="#3A312A" fill-rule="nonzero"></path>
                    <path d="M6.5322001,2.34600003 C6.5322001,2.34600003 7.21380011,4.87780007 9.17660014,4.99520007 C9.17660014,4.99520007 6.5566001,5.90020009 6.5124001,7.83560012 C6.5124001,7.83560012 5.99660009,5.12120008 3.92740006,5.02380007 C3.92740006,5.02380007 6.33740009,4.65880007 6.5322001,2.34600003 Z" id="Path" fill="#D6DF58" fill-rule="nonzero"></path>
                    <path d="M6.5122001,8.13560012 C6.36960009,8.13560012 6.24520009,8.03440012 6.21780009,7.89220012 C6.21300009,7.86720012 5.71880009,5.40860008 3.91320006,5.32340008 C3.75920006,5.31620008 3.63580005,5.19340008 3.62780005,5.03920008 C3.61980005,4.88520007 3.73000006,4.75040007 3.88240006,4.72700007 C3.97060006,4.71340007 6.06120009,4.36380007 6.23320009,2.32060003 C6.24540009,2.17540003 6.36000009,2.06040003 6.5050001,2.04720003 C6.6526001,2.03580003 6.7836001,2.12720003 6.8216001,2.26760003 C6.8280001,2.29080003 7.47340011,4.59280007 9.19440014,4.69600007 C9.33720014,4.70460007 9.45380014,4.81280007 9.47360014,4.95440007 C9.49320014,5.09600008 9.40980014,5.23200008 9.27480014,5.27880008 C9.25060014,5.28720008 6.8512001,6.14100009 6.8122001,7.84260012 C6.8086001,7.99600012 6.6902001,8.12180012 6.5374001,8.13460012 C6.5290001,8.13520012 6.5204001,8.13560012 6.5122001,8.13560012 L6.5122001,8.13560012 Z M4.96400007,4.98960007 C5.73960009,5.38340008 6.21000009,6.13880009 6.4814001,6.7650001 C6.8866001,5.96060009 7.66960011,5.40760008 8.27120012,5.07940008 C7.44440011,4.71100007 6.9146001,3.94920006 6.6046001,3.33480005 C6.24560009,4.20700006 5.55000008,4.70860007 4.96400007,4.98960007 L4.96400007,4.98960007 Z" id="Shape" fill="#3A312A" fill-rule="nonzero"></path>
                    <path d="M2.19240003,5.74200009 C2.19240003,5.74200009 2.67460004,7.53280011 4.06280006,7.61580011 C4.06280006,7.61580011 2.20960003,8.25600012 2.17840003,9.62480014 C2.17840003,9.62480014 1.81360003,7.70480011 0.350000005,7.63600011 C0.350000005,7.63620011 2.05480003,7.37800011 2.19240003,5.74200009 Z" id="Path" fill="#D6DF58" fill-rule="nonzero"></path>
                    <path d="M2.17820003,9.92500015 C2.03560003,9.92500015 1.91080003,9.82340015 1.88380003,9.68100014 C1.88060003,9.66460014 1.54300002,7.99260012 0.336000005,7.93560012 C0.182000003,7.92840012 0.0586000009,7.80560012 0.0506000008,7.65140011 C0.0426000006,7.49740011 0.152800002,7.36260011 0.305200005,7.33920011 C0.364400005,7.32980011 1.77800003,7.09080011 1.89360003,5.71660009 C1.90580003,5.57140008 2.02060003,5.45600008 2.16580003,5.44300008 C2.31080003,5.42880008 2.44400004,5.52280008 2.48220004,5.66340008 C2.48640004,5.67920008 2.92760004,7.24760011 4.08100006,7.31660011 C4.22400006,7.32500011 4.34080006,7.43340011 4.36020006,7.57520011 C4.37980007,7.71700011 4.29640006,7.85280012 4.16100006,7.89960012 C4.14480006,7.90520012 2.50460004,8.49020013 2.47840004,9.63180014 C2.47480004,9.78540015 2.35620004,9.91120015 2.20320003,9.92400015 C2.19480003,9.92460015 2.18640003,9.92500015 2.17820003,9.92500015 L2.17820003,9.92500015 Z M1.27440002,7.61960011 C1.69580003,7.88600012 1.97900003,8.29860012 2.16380003,8.67540013 C2.43900004,8.22920012 2.86680004,7.90120012 3.23680005,7.68100011 C2.77940004,7.42700011 2.46000004,7.0108001 2.24860003,6.6362001 C2.01380003,7.09360011 1.64560002,7.41140011 1.27440002,7.61960011 Z" id="Shape" fill="#3A312A" fill-rule="nonzero"></path>
                    <path d="M2.19240003,0.410600006 C2.19240003,0.410600006 2.67460004,2.20140003 4.06280006,2.28460003 C4.06280006,2.28460003 2.20960003,2.92480004 2.17840003,4.29360006 C2.17840003,4.29360006 1.81360003,2.37360004 0.350000005,2.30480003 C0.350000005,2.30480003 2.05480003,2.04640003 2.19240003,0.410600006 Z" id="Path" fill="#D6DF58" fill-rule="nonzero"></path>
                    <path d="M2.17820003,4.59360007 C2.03560003,4.59360007 1.91080003,4.49200007 1.88380003,4.34960006 C1.88060003,4.33320006 1.54300002,2.66120004 0.336000005,2.60420004 C0.182000003,2.59700004 0.0586000009,2.47420004 0.0506000008,2.32000003 C0.0426000006,2.16620003 0.152800002,2.03120003 0.305200005,2.00780003 C0.364400005,1.99840003 1.77800003,1.75940003 1.89360003,0.385200006 C1.90580003,0.240000004 2.02060003,0.124600002 2.16560003,0.111600002 C2.31060003,0.0986000015 2.44400004,0.191400003 2.48200004,0.332000005 C2.48620004,0.347800005 2.92740004,1.91600003 4.08080006,1.98520003 C4.22360006,1.99380003 4.34060006,2.10200003 4.36000006,2.24380003 C4.37960007,2.38560004 4.29600006,2.52160004 4.16080006,2.56820004 C4.14460006,2.57380004 2.50440004,3.15860005 2.47820004,4.30040006 C2.47460004,4.45400007 2.35600004,4.57980007 2.20300003,4.59260007 C2.19480003,4.59320007 2.18640003,4.59360007 2.17820003,4.59360007 Z M1.27440002,2.28800003 C1.69580003,2.55440004 1.97900003,2.96680004 2.16380003,3.34380005 C2.43900004,2.89740004 2.86680004,2.56960004 3.23680005,2.34940004 C2.77940004,2.09560003 2.46000004,1.67920003 2.24860003,1.30440002 C2.01380003,1.76200003 1.64560002,2.07980003 1.27440002,2.28800003 Z" id="Shape" fill="#3A312A" fill-rule="nonzero"></path>
                    <path d="M38.2000001,25.5910004 C38.0342006,25.5910004 37.9000006,25.4566004 37.9000006,25.2910004 L37.9000006,20.0910003 L7.30000011,20.0910003 L7.30000011,25.2910004 C7.30000011,25.4566004 7.16580011,25.5910004 7.0000001,25.5910004 C6.8342001,25.5910004 6.7000001,25.4566004 6.7000001,25.2910004 L6.7000001,19.7910003 C6.7000001,19.6254003 6.8342001,19.4910003 7.0000001,19.4910003 L38.2000001,19.4910003 C38.3658006,19.4910003 38.5000006,19.6254003 38.5000006,19.7910003 L38.5000006,25.2910004 C38.5000006,25.4566004 38.3658006,25.5910004 38.2000001,25.5910004 Z" id="Path" fill="#3A312A" fill-rule="nonzero"></path>
                    <path d="M22.6000003,25.5910004 C22.4342003,25.5910004 22.3000003,25.4566004 22.3000003,25.2910004 L22.3000003,19.7910003 C22.3000003,19.6254003 22.4342003,19.4910003 22.6000003,19.4910003 C22.7658003,19.4910003 22.9000003,19.6254003 22.9000003,19.7910003 L22.9000003,25.2910004 C22.9000003,25.4566004 22.7658003,25.5910004 22.6000003,25.5910004 Z" id="Path" fill="#3A312A" fill-rule="nonzero"></path>
                    <path d="M29.3900004,20.7160003 L29.3900004,23.4920004 L15.8100002,23.4920004 L15.8100002,20.7160003 C15.8100002,19.0240003 17.1820003,17.6540003 18.8740003,17.6540003 L20.9000003,17.6540003 L20.9000003,16.3080002 C21.4680003,16.7160002 22.0500003,16.9560003 22.6000003,16.9560003 C23.1620003,16.9560003 23.7420004,16.7280002 24.3020004,16.3400002 L24.3020004,17.6540003 L26.3260004,17.6540003 C28.0180004,17.6540003 29.3900004,19.0240003 29.3900004,20.7160003 L29.3900004,20.7160003 Z" id="Path" fill="#F8E4C8" fill-rule="nonzero"></path>
                    <path d="M29.3900004,23.7920004 L15.8100002,23.7920004 C15.6442002,23.7920004 15.5100002,23.6576004 15.5100002,23.4920004 L15.5100002,20.7160003 C15.5100002,18.8620003 17.0190003,17.3538003 18.8740003,17.3538003 L20.6000003,17.3538003 L20.6000003,16.3080002 C20.6000003,16.1956002 20.6630003,16.0924002 20.7630003,16.0410002 C20.8630003,15.9898002 20.9836003,15.9984002 21.0750003,16.0644002 C21.6138003,16.4512002 22.1412003,16.6560002 22.6000003,16.6560002 C23.0770003,16.6560002 23.5922004,16.4668002 24.1312004,16.0934002 C24.2230004,16.0300002 24.3424004,16.0226002 24.4412004,16.0742002 C24.5402004,16.1260002 24.6020004,16.2284002 24.6020004,16.3400002 L24.6020004,17.3538003 L26.3260004,17.3538003 C28.1810004,17.3538003 29.6900004,18.8620003 29.6900004,20.7160003 L29.6900004,23.4920004 C29.6900004,23.6576004 29.5558004,23.7920004 29.3900004,23.7920004 Z M16.1100002,23.1920003 L29.0900004,23.1920003 L29.0900004,20.7160003 C29.0900004,19.1930003 27.8500004,17.9538003 26.3260004,17.9538003 L24.3020004,17.9538003 C24.1362004,17.9538003 24.0020004,17.8194003 24.0020004,17.6538003 L24.0020004,16.8746003 C23.5234004,17.1280003 23.0536003,17.2560003 22.6000003,17.2560003 C22.1520003,17.2560003 21.6830003,17.1210003 21.2000003,16.8538003 L21.2000003,17.6538003 C21.2000003,17.8194003 21.0658003,17.9538003 20.9000003,17.9538003 L18.8740003,17.9538003 C17.3498003,17.9538003 16.1100002,19.1928003 16.1100002,20.7160003 L16.1100002,23.1920003 Z" id="Shape" fill="#3A312A" fill-rule="nonzero"></path>
                    <path d="M29.3900004,20.7160003 L29.3900004,23.4920004 L15.8100002,23.4920004 L15.8100002,20.7160003 C15.8100002,19.0240003 17.1820003,17.6540003 18.8740003,17.6540003 L19.4040003,17.6540003 L21.5080003,20.4440003 L22.6000003,19.6220003 L23.6920004,20.4440003 L25.7960004,17.6540003 L26.3260004,17.6540003 C28.0180004,17.6540003 29.3900004,19.0240003 29.3900004,20.7160003 L29.3900004,20.7160003 Z" id="Path" fill="#ED6E7A" fill-rule="nonzero"></path>
                    <path d="M29.3900004,23.7920004 L15.8100002,23.7920004 C15.6442002,23.7920004 15.5100002,23.6576004 15.5100002,23.4920004 L15.5100002,20.7160003 C15.5100002,18.8620003 17.0190003,17.3538003 18.8740003,17.3538003 L19.4040003,17.3538003 C19.4982003,17.3538003 19.5868003,17.3980003 19.6436003,17.4732003 L21.5672003,20.0240003 L22.4198003,19.3824003 C22.5266003,19.3020003 22.6738003,19.3020003 22.7806003,19.3824003 L23.6332004,20.0240003 L25.5568004,17.4732003 C25.6136004,17.3980003 25.7022004,17.3538003 25.7964004,17.3538003 L26.3264004,17.3538003 C28.1814004,17.3538003 29.6904004,18.8620003 29.6904004,20.7160003 L29.6904004,23.4920004 C29.6900004,23.6576004 29.5558004,23.7920004 29.3900004,23.7920004 L29.3900004,23.7920004 Z M16.1100002,23.1920003 L29.0900004,23.1920003 L29.0900004,20.7160003 C29.0900004,19.1930003 27.8500004,17.9538003 26.3260004,17.9538003 L25.9456004,17.9538003 L23.9316004,20.6246003 C23.8320004,20.7568003 23.6440004,20.7832003 23.5116004,20.6836003 L22.6000003,19.9974003 L21.6884003,20.6836003 C21.5562003,20.7832003 21.3682003,20.7568003 21.2684003,20.6246003 L19.2544003,17.9538003 L18.8740003,17.9538003 C17.3498003,17.9538003 16.1100002,19.1928003 16.1100002,20.7160003 L16.1100002,23.1920003 Z" id="Shape" fill="#3A312A" fill-rule="nonzero"></path>
                    <path d="M20.1590003,19.8446003 L19.4040003,17.6540003 L18.8740003,17.6540003 C17.1820003,17.6540003 15.8100002,19.0240003 15.8100002,20.7160003 L15.8100002,23.4920004 L21.4160003,23.4920004 L21.0082003,22.3086003 L20.1590003,19.8446003 Z" id="Path" fill="#585858" fill-rule="nonzero"></path>
                    <path d="M21.4160003,23.7920004 L15.8100002,23.7920004 C15.6442002,23.7920004 15.5100002,23.6576004 15.5100002,23.4920004 L15.5100002,20.7160003 C15.5100002,18.8620003 17.0190003,17.3538003 18.8740003,17.3538003 L19.4040003,17.3538003 C19.5320003,17.3538003 19.6458003,17.4350003 19.6876003,17.5562003 L20.4426003,19.7468003 C20.4966003,19.9034003 20.4134003,20.0742003 20.2568003,20.1280003 C20.1004003,20.1822003 19.9294003,20.0988003 19.8754003,19.9420003 L19.1900003,17.9538003 L18.8740003,17.9538003 C17.3498003,17.9538003 16.1100002,19.1928003 16.1100002,20.7160003 L16.1100002,23.1920003 L20.9954003,23.1920003 L20.7246003,22.4066003 C20.6706003,22.2500003 20.7538003,22.0790003 20.9104003,22.0252003 C21.0668003,21.9712003 21.2378003,22.0544003 21.2918003,22.2110003 L21.6996003,23.3942003 C21.7312003,23.4860003 21.7166003,23.5874004 21.6602003,23.6662004 C21.6040003,23.7452004 21.5130003,23.7920004 21.4160003,23.7920004 Z" id="Path" fill="#3A312A" fill-rule="nonzero"></path>
                    <path d="M29.3900004,20.7160003 L29.3900004,23.4920004 L23.7840004,23.4920004 L25.7960004,17.6540003 L26.3260004,17.6540003 C28.0180004,17.6540003 29.3900004,19.0240003 29.3900004,20.7160003 L29.3900004,20.7160003 Z" id="Path" fill="#585858" fill-rule="nonzero"></path>
                    <path d="M29.3900004,23.7920004 L23.7840004,23.7920004 C23.6870004,23.7920004 23.5960004,23.7452004 23.5398004,23.6662004 C23.4834003,23.5872004 23.4688003,23.4860003 23.5004004,23.3944003 L25.5124004,17.5564003 C25.5540004,17.4352003 25.6680004,17.3540003 25.7960004,17.3540003 L26.3260004,17.3540003 C28.1810004,17.3540003 29.6900004,18.8622003 29.6900004,20.7162003 L29.6900004,23.4922004 C29.6900004,23.6576004 29.5558004,23.7920004 29.3900004,23.7920004 Z M24.2046004,23.1920003 L29.0900004,23.1920003 L29.0900004,20.7160003 C29.0900004,19.1930003 27.8500004,17.9538003 26.3260004,17.9538003 L26.0100004,17.9538003 L24.2046004,23.1920003 Z" id="Shape" fill="#3A312A" fill-rule="nonzero"></path>
                    <path d="M21.2348003,9.41620014 C21.2348003,9.70420014 21.0012003,9.93760015 20.7130003,9.93760015 C20.4248003,9.93760015 20.1914003,9.70420014 20.1914003,9.41620014 C20.1914003,9.12820014 20.4250003,8.89480013 20.7130003,8.89480013 C21.0012003,8.89480013 21.2348003,9.12820014 21.2348003,9.41620014 Z" id="Path" fill="#3A312A" fill-rule="nonzero"></path>
                    <circle id="Oval" fill="#3A312A" fill-rule="nonzero" cx="24.4872004" cy="9.41620014" r="1"></circle>
                    <path d="M20.5692003,10.9664002 C20.5692003,11.3372002 20.1668003,11.6378002 19.6706003,11.6378002 C19.1744003,11.6378002 18.7720003,11.3372002 18.7720003,10.9664002 C18.7720003,10.5956002 19.1744003,10.2950002 19.6706003,10.2950002 C20.1668003,10.2950002 20.5692003,10.5956002 20.5692003,10.9664002 Z" id="Path" fill="#F59689" fill-rule="nonzero"></path>
                    <path d="M26.4284004,10.9664002 C26.4284004,11.3372002 26.0260004,11.6378002 25.5298004,11.6378002 C25.0334004,11.6378002 24.6312004,11.3372002 24.6312004,10.9664002 C24.6312004,10.5956002 25.0336004,10.2950002 25.5298004,10.2950002 C26.0262004,10.2950002 26.4284004,10.5956002 26.4284004,10.9664002 Z" id="Path" fill="#F59689" fill-rule="nonzero"></path>
                    <path d="M22.6618003,2.95540004 C19.6064003,2.95540004 17.1296003,5.32220008 17.1296003,8.24180012 C17.1296003,8.55080013 17.1854003,8.78100013 17.2894003,9.06860014 C17.3384003,9.20420014 18.1306003,8.77100013 18.1980003,8.72360013 C18.5354003,8.48620013 18.8110003,8.16460012 19.0170003,7.80880012 C19.1022003,7.66080011 19.1732003,7.51040011 19.2304003,7.36000011 C19.4128003,6.8798001 19.9082003,5.54360008 20.4112003,5.64840008 C21.0858003,5.78900009 21.8504003,5.86840009 22.6616003,5.86840009 C23.4728003,5.86840009 24.2374004,5.78900009 24.9120004,5.64840008 C25.4150004,5.54360008 25.9106004,6.8798001 26.0928004,7.36000011 C26.1500004,7.51060011 26.2210004,7.66100011 26.3062004,7.80900012 C26.6464004,8.39740013 27.2214004,8.95740013 27.9206004,9.05940013 C27.9224004,9.02560013 27.9650004,9.01420013 27.9968004,9.00260013 C28.2258004,8.91940013 28.1936004,8.42520013 28.1936004,8.24160012 C28.1940004,5.32220008 25.7172004,2.95540004 22.6618003,2.95540004 L22.6618003,2.95540004 Z" id="Path" fill="#585858" fill-rule="nonzero"></path>
                    <path d="M17.3322003,9.39160014 C17.2930003,9.39160014 17.2570003,9.38720014 17.2250003,9.37720014 C17.1224003,9.34480014 17.0432003,9.26960014 17.0074003,9.17080014 C16.9008003,8.87560013 16.8298003,8.60480013 16.8296003,8.24180012 C16.8296003,5.16160008 19.4460003,2.65540004 22.6618003,2.65540004 C25.8776004,2.65540004 28.4940004,5.16140008 28.4940004,8.24180012 L28.4946004,8.29920012 C28.4988004,8.58340013 28.5064004,9.10520014 28.1340004,9.27080014 C28.1268004,9.27800014 28.1192004,9.28480014 28.1112004,9.29160014 C28.0462004,9.34500014 27.9620004,9.36900014 27.8776004,9.35640014 C27.1782004,9.25440014 26.4938004,8.73200013 26.0468004,7.95920012 C25.9548004,7.79940012 25.8760004,7.63380011 25.8126004,7.46660011 L25.8012004,7.43680011 C25.2770004,6.05440009 25.0142004,5.94940009 24.9668004,5.94260009 C24.2524004,6.09240009 23.4746003,6.16860009 22.6616003,6.16860009 C21.8486003,6.16860009 21.0708003,6.09240009 20.3500003,5.94220009 C20.3092003,5.94940009 20.0464003,6.05440009 19.5222003,7.43640011 L19.5108003,7.46660011 C19.4474003,7.63400011 19.3686003,7.79960012 19.2768003,7.95880012 C19.0386003,8.37020012 18.7254003,8.71940013 18.3708003,8.96920013 C18.3640003,8.97380013 17.7070003,9.39160014 17.3322003,9.39160014 L17.3322003,9.39160014 Z M27.9704004,9.01240013 L28.0786004,9.29220014 C28.0848004,9.28980014 28.0916004,9.28660014 28.0986004,9.28240014 L27.9704004,9.01240013 Z M22.6618003,3.25540005 C19.7768003,3.25540005 17.4296003,5.49240008 17.4296003,8.24180012 C17.4298003,8.43180013 17.4540003,8.58480013 17.4982003,8.74220013 C17.6824003,8.66600013 17.9456003,8.53000013 18.0292003,8.47580013 C18.3094003,8.27860012 18.5624003,7.99500012 18.7574003,7.65860011 C18.8328003,7.52780011 18.8978003,7.39120011 18.9500003,7.25380011 L18.9614003,7.22380011 C19.3600003,6.17280009 19.8192003,5.21900008 20.4726003,5.35480008 C21.1532003,5.49680008 21.8898003,5.56860008 22.6618003,5.56860008 C23.4338003,5.56860008 24.1704004,5.49680008 24.8510004,5.35480008 C25.5038004,5.22220008 25.9636004,6.17280009 26.3622004,7.22420011 L26.3736004,7.25400011 C26.4258004,7.39160011 26.4906004,7.52780011 26.5664004,7.65940011 C26.8952004,8.22800012 27.3664004,8.62340013 27.8460004,8.73980013 C27.8504004,8.73780013 27.8550004,8.73580013 27.8596004,8.73420013 C27.8860004,8.67240013 27.8978004,8.52960013 27.8946004,8.30820012 L27.8940004,8.24200012 C27.8940004,5.49240008 25.5468004,3.25540005 22.6618003,3.25540005 L22.6618003,3.25540005 Z" id="Shape" fill="#3A312A" fill-rule="nonzero"></path>
                    <path d="M22.6000003,14.1098002 C21.7848003,14.1098002 21.1968003,13.7432002 20.8524003,13.0202002 C20.7812003,12.8706002 20.8446003,12.6914002 20.9942003,12.6202002 C21.1438003,12.5494002 21.3230003,12.6126002 21.3940003,12.7620002 C21.6370003,13.2722002 22.0202003,13.5098002 22.6000003,13.5098002 C23.2784003,13.5098002 23.6868004,13.0768002 23.7958004,12.7858002 C23.8542004,12.6306002 24.0278004,12.5522002 24.1820004,12.6102002 C24.3372004,12.6682002 24.4158004,12.8412002 24.3578004,12.9964002 C24.1568004,13.5326002 23.5210004,14.1098002 22.6000003,14.1098002 L22.6000003,14.1098002 Z" id="Path" fill="#3A312A" fill-rule="nonzero"></path>
                    <path d="M26.7960004,3.66240005 C26.7960004,5.17860008 24.9174004,6.4078001 22.6000003,6.4078001 C20.2826003,6.4078001 18.4040003,5.17860008 18.4040003,3.66240005 C18.4040003,2.14620003 22.4446003,0.399000006 22.6000003,0.399000006 C22.6518003,0.399000006 26.7960004,2.14620003 26.7960004,3.66240005 Z" id="Path" fill="#585858" fill-rule="nonzero"></path>
                    <path d="M22.6000003,6.7080001 C20.1210003,6.7080001 18.1040003,5.34180008 18.1040003,3.66240005 C18.1040003,1.89040003 22.3984003,0.0990000015 22.6000003,0.0990000015 C22.7702003,0.0990000015 24.0184004,0.69220001 24.8718004,1.20480002 C26.3476004,2.09160003 27.0958004,2.91820004 27.0958004,3.66240005 C27.0958004,5.34180008 25.0790004,6.7080001 22.6000003,6.7080001 Z M22.5884003,0.713200011 C21.9018003,0.944800014 18.7042003,2.52640004 18.7042003,3.66240005 C18.7042003,5.01080007 20.4518003,6.10800009 22.6002003,6.10800009 C24.7484004,6.10800009 26.4960004,5.01100007 26.4960004,3.66240005 C26.4958004,2.55600004 23.3292003,1.00020001 22.5884003,0.713200011 L22.5884003,0.713200011 Z" id="Shape" fill="#3A312A" fill-rule="nonzero"></path>
                    <path d="M18.3536003,23.7916004 C18.1878003,23.7916004 18.0536003,23.6572004 18.0536003,23.4916004 L18.0536003,21.2980003 C18.0536003,21.1324003 18.1878003,20.9980003 18.3536003,20.9980003 C18.5194003,20.9980003 18.6536003,21.1324003 18.6536003,21.2980003 L18.6536003,23.4916004 C18.6536003,23.6572004 18.5194003,23.7916004 18.3536003,23.7916004 Z" id="Path" fill="#3A312A" fill-rule="nonzero"></path>
                    <path d="M26.9702004,23.7916004 C26.8044004,23.7916004 26.6702004,23.6572004 26.6702004,23.4916004 L26.6702004,21.2980003 C26.6702004,21.1324003 26.8044004,20.9980003 26.9702004,20.9980003 C27.1360004,20.9980003 27.2702004,21.1324003 27.2702004,21.2980003 L27.2702004,23.4916004 C27.2702004,23.6572004 27.1358004,23.7916004 26.9702004,23.7916004 Z" id="Path" fill="#3A312A" fill-rule="nonzero"></path>
                    <path d="M44.8960007,45.0002007 L44.8960007,42.2562006 C44.8960007,40.5838006 43.5404006,39.2282006 41.8680006,39.2282006 L39.8674006,39.2282006 L39.8674006,37.9280006 C39.3140006,38.3116006 38.7414006,38.5380006 38.1860006,38.5380006 C37.6530006,38.5380006 37.0906006,38.3094006 36.5396005,37.9212006 L36.5056005,37.9212006 L36.5056005,39.2282006 L34.5040005,39.2282006 C32.8316005,39.2282006 31.4760005,40.5838006 31.4760005,42.2562006 L31.4760005,45.0002007 L44.8960007,45.0002007 Z" id="Path" fill="#F7E3C7" fill-rule="nonzero"></path>
                    <path d="M44.8960007,45.3002007 L31.4760005,45.3002007 C31.3102005,45.3002007 31.1760005,45.1658007 31.1760005,45.0002007 L31.1760005,42.2562006 C31.1760005,40.4212006 32.6688005,38.9282006 34.5040005,38.9282006 L36.2058005,38.9282006 L36.2058005,37.9212006 C36.2058005,37.7556006 36.3400005,37.6212006 36.5058005,37.6212006 L36.5396005,37.6212006 C36.6016005,37.6212006 36.6618005,37.6404006 36.7124005,37.6758006 C37.2416006,38.0488006 37.7376006,38.2380006 38.1860006,38.2380006 C38.6556006,38.2380006 39.1638006,38.0508006 39.6966006,37.6816006 C39.7884006,37.6180006 39.9080006,37.6106006 40.0066006,37.6622006 C40.1056006,37.7140006 40.1674006,37.8164006 40.1674006,37.9280006 L40.1674006,38.9282006 L41.8678006,38.9282006 C43.7028007,38.9282006 45.1958009,40.4212006 45.1958009,42.2562006 L45.1958009,45.0002007 C45.1960007,45.1658007 45.0618007,45.3002007 44.8960007,45.3002007 L44.8960007,45.3002007 Z M31.7760005,44.7002007 L44.5960007,44.7002007 L44.5960007,42.2562006 C44.5960007,40.7520006 43.3722006,39.5282006 41.8680006,39.5282006 L39.8676006,39.5282006 C39.7018006,39.5282006 39.5676006,39.3938006 39.5676006,39.2282006 L39.5676006,38.4624006 C39.0956006,38.7118006 38.6326006,38.8380006 38.1860006,38.8380006 C37.7454006,38.8380006 37.2826006,38.7052006 36.8058005,38.4422006 L36.8058005,39.2282006 C36.8058005,39.3938006 36.6716005,39.5282006 36.5058005,39.5282006 L34.5040005,39.5282006 C32.9998005,39.5282006 31.7760005,40.7520006 31.7760005,42.2562006 L31.7760005,44.7002007 Z" id="Shape" fill="#3A312A" fill-rule="nonzero"></path>
                    <path d="M44.8960007,45.0008007 L44.8960007,42.2552006 C44.8960007,40.5834006 43.5408006,39.2272006 41.8678006,39.2272006 L41.3892006,39.2272006 L41.4014006,39.2370006 L39.3206006,41.9960006 L38.2466006,41.1876006 L37.1728006,41.9960006 L35.0920005,39.2370006 L35.1042005,39.2272006 L34.5040005,39.2272006 C32.8310005,39.2272006 31.4758005,40.5836006 31.4758005,42.2552006 L31.4758005,45.0008007 L44.8960007,45.0008007 Z" id="Path" fill="#8AC3DA" fill-rule="nonzero"></path>
                    <path d="M44.8960007,45.3008007 L31.4760005,45.3008007 C31.3102005,45.3008007 31.1760005,45.1664007 31.1760005,45.0008007 L31.1760005,42.2550006 C31.1760005,40.4198006 32.6690005,38.9268006 34.5042005,38.9268006 L35.1044005,38.9268006 C35.2316005,38.9268006 35.3450005,39.0070006 35.3874005,39.1270006 C35.3878005,39.1286006 35.3884005,39.1302006 35.3890005,39.1316006 L37.2322006,41.5756006 L38.0666006,40.9474006 C38.1734006,40.8670006 38.3206006,40.8670006 38.4276006,40.9474006 L39.2620006,41.5756006 L41.1214006,39.1102006 C41.1684006,39.0018006 41.2704006,38.9268006 41.3898006,38.9268006 L41.8682006,38.9268006 C43.7034007,38.9268006 45.1964007,40.4198006 45.1964007,42.2550006 L45.1964007,45.0008007 C45.1960007,45.1664007 45.0618007,45.3008007 44.8960007,45.3008007 L44.8960007,45.3008007 Z M31.7760005,44.7008007 L44.5960007,44.7008007 L44.5960007,42.2550006 C44.5960007,40.7508006 43.3722006,39.5268006 41.8678006,39.5268006 L41.5584006,39.5268006 L39.5604006,42.1762006 C39.4606006,42.3084006 39.2726006,42.3344006 39.1404006,42.2352006 L38.2470006,41.5628006 L37.3536006,42.2352006 C37.2212006,42.3348006 37.0332006,42.3082006 36.9336006,42.1762006 L34.9356005,39.5268006 L34.5044005,39.5268006 C33.0002005,39.5268006 31.7762005,40.7506006 31.7762005,42.2550006 L31.7762005,44.7008007 L31.7760005,44.7008007 Z" id="Shape" fill="#3A312A" fill-rule="nonzero"></path>
                    <path d="M37.1416006,45.0010007 L35.0924005,39.2368006 L35.1044005,39.2268006 L34.5036005,39.2268006 C32.8310005,39.2268006 31.4758005,40.5830006 31.4758005,42.2556006 L31.4758005,45.0010007 L37.1416006,45.0010007 Z" id="Path" fill="#585858" fill-rule="nonzero"></path>
                    <path d="M37.1416006,45.3010007 L31.4760005,45.3010007 C31.3102005,45.3010007 31.1760005,45.1666007 31.1760005,45.0010007 L31.1760005,42.2556006 C31.1760005,40.4200006 32.6688005,38.9266006 34.5038005,38.9266006 L35.1046005,38.9266006 C35.2308005,38.9266006 35.3434005,39.0056006 35.3866005,39.1240006 C35.3978005,39.1550006 35.4038005,39.1868006 35.4046005,39.2188006 L37.4246006,44.9002007 C37.4574006,44.9922007 37.4432006,45.0942007 37.3870006,45.1738007 C37.3306006,45.2536007 37.2392006,45.3010007 37.1416006,45.3010007 L37.1416006,45.3010007 Z M31.7760005,44.7010007 L36.7166005,44.7010007 L34.8770005,39.5268006 L34.5036005,39.5268006 C32.9994005,39.5268006 31.7758005,40.7510006 31.7758005,42.2558006 L31.7758005,44.7010007 L31.7760005,44.7010007 Z" id="Shape" fill="#3A312A" fill-rule="nonzero"></path>
                    <path d="M44.8958007,42.2556006 L44.8958007,45.0010007 L39.3526006,45.0010007 L41.4020006,39.2368006 L41.3890006,39.2268006 L41.8682006,39.2268006 C43.5408006,39.2268006 44.8958007,40.5830006 44.8958007,42.2556006 L44.8958007,42.2556006 Z" id="Path" fill="#585858" fill-rule="nonzero"></path>
                    <path d="M44.8958007,45.3010007 L39.3526006,45.3010007 C39.2552006,45.3010007 39.1638006,45.2536007 39.1074006,45.1740007 C39.0512006,45.0944007 39.0372006,44.9924007 39.0698006,44.9004007 L41.0978006,39.1962006 C41.1000006,39.1754006 41.1044006,39.1548006 41.1114006,39.1346006 C41.1528006,39.0134006 41.2604006,38.9268006 41.3886006,38.9268006 L41.8678006,38.9268006 C43.7028007,38.9268006 45.1956009,40.4202006 45.1956009,42.2558006 L45.1956009,45.0012007 C45.1958007,45.1666007 45.0616007,45.3010007 44.8958007,45.3010007 L44.8958007,45.3010007 Z M39.7778006,44.7010007 L44.5958007,44.7010007 L44.5958007,42.2556006 C44.5958007,40.7510006 43.3722006,39.5266006 41.8680006,39.5266006 L41.6172006,39.5266006 L39.7778006,44.7010007 Z" id="Shape" fill="#3A312A" fill-rule="nonzero"></path>
                    <path d="M34.1780005,31.7222005 C34.1780005,32.3802005 33.6446005,32.9136005 32.9866005,32.9136005 C32.3286005,32.9136005 31.7952005,32.3802005 31.7952005,31.7222005 C31.7952005,31.0642005 32.3286005,30.5308004 32.9866005,30.5308004 C33.6446005,30.5306005 34.1780005,31.0640005 34.1780005,31.7222005 Z" id="Path" fill="#F7E3C7"></path>
                    <path d="M32.9866005,33.2134005 C32.1642005,33.2134005 31.4952005,32.5444005 31.4952005,31.7220005 C31.4952005,30.8996005 32.1642005,30.2306005 32.9866005,30.2306005 C33.8090005,30.2306005 34.4780005,30.8996005 34.4780005,31.7220005 C34.4780005,32.5446005 33.8088005,33.2134005 32.9866005,33.2134005 Z M32.9866005,30.8306005 C32.4950005,30.8306005 32.0952005,31.2304005 32.0952005,31.7220005 C32.0952005,32.2136005 32.4950005,32.6134005 32.9866005,32.6134005 C33.4782005,32.6134005 33.8780005,32.2136005 33.8780005,31.7220005 C33.8780005,31.2304005 33.4780005,30.8306005 32.9866005,30.8306005 Z" id="Shape" fill="#3A312A" fill-rule="nonzero"></path>
                    <path d="M44.5772007,31.7222005 C44.5772007,32.3802005 44.0438007,32.9136005 43.3858006,32.9136005 C42.7278006,32.9136005 42.1944006,32.3802005 42.1944006,31.7222005 C42.1944006,31.0642005 42.7278006,30.5308004 43.3858006,30.5308004 C44.0438007,30.5306005 44.5772007,31.0640005 44.5772007,31.7222005 Z" id="Path" fill="#F7E3C7"></path>
                    <path d="M43.3858006,33.2134005 C42.5634006,33.2134005 41.8944006,32.5444005 41.8944006,31.7220005 C41.8944006,30.8996005 42.5634006,30.2306005 43.3858006,30.2306005 C44.2082007,30.2306005 44.8772007,30.8996005 44.8772007,31.7220005 C44.8772007,32.5446005 44.2082007,33.2134005 43.3858006,33.2134005 Z M43.3858006,30.8306005 C42.8942006,30.8306005 42.4944006,31.2304005 42.4944006,31.7220005 C42.4944006,32.2136005 42.8942006,32.6134005 43.3858006,32.6134005 C43.8774007,32.6134005 44.2772007,32.2136005 44.2772007,31.7220005 C44.2772007,31.2304005 43.8774007,30.8306005 43.3858006,30.8306005 Z" id="Shape" fill="#3A312A" fill-rule="nonzero"></path>
                    <path d="M33.9898005,45.3006007 C33.8240005,45.3006007 33.6898005,45.1662007 33.6898005,45.0006007 L33.6898005,42.8318006 C33.6898005,42.6662006 33.8240005,42.5318006 33.9898005,42.5318006 C34.1556005,42.5318006 34.2898005,42.6662006 34.2898005,42.8318006 L34.2898005,45.0006007 C34.2898005,45.1662007 34.1554005,45.3006007 33.9898005,45.3006007 Z" id="Path" fill="#3A312A" fill-rule="nonzero"></path>
                    <path d="M42.5044006,45.3006007 C42.3386006,45.3006007 42.2044006,45.1662007 42.2044006,45.0006007 L42.2044006,42.8318006 C42.2044006,42.6662006 42.3386006,42.5318006 42.5044006,42.5318006 C42.6702006,42.5318006 42.8044006,42.6662006 42.8044006,42.8318006 L42.8044006,45.0006007 C42.8044006,45.1662007 42.6702006,45.3006007 42.5044006,45.3006007 Z" id="Path" fill="#3A312A" fill-rule="nonzero"></path>
                    <polygon id="Path" fill="#ED6E7A" fill-rule="nonzero" points="39.0736006 45.0008007 37.4164006 45.0008007 37.7294006 42.9722006 38.7606006 42.9722006"></polygon>
                    <path d="M39.0736006,45.3008007 L37.4164006,45.3008007 C37.3288006,45.3008007 37.2458006,45.2626007 37.1886006,45.1962007 C37.1316006,45.1298007 37.1064006,45.0416007 37.1198006,44.9552007 L37.4328006,42.9266006 C37.4554006,42.7804006 37.5812006,42.6724006 37.7292006,42.6724006 L38.7604006,42.6724006 C38.9084006,42.6724006 39.0344006,42.7804006 39.0568006,42.9266006 L39.3698006,44.9552007 C39.3832006,45.0418007 39.3580006,45.1298007 39.3010006,45.1962007 C39.2444006,45.2624007 39.1612006,45.3008007 39.0736006,45.3008007 Z M37.7662006,44.7008007 L38.7238006,44.7008007 L38.5034006,43.2722006 L37.9866006,43.2722006 L37.7662006,44.7008007 Z" id="Shape" fill="#3A312A" fill-rule="nonzero"></path>
                    <polygon id="Path" fill="#ED6E7A" fill-rule="nonzero" points="39.1164006 41.1856006 38.7594006 42.9718006 37.7302006 42.9718006 37.3816006 41.1856006"></polygon>
                    <path d="M38.7594006,43.2718006 L37.7302006,43.2718006 C37.5866006,43.2718006 37.4632006,43.1702006 37.4358006,43.0292006 L37.0872006,41.2430006 C37.0700006,41.1552006 37.0930006,41.0640006 37.1500006,40.9948006 C37.2070006,40.9256006 37.2920006,40.8856006 37.3816006,40.8856006 L39.1164006,40.8856006 C39.2062006,40.8856006 39.2914006,40.9258006 39.3484006,40.9954006 C39.4054006,41.0650006 39.4282006,41.1564006 39.4106006,41.2444006 L39.0536006,43.0306006 C39.0256006,43.1710006 38.9026006,43.2718006 38.7594006,43.2718006 Z M37.9774006,42.6718006 L38.5136006,42.6718006 L38.7506006,41.4856006 L37.7460006,41.4856006 L37.9774006,42.6718006 Z" id="Shape" fill="#3A312A" fill-rule="nonzero"></path>
                    <polygon id="Path" fill="#8AC3DA" fill-rule="nonzero" transform="translate(36.694068, 40.221006) rotate(-36.995898) translate(-36.694068, -40.221006) " points="36.0186962 38.4921107 37.3694395 38.4921107 37.3694395 41.9499017 36.0186962 41.9499017"></polygon>
                    <path d="M37.1732006,42.2962006 C37.1594006,42.2962006 37.1454006,42.2952006 37.1314006,42.2932006 C37.0526006,42.2820006 36.9814006,42.2402006 36.9336006,42.1766006 L34.8534005,39.4162006 C34.8054005,39.3528006 34.7848005,39.2728006 34.7958005,39.1940006 C34.8068005,39.1152006 34.8488005,39.0440006 34.9124005,38.9962006 L35.9908005,38.1838006 C36.1232005,38.0844006 36.3112005,38.1106006 36.4110005,38.2430006 L38.4912006,41.0032006 C38.5908006,41.1354006 38.5646006,41.3236006 38.4322006,41.4234006 L37.3540006,42.2362006 C37.3014006,42.2754006 37.2380006,42.2962006 37.1732006,42.2962006 Z M35.5130005,39.2950006 L37.2322006,41.5762006 L37.8314006,41.1246006 L36.1122005,38.8436006 L35.5130005,39.2950006 Z" id="Shape" fill="#3A312A" fill-rule="nonzero"></path>
                    <polygon id="Path" fill="#8AC3DA" fill-rule="nonzero" transform="translate(39.811402, 40.186687) rotate(-143.004102) translate(-39.811402, -40.186687) " points="39.1360304 38.4577911 40.4867738 38.4577911 40.4867738 41.9155821 39.1360304 41.9155821"></polygon>
                    <path d="M39.3210006,42.2962006 C39.2562006,42.2962006 39.1928006,42.2754006 39.1404006,42.2358006 L38.0622006,41.4230006 C37.9298006,41.3232006 37.9036006,41.1352006 38.0032006,41.0028006 L40.0834006,38.2426006 C40.1832006,38.1102006 40.3712006,38.0840006 40.5036006,38.1834006 L41.5820006,38.9958006 C41.6454006,39.0436006 41.6874006,39.1150006 41.6984006,39.1936006 C41.7096006,39.2726006 41.6888006,39.3524006 41.6408006,39.4158006 L39.5606006,42.1762006 C39.5128006,42.2398006 39.4416006,42.2816006 39.3628006,42.2928006 C39.3488006,42.2954006 39.3348006,42.2962006 39.3210006,42.2962006 L39.3210006,42.2962006 Z M38.6628006,41.1246006 L39.2620006,41.5762006 L40.9812006,39.2950006 L40.3820006,38.8436006 L38.6628006,41.1246006 Z" id="Shape" fill="#3A312A" fill-rule="nonzero"></path>
                    <path d="M43.4676006,31.1442005 C43.4676006,34.0604005 40.6588006,38.5388006 38.1866006,38.5388006 C35.8258005,38.5388006 32.9046005,34.0604005 32.9046005,31.1442005 C32.9046005,30.9896005 32.9116005,30.8368005 32.9236005,30.6862005 C32.9256005,30.6640005 32.9276005,30.6420005 32.9306005,30.6200005 C32.9496005,30.4622005 32.9908005,30.2926005 33.0502005,30.1158004 C33.6600005,28.2764004 35.5054005,27.1282004 37.4300006,27.3472004 C37.6982006,27.3784004 37.9754006,27.3944004 38.2598006,27.3944004 C39.4572006,27.3944004 40.5322006,27.1102004 41.2674006,26.6600004 C41.3980006,26.8760004 41.5608006,27.0750004 41.7516006,27.2486004 C42.8066006,28.2138004 43.4676006,29.6012004 43.4676006,31.1442005 L43.4676006,31.1442005 Z" id="Path" fill="#F7E3C7" fill-rule="nonzero"></path>
                    <path d="M38.1866006,38.8386006 C35.5986005,38.8386006 32.6046005,34.1822005 32.6046005,31.1440005 C32.6046005,30.9884005 32.6112005,30.8308005 32.6246005,30.6622005 C32.6274005,30.6318005 32.6298005,30.6054005 32.6334005,30.5788005 C32.6538005,30.4100005 32.6986005,30.2204005 32.7658005,30.0200004 C33.4146005,28.0628004 35.3906005,26.8132004 37.4640006,27.0486004 C37.7242006,27.0786004 37.9918006,27.0940004 38.2598006,27.0940004 C39.3550006,27.0940004 40.3940006,26.8424004 41.1108006,26.4038004 C41.1790006,26.3620004 41.2610006,26.3488004 41.3384006,26.3682004 C41.4160006,26.3870004 41.4828006,26.4362004 41.5242006,26.5044004 C41.6412006,26.6980004 41.7856006,26.8736004 41.9536006,27.0264004 C43.1066006,28.0816004 43.7674007,29.5822004 43.7674007,31.1440005 C43.7676007,34.2524005 40.8278006,38.8386006 38.1866006,38.8386006 L38.1866006,38.8386006 Z M36.9612006,27.6204004 C35.3334005,27.6204004 33.8498005,28.6570004 33.3350005,30.2098005 C33.2804005,30.3730005 33.2446005,30.5226005 33.2286005,30.6558005 C33.2256005,30.6782005 33.2240005,30.6960005 33.2224005,30.7138005 C33.2106005,30.8628005 33.2046005,31.0048005 33.2046005,31.1442005 C33.2046005,33.8400005 35.9878005,38.2388006 38.1866006,38.2388006 C40.4478006,38.2388006 43.1676006,33.8814005 43.1676006,31.1442005 C43.1676006,29.7504004 42.5778006,28.4112004 41.5492006,27.4698004 C41.4110006,27.3440004 41.2854006,27.2058004 41.1738006,27.0568004 C40.3864006,27.4640004 39.3432006,27.6944004 38.2600006,27.6944004 C37.9690006,27.6944004 37.6780006,27.6778004 37.3958006,27.6452004 C37.2500006,27.6284004 37.1050006,27.6204004 36.9612006,27.6204004 L36.9612006,27.6204004 Z" id="Shape" fill="#3A312A" fill-rule="nonzero"></path>
                    <circle id="Oval" fill="#3A312A" fill-rule="nonzero" cx="36.3214005" cy="31.0842005" r="1"></circle>
                    <path d="M40.5664006,31.0842005 C40.5664006,31.3690005 40.3356006,31.5998005 40.0508006,31.5998005 C39.7660006,31.5998005 39.5352006,31.3690005 39.5352006,31.0842005 C39.5352006,30.7994005 39.7660006,30.5686005 40.0508006,30.5686005 C40.3356006,30.5686005 40.5664006,30.7994005 40.5664006,31.0842005 Z" id="Path" fill="#3A312A" fill-rule="nonzero"></path>
                    <path d="M36.1792005,32.6168005 C36.1792005,32.9834005 35.7816005,33.2808005 35.2912005,33.2808005 C34.8008005,33.2808005 34.4032005,32.9836005 34.4032005,32.6168005 C34.4032005,32.2502005 34.8008005,31.9530005 35.2912005,31.9530005 C35.7814005,31.9530005 36.1792005,32.2502005 36.1792005,32.6168005 Z" id="Path" fill="#F59689" fill-rule="nonzero"></path>
                    <path d="M41.9694006,32.6168005 C41.9694006,32.9834005 41.5718006,33.2808005 41.0814006,33.2808005 C40.5910006,33.2808005 40.1934006,32.9836005 40.1934006,32.6168005 C40.1934006,32.2502005 40.5910006,31.9530005 41.0814006,31.9530005 C41.5718006,31.9530005 41.9694006,32.2502005 41.9694006,32.6168005 Z" id="Path" fill="#F59689" fill-rule="nonzero"></path>
                    <path d="M38.1860006,35.7280005 C37.3786006,35.7280005 36.7966005,35.3648005 36.4556005,34.6486005 C36.3844005,34.4990005 36.4480005,34.3200005 36.5976005,34.2488005 C36.7470005,34.1780005 36.9262006,34.2412005 36.9974006,34.3908005 C37.2368006,34.8938005 37.6144006,35.1282005 38.1860006,35.1282005 C38.8546006,35.1282005 39.2570006,34.7014005 39.3644006,34.4146005 C39.4224006,34.2594005 39.5952006,34.1804005 39.7506006,34.2390005 C39.9058006,34.2970005 39.9846006,34.4698005 39.9264006,34.6252005 C39.7274006,35.1560005 39.0980006,35.7280005 38.1860006,35.7280005 L38.1860006,35.7280005 Z" id="Path" fill="#3A312A" fill-rule="nonzero"></path>
                    <path d="M38.2522006,24.6948004 C35.2352005,24.6948004 32.7896005,27.0330004 32.7896005,29.9176004 C32.7896005,30.2228005 32.8448005,30.4502005 32.9474005,30.7346005 C32.9958005,30.8686005 33.7780005,30.4408005 33.8446005,30.3938005 C34.1776005,30.1592004 34.4498005,29.8414004 34.6532005,29.4900004 C34.7374005,29.3440004 34.8074005,29.1952004 34.8640005,29.0466004 C35.0440005,28.5722004 35.5332005,27.2520004 36.0300005,27.3556004 C36.6962005,27.4944004 37.4512006,27.5730004 38.2522006,27.5730004 C39.0532006,27.5730004 39.8082006,27.4944004 40.4744006,27.3556004 C40.9712006,27.2520004 41.4604006,28.5722004 41.6404006,29.0466004 C41.6968006,29.1954004 41.7670006,29.3440004 41.8512006,29.4902004 C42.1872006,30.0714004 42.7548006,30.6248005 43.4454006,30.7256005 C43.4472006,30.6922005 43.4892006,30.6808005 43.5206006,30.6694005 C43.7466007,30.5874005 43.7150007,30.0988004 43.7150007,29.9176004 C43.7148007,27.0332004 41.2692006,24.6948004 38.2522006,24.6948004 L38.2522006,24.6948004 Z" id="Path" fill="#585858" fill-rule="nonzero"></path>
                    <path d="M32.9886005,31.0572005 C32.9498005,31.0572005 32.9140005,31.0526005 32.8824005,31.0426005 C32.7800005,31.0104005 32.7008005,30.9354005 32.6652005,30.8366005 C32.5598005,30.5446005 32.4896005,30.2766005 32.4896005,29.9176004 C32.4896005,26.8724004 35.0746005,24.3950004 38.2522006,24.3950004 C41.4298006,24.3950004 44.0148007,26.8726004 44.0148007,29.9176004 L44.0154007,29.9744004 C44.0196007,30.2558005 44.0272007,30.7726005 43.6578007,30.9372005 C43.6508007,30.9440005 43.6436007,30.9506005 43.6360007,30.9570005 C43.5708006,31.0110005 43.4862006,31.0348005 43.4022006,31.0222005 C42.7104006,30.9214005 42.0336006,30.4048005 41.5916006,29.6402004 C41.5008006,29.4826004 41.4230006,29.3188004 41.3602006,29.1528004 L41.3486006,29.1226004 C40.8468006,27.7986004 40.5936006,27.6604004 40.5278006,27.6496004 C39.8236006,27.7976004 39.0554006,27.8728004 38.2522006,27.8728004 C37.4490006,27.8728004 36.6810005,27.7976004 35.9688005,27.6492004 C35.9110005,27.6604004 35.6578005,27.7986004 35.1560005,29.1226004 L35.1444005,29.1528004 C35.0816005,29.3186004 35.0038005,29.4822004 34.9134005,29.6396004 C34.6776005,30.0468004 34.3678005,30.3922005 34.0174005,30.6390005 C34.0106005,30.6438005 33.3600005,31.0572005 32.9886005,31.0572005 L32.9886005,31.0572005 Z M43.4944006,30.6788005 L43.6020006,30.9588005 C43.6082006,30.9562005 43.6150006,30.9532005 43.6220007,30.9490005 L43.4944006,30.6788005 Z M38.2522006,24.9950004 C35.4056005,24.9950004 33.0896005,27.2032004 33.0896005,29.9176004 C33.0896005,30.1034004 33.1132005,30.2532005 33.1562005,30.4070005 C33.3374005,30.3314005 33.5942005,30.1986004 33.6762005,30.1456004 C33.9520005,29.9510004 34.2016005,29.6714004 34.3940005,29.3396004 C34.4682005,29.2106004 34.5320005,29.0762004 34.5838005,28.9400004 L34.5952005,28.9100004 C34.9894005,27.8704004 35.4426005,26.9286004 36.0916005,27.0618004 C36.7634005,27.2018004 37.4904006,27.2730004 38.2524006,27.2730004 C39.0146006,27.2730004 39.7416006,27.2020004 40.4134006,27.0618004 C41.0622006,26.9288004 41.5156006,27.8704004 41.9098006,28.9100004 L41.9212006,28.9400004 C41.9728006,29.0762004 42.0368006,29.2110004 42.1114006,29.3402004 C42.4352006,29.9006004 42.8992006,30.2904005 43.3712006,30.4056005 C43.3748006,30.4040005 43.3784006,30.4024005 43.3820006,30.4010005 C43.4074006,30.3396005 43.4188006,30.1994005 43.4156006,29.9832004 L43.4150006,29.9176004 C43.4148006,27.2032004 41.0988006,24.9950004 38.2522006,24.9950004 L38.2522006,24.9950004 Z" id="Shape" fill="#3A312A" fill-rule="nonzero"></path>
                    <path d="M42.5064006,45.2836007 C42.3406006,45.2836007 42.2064006,45.1492007 42.2064006,44.9836007 L42.2064006,42.8164006 C42.2064006,42.6508006 42.3406006,42.5164006 42.5064006,42.5164006 C42.6722006,42.5164006 42.8064006,42.6508006 42.8064006,42.8164006 L42.8064006,44.9836007 C42.8064006,45.1492007 42.6720006,45.2836007 42.5064006,45.2836007 Z" id="Path" fill="#3A312A" fill-rule="nonzero"></path>
                    <path d="M33.9980005,45.2836007 C33.8322005,45.2836007 33.6980005,45.1492007 33.6980005,44.9836007 L33.6980005,42.8164006 C33.6980005,42.6508006 33.8322005,42.5164006 33.9980005,42.5164006 C34.1638005,42.5164006 34.2980005,42.6508006 34.2980005,42.8164006 L34.2980005,44.9836007 C34.2980005,45.1492007 34.1638005,45.2836007 33.9980005,45.2836007 Z" id="Path" fill="#3A312A" fill-rule="nonzero"></path>
                    <path d="M44.0438007,25.5586004 C44.0438007,25.5586004 41.4926006,28.2370004 38.3456006,28.2370004 C35.1986005,28.2370004 34.0654005,27.0378004 34.0654005,25.5586004 C34.0654005,24.0794004 35.1986005,22.8802003 38.3456006,22.8802003 C41.4926006,22.8802003 44.0438007,25.5586004 44.0438007,25.5586004 Z" id="Path" fill="#585858"></path>
                    <path d="M38.3454006,28.5372004 C34.3602005,28.5372004 33.7652005,26.6710004 33.7652005,25.5586004 C33.7652005,24.4462004 34.3602005,22.5802003 38.3454006,22.5802003 C41.5838006,22.5802003 44.1532007,25.2384004 44.2610007,25.3516004 C44.3714007,25.4674004 44.3714007,25.6494004 44.2610007,25.7652004 C44.1534007,25.8788004 41.5838006,28.5372004 38.3454006,28.5372004 L38.3454006,28.5372004 Z M38.3454006,23.1802003 C36.5296005,23.1802003 34.3652005,23.5928004 34.3652005,25.5586004 C34.3652005,27.5244004 36.5296005,27.9372004 38.3454006,27.9372004 C40.8180006,27.9372004 42.9466006,26.1722004 43.6118006,25.5586004 C42.9466006,24.9450004 40.8180006,23.1802003 38.3454006,23.1802003 Z" id="Shape" fill="#3A312A" fill-rule="nonzero"></path>
                    <polygon id="Path" fill="#585858" fill-rule="nonzero" points="17.0854003 40.3134006 17.0854003 43.2074006 27.9710004 43.2074006 27.9710004 30.7480005 17.0854003 30.7480005 17.0854003 37.7186006"></polygon>
                    <path d="M27.9710004,43.5074006 L17.0854003,43.5074006 C16.9196003,43.5074006 16.7854003,43.3730006 16.7854003,43.2074006 L16.7854003,40.3134006 C16.7854003,40.1478006 16.9196003,40.0134006 17.0854003,40.0134006 C17.2512003,40.0134006 17.3854003,40.1478006 17.3854003,40.3134006 L17.3854003,42.9074006 L27.6710004,42.9074006 L27.6710004,31.0480005 L17.3854003,31.0480005 L17.3854003,37.7186006 C17.3854003,37.8842006 17.2512003,38.0186006 17.0854003,38.0186006 C16.9196003,38.0186006 16.7854003,37.8842006 16.7854003,37.7186006 L16.7854003,30.7480005 C16.7854003,30.5824005 16.9196003,30.4480005 17.0854003,30.4480005 L27.9710004,30.4480005 C28.1368004,30.4480005 28.2710004,30.5824005 28.2710004,30.7480005 L28.2710004,43.2074006 C28.2710004,43.3730006 28.1368004,43.5074006 27.9710004,43.5074006 Z" id="Path" fill="#3A312A" fill-rule="nonzero"></path>
                    <path d="M29.0436004,44.9836007 L29.0436004,43.6648007 C29.0436004,42.0588006 27.7418004,40.7572006 26.1360004,40.7572006 L24.2150004,40.7572006 L24.2150004,39.5086006 C23.6836004,39.8770006 23.1338003,40.0942006 22.6004003,40.0942006 C22.0886003,40.0942006 21.5486003,39.8748006 21.0194003,39.5020006 L20.9868003,39.5020006 L20.9868003,40.7570006 L19.0646003,40.7570006 C17.4586003,40.7570006 16.1570002,42.0588006 16.1570002,43.6646007 L16.1570002,44.9834007 L29.0436004,44.9834007 L29.0436004,44.9836007 Z" id="Path" fill="#F8E4C8" fill-rule="nonzero"></path>
                    <path d="M29.0436004,45.2836007 L16.1568002,45.2836007 C15.9910002,45.2836007 15.8568002,45.1492007 15.8568002,44.9836007 L15.8568002,43.6648007 C15.8568002,41.8960006 17.2958003,40.4572006 19.0646003,40.4572006 L20.6868003,40.4572006 L20.6868003,39.5022006 C20.6868003,39.3366006 20.8210003,39.2022006 20.9868003,39.2022006 L21.0194003,39.2022006 C21.0812003,39.2022006 21.1416003,39.2214006 21.1922003,39.2568006 C21.6986003,39.6134006 22.1724003,39.7944006 22.6004003,39.7944006 C23.0490003,39.7944006 23.5346004,39.6154006 24.0442004,39.2622006 C24.1360004,39.1984006 24.2554004,39.1912006 24.3542004,39.2428006 C24.4530004,39.2946006 24.5150004,39.3970006 24.5150004,39.5086006 L24.5150004,40.4572006 L26.1360004,40.4572006 C27.9048004,40.4572006 29.3438004,41.8960006 29.3438004,43.6648007 L29.3438004,44.9836007 C29.3436004,45.1492007 29.2094004,45.2836007 29.0436004,45.2836007 L29.0436004,45.2836007 Z M16.4568002,44.6836007 L28.7438004,44.6836007 L28.7438004,43.6648007 C28.7438004,42.2270006 27.5740004,41.0572006 26.1360004,41.0572006 L24.2150004,41.0572006 C24.0492004,41.0572006 23.9150004,40.9228006 23.9150004,40.7572006 L23.9150004,40.0416006 C23.0230003,40.5074006 22.2002003,40.5200006 21.2868003,40.0224006 L21.2868003,40.7572006 C21.2868003,40.9228006 21.1526003,41.0572006 20.9868003,41.0572006 L19.0646003,41.0572006 C17.6268003,41.0572006 16.4568002,42.2270006 16.4568002,43.6648007 L16.4568002,44.6836007 Z" id="Shape" fill="#3A312A" fill-rule="nonzero"></path>
                    <path d="M29.0436004,44.9836007 L29.0436004,43.6640007 C29.0436004,42.0580006 27.7418004,40.7562006 26.1360004,40.7562006 L25.6764004,40.7562006 L25.6884004,40.7650006 L23.6902004,43.4152006 L22.6590003,42.6382006 L21.6278003,43.4152006 L19.6296003,40.7650006 L19.6416003,40.7562006 L19.0646003,40.7562006 C17.4586003,40.7562006 16.1570002,42.0580006 16.1570002,43.6640007 L16.1570002,44.9836007 L29.0436004,44.9836007 Z" id="Path" fill="#ED6E7A" fill-rule="nonzero"></path>
                    <path d="M29.0436004,45.2836007 L16.1568002,45.2836007 C15.9910002,45.2836007 15.8568002,45.1492007 15.8568002,44.9836007 L15.8568002,43.6640007 C15.8568002,41.8952006 17.2958003,40.4562006 19.0646003,40.4562006 L19.6416003,40.4562006 C19.7700003,40.4562006 19.8840003,40.5378006 19.9254003,40.6592006 L21.6868003,42.9952006 L22.4784003,42.3988006 C22.5854003,42.3184006 22.7326003,42.3184006 22.8396003,42.3988006 L23.6312004,42.9952006 L25.4084004,40.6382006 C25.4554004,40.5304006 25.5572004,40.4564006 25.6764004,40.4564006 L26.1360004,40.4564006 C27.9048004,40.4564006 29.3438004,41.8954006 29.3438004,43.6642007 L29.3438004,44.9838007 C29.3436004,45.1492007 29.2094004,45.2836007 29.0436004,45.2836007 L29.0436004,45.2836007 Z M16.4568002,44.6836007 L28.7438004,44.6836007 L28.7438004,43.6640007 C28.7438004,42.2262006 27.5740004,41.0562006 26.1360004,41.0562006 L25.8446004,41.0562006 L23.9298004,43.5958006 C23.8300004,43.7280007 23.6422004,43.7542007 23.5098004,43.6548007 L22.6592003,43.0138006 L21.8086003,43.6548007 C21.6762003,43.7542007 21.4882003,43.7280007 21.3884003,43.5958006 L19.4736003,41.0562006 L19.0648003,41.0562006 C17.6270003,41.0562006 16.4570002,42.2262006 16.4570002,43.6640007 L16.4570002,44.6836007 L16.4568002,44.6836007 Z" id="Shape" fill="#3A312A" fill-rule="nonzero"></path>
                    <path d="M19.6294003,40.7642006 L21.3342003,44.9830007 L16.1562002,44.9830007 L16.1562002,43.6644007 C16.1562002,42.0576006 17.4594003,40.7564006 19.0642003,40.7564006 L19.6408003,40.7564006 L19.6294003,40.7642006 Z" id="Path" fill="#585858" fill-rule="nonzero"></path>
                    <path d="M21.3342003,45.2830007 L16.1562002,45.2830007 C15.9904002,45.2830007 15.8562002,45.1486007 15.8562002,44.9830007 L15.8562002,43.6644007 C15.8562002,41.8954006 17.2952003,40.4564006 19.0642003,40.4564006 L19.6408003,40.4564006 C19.7726003,40.4564006 19.8890003,40.5424006 19.9276003,40.6684006 C19.9340003,40.6894006 19.9380003,40.7108006 19.9398003,40.7320006 L21.6122003,44.8704007 C21.6496003,44.9630007 21.6386003,45.0680007 21.5828003,45.1506007 C21.5272003,45.2334007 21.4340003,45.2830007 21.3342003,45.2830007 L21.3342003,45.2830007 Z M16.4564002,44.6830007 L20.8896003,44.6830007 L19.4240003,41.0564006 L19.0644003,41.0564006 C17.6264003,41.0564006 16.4564002,42.2264006 16.4564002,43.6644007 L16.4564002,44.6830007 Z" id="Shape" fill="#3A312A" fill-rule="nonzero"></path>
                    <path d="M29.0434004,43.6646007 L29.0434004,44.9832007 L23.9828004,44.9832007 L25.6876004,40.7644006 L25.6760004,40.7568006 L26.1354004,40.7568006 C27.7422004,40.7566006 29.0434004,42.0578006 29.0434004,43.6646007 L29.0434004,43.6646007 Z" id="Path" fill="#585858" fill-rule="nonzero"></path>
                    <path d="M29.0434004,45.2830007 L23.9828004,45.2830007 C23.8830004,45.2830007 23.7898004,45.2334007 23.7340004,45.1508007 C23.6782004,45.0682007 23.6672004,44.9630007 23.7046004,44.8708007 L25.3864004,40.7088006 C25.3884004,40.6966006 25.3912004,40.6844006 25.3950004,40.6722006 C25.4336004,40.5462006 25.5444004,40.4564006 25.6760004,40.4564006 L26.1354004,40.4564006 C27.9044004,40.4564006 29.3434004,41.8954006 29.3434004,43.6644007 L29.3434004,44.9830007 C29.3434004,45.1486007 29.2092004,45.2830007 29.0434004,45.2830007 L29.0434004,45.2830007 Z M24.4276004,44.6830007 L28.7434004,44.6830007 L28.7434004,43.6644007 C28.7434004,42.2264006 27.5734004,41.0564006 26.1354004,41.0564006 L25.8930004,41.0564006 L24.4276004,44.6830007 Z" id="Shape" fill="#3A312A" fill-rule="nonzero"></path>
                    <path d="M18.7514003,33.5492005 C18.7514003,34.1810005 18.2392003,34.6934005 17.6072003,34.6934005 C16.9754003,34.6934005 16.4632002,34.1812005 16.4632002,33.5492005 C16.4632002,32.9174005 16.9754003,32.4050005 17.6072003,32.4050005 C18.2392003,32.4050005 18.7514003,32.9172005 18.7514003,33.5492005 Z" id="Path" fill="#F8E4C8"></path>
                    <path d="M17.6074003,34.9932005 C16.8112003,34.9932005 16.1632002,34.3456005 16.1632002,33.5492005 C16.1632002,32.7530005 16.8110003,32.1050005 17.6074003,32.1050005 C18.4036003,32.1050005 19.0516003,32.7528005 19.0516003,33.5492005 C19.0514003,34.3454005 18.4036003,34.9932005 17.6074003,34.9932005 Z M17.6074003,32.7050005 C17.1420003,32.7050005 16.7632002,33.0836005 16.7632002,33.5492005 C16.7632002,34.0146005 17.1420003,34.3932005 17.6074003,34.3932005 C18.0728003,34.3932005 18.4516003,34.0146005 18.4516003,33.5492005 C18.4514003,33.0838005 18.0728003,32.7050005 17.6074003,32.7050005 Z" id="Shape" fill="#3A312A" fill-rule="nonzero"></path>
                    <polygon id="Path" fill="#ED6E7A" fill-rule="nonzero" transform="translate(21.162473, 41.714168) rotate(-36.995898) translate(-21.162473, -41.714168) " points="20.5139123 40.0540001 21.8110341 40.0540001 21.8110341 43.3743358 20.5139123 43.3743358"></polygon>
                    <path d="M21.6276003,43.7152007 C21.6138003,43.7152007 21.5998003,43.7142007 21.5860003,43.7122007 C21.5072003,43.7010007 21.4360003,43.6592007 21.3882003,43.5956006 L19.3906003,40.9448006 C19.3426003,40.8814006 19.3220003,40.8014006 19.3330003,40.7226006 C19.3440003,40.6438006 19.3860003,40.5726006 19.4496003,40.5248006 L20.4850003,39.7446006 C20.6174003,39.6452006 20.8054003,39.6714006 20.9052003,39.8038006 L22.9028003,42.4544006 C23.0024003,42.5866006 22.9762003,42.7748006 22.8438003,42.8746006 L21.8084003,43.6550007 C21.7558003,43.6944007 21.6924003,43.7152007 21.6276003,43.7152007 L21.6276003,43.7152007 Z M20.0502003,40.8234006 L21.6866003,42.9950006 L22.2430003,42.5756006 L20.6064003,40.4042006 L20.0502003,40.8234006 Z" id="Shape" fill="#3A312A" fill-rule="nonzero"></path>
                    <polygon id="Path" fill="#ED6E7A" fill-rule="nonzero" transform="translate(24.166151, 41.677918) rotate(-143.004102) translate(-24.166151, -41.677918) " points="23.5175902 40.0177499 24.814712 40.0177499 24.814712 43.3380856 23.5175902 43.3380856"></polygon>
                    <path d="M23.6902004,43.7152007 C23.6254004,43.7152007 23.5620004,43.6942007 23.5096004,43.6548007 L22.4742003,42.8744006 C22.3418003,42.7746006 22.3156003,42.5866006 22.4152003,42.4542006 L24.4128004,39.8036006 C24.5126004,39.6712006 24.7006004,39.6450006 24.8330004,39.7444006 L25.8684004,40.5246006 C26.0008004,40.6244006 26.0272004,40.8126006 25.9274004,40.9448006 L23.9298004,43.5956006 C23.8820004,43.6592007 23.8108004,43.7010007 23.7320004,43.7122007 C23.7180004,43.7142007 23.7040004,43.7152007 23.6902004,43.7152007 L23.6902004,43.7152007 Z M23.0748003,42.5758006 L23.6312004,42.9952006 L25.2676004,40.8236006 L24.7114004,40.4044006 L23.0748003,42.5758006 Z" id="Shape" fill="#3A312A" fill-rule="nonzero"></path>
                    <path d="M28.7346004,33.5240005 C28.7346004,34.1558005 28.2224004,34.6680005 27.5904004,34.6680005 C26.9586004,34.6680005 26.4462004,34.1558005 26.4462004,33.5240005 C26.4462004,32.8920005 26.9584004,32.3798005 27.5904004,32.3798005 C28.2224004,32.3800005 28.7346004,32.8922005 28.7346004,33.5240005 Z" id="Path" fill="#F8E4C8"></path>
                    <path d="M27.5906004,34.9682005 C26.7944004,34.9682005 26.1464004,34.3204005 26.1464004,33.5240005 C26.1464004,32.7278005 26.7942004,32.0798005 27.5906004,32.0798005 C28.3870004,32.0798005 29.0348004,32.7276005 29.0348004,33.5240005 C29.0346004,34.3204005 28.3868004,34.9682005 27.5906004,34.9682005 Z M27.5906004,32.6798005 C27.1252004,32.6798005 26.7464004,33.0586005 26.7464004,33.5240005 C26.7464004,33.9894005 27.1252004,34.3682005 27.5906004,34.3682005 C28.0560004,34.3682005 28.4348004,33.9894005 28.4348004,33.5240005 C28.4346004,33.0586005 28.0560004,32.6798005 27.5906004,32.6798005 Z" id="Shape" fill="#3A312A" fill-rule="nonzero"></path>
                    <path d="M27.6724004,32.9938005 C27.6724004,35.7950005 24.9746004,40.0946006 22.6004003,40.0946006 C20.3342003,40.0946006 17.5284003,35.7950005 17.5284003,32.9938005 C17.5284003,30.1926004 19.7992003,27.9218004 22.6004003,27.9218004 C25.4016004,27.9218004 27.6724004,30.1926004 27.6724004,32.9938005 L27.6724004,32.9938005 Z" id="Path" fill="#F8E4C8" fill-rule="nonzero"></path>
                    <path d="M22.6002003,40.3946006 C20.1096003,40.3946006 17.2284003,35.9158005 17.2284003,32.9938005 C17.2284003,30.0316004 19.6382003,27.6220004 22.6002003,27.6220004 C25.5624004,27.6220004 27.9722004,30.0318004 27.9722004,32.9938005 C27.9724004,35.9832005 25.1426004,40.3946006 22.6002003,40.3946006 L22.6002003,40.3946006 Z M22.6002003,28.2218004 C19.9690003,28.2218004 17.8284003,30.3624005 17.8284003,32.9936005 C17.8284003,35.5778005 20.4942003,39.7944006 22.6002003,39.7944006 C24.7666004,39.7944006 27.3722004,35.6172005 27.3722004,32.9936005 C27.3724004,30.3624005 25.2316004,28.2218004 22.6002003,28.2218004 L22.6002003,28.2218004 Z" id="Shape" fill="#3A312A" fill-rule="nonzero"></path>
                    <path d="M21.3048003,32.9364005 C21.3048003,33.2098005 21.0832003,33.4314005 20.8098003,33.4314005 C20.5364003,33.4314005 20.3148003,33.2098005 20.3148003,32.9364005 C20.3148003,32.6630005 20.5364003,32.4414005 20.8098003,32.4414005 C21.0830003,32.4414005 21.3048003,32.6630005 21.3048003,32.9364005 Z" id="Path" fill="#3A312A" fill-rule="nonzero"></path>
                    <path d="M24.8860004,32.9364005 C24.8860004,33.2098005 24.6644004,33.4314005 24.3910004,33.4314005 C24.1176004,33.4314005 23.8960004,33.2098005 23.8960004,32.9364005 C23.8960004,32.6630005 24.1176004,32.4414005 24.3910004,32.4414005 C24.6644004,32.4414005 24.8860004,32.6630005 24.8860004,32.9364005 Z" id="Path" fill="#3A312A" fill-rule="nonzero"></path>
                    <path d="M20.6730003,34.4082005 C20.6730003,34.7604005 20.2912003,35.0458005 19.8202003,35.0458005 C19.3492003,35.0458005 18.9674003,34.7604005 18.9674003,34.4082005 C18.9674003,34.0562005 19.3492003,33.7706005 19.8202003,33.7706005 C20.2912003,33.7708005 20.6730003,34.0562005 20.6730003,34.4082005 Z" id="Path" fill="#F59689" fill-rule="nonzero"></path>
                    <path d="M26.2332004,34.4082005 C26.2332004,34.7604005 25.8514004,35.0458005 25.3804004,35.0458005 C24.9094004,35.0458005 24.5276004,34.7604005 24.5276004,34.4082005 C24.5276004,34.0562005 24.9094004,33.7706005 25.3804004,33.7706005 C25.8514004,33.7708005 26.2332004,34.0562005 26.2332004,34.4082005 Z" id="Path" fill="#F59689" fill-rule="nonzero"></path>
                    <path d="M22.6002003,37.4078006 C21.8202003,37.4078006 21.2574003,37.0568006 20.9278003,36.3644005 C20.8566003,36.2148005 20.9202003,36.0358005 21.0696003,35.9646005 C21.2194003,35.8938005 21.3982003,35.9570005 21.4694003,36.1066005 C21.6972003,36.5850005 22.0564003,36.8078005 22.6000003,36.8078005 C23.2360003,36.8078005 23.6186004,36.4028005 23.7204004,36.1302005 C23.7784004,35.9750005 23.9512004,35.8960005 24.1066004,35.9546005 C24.2616004,36.0126005 24.3404004,36.1854005 24.2822004,36.3408005 C24.0902004,36.8546005 23.4816003,37.4078006 22.6002003,37.4078006 L22.6002003,37.4078006 Z" id="Path" fill="#3A312A" fill-rule="nonzero"></path>
                    <path d="M28.3726004,31.1348005 C28.3726004,31.6544005 28.3050004,32.1582005 28.1772004,32.6378005 C26.8782004,32.0114005 25.6424004,31.2426005 24.4976004,30.3734005 C24.1618004,30.1188004 23.8312004,29.8538004 23.5154004,29.5728004 C23.1278003,29.2328004 22.7614003,28.8662004 22.4308003,28.4692004 C21.7116003,27.6032004 21.1834003,26.6082004 20.7366003,25.5722004 C21.3006003,25.3894004 21.9026003,25.2912004 22.5278003,25.2912004 C24.1996004,25.2912004 25.7080004,25.9936004 26.7736004,27.1194004 C27.7652004,28.1660004 28.3726004,29.5790004 28.3726004,31.1348005 L28.3726004,31.1348005 Z" id="Path" fill="#585858" fill-rule="nonzero"></path>
                    <path d="M28.1772004,32.9378005 C28.1326004,32.9378005 28.0880004,32.9278005 28.0470004,32.9080005 C26.7616004,32.2884005 25.5064004,31.5160005 24.3162004,30.6122005 C23.9354004,30.3236005 23.6080004,30.0570004 23.3158003,29.7968004 C22.8970003,29.4294004 22.5210003,29.0468004 22.2000003,28.6608004 C21.5498003,27.8782004 20.9974003,26.9344004 20.4610003,25.6908004 C20.4276003,25.6132004 20.4284003,25.5252004 20.4632003,25.4484004 C20.4980003,25.3714004 20.5636003,25.3126004 20.6440003,25.2866004 C21.2492003,25.0904004 21.8830003,24.9908004 22.5278003,24.9908004 C24.2332004,24.9908004 25.8184004,25.6734004 26.9914004,26.9128004 C28.0754004,28.0570004 28.6726004,29.5562004 28.6726004,31.1344005 C28.6726004,31.6714005 28.6034004,32.2030005 28.4672004,32.7144005 C28.4442004,32.8010005 28.3838004,32.8726005 28.3026004,32.9100005 C28.2626004,32.9286005 28.2200004,32.9378005 28.1772004,32.9378005 L28.1772004,32.9378005 Z M21.1494003,25.7644004 C21.6190003,26.8014004 22.1036003,27.6056004 22.6614003,28.2772004 C22.9624003,28.6388004 23.3162003,28.9988004 23.7132004,29.3470004 C23.9950004,29.5980004 24.3104004,29.8548004 24.6788004,30.1342004 C25.7330004,30.9346005 26.8386004,31.6288005 27.9704004,32.2010005 C28.0384004,31.8520005 28.0728004,31.4948005 28.0728004,31.1348005 C28.0728004,29.7108004 27.5342004,28.3580004 26.5560004,27.3256004 C25.4974004,26.2070004 24.0668004,25.5910004 22.5280003,25.5910004 C22.0588003,25.5910004 21.5966003,25.6492004 21.1494003,25.7644004 L21.1494003,25.7644004 Z" id="Shape" fill="#3A312A" fill-rule="nonzero"></path>
                    <path d="M26.7736004,27.1192004 C25.7682004,28.0360004 24.6740004,28.8470004 23.5154004,29.5726004 C21.4612003,30.8600005 19.2084003,31.8762005 16.9028003,32.7222005 C16.7602002,32.2174005 16.6842002,31.6850005 16.6842002,31.1348005 C16.6842002,28.5324004 18.3856003,26.3272004 20.7368003,25.5720004 C21.3008003,25.3892004 21.9028003,25.2910004 22.5280003,25.2910004 C24.1996004,25.2910004 25.7078004,25.9934004 26.7736004,27.1192004 L26.7736004,27.1192004 Z" id="Path" fill="#585858" fill-rule="nonzero"></path>
                    <path d="M16.9026003,33.0222005 C16.8556003,33.0222005 16.8090003,33.0112005 16.7662002,32.9894005 C16.6918002,32.9516005 16.6366002,32.8842005 16.6140002,32.8036005 C16.4614002,32.2634005 16.3840002,31.7018005 16.3840002,31.1346005 C16.3840002,28.4552004 18.0964003,26.1048004 20.6448003,25.2864004 C21.2492003,25.0904004 21.8830003,24.9908004 22.5278003,24.9908004 C24.2332004,24.9908004 25.8184004,25.6734004 26.9914004,26.9128004 C27.0468004,26.9714004 27.0762004,27.0498004 27.0734004,27.1302004 C27.0704004,27.2106004 27.0352004,27.2864004 26.9758004,27.3408004 C26.0024004,28.2282004 24.8918004,29.0644004 23.6746004,29.8268004 C21.7844003,31.0116005 19.6030003,32.0508005 17.0062003,33.0038005 C16.9726003,33.0162005 16.9374003,33.0222005 16.9026003,33.0222005 L16.9026003,33.0222005 Z M22.5278003,25.5910004 C21.9460003,25.5910004 21.3744003,25.6806004 20.8290003,25.8574004 C18.5288003,26.5960004 16.9840003,28.7168004 16.9840003,31.1348005 C16.9840003,31.5370005 17.0270003,31.9360005 17.1122003,32.3246005 C19.5322003,31.4182005 21.5774003,30.4332005 23.3560003,29.3186004 C24.4464004,28.6358004 25.4480004,27.8928004 26.3378004,27.1072004 C25.3046004,26.1272004 23.9634004,25.5910004 22.5278003,25.5910004 L22.5278003,25.5910004 Z" id="Shape" fill="#3A312A" fill-rule="nonzero"></path>
                    <path d="M18.5706003,45.2836007 C18.4048003,45.2836007 18.2706003,45.1492007 18.2706003,44.9836007 L18.2706003,42.8930006 C18.2706003,42.7274006 18.4048003,42.5930006 18.5706003,42.5930006 C18.7364003,42.5930006 18.8706003,42.7274006 18.8706003,42.8930006 L18.8706003,44.9836007 C18.8706003,45.1492007 18.7364003,45.2836007 18.5706003,45.2836007 Z" id="Path" fill="#3A312A" fill-rule="nonzero"></path>
                    <path d="M26.6298004,45.2836007 C26.4640004,45.2836007 26.3298004,45.1492007 26.3298004,44.9836007 L26.3298004,42.9010006 C26.3298004,42.7354006 26.4640004,42.6010006 26.6298004,42.6010006 C26.7956004,42.6010006 26.9298004,42.7354006 26.9298004,42.9010006 L26.9298004,44.9836007 C26.9298004,45.1492007 26.7954004,45.2836007 26.6298004,45.2836007 Z" id="Path" fill="#3A312A" fill-rule="nonzero"></path>
                    <path d="M13.7240002,45.0002007 L13.7240002,42.2562006 C13.7240002,40.5838006 12.3684002,39.2282006 10.6960002,39.2282006 L8.69540013,39.2282006 L8.69540013,37.9280006 C8.14200012,38.3116006 7.56940011,38.5380006 7.0140001,38.5380006 C6.4810001,38.5380006 5.91860009,38.3094006 5.36760008,37.9212006 L5.33360008,37.9212006 L5.33360008,39.2282006 L3.33200005,39.2282006 C1.65960002,39.2282006 0.304000005,40.5838006 0.304000005,42.2562006 L0.304000005,45.0002007 L13.7240002,45.0002007 Z" id="Path" fill="#F7E3C7" fill-rule="nonzero"></path>
                    <path d="M13.7240002,45.3002007 L0.304000005,45.3002007 C0.138200002,45.3002007 0.00400000006,45.1658007 0.00400000006,45.0002007 L0.00400000006,42.2562006 C0.00400000006,40.4212006 1.49680002,38.9282006 3.33200005,38.9282006 L5.03380008,38.9282006 L5.03380008,37.9212006 C5.03380008,37.7556006 5.16800008,37.6212006 5.33380008,37.6212006 L5.36760008,37.6212006 C5.42960008,37.6212006 5.48980008,37.6404006 5.54040008,37.6758006 C6.06960009,38.0488006 6.5654001,38.2380006 7.0140001,38.2380006 C7.48360011,38.2380006 7.99180012,38.0508006 8.52460013,37.6816006 C8.61620013,37.6180006 8.73580013,37.6106006 8.83460013,37.6622006 C8.93340013,37.7140006 8.99540013,37.8164006 8.99540013,37.9280006 L8.99540013,38.9282006 L10.6960002,38.9282006 C12.5310002,38.9282006 14.0240002,40.4212006 14.0240002,42.2562006 L14.0240002,45.0002007 C14.0240002,45.1658007 13.8898002,45.3002007 13.7240002,45.3002007 Z M0.604000009,44.7002007 L13.4240002,44.7002007 L13.4240002,42.2562006 C13.4240002,40.7520006 12.2002002,39.5282006 10.6960002,39.5282006 L8.69540013,39.5282006 C8.52960013,39.5282006 8.39540013,39.3938006 8.39540013,39.2282006 L8.39540013,38.4624006 C7.92340012,38.7118006 7.46040011,38.8380006 7.0138001,38.8380006 C6.5732001,38.8380006 6.11040009,38.7052006 5.63360008,38.4422006 L5.63360008,39.2282006 C5.63360008,39.3938006 5.49940008,39.5282006 5.33360008,39.5282006 L3.33200005,39.5282006 C1.82780003,39.5282006 0.604000009,40.7520006 0.604000009,42.2562006 L0.604000009,44.7002007 Z" id="Shape" fill="#3A312A" fill-rule="nonzero"></path>
                    <path d="M13.7240002,45.0008007 L13.7240002,42.2552006 C13.7240002,40.5834006 12.3688002,39.2272006 10.6958002,39.2272006 L10.2174002,39.2272006 L10.2296002,39.2370006 L8.14880012,41.9960006 L7.07480011,41.1876006 L6.00100009,41.9960006 L3.92020006,39.2370006 L3.93240006,39.2272006 L3.33200005,39.2272006 C1.65900002,39.2272006 0.304000005,40.5836006 0.304000005,42.2552006 L0.304000005,45.0008007 L13.7240002,45.0008007 Z" id="Path" fill="#D6DF58" fill-rule="nonzero"></path>
                    <path d="M13.7240002,45.3008007 L0.304000005,45.3008007 C0.138200002,45.3008007 0.00400000006,45.1664007 0.00400000006,45.0008007 L0.00400000006,42.2550006 C0.00400000006,40.4198006 1.49700002,38.9268006 3.33220005,38.9268006 L3.93240006,38.9268006 C4.05960006,38.9268006 4.17300006,39.0070006 4.21540006,39.1270006 C4.21580006,39.1286006 4.21640006,39.1302006 4.21700006,39.1316006 L6.06020009,41.5756006 L6.8946001,40.9474006 C7.0014001,40.8670006 7.14880011,40.8670006 7.25560011,40.9474006 L8.09000012,41.5756006 L9.94940015,39.1102006 C9.99640015,39.0018006 10.0984002,38.9268006 10.2178002,38.9268006 L10.6962002,38.9268006 C12.5314002,38.9268006 14.0244002,40.4198006 14.0244002,42.2550006 L14.0244002,45.0008007 C14.0240002,45.1664007 13.8898002,45.3008007 13.7240002,45.3008007 L13.7240002,45.3008007 Z M0.604000009,44.7008007 L13.4240002,44.7008007 L13.4240002,42.2550006 C13.4240002,40.7508006 12.2002002,39.5268006 10.6958002,39.5268006 L10.3864002,39.5268006 L8.38840012,42.1762006 C8.28860012,42.3084006 8.10080012,42.3344006 7.96840012,42.2352006 L7.07500011,41.5628006 L6.18160009,42.2352006 C6.04920009,42.3348006 5.86140009,42.3082006 5.76160009,42.1762006 L3.76360006,39.5268006 L3.33240005,39.5268006 C1.82820003,39.5268006 0.604200009,40.7506006 0.604200009,42.2550006 L0.604200009,44.7008007 L0.604000009,44.7008007 Z" id="Shape" fill="#3A312A" fill-rule="nonzero"></path>
                    <path d="M5.96980009,45.0010007 L3.92040006,39.2368006 L3.93240006,39.2268006 L3.33160005,39.2268006 C1.65900002,39.2268006 0.303800005,40.5830006 0.303800005,42.2556006 L0.303800005,45.0010007 L5.96980009,45.0010007 Z" id="Path" fill="#585858" fill-rule="nonzero"></path>
                    <path d="M5.96980009,45.3010007 L0.304000005,45.3010007 C0.138200002,45.3010007 0.00400000006,45.1666007 0.00400000006,45.0010007 L0.00400000006,42.2556006 C0.00400000006,40.4200006 1.49680002,38.9266006 3.33180005,38.9266006 L3.93260006,38.9266006 C4.05880006,38.9266006 4.17140006,39.0056006 4.21460006,39.1240006 C4.22580006,39.1550006 4.23180006,39.1868006 4.23260006,39.2188006 L6.25260009,44.9002007 C6.28540009,44.9922007 6.27120009,45.0942007 6.21500009,45.1738007 C6.15860009,45.2536007 6.06720009,45.3010007 5.96980009,45.3010007 L5.96980009,45.3010007 Z M0.604000009,44.7010007 L5.54460008,44.7010007 L3.70500006,39.5268006 L3.33160005,39.5268006 C1.82740003,39.5268006 0.603800009,40.7510006 0.603800009,42.2558006 L0.603800009,44.7010007 L0.604000009,44.7010007 Z" id="Shape" fill="#3A312A" fill-rule="nonzero"></path>
                    <path d="M13.7240002,42.2556006 L13.7240002,45.0010007 L8.18080012,45.0010007 L10.2300002,39.2368006 L10.2170002,39.2268006 L10.6962002,39.2268006 C12.3688002,39.2268006 13.7240002,40.5830006 13.7240002,42.2556006 Z" id="Path" fill="#585858" fill-rule="nonzero"></path>
                    <path d="M13.7240002,45.3010007 L8.18080012,45.3010007 C8.08340012,45.3010007 7.99200012,45.2536007 7.93560012,45.1740007 C7.87940012,45.0944007 7.86540012,44.9924007 7.89800012,44.9004007 L9.92600015,39.1962006 C9.92820015,39.1754006 9.93260015,39.1548006 9.93960015,39.1346006 C9.98120015,39.0134006 10.0886002,38.9268006 10.2168002,38.9268006 L10.6960002,38.9268006 C12.5310002,38.9268006 14.0238004,40.4202006 14.0238004,42.2558006 L14.0238004,45.0012007 C14.0240002,45.1666007 13.8896002,45.3010007 13.7240002,45.3010007 L13.7240002,45.3010007 Z M8.60580013,44.7010007 L13.4238002,44.7010007 L13.4238002,42.2556006 C13.4238002,40.7510006 12.2002002,39.5266006 10.6960002,39.5266006 L10.4452002,39.5266006 L8.60580013,44.7010007 Z" id="Shape" fill="#3A312A" fill-rule="nonzero"></path>
                    <circle id="Oval" fill="#F7E3C7" cx="1.81460003" cy="31.7222005" r="1.19140002"></circle>
                    <path d="M1.81460003,33.2134005 C0.992200015,33.2134005 0.323200005,32.5444005 0.323200005,31.7220005 C0.323200005,30.8996005 0.992200015,30.2306005 1.81460003,30.2306005 C2.63700004,30.2306005 3.30620005,30.8996005 3.30620005,31.7220005 C3.30600005,32.5446005 2.63700004,33.2134005 1.81460003,33.2134005 Z M1.81460003,30.8306005 C1.32300002,30.8306005 0.923200014,31.2304005 0.923200014,31.7220005 C0.923200014,32.2136005 1.32320002,32.6134005 1.81460003,32.6134005 C2.30620003,32.6134005 2.70620004,32.2136005 2.70620004,31.7220005 C2.70600004,31.2304005 2.30620003,30.8306005 1.81460003,30.8306005 Z" id="Shape" fill="#3A312A" fill-rule="nonzero"></path>
                    <path d="M13.4052002,31.7222005 C13.4052002,32.3802005 12.8718002,32.9136005 12.2138002,32.9136005 C11.5558002,32.9136005 11.0224002,32.3802005 11.0224002,31.7222005 C11.0224002,31.0642005 11.5558002,30.5308004 12.2138002,30.5308004 C12.8718002,30.5306005 13.4052002,31.0640005 13.4052002,31.7222005 Z" id="Path" fill="#F7E3C7"></path>
                    <path d="M12.2138002,33.2134005 C11.3914002,33.2134005 10.7224002,32.5444005 10.7224002,31.7220005 C10.7224002,30.8996005 11.3914002,30.2306005 12.2138002,30.2306005 C13.0362002,30.2306005 13.7052002,30.8996005 13.7052002,31.7220005 C13.7052002,32.5446005 13.0362002,33.2134005 12.2138002,33.2134005 Z M12.2138002,30.8306005 C11.7222002,30.8306005 11.3224002,31.2304005 11.3224002,31.7220005 C11.3224002,32.2136005 11.7222002,32.6134005 12.2138002,32.6134005 C12.7054002,32.6134005 13.1052002,32.2136005 13.1052002,31.7220005 C13.1052002,31.2304005 12.7054002,30.8306005 12.2138002,30.8306005 Z" id="Shape" fill="#3A312A" fill-rule="nonzero"></path>
                    <path d="M12.3478002,30.6750005 C12.3238002,30.6840005 12.2926002,30.6940005 12.2784002,30.7132005 C12.1680002,29.3450004 11.5360002,28.1234004 10.5796002,27.2494004 C10.3888002,27.0746004 10.2260002,26.8758004 10.0954002,26.6588004 C10.7242002,26.2750004 11.1060002,25.7688004 11.1060002,25.2142004 C11.1060002,25.0504004 11.0758002,24.8848004 11.0186002,24.7210004 C11.9618002,25.6612004 12.5414002,26.9360004 12.5414002,28.3404004 C12.5416002,28.5212004 12.5738002,30.5926005 12.3478002,30.6750005 Z" id="Path" fill="#585858" fill-rule="nonzero"></path>
                    <path d="M12.2786002,31.0130005 C12.2510002,31.0130005 12.2234002,31.0094005 12.1960002,31.0014005 C12.0758002,30.9668005 11.9896002,30.8616005 11.9796002,30.7372005 C11.8782002,29.4824004 11.3092002,28.3224004 10.3776002,27.4708004 C10.1656002,27.2766004 9.98440015,27.0556004 9.83880015,26.8134004 C9.75380015,26.6720004 9.79880015,26.4886004 9.93960015,26.4026004 C10.4986002,26.0614004 10.8064002,25.6394004 10.8064002,25.2142004 C10.8064002,25.0864004 10.7826002,24.9538004 10.7358002,24.8198004 C10.6896002,24.6878004 10.7408002,24.5412004 10.8592002,24.4668004 C10.9774002,24.3922004 11.1316002,24.4096004 11.2308002,24.5082004 C12.2698002,25.5442004 12.8420002,26.9050004 12.8420002,28.3402004 L12.8424002,28.4030004 C12.8596002,30.7862005 12.6736002,30.8750005 12.4566002,30.9544005 C12.4048002,30.9926005 12.3424002,31.0130005 12.2786002,31.0130005 L12.2786002,31.0130005 Z M10.5140002,26.7384004 C10.5948002,26.8416004 10.6844002,26.9384004 10.7824002,27.0280004 C11.4376002,27.6270004 11.9328002,28.3624004 12.2388002,29.1746004 C12.2428002,28.9564004 12.2442002,28.7026004 12.2420002,28.4074004 L12.2416002,28.3402004 C12.2416002,27.3478004 11.9328002,26.3948004 11.3594002,25.5860004 C11.2524002,26.0098004 10.9626002,26.4054004 10.5140002,26.7384004 Z" id="Shape" fill="#3A312A" fill-rule="nonzero"></path>
                    <path d="M2.81760004,45.3006007 C2.65180004,45.3006007 2.51760004,45.1662007 2.51760004,45.0006007 L2.51760004,42.8318006 C2.51760004,42.6662006 2.65180004,42.5318006 2.81760004,42.5318006 C2.98340004,42.5318006 3.11760005,42.6662006 3.11760005,42.8318006 L3.11760005,45.0006007 C3.11760005,45.1662007 2.98340004,45.3006007 2.81760004,45.3006007 Z" id="Path" fill="#3A312A" fill-rule="nonzero"></path>
                    <path d="M11.3326002,45.3006007 C11.1668002,45.3006007 11.0326002,45.1662007 11.0326002,45.0006007 L11.0326002,42.8318006 C11.0326002,42.6662006 11.1668002,42.5318006 11.3326002,42.5318006 C11.4984002,42.5318006 11.6326002,42.6662006 11.6326002,42.8318006 L11.6326002,45.0006007 C11.6326002,45.1662007 11.4982002,45.3006007 11.3326002,45.3006007 Z" id="Path" fill="#3A312A" fill-rule="nonzero"></path>
                    <polygon id="Path" fill="#8AC3DA" fill-rule="nonzero" points="7.90160012 45.0008007 6.24460009 45.0008007 6.5574001 42.9722006 7.58880011 42.9722006"></polygon>
                    <path d="M7.90160012,45.3008007 L6.24440009,45.3008007 C6.15680009,45.3008007 6.07360009,45.2626007 6.01660009,45.1962007 C5.95960009,45.1298007 5.93440009,45.0416007 5.94780009,44.9552007 L6.26080009,42.9266006 C6.28340009,42.7804006 6.4092001,42.6724006 6.5572001,42.6724006 L7.58840011,42.6724006 C7.73640012,42.6724006 7.86240012,42.7804006 7.88480012,42.9266006 L8.19780012,44.9552007 C8.21120012,45.0418007 8.18600012,45.1298007 8.12900012,45.1962007 C8.07240012,45.2624007 7.98920012,45.3008007 7.90160012,45.3008007 L7.90160012,45.3008007 Z M6.5944001,44.7008007 L7.55200011,44.7008007 L7.33160011,43.2722006 L6.8148001,43.2722006 L6.5944001,44.7008007 Z" id="Shape" fill="#3A312A" fill-rule="nonzero"></path>
                    <polygon id="Path" fill="#8AC3DA" fill-rule="nonzero" points="7.94440012 41.1856006 7.58740011 42.9718006 6.5582001 42.9718006 6.20960009 41.1856006"></polygon>
                    <path d="M7.58740011,43.2718006 L6.5582001,43.2718006 C6.4146001,43.2718006 6.29120009,43.1702006 6.26380009,43.0292006 L5.91520009,41.2430006 C5.89800009,41.1552006 5.92100009,41.0640006 5.97800009,40.9948006 C6.03500009,40.9256006 6.11980009,40.8856006 6.20960009,40.8856006 L7.94420012,40.8856006 C8.03400012,40.8856006 8.11920012,40.9258006 8.17620012,40.9954006 C8.23320012,41.0650006 8.25600012,41.1564006 8.23840012,41.2444006 L7.88160012,43.0306006 C7.85380012,43.1710006 7.73060012,43.2718006 7.58740011,43.2718006 Z M6.8054001,42.6718006 L7.34160011,42.6718006 L7.57860011,41.4856006 L6.5740001,41.4856006 L6.8054001,42.6718006 Z" id="Shape" fill="#3A312A" fill-rule="nonzero"></path>
                    <polygon id="Path" fill="#8AC3DA" fill-rule="nonzero" points="23.4342003 23.4910004 21.7578003 23.4910004 22.0744003 21.4390003 23.1176003 21.4390003"></polygon>
                    <path d="M23.4342003,23.7910004 L21.7578003,23.7910004 C21.6702003,23.7910004 21.5870003,23.7528004 21.5300003,23.6864004 C21.4730003,23.6200004 21.4478003,23.5320004 21.4612003,23.4454003 L21.7778003,21.3934003 C21.8004003,21.2472003 21.9262003,21.1392003 22.0742003,21.1392003 L23.1174003,21.1392003 C23.2654003,21.1392003 23.3914003,21.2472003 23.4138003,21.3934003 L23.7304004,23.4454003 C23.7438004,23.5320004 23.7186004,23.6200004 23.6616004,23.6864004 C23.6048004,23.7528004 23.5218004,23.7910004 23.4342003,23.7910004 Z M22.1076003,23.1910003 L23.0844003,23.1910003 L22.8604003,21.7390003 L22.3316003,21.7390003 L22.1076003,23.1910003 Z" id="Shape" fill="#3A312A" fill-rule="nonzero"></path>
                    <polygon id="Path" fill="#8AC3DA" fill-rule="nonzero" points="23.4774003 19.6316003 23.1164003 21.4384003 22.0752003 21.4384003 21.7226003 19.6316003"></polygon>
                    <path d="M23.1164003,21.7384003 L22.0752003,21.7384003 C21.9316003,21.7384003 21.8082003,21.6366003 21.7808003,21.4958003 L21.4282003,19.6890003 C21.4110003,19.6012003 21.4340003,19.5100003 21.4910003,19.4408003 C21.5480003,19.3716003 21.6328003,19.3316003 21.7226003,19.3316003 L23.4774003,19.3316003 C23.5672004,19.3316003 23.6524004,19.3718003 23.7094004,19.4414003 C23.7664004,19.5110003 23.7892004,19.6024003 23.7716004,19.6904003 L23.4106003,21.4972003 C23.3826003,21.6376003 23.2594003,21.7384003 23.1164003,21.7384003 L23.1164003,21.7384003 Z M22.3222003,21.1384003 L22.8704003,21.1384003 L23.1114003,19.9316003 L22.0868003,19.9316003 L22.3222003,21.1384003 Z" id="Shape" fill="#3A312A" fill-rule="nonzero"></path>
                    <polygon id="Path" fill="#D6DF58" fill-rule="nonzero" transform="translate(5.509839, 40.225550) rotate(-36.995898) translate(-5.509839, -40.225550) " points="4.8344677 38.4966547 6.18521107 38.4966547 6.18521107 41.9544457 4.8344677 41.9544457"></polygon>
                    <path d="M6.00120009,42.2962006 C5.98740009,42.2962006 5.97340009,42.2952006 5.95960009,42.2932006 C5.88080009,42.2820006 5.80960009,42.2402006 5.76180009,42.1766006 L3.68160005,39.4162006 C3.63360005,39.3528006 3.61300005,39.2728006 3.62400005,39.1940006 C3.63500005,39.1152006 3.67700005,39.0440006 3.74060006,38.9962006 L4.81900007,38.1838006 C4.95120007,38.0844006 5.13940008,38.1106006 5.23920008,38.2430006 L7.31940011,41.0032006 C7.41920011,41.1354006 7.39280011,41.3236006 7.26040011,41.4234006 L6.18220009,42.2362006 C6.12940009,42.2754006 6.06600009,42.2962006 6.00120009,42.2962006 L6.00120009,42.2962006 Z M4.34120006,39.2950006 L6.06040009,41.5762006 L6.6596001,41.1246006 L4.94040007,38.8436006 L4.34120006,39.2950006 Z" id="Shape" fill="#3A312A" fill-rule="nonzero"></path>
                    <polygon id="Path" fill="#D6DF58" fill-rule="nonzero" transform="translate(8.652070, 40.191310) rotate(-143.004102) translate(-8.652070, -40.191310) " points="7.97669815 38.4624147 9.32744151 38.4624147 9.32744151 41.9202057 7.97669815 41.9202057"></polygon>
                    <path d="M8.14920012,42.2962006 C8.08440012,42.2962006 8.02100012,42.2754006 7.96860012,42.2358006 L6.8902001,41.4230006 C6.7578001,41.3232006 6.7314001,41.1352006 6.8312001,41.0028006 L8.91140013,38.2426006 C9.01120013,38.1102006 9.19900014,38.0840006 9.33160014,38.1834006 L10.4100002,38.9958006 C10.4734002,39.0436006 10.5154002,39.1150006 10.5264002,39.1936006 C10.5376002,39.2726006 10.5168002,39.3524006 10.4688002,39.4158006 L8.38860012,42.1762006 C8.34080012,42.2398006 8.26960012,42.2816006 8.19080012,42.2928006 C8.17700012,42.2954006 8.16300012,42.2962006 8.14920012,42.2962006 L8.14920012,42.2962006 Z M7.49100011,41.1246006 L8.09020012,41.5762006 L9.80920015,39.2950006 L9.21000014,38.8436006 L7.49100011,41.1246006 Z" id="Shape" fill="#3A312A" fill-rule="nonzero"></path>
                    <path d="M12.2956002,31.1442005 C12.2956002,34.0604005 9.48680014,38.5388006 7.0146001,38.5388006 C4.65380007,38.5388006 1.73260003,34.0604005 1.73260003,31.1442005 C1.73260003,30.9896005 1.73960003,30.8368005 1.75180003,30.6862005 C1.75380003,30.6640005 1.75580003,30.6420005 1.75880003,30.6200005 C1.77800003,30.4622005 1.81900003,30.2926005 1.87840003,30.1158004 C2.48820004,28.2764004 4.33360006,27.1282004 6.25820009,27.3472004 C6.5264001,27.3784004 6.8036001,27.3944004 7.08800011,27.3944004 C8.28540012,27.3944004 9.36040014,27.1102004 10.0956002,26.6600004 C10.2262002,26.8760004 10.3890002,27.0750004 10.5798002,27.2486004 C11.6346002,28.2138004 12.2956002,29.6012004 12.2956002,31.1442005 L12.2956002,31.1442005 Z" id="Path" fill="#F7E3C7" fill-rule="nonzero"></path>
                    <path d="M7.0146001,38.8386006 C4.42660007,38.8386006 1.43260002,34.1822005 1.43260002,31.1440005 C1.43260002,30.9880005 1.43920002,30.8302005 1.45280002,30.6620005 C1.45540002,30.6330005 1.45780002,30.6066005 1.46140002,30.5802005 C1.48200002,30.4098005 1.52680002,30.2202005 1.59400002,30.0200004 C2.24280003,28.0628004 4.21860006,26.8126004 6.29220009,27.0486004 C6.5522001,27.0786004 6.8198001,27.0940004 7.08800011,27.0940004 C8.18320012,27.0940004 9.22220014,26.8424004 9.93900015,26.4038004 C10.0072001,26.3620004 10.0892002,26.3488004 10.1666002,26.3682004 C10.2442002,26.3870004 10.3110002,26.4362004 10.3524002,26.5044004 C10.4692002,26.6978004 10.6138002,26.8734004 10.7818002,27.0266004 C11.9346002,28.0816004 12.5956002,29.5822004 12.5956002,31.1440005 C12.5956002,34.2524005 9.65580014,38.8386006 7.0146001,38.8386006 L7.0146001,38.8386006 Z M5.78940009,27.6204004 C4.16160006,27.6204004 2.67800004,28.6570004 2.16320003,30.2098005 C2.10860003,30.3726005 2.07280003,30.5226005 2.05660003,30.6558005 C2.05380003,30.6768005 2.05220003,30.6944005 2.05060003,30.7122005 C2.03860003,30.8622005 2.03260003,31.0042005 2.03260003,31.1440005 C2.03260003,33.8398005 4.81580007,38.2386006 7.0146001,38.2386006 C9.27580014,38.2386006 11.9956002,33.8812005 11.9956002,31.1440005 C11.9956002,29.7502004 11.4058002,28.4110004 10.3772002,27.4696004 C10.2390002,27.3436004 10.1134002,27.2054004 10.0018001,27.0566004 C9.21460014,27.4638004 8.17120012,27.6942004 7.08800011,27.6942004 C6.7968001,27.6942004 6.5060001,27.6776004 6.22380009,27.6450004 C6.07820009,27.6284004 5.93300009,27.6204004 5.78940009,27.6204004 L5.78940009,27.6204004 Z" id="Shape" fill="#3A312A" fill-rule="nonzero"></path>
                    <path d="M5.66500008,31.0842005 C5.66500008,31.3690005 5.43420008,31.5998005 5.14940008,31.5998005 C4.86460007,31.5998005 4.63380007,31.3690005 4.63380007,31.0842005 C4.63380007,30.7994005 4.86460007,30.5686005 5.14940008,30.5686005 C5.43420008,30.5686005 5.66500008,30.7994005 5.66500008,31.0842005 Z" id="Path" fill="#3A312A" fill-rule="nonzero"></path>
                    <path d="M9.39440014,31.0842005 C9.39440014,31.3690005 9.16360014,31.5998005 8.87880013,31.5998005 C8.59400013,31.5998005 8.36320012,31.3690005 8.36320012,31.0842005 C8.36320012,30.7994005 8.59400013,30.5686005 8.87880013,30.5686005 C9.16360014,30.5686005 9.39440014,30.7994005 9.39440014,31.0842005 Z" id="Path" fill="#3A312A" fill-rule="nonzero"></path>
                    <path d="M5.00720007,32.6168005 C5.00720007,32.9834005 4.60960007,33.2808005 4.11920006,33.2808005 C3.62880005,33.2808005 3.23120005,32.9836005 3.23120005,32.6168005 C3.23120005,32.2502005 3.62880005,31.9530005 4.11920006,31.9530005 C4.60960007,31.9530005 5.00720007,32.2502005 5.00720007,32.6168005 Z" id="Path" fill="#F59689" fill-rule="nonzero"></path>
                    <path d="M10.7974002,32.6168005 C10.7974002,32.9834005 10.3998002,33.2808005 9.90940015,33.2808005 C9.41900014,33.2808005 9.02140013,32.9836005 9.02140013,32.6168005 C9.02140013,32.2502005 9.41900014,31.9530005 9.90940015,31.9530005 C10.3998002,31.9530005 10.7974002,32.2502005 10.7974002,32.6168005 Z" id="Path" fill="#F59689" fill-rule="nonzero"></path>
                    <g id="Group" transform="translate(1.400000, 28.800000)" fill="#3A312A" fill-rule="nonzero">
                        <path d="M5.61400008,6.9280001 C4.80660007,6.9280001 4.22460006,6.5648001 3.88360006,5.84860009 C3.81240006,5.69900008 3.87600006,5.52000008 4.02560006,5.44880008 C4.17500006,5.37800008 4.35440006,5.44120008 4.42540007,5.59080008 C4.66480007,6.09380009 5.04260008,6.32820009 5.61400008,6.32820009 C6.28260009,6.32820009 6.6850001,5.90140009 6.7924001,5.61460008 C6.8504001,5.45940008 7.0232001,5.38040008 7.17860011,5.43900008 C7.33380011,5.49700008 7.41240011,5.66980008 7.35440011,5.82520009 C7.15540011,6.35600009 6.5260001,6.9280001 5.61400008,6.9280001 L5.61400008,6.9280001 Z" id="Path"></path>
                        <path d="M3.30860005,4.45360007 C2.09820003,4.45360007 1.11340002,3.46880005 1.11340002,2.25840003 C1.11340002,1.04800002 2.09820003,0.0632000009 3.30860005,0.0632000009 C4.51900007,0.0632000009 5.50380008,1.04800002 5.50380008,2.25840003 C5.50380008,3.46880005 4.51900007,4.45360007 3.30860005,4.45360007 Z M3.30860005,0.66320001 C2.42900004,0.66320001 1.71340003,1.37880002 1.71340003,2.25840003 C1.71340003,3.13780005 2.42900004,3.85360006 3.30860005,3.85360006 C4.18820006,3.85360006 4.90380007,3.13800005 4.90380007,2.25840003 C4.90380007,1.37900002 4.18820006,0.66320001 3.30860005,0.66320001 Z" id="Shape"></path>
                        <path d="M8.04120012,4.45360007 C6.8308001,4.45360007 5.84600009,3.46880005 5.84600009,2.25840003 C5.84600009,1.04800002 6.8308001,0.0632000009 8.04120012,0.0632000009 C9.25160014,0.0632000009 10.2364002,1.04800002 10.2364002,2.25840003 C10.2364002,3.46880005 9.25160014,4.45360007 8.04120012,4.45360007 Z M8.04120012,0.66320001 C7.16160011,0.66320001 6.4460001,1.37880002 6.4460001,2.25840003 C6.4460001,3.13780005 7.16160011,3.85360006 8.04120012,3.85360006 C8.92080013,3.85360006 9.63640014,3.13800005 9.63640014,2.25840003 C9.63640014,1.37900002 8.92080013,0.66320001 8.04120012,0.66320001 Z" id="Shape"></path>
                        <path d="M6.14600009,2.55460004 L5.20360008,2.55460004 C5.03780008,2.55460004 4.90360007,2.42020004 4.90360007,2.25460003 C4.90360007,2.08900003 5.03780008,1.95460003 5.20360008,1.95460003 L6.14600009,1.95460003 C6.31180009,1.95460003 6.4460001,2.08900003 6.4460001,2.25460003 C6.4460001,2.42020004 6.31180009,2.55460004 6.14600009,2.55460004 L6.14600009,2.55460004 Z" id="Path"></path>
                        <path d="M1.46420002,2.13280003 C1.45400002,2.13280003 1.44400002,2.13240003 1.43380002,2.13120003 L0.339800005,2.02080003 C0.175000003,2.00420003 0.0548000008,1.85720003 0.0714000011,1.69220003 C0.0880000013,1.52740002 0.234800003,1.40500002 0.400000006,1.42380002 L1.49400002,1.53420002 C1.65880002,1.55080002 1.77900003,1.69780003 1.76240003,1.86280003 C1.74680003,2.01760003 1.61640002,2.13280003 1.46420002,2.13280003 L1.46420002,2.13280003 Z" id="Path"></path>
                        <path d="M9.88700015,2.13280003 C9.73720015,2.13280003 9.60760014,2.02060003 9.58960014,1.86840003 C9.57000014,1.70380003 9.68740014,1.55460002 9.85200015,1.53500002 L10.8246002,1.41920002 C10.9884002,1.39720002 11.1384002,1.51720002 11.1580002,1.68140003 C11.1776002,1.84600003 11.0602002,1.99520003 10.8956002,2.01480003 L9.92300015,2.13060003 C9.91080015,2.13220003 9.89880015,2.13280003 9.88700015,2.13280003 Z" id="Path"></path>
                    </g>
                    <path d="M7.51400011,22.5998003 C5.72760009,22.4882003 4.14720006,23.3142003 3.37420005,24.0608004 C2.20780003,25.0190004 1.60780002,26.7544004 1.60780002,28.3400004 C1.60780002,28.6298004 1.65900002,30.2784005 1.75140003,30.6862005 C1.76640003,30.5100005 1.81120003,30.3176005 1.87840003,30.1152004 C2.48780004,28.2764004 4.33360006,27.1276004 6.25820009,27.3470004 C6.5258001,27.3776004 6.8032001,27.3936004 7.08760011,27.3936004 C9.30660014,27.3936004 11.1056002,26.4180004 11.1056002,25.2144004 C11.1058002,24.0110004 9.46200014,22.7216003 7.51400011,22.5998003 Z" id="Path" fill="#585858" fill-rule="nonzero"></path>
                    <path d="M1.75140003,30.9864005 C1.61240002,30.9864005 1.49020002,30.8902005 1.45900002,30.7528005 C1.35440002,30.2912005 1.30800002,28.5510004 1.30800002,28.3404004 C1.30800002,26.5132004 2.02300003,24.7890004 3.17460005,23.8368004 C4.05680006,22.9902003 5.74300009,22.1876003 7.53280011,22.3004003 C9.59620014,22.4294003 11.4060002,23.7910004 11.4060002,25.2144004 C11.4060002,26.6046004 9.50940014,27.6936004 7.08800011,27.6936004 C6.7966001,27.6936004 6.5060001,27.6772004 6.22440009,27.6450004 C4.43080007,27.4404004 2.72360004,28.5194004 2.16340003,30.2096005 C2.10100003,30.3978005 2.06300003,30.5668005 2.05060003,30.7120005 C2.03800003,30.8592005 1.91980003,30.9752005 1.77220003,30.9854005 C1.76520003,30.9862005 1.75820003,30.9864005 1.75140003,30.9864005 L1.75140003,30.9864005 Z M7.19000011,22.8896003 C5.69300008,22.8896003 4.31800006,23.5664004 3.58260005,24.2768004 C3.57680005,24.2822004 3.57080005,24.2878004 3.56460005,24.2928004 C2.55820004,25.1196004 1.90780003,26.7082004 1.90780003,28.3402004 C1.90780003,28.4784004 1.91760003,28.8466004 1.93520003,29.2520004 C2.79020004,27.7456004 4.50520007,26.8472004 6.29220009,27.0490004 C6.5514001,27.0786004 6.8190001,27.0938004 7.08760011,27.0938004 C9.10300014,27.0938004 10.8056002,26.2332004 10.8056002,25.2146004 C10.8056002,24.2396004 9.35940014,23.0158003 7.49500011,22.8994003 C7.39300011,22.8928003 7.29120011,22.8896003 7.19000011,22.8896003 Z" id="Shape" fill="#3A312A" fill-rule="nonzero"></path>
                    <path d="M44.5960007,42.2550006 L44.5960007,44.7010007 L42.8060006,44.7010007 L42.8060006,42.8170006 C42.8060006,42.6510006 42.6720006,42.5170006 42.5060006,42.5170006 C42.3560006,42.5170006 42.2340006,42.6270006 42.2120006,42.7690006 C42.2060006,42.7890006 42.2040006,42.8110006 42.2040006,42.8310006 L42.2040006,44.7010007 L41.3960006,44.7010007 L41.3960006,42.2550006 C41.3960006,41.8050006 41.2860006,41.3810006 41.0920006,41.0070006 L41.6180006,39.5270006 L41.8680006,39.5270006 C43.3720006,39.5270006 44.5960007,40.7510006 44.5960007,42.2550006 L44.5960007,42.2550006 Z" id="Path" fill-opacity="0.207686844" fill="#000000" fill-rule="nonzero"></path>
                    <polygon id="Path" fill="#ED6E7A" fill-rule="nonzero" transform="translate(21.014655, 18.635099) rotate(-36.995898) translate(-21.014655, -18.635099) " points="20.3313803 16.8860958 21.69793 16.8860958 21.69793 20.384103 20.3313803 20.384103"></polygon>
                    <path d="M21.5086003,20.7450003 C21.4176003,20.7450003 21.3278003,20.7038003 21.2688003,20.6256003 L19.1638003,17.8338003 C19.1158003,17.7702003 19.0952003,17.6902003 19.1062003,17.6114003 C19.1172003,17.5326003 19.1592003,17.4614003 19.2228003,17.4136003 L20.3140003,16.5918002 C20.4460003,16.4924002 20.6342003,16.5186002 20.7340003,16.6508002 L22.8390003,19.4426003 C22.8870003,19.5062003 22.9076003,19.5862003 22.8966003,19.6650003 C22.8856003,19.7438003 22.8436003,19.8150003 22.7800003,19.8628003 L21.6888003,20.6846003 C21.6348003,20.7252003 21.5714003,20.7450003 21.5086003,20.7450003 L21.5086003,20.7450003 Z M19.8236003,17.7122003 L21.5674003,20.0248003 L22.1794003,19.5640003 L20.4356003,17.2514003 L19.8236003,17.7122003 Z" id="Shape" fill="#3A312A" fill-rule="nonzero"></path>
                    <polygon id="Path" fill="#ED6E7A" fill-rule="nonzero" transform="translate(24.198535, 18.623462) rotate(-143.004102) translate(-24.198535, -18.623462) " points="23.5152597 16.8744588 24.8818094 16.8744588 24.8818094 20.372466 23.5152597 20.372466"></polygon>
                    <path d="M23.6908004,20.7450003 C23.6280004,20.7450003 23.5646004,20.7252003 23.5106004,20.6846003 L22.4196003,19.8628003 C22.3560003,19.8150003 22.3140003,19.7436003 22.3030003,19.6650003 C22.2918003,19.5860003 22.3126003,19.5062003 22.3606003,19.4426003 L24.4656004,16.6508002 C24.5654004,16.5186002 24.7536004,16.4924002 24.8856004,16.5918002 L25.9768004,17.4136003 C26.0404004,17.4614003 26.0824004,17.5328003 26.0934004,17.6114003 C26.1046004,17.6904003 26.0838004,17.7702003 26.0358004,17.8338003 L23.9308004,20.6256003 C23.8716004,20.7038003 23.7818004,20.7450003 23.6908004,20.7450003 L23.6908004,20.7450003 Z M23.0202003,19.5640003 L23.6322004,20.0248003 L25.3760004,17.7122003 L24.7640004,17.2514003 L23.0202003,19.5640003 Z" id="Shape" fill="#3A312A" fill-rule="nonzero"></path>
                </g>
            </g>
        </g>
    </g>
</svg>