<svg xmlns="http://www.w3.org/2000/svg" width="62" height="52" viewBox="0 0 62 52">
  <g id="s2" transform="translate(-30 -40)">
    <circle id="Oval" cx="23" cy="23" r="23" transform="translate(46 46)" fill="#fff"/>
    <g id="Rectangle" transform="translate(30 40)">
      <g id="organization-chart" transform="translate(3 3)">
        <path id="Path" d="M2.411,1.205A1.206,1.206,0,1,1,1.206,0,1.205,1.205,0,0,1,2.411,1.205Z" transform="translate(16.133 8.857)" fill="#f8e4c8"/>
        <path id="Shape" d="M0,1.5a1.506,1.506,0,1,1,1.506,1.5A1.507,1.507,0,0,1,0,1.5Z" transform="translate(15.833 8.557)" fill="#3a312a"/>
        <ellipse id="Oval-2" data-name="Oval" cx="1.206" cy="1.205" rx="1.206" ry="1.205" transform="translate(26.656 8.857)" fill="#f8e4c8"/>
        <path id="Shape-2" data-name="Shape" d="M0,1.5a1.506,1.506,0,1,1,1.506,1.5A1.507,1.507,0,0,1,0,1.5Z" transform="translate(26.356 8.557)" fill="#3a312a"/>
        <path id="Path-2" data-name="Path" d="M10.69,5.342c0,2.95-2.843,7.479-5.345,7.479C2.957,12.821,0,8.293,0,5.342a5.345,5.345,0,0,1,10.69,0Z" transform="translate(17.255 4.134)" fill="#f8e4c8"/>
        <path id="Shape-3" data-name="Shape" d="M1.83,10.659A9.623,9.623,0,0,1,0,5.642a5.645,5.645,0,0,1,11.29,0c0,3.142-2.974,7.779-5.645,7.779C4.434,13.421,3.044,12.415,1.83,10.659Z" transform="translate(16.955 3.834)" fill="#3a312a"/>
        <path id="Path-3" data-name="Path" d="M2.6,0s.682,2.532,2.644,2.649c0,0-2.62.9-2.664,2.84,0,0-.516-2.714-2.585-2.812A3.1,3.1,0,0,0,2.6,0Z" transform="translate(3.927 2.346)" fill="#d6df58"/>
        <path id="Shape-4" data-name="Shape" d="M2.59,5.846c0-.025-.5-2.484-2.3-2.57a.3.3,0,0,1-.032-.6A2.776,2.776,0,0,0,2.605.275.3.3,0,0,1,3.194.221C3.2.245,3.846,2.547,5.567,2.65a.3.3,0,0,1,.08.583C5.623,3.241,3.224,4.1,3.185,5.8a.3.3,0,0,1-.275.293H2.885A.3.3,0,0,1,2.59,5.846Z" transform="translate(3.627 2.046)" fill="#3a312a"/>
        <path id="Path-4" data-name="Path" d="M1.842,0s.482,1.791,1.87,1.874c0,0-1.853.64-1.884,2.009,0,0-.365-1.92-1.828-1.989A2.191,2.191,0,0,0,1.842,0Z" transform="translate(0.35 5.742)" fill="#d6df58"/>
        <path id="Shape-5" data-name="Shape" d="M1.833,4.239c0-.016-.34-1.688-1.547-1.745a.3.3,0,0,1-.032-.6A1.878,1.878,0,0,0,1.843.275.3.3,0,0,1,2.432.221c0,.016.445,1.585,1.6,1.653a.3.3,0,0,1,.08.583c-.016.005-1.657.59-1.683,1.733a.3.3,0,0,1-.275.292l-.025,0A.3.3,0,0,1,1.833,4.239Z" transform="translate(0.05 5.442)" fill="#3a312a"/>
        <path id="Path-5" data-name="Path" d="M1.842,0s.482,1.791,1.87,1.874c0,0-1.853.64-1.884,2.009,0,0-.365-1.92-1.828-1.989A2.192,2.192,0,0,0,1.842,0Z" transform="translate(0.35 0.411)" fill="#d6df58"/>
        <path id="Shape-6" data-name="Shape" d="M1.833,4.239c0-.016-.34-1.688-1.547-1.745a.3.3,0,0,1-.032-.6A1.878,1.878,0,0,0,1.843.275.3.3,0,0,1,2.432.221c0,.016.445,1.584,1.6,1.653a.3.3,0,0,1,.08.583c-.016.005-1.656.59-1.682,1.733a.3.3,0,0,1-.275.292H2.128A.3.3,0,0,1,1.833,4.239Z" transform="translate(0.05 0.11)" fill="#3a312a"/>
        <path id="Path-6" data-name="Path" d="M31.5,6.1a.3.3,0,0,1-.3-.3V.6H.6V5.8a.3.3,0,0,1-.6,0V.3A.3.3,0,0,1,.3,0H31.5a.3.3,0,0,1,.3.3V5.8A.3.3,0,0,1,31.5,6.1Z" transform="translate(6.7 19.491)" fill="#3a312a"/>
        <path id="Path-7" data-name="Path" d="M.3,6.1A.3.3,0,0,1,0,5.8V.3A.3.3,0,0,1,.6.3V5.8A.3.3,0,0,1,.3,6.1Z" transform="translate(22.3 19.491)" fill="#3a312a"/>
        <path id="Path-8" data-name="Path" d="M13.58,4.408V7.184H0V4.408A3.063,3.063,0,0,1,3.064,1.346H5.09V0a3,3,0,0,0,1.7.648,3.048,3.048,0,0,0,1.7-.616V1.346h2.024A3.063,3.063,0,0,1,13.58,4.408Z" transform="translate(15.81 16.308)" fill="#f8e4c8"/>
        <path id="Shape-7" data-name="Shape" d="M.3,7.784a.3.3,0,0,1-.3-.3V4.708A3.367,3.367,0,0,1,3.364,1.345H5.09V.3A.3.3,0,0,1,5.253.033a.3.3,0,0,1,.311.023A2.726,2.726,0,0,0,7.09.648,2.736,2.736,0,0,0,8.621.086a.3.3,0,0,1,.471.247V1.345h1.724A3.367,3.367,0,0,1,14.18,4.708V7.484a.3.3,0,0,1-.3.3Z" transform="translate(15.51 16.008)" fill="#3a312a"/>
        <path id="Path-9" data-name="Path" d="M13.58,3.062V5.838H0V3.062A3.063,3.063,0,0,1,3.064,0h.53L5.7,2.79,6.79,1.968l1.092.822L9.986,0h.53A3.063,3.063,0,0,1,13.58,3.062Z" transform="translate(15.81 17.654)" fill="#ed6e7a"/>
        <path id="Shape-8" data-name="Shape" d="M.3,6.439a.3.3,0,0,1-.3-.3V3.362A3.367,3.367,0,0,1,3.364,0h.53a.3.3,0,0,1,.239.12L6.057,2.67l.853-.642a.3.3,0,0,1,.36,0l.853.642L10.047.12A.3.3,0,0,1,10.286,0h.53A3.367,3.367,0,0,1,14.18,3.362V6.138a.3.3,0,0,1-.3.3Z" transform="translate(15.51 17.354)" fill="#3a312a"/>
        <path id="Path-10" data-name="Path" d="M4.349,2.191,3.594,0h-.53A3.063,3.063,0,0,0,0,3.062V5.838H5.606L5.2,4.655Z" transform="translate(15.81 17.654)" fill="#585858"/>
        <path id="Path-11" data-name="Path" d="M5.906,6.438H.3a.3.3,0,0,1-.3-.3V3.362A3.367,3.367,0,0,1,3.364,0h.53a.3.3,0,0,1,.284.2l.755,2.191a.3.3,0,1,1-.567.2L3.68.6H3.364A2.766,2.766,0,0,0,.6,3.362V5.838H5.485l-.271-.785a.3.3,0,1,1,.567-.2L6.19,6.04a.3.3,0,0,1-.284.4Z" transform="translate(15.51 17.354)" fill="#3a312a"/>
        <path id="Path-12" data-name="Path" d="M5.606,3.062V5.838H0L2.012,0h.53A3.063,3.063,0,0,1,5.606,3.062Z" transform="translate(23.784 17.654)" fill="#585858"/>
        <path id="Shape-9" data-name="Shape" d="M.3,6.438a.3.3,0,0,1-.284-.4L2.029.2A.3.3,0,0,1,2.312,0h.53A3.367,3.367,0,0,1,6.206,3.362V6.138a.3.3,0,0,1-.3.3Z" transform="translate(23.484 17.354)" fill="#3a312a"/>
        <path id="Path-13" data-name="Path" d="M1.043.521A.522.522,0,1,1,.522,0,.522.522,0,0,1,1.043.521Z" transform="translate(20.191 8.895)" fill="#3a312a"/>
        <circle id="Oval-3" data-name="Oval" cx="0.522" cy="0.522" r="0.522" transform="translate(23.966 8.895)" fill="#3a312a"/>
        <path id="Path-14" data-name="Path" d="M1.8.671c0,.371-.4.671-.9.671S0,1.042,0,.671.4,0,.9,0,1.8.3,1.8.671Z" transform="translate(18.772 10.295)" fill="#f59689"/>
        <path id="Path-15" data-name="Path" d="M1.8.671c0,.371-.4.671-.9.671S0,1.042,0,.671.4,0,.9,0,1.8.3,1.8.671Z" transform="translate(24.631 10.295)" fill="#f59689"/>
        <path id="Path-16" data-name="Path" d="M5.532,0A5.413,5.413,0,0,0,0,5.286a2.246,2.246,0,0,0,.16.827c.049.136.841-.3.909-.345a2.874,2.874,0,0,0,.819-.915A3.132,3.132,0,0,0,2.1,4.4c.182-.48.678-1.816,1.181-1.712a11.133,11.133,0,0,0,2.25.22,11.133,11.133,0,0,0,2.25-.22c.5-.1,1,1.231,1.181,1.712a3.124,3.124,0,0,0,.213.449A2.413,2.413,0,0,0,10.791,6.1c0-.034.044-.045.076-.057.229-.083.2-.577.2-.761A5.413,5.413,0,0,0,5.532,0Z" transform="translate(17.13 2.955)" fill="#585858"/>
        <path id="Shape-10" data-name="Shape" d="M.4,6.722a.334.334,0,0,1-.217-.207A2.548,2.548,0,0,1,0,5.586,5.72,5.72,0,0,1,5.832,0a5.719,5.719,0,0,1,5.832,5.586v.058c0,.284.012.806-.361.971l-.023.022a.3.3,0,0,1-.233.065A2.7,2.7,0,0,1,9.217,5.3a3.459,3.459,0,0,1-.234-.492l-.012-.03C8.447,3.4,8.185,3.294,8.137,3.287a11.248,11.248,0,0,1-2.3.227,11.355,11.355,0,0,1-2.311-.227c-.041.007-.3.112-.828,1.494l-.012.031a3.364,3.364,0,0,1-.234.492,3.188,3.188,0,0,1-.906,1.01A2.8,2.8,0,0,1,.5,6.737.367.367,0,0,1,.4,6.722Z" transform="translate(16.83 2.655)" fill="#3a312a"/>
        <path id="Path-17" data-name="Path" d="M1.777,1.519A1.8,1.8,0,0,1,.029.429.3.3,0,1,1,.571.171,1.213,1.213,0,0,0,1.777.919a1.267,1.267,0,0,0,1.2-.724.3.3,0,0,1,.562.211A1.86,1.86,0,0,1,1.777,1.519Z" transform="translate(20.823 12.591)" fill="#3a312a"/>
        <path id="Path-18" data-name="Path" d="M8.392,3.263c0,1.516-1.879,2.745-4.2,2.745S0,4.78,0,3.263,4.041,0,4.2,0C4.248,0,8.392,1.747,8.392,3.263Z" transform="translate(18.404 0.399)" fill="#585858"/>
        <path id="Shape-11" data-name="Shape" d="M0,3.563C0,1.791,4.295,0,4.5,0A12.342,12.342,0,0,1,6.768,1.106c1.476.887,2.224,1.713,2.224,2.457,0,1.679-2.017,3.046-4.5,3.046S0,5.243,0,3.563Z" transform="translate(18.104 0.099)" fill="#3a312a"/>
        <path id="Path-19" data-name="Path" d="M.3,2.794a.3.3,0,0,1-.3-.3V.3A.3.3,0,0,1,.6.3V2.494A.3.3,0,0,1,.3,2.794Z" transform="translate(18.054 20.998)" fill="#3a312a"/>
        <path id="Path-20" data-name="Path" d="M.3,2.794a.3.3,0,0,1-.3-.3V.3A.3.3,0,0,1,.6.3V2.494A.3.3,0,0,1,.3,2.794Z" transform="translate(26.67 20.998)" fill="#3a312a"/>
        <path id="Path-21" data-name="Path" d="M13.42,7.079V4.335a3.028,3.028,0,0,0-3.028-3.028h-2V.007A3.011,3.011,0,0,1,6.71.617,2.94,2.94,0,0,1,5.064,0H5.03V1.307h-2A3.028,3.028,0,0,0,0,4.335V7.079Z" transform="translate(31.476 37.921)" fill="#f7e3c7"/>
        <path id="Shape-12" data-name="Shape" d="M.3,7.679a.3.3,0,0,1-.3-.3V4.635A3.332,3.332,0,0,1,3.328,1.307h1.7V.3a.3.3,0,0,1,.3-.3h.034a.3.3,0,0,1,.173.055A2.631,2.631,0,0,0,7.01.617,2.7,2.7,0,0,0,8.52.06a.3.3,0,0,1,.471.247v1h1.7A3.332,3.332,0,0,1,14.02,4.635V7.379a.3.3,0,0,1-.3.3Z" transform="translate(31.176 37.621)" fill="#3a312a"/>
        <path id="Path-22" data-name="Path" d="M13.42,5.774V3.028A3.028,3.028,0,0,0,10.392,0H9.913l.012.01L7.845,2.769,6.771,1.96,5.7,2.769,3.616.01,3.628,0h-.6A3.028,3.028,0,0,0,0,3.028V5.774Z" transform="translate(31.476 39.227)" fill="#8ac3da"/>
        <path id="Shape-13" data-name="Shape" d="M.3,6.374a.3.3,0,0,1-.3-.3V3.328A3.332,3.332,0,0,1,3.328,0h.6a.3.3,0,0,1,.283.2l0,.005L6.056,2.649,6.89,2.02a.3.3,0,0,1,.361,0l.834.628L9.945.184A.3.3,0,0,1,10.214,0h.478A3.332,3.332,0,0,1,14.02,3.328V6.074a.3.3,0,0,1-.3.3Z" transform="translate(31.176 38.927)" fill="#3a312a"/>
        <path id="Path-23" data-name="Path" d="M5.666,5.774,3.617.01,3.629,0h-.6A3.028,3.028,0,0,0,0,3.029V5.774Z" transform="translate(31.476 39.227)" fill="#585858"/>
        <path id="Shape-14" data-name="Shape" d="M.3,6.375a.3.3,0,0,1-.3-.3V3.329A3.332,3.332,0,0,1,3.328,0h.6A.3.3,0,0,1,4.21.2a.272.272,0,0,1,.018.1L6.249,5.973a.3.3,0,0,1-.284.4Z" transform="translate(31.176 38.927)" fill="#3a312a"/>
        <path id="Path-24" data-name="Path" d="M5.543,3.029V5.774H0L2.049.01,2.036,0h.479A3.028,3.028,0,0,1,5.543,3.029Z" transform="translate(39.353 39.227)" fill="#585858"/>
        <path id="Shape-15" data-name="Shape" d="M.3,6.374a.3.3,0,0,1-.283-.4L2.046.269A.24.24,0,0,1,2.059.208.3.3,0,0,1,2.336,0h.479A3.332,3.332,0,0,1,6.143,3.329V6.074a.3.3,0,0,1-.3.3Z" transform="translate(39.053 38.927)" fill="#3a312a"/>
        <path id="Path-25" data-name="Path" d="M2.383,1.191A1.191,1.191,0,1,1,1.191,0,1.191,1.191,0,0,1,2.383,1.191Z" transform="translate(31.795 30.531)" fill="#f7e3c7"/>
        <path id="Shape-16" data-name="Shape" d="M0,1.491A1.491,1.491,0,1,1,1.491,2.983,1.493,1.493,0,0,1,0,1.491Z" transform="translate(31.495 30.231)" fill="#3a312a"/>
        <path id="Path-26" data-name="Path" d="M2.383,1.191A1.191,1.191,0,1,1,1.191,0,1.191,1.191,0,0,1,2.383,1.191Z" transform="translate(42.194 30.531)" fill="#f7e3c7"/>
        <path id="Shape-17" data-name="Shape" d="M0,1.491A1.491,1.491,0,1,1,1.491,2.983,1.493,1.493,0,0,1,0,1.491Z" transform="translate(41.894 30.231)" fill="#3a312a"/>
        <path id="Path-27" data-name="Path" d="M.3,2.769a.3.3,0,0,1-.3-.3V.3A.3.3,0,0,1,.6.3V2.469A.3.3,0,0,1,.3,2.769Z" transform="translate(33.69 42.532)" fill="#3a312a"/>
        <path id="Path-28" data-name="Path" d="M.3,2.769a.3.3,0,0,1-.3-.3V.3A.3.3,0,0,1,.6.3V2.469A.3.3,0,0,1,.3,2.769Z" transform="translate(42.204 42.532)" fill="#3a312a"/>
        <path id="Path-29" data-name="Path" d="M1.657,2.029H0L.313,0H1.344Z" transform="translate(37.416 42.972)" fill="#ed6e7a"/>
        <path id="Shape-18" data-name="Shape" d="M.3,2.628A.3.3,0,0,1,0,2.282L.317.254A.3.3,0,0,1,.613,0H1.644a.3.3,0,0,1,.3.254l.313,2.029a.3.3,0,0,1-.3.346Z" transform="translate(37.116 42.672)" fill="#3a312a"/>
        <path id="Path-30" data-name="Path" d="M1.735,0,1.378,1.786H.349L0,0Z" transform="translate(37.382 41.186)" fill="#ed6e7a"/>
        <path id="Shape-19" data-name="Shape" d="M.649,2.386a.3.3,0,0,1-.294-.242L.005.357A.3.3,0,0,1,.068.109.3.3,0,0,1,.3,0H2.035a.3.3,0,0,1,.294.359L1.972,2.145a.3.3,0,0,1-.294.241Z" transform="translate(37.082 40.886)" fill="#3a312a"/>
        <path id="Path-31" data-name="Path" d="M0,0H1.351V3.458H0Z" transform="translate(35.114 39.247) rotate(-36.996)" fill="#8ac3da"/>
        <path id="Shape-20" data-name="Shape" d="M2.338,4.17a.3.3,0,0,1-.2-.117L.06,1.292A.3.3,0,0,1,0,1.07.3.3,0,0,1,.12.873L1.2.06a.3.3,0,0,1,.42.059L3.7,2.88a.3.3,0,0,1-.059.42l-1.078.813a.307.307,0,0,1-.181.059Z" transform="translate(34.793 38.124)" fill="#3a312a"/>
        <path id="Path-32" data-name="Path" d="M0,0H1.351V3.458H0Z" transform="translate(39.31 41.974) rotate(-143.004)" fill="#8ac3da"/>
        <path id="Shape-21" data-name="Shape" d="M1.2,4.113.12,3.3A.3.3,0,0,1,.06,2.88L2.14.12A.3.3,0,0,1,2.561.06L3.64.873a.3.3,0,0,1,.059.419l-2.08,2.76a.3.3,0,0,1-.2.117.224.224,0,0,1-.042,0A.3.3,0,0,1,1.2,4.113Z" transform="translate(37.943 38.123)" fill="#3a312a"/>
        <path id="Path-33" data-name="Path" d="M10.563,4.484c0,2.916-2.809,7.395-5.281,7.395C2.921,11.879,0,7.4,0,4.484c0-.155.007-.307.019-.458,0-.022,0-.044.007-.066a2.565,2.565,0,0,1,.12-.5A4.122,4.122,0,0,1,4.525.687a7.185,7.185,0,0,0,.83.047A5.9,5.9,0,0,0,8.363,0a2.651,2.651,0,0,0,.484.589,5.263,5.263,0,0,1,1.716,3.9Z" transform="translate(32.905 26.66)" fill="#f7e3c7"/>
        <path id="Shape-22" data-name="Shape" d="M0,4.784c0-.156.006-.313.02-.481,0-.031.005-.057.009-.084A2.886,2.886,0,0,1,.161,3.66,4.43,4.43,0,0,1,4.859.689a7.051,7.051,0,0,0,.8.045,5.63,5.63,0,0,0,2.85-.69A.3.3,0,0,1,8.734.009.3.3,0,0,1,8.92.145a2.342,2.342,0,0,0,.429.522,5.6,5.6,0,0,1,1.814,4.117c0,3.109-2.939,7.7-5.581,7.7C2.994,12.479,0,7.823,0,4.784Z" transform="translate(32.605 26.359)" fill="#3a312a"/>
        <circle id="Oval-4" data-name="Oval" cx="0.516" cy="0.516" r="0.516" transform="translate(35.806 30.569)" fill="#3a312a"/>
        <path id="Path-34" data-name="Path" d="M1.031.516A.516.516,0,1,1,.516,0,.516.516,0,0,1,1.031.516Z" transform="translate(39.535 30.569)" fill="#3a312a"/>
        <path id="Path-35" data-name="Path" d="M1.776.664c0,.367-.4.664-.888.664S0,1.031,0,.664.4,0,.888,0,1.776.3,1.776.664Z" transform="translate(34.403 31.953)" fill="#f59689"/>
        <path id="Path-36" data-name="Path" d="M1.776.664c0,.367-.4.664-.888.664S0,1.031,0,.664.4,0,.888,0,1.776.3,1.776.664Z" transform="translate(40.193 31.953)" fill="#f59689"/>
        <path id="Path-37" data-name="Path" d="M1.76,1.508A1.783,1.783,0,0,1,.029.429.3.3,0,1,1,.571.171,1.2,1.2,0,0,0,1.76.909,1.248,1.248,0,0,0,2.938.195.3.3,0,0,1,3.5.406a1.842,1.842,0,0,1-1.74,1.1Z" transform="translate(36.426 34.22)" fill="#3a312a"/>
        <path id="Path-38" data-name="Path" d="M5.463,0A5.347,5.347,0,0,0,0,5.223a2.224,2.224,0,0,0,.158.817c.048.134.831-.294.9-.341a2.843,2.843,0,0,0,.809-.9,3.089,3.089,0,0,0,.211-.443c.18-.474.669-1.795,1.166-1.691a11,11,0,0,0,2.222.217,11,11,0,0,0,2.222-.217c.5-.1.986,1.217,1.166,1.691a3.07,3.07,0,0,0,.211.444,2.383,2.383,0,0,0,1.594,1.235c0-.033.044-.045.075-.056.226-.082.194-.571.194-.752A5.347,5.347,0,0,0,5.463,0Z" transform="translate(32.79 24.695)" fill="#585858"/>
        <path id="Shape-23" data-name="Shape" d="M.392,6.647a.337.337,0,0,1-.217-.206A2.531,2.531,0,0,1,0,5.522,5.653,5.653,0,0,1,5.763,0a5.653,5.653,0,0,1,5.763,5.522v.057c0,.282.013.8-.357.963l-.022.02a.3.3,0,0,1-.234.066A2.662,2.662,0,0,1,9.1,5.245a3.348,3.348,0,0,1-.231-.488l-.012-.03C8.357,3.4,8.1,3.265,8.038,3.254a11.085,11.085,0,0,1-2.275.223,11.217,11.217,0,0,1-2.283-.223c-.058.011-.311.149-.813,1.473l-.012.03a3.338,3.338,0,0,1-.231.487,3.152,3.152,0,0,1-.9,1A2.794,2.794,0,0,1,.5,6.662.361.361,0,0,1,.392,6.647Z" transform="translate(32.49 24.395)" fill="#3a312a"/>
        <path id="Path-39" data-name="Path" d="M.3,2.767a.3.3,0,0,1-.3-.3V.3A.3.3,0,0,1,.6.3V2.467A.3.3,0,0,1,.3,2.767Z" transform="translate(42.206 42.516)" fill="#3a312a"/>
        <path id="Path-40" data-name="Path" d="M.3,2.767a.3.3,0,0,1-.3-.3V.3A.3.3,0,0,1,.6.3V2.467A.3.3,0,0,1,.3,2.767Z" transform="translate(33.698 42.516)" fill="#3a312a"/>
        <path id="Path-41" data-name="Path" d="M9.978,2.678S7.427,5.357,4.28,5.357,0,4.158,0,2.678,1.133,0,4.28,0,9.978,2.678,9.978,2.678Z" transform="translate(34.065 22.88)" fill="#585858"/>
        <path id="Shape-24" data-name="Shape" d="M0,2.978C0,1.866.595,0,4.58,0,7.818,0,10.388,2.659,10.5,2.771a.3.3,0,0,1,0,.414C10.388,3.3,7.818,5.957,4.58,5.957.595,5.957,0,4.09,0,2.978Z" transform="translate(33.765 22.58)" fill="#3a312a"/>
        <path id="Path-42" data-name="Path" d="M0,9.565v2.894H10.886V0H0V9.565Z" transform="translate(17.085 30.748)" fill="#585858"/>
        <path id="Path-43" data-name="Path" d="M11.186,13.059H.3a.3.3,0,0,1-.3-.3V9.865a.3.3,0,1,1,.6,0v2.594H10.886V.6H.6V7.271a.3.3,0,0,1-.6,0V.3A.3.3,0,0,1,.3,0H11.186a.3.3,0,0,1,.3.3V12.759A.3.3,0,0,1,11.186,13.059Z" transform="translate(16.785 30.448)" fill="#3a312a"/>
        <path id="Path-44" data-name="Path" d="M12.887,5.482V4.163A2.908,2.908,0,0,0,9.979,1.255H8.058V.007A2.891,2.891,0,0,1,6.443.592,2.823,2.823,0,0,1,4.862,0H4.83V1.255H2.908A2.908,2.908,0,0,0,0,4.163V5.481H12.887Z" transform="translate(16.157 39.502)" fill="#f8e4c8"/>
        <path id="Shape-25" data-name="Shape" d="M.3,6.081a.3.3,0,0,1-.3-.3V4.462A3.211,3.211,0,0,1,3.208,1.255H4.83V.3a.3.3,0,0,1,.3-.3h.032a.3.3,0,0,1,.173.055A2.517,2.517,0,0,0,6.744.592,2.585,2.585,0,0,0,8.187.06a.3.3,0,0,1,.471.246v.949h1.621a3.212,3.212,0,0,1,3.208,3.208V5.782a.3.3,0,0,1-.3.3Z" transform="translate(15.857 39.202)" fill="#3a312a"/>
        <path id="Path-45" data-name="Path" d="M12.887,4.227V2.908A2.908,2.908,0,0,0,9.979,0h-.46l.012.009-2,2.65L6.5,1.882l-1.031.777-2-2.65L3.485,0H2.908A2.908,2.908,0,0,0,0,2.908v1.32Z" transform="translate(16.157 40.756)" fill="#ed6e7a"/>
        <path id="Shape-26" data-name="Shape" d="M.3,4.828a.3.3,0,0,1-.3-.3V3.208A3.211,3.211,0,0,1,3.208,0h.577a.3.3,0,0,1,.284.2L5.83,2.539l.791-.6a.3.3,0,0,1,.362,0l.791.6L9.552.182A.293.293,0,0,1,9.82,0h.459a3.212,3.212,0,0,1,3.208,3.208v1.32a.3.3,0,0,1-.3.3Z" transform="translate(15.857 40.456)" fill="#3a312a"/>
        <path id="Path-46" data-name="Path" d="M3.473.008l1.7,4.219H0V2.908A2.908,2.908,0,0,1,2.908,0h.577Z" transform="translate(16.156 40.756)" fill="#585858"/>
        <path id="Shape-27" data-name="Shape" d="M.3,4.827a.3.3,0,0,1-.3-.3V3.208A3.211,3.211,0,0,1,3.208,0h.577a.3.3,0,0,1,.287.212.31.31,0,0,1,.012.063L5.756,4.414a.3.3,0,0,1-.03.281.3.3,0,0,1-.248.132Z" transform="translate(15.856 40.456)" fill="#3a312a"/>
        <path id="Path-47" data-name="Path" d="M5.061,2.908V4.226H0L1.7.008,1.693,0h.459A2.907,2.907,0,0,1,5.061,2.908Z" transform="translate(23.983 40.757)" fill="#585858"/>
        <path id="Shape-28" data-name="Shape" d="M.3,4.827a.3.3,0,0,1-.278-.412L1.7.252A.176.176,0,0,1,1.713.216.3.3,0,0,1,1.993,0h.459A3.212,3.212,0,0,1,5.661,3.208V4.527a.3.3,0,0,1-.3.3Z" transform="translate(23.683 40.456)" fill="#3a312a"/>
        <path id="Path-48" data-name="Path" d="M2.288,1.144A1.144,1.144,0,1,1,1.144,0,1.144,1.144,0,0,1,2.288,1.144Z" transform="translate(16.463 32.405)" fill="#f8e4c8"/>
        <path id="Shape-29" data-name="Shape" d="M0,1.445A1.444,1.444,0,1,1,1.445,2.888,1.446,1.446,0,0,1,0,1.445Z" transform="translate(16.163 32.105)" fill="#3a312a"/>
        <path id="Path-49" data-name="Path" d="M0,0H1.3V3.32H0Z" transform="translate(19.645 40.779) rotate(-36.996)" fill="#ed6e7a"/>
        <path id="Shape-30" data-name="Shape" d="M2.256,4.028a.3.3,0,0,1-.2-.116l-2-2.651A.3.3,0,0,1,0,1.039.3.3,0,0,1,.12.841L1.155.06a.3.3,0,0,1,.42.059l2,2.651a.3.3,0,0,1-.059.42l-1.035.78a.3.3,0,0,1-.181.06A.208.208,0,0,1,2.256,4.028Z" transform="translate(19.33 39.684)" fill="#3a312a"/>
        <path id="Path-50" data-name="Path" d="M0,0H1.3V3.32H0Z" transform="translate(23.685 43.394) rotate(-143.004)" fill="#ed6e7a"/>
        <path id="Shape-31" data-name="Shape" d="M1.155,3.971.12,3.191A.3.3,0,0,1,.06,2.77l2-2.651A.3.3,0,0,1,2.479.06l1.035.78a.3.3,0,0,1,.059.42l-2,2.651a.3.3,0,0,1-.2.117l-.041,0A.3.3,0,0,1,1.155,3.971Z" transform="translate(22.355 39.684)" fill="#3a312a"/>
        <path id="Path-51" data-name="Path" d="M2.288,1.144A1.144,1.144,0,1,1,1.144,0,1.144,1.144,0,0,1,2.288,1.144Z" transform="translate(26.446 32.38)" fill="#f8e4c8"/>
        <path id="Shape-32" data-name="Shape" d="M0,1.445A1.444,1.444,0,1,1,1.445,2.888,1.446,1.446,0,0,1,0,1.445Z" transform="translate(26.146 32.08)" fill="#3a312a"/>
        <path id="Path-52" data-name="Path" d="M10.144,5.072c0,2.8-2.7,7.1-5.072,7.1C2.806,12.173,0,7.873,0,5.072a5.072,5.072,0,1,1,10.144,0Z" transform="translate(17.528 27.922)" fill="#f8e4c8"/>
        <path id="Shape-33" data-name="Shape" d="M0,5.372a5.372,5.372,0,1,1,10.744,0c0,2.989-2.83,7.4-5.372,7.4C2.881,12.773,0,8.293,0,5.372Z" transform="translate(17.228 27.622)" fill="#3a312a"/>
        <path id="Path-53" data-name="Path" d="M.99.5A.5.5,0,1,1,.5,0,.495.495,0,0,1,.99.5Z" transform="translate(20.315 32.441)" fill="#3a312a"/>
        <path id="Path-54" data-name="Path" d="M.99.5A.5.5,0,1,1,.5,0,.495.495,0,0,1,.99.5Z" transform="translate(23.896 32.441)" fill="#3a312a"/>
        <path id="Path-55" data-name="Path" d="M1.706.638c0,.352-.382.638-.853.638S0,.99,0,.638.382,0,.853,0,1.706.286,1.706.638Z" transform="translate(18.967 33.771)" fill="#f59689"/>
        <path id="Path-56" data-name="Path" d="M1.706.638c0,.352-.382.638-.853.638S0,.99,0,.638.382,0,.853,0,1.706.286,1.706.638Z" transform="translate(24.528 33.771)" fill="#f59689"/>
        <path id="Path-57" data-name="Path" d="M1.7,1.473A1.723,1.723,0,0,1,.029.429.3.3,0,1,1,.571.171,1.137,1.137,0,0,0,1.7.873,1.186,1.186,0,0,0,2.822.195a.3.3,0,0,1,.562.211A1.779,1.779,0,0,1,1.7,1.473Z" transform="translate(20.899 35.935)" fill="#3a312a"/>
        <path id="Path-58" data-name="Path" d="M7.636,5.844a5.83,5.83,0,0,1-.2,1.5,21.689,21.689,0,0,1-3.68-2.264c-.336-.255-.666-.52-.982-.8a9.916,9.916,0,0,1-1.085-1.1A11.757,11.757,0,0,1,0,.281,5.846,5.846,0,0,1,6.037,1.828a5.818,5.818,0,0,1,1.6,4.015Z" transform="translate(20.737 25.291)" fill="#585858"/>
        <path id="Shape-34" data-name="Shape" d="M7.61,7.917a22,22,0,0,1-3.731-2.3c-.381-.289-.708-.555-1-.815A10.243,10.243,0,0,1,1.763,3.67,11.937,11.937,0,0,1,.024.7a.3.3,0,0,1,0-.243A.3.3,0,0,1,.208.3,6.094,6.094,0,0,1,2.092,0,6.146,6.146,0,0,1,8.236,6.143a6.155,6.155,0,0,1-.205,1.58.3.3,0,0,1-.165.2.291.291,0,0,1-.125.028A.3.3,0,0,1,7.61,7.917Z" transform="translate(20.437 24.991)" fill="#3a312a"/>
        <path id="Path-59" data-name="Path" d="M10.089,1.828A22.688,22.688,0,0,1,6.831,4.282,35.392,35.392,0,0,1,.219,7.431a5.844,5.844,0,0,1,9.871-5.6Z" transform="translate(16.684 25.291)" fill="#585858"/>
        <path id="Shape-35" data-name="Shape" d="M.383,8A.3.3,0,0,1,.23,7.813,6.143,6.143,0,0,1,6.143,0a6.087,6.087,0,0,1,4.464,1.922.3.3,0,0,1-.015.428,23.165,23.165,0,0,1-3.3,2.486A35.416,35.416,0,0,1,.622,8.013a.292.292,0,0,1-.1.019A.289.289,0,0,1,.383,8Z" transform="translate(16.384 24.991)" fill="#3a312a"/>
        <path id="Path-60" data-name="Path" d="M.3,2.691a.3.3,0,0,1-.3-.3V.3A.3.3,0,0,1,.6.3V2.391A.3.3,0,0,1,.3,2.691Z" transform="translate(18.271 42.593)" fill="#3a312a"/>
        <path id="Path-61" data-name="Path" d="M.3,2.683a.3.3,0,0,1-.3-.3V.3A.3.3,0,0,1,.6.3V2.383A.3.3,0,0,1,.3,2.683Z" transform="translate(26.33 42.601)" fill="#3a312a"/>
        <path id="Path-62" data-name="Path" d="M13.42,7.079V4.335a3.028,3.028,0,0,0-3.028-3.028h-2V.007A3.011,3.011,0,0,1,6.71.617,2.94,2.94,0,0,1,5.064,0H5.03V1.307h-2A3.028,3.028,0,0,0,0,4.335V7.079Z" transform="translate(0.304 37.921)" fill="#f7e3c7"/>
        <path id="Shape-36" data-name="Shape" d="M.3,7.679a.3.3,0,0,1-.3-.3V4.635A3.332,3.332,0,0,1,3.328,1.307h1.7V.3a.3.3,0,0,1,.3-.3h.034a.3.3,0,0,1,.173.055A2.628,2.628,0,0,0,7.01.617,2.7,2.7,0,0,0,8.52.06a.3.3,0,0,1,.471.247v1h1.7A3.332,3.332,0,0,1,14.02,4.635V7.379a.3.3,0,0,1-.3.3Z" transform="translate(0.004 37.621)" fill="#3a312a"/>
        <path id="Path-63" data-name="Path" d="M13.42,5.774V3.028A3.028,3.028,0,0,0,10.392,0H9.913l.012.01L7.845,2.769,6.771,1.96,5.7,2.769,3.616.01,3.628,0h-.6A3.028,3.028,0,0,0,0,3.028V5.774Z" transform="translate(0.304 39.227)" fill="#d6df58"/>
        <path id="Shape-37" data-name="Shape" d="M.3,6.374a.3.3,0,0,1-.3-.3V3.328A3.332,3.332,0,0,1,3.328,0h.6a.3.3,0,0,1,.283.2l0,.005L6.056,2.649,6.89,2.02a.3.3,0,0,1,.361,0l.834.628L9.945.184A.3.3,0,0,1,10.214,0h.478A3.332,3.332,0,0,1,14.02,3.328V6.074a.3.3,0,0,1-.3.3Z" transform="translate(0.004 38.927)" fill="#3a312a"/>
        <path id="Path-64" data-name="Path" d="M5.666,5.774,3.617.01,3.629,0h-.6A3.028,3.028,0,0,0,0,3.029V5.774Z" transform="translate(0.304 39.227)" fill="#585858"/>
        <path id="Shape-38" data-name="Shape" d="M.3,6.375a.3.3,0,0,1-.3-.3V3.329A3.332,3.332,0,0,1,3.328,0h.6A.3.3,0,0,1,4.21.2a.272.272,0,0,1,.018.1L6.249,5.973a.3.3,0,0,1-.283.4Z" transform="translate(0.004 38.927)" fill="#3a312a"/>
        <path id="Path-65" data-name="Path" d="M5.543,3.029V5.774H0L2.049.01,2.036,0h.479A3.028,3.028,0,0,1,5.543,3.029Z" transform="translate(8.181 39.227)" fill="#585858"/>
        <path id="Shape-39" data-name="Shape" d="M.3,6.374a.3.3,0,0,1-.283-.4L2.046.269A.24.24,0,0,1,2.059.208.3.3,0,0,1,2.336,0h.479A3.332,3.332,0,0,1,6.143,3.329V6.074a.3.3,0,0,1-.3.3Z" transform="translate(7.881 38.927)" fill="#3a312a"/>
        <circle id="Oval-5" data-name="Oval" cx="1.191" cy="1.191" r="1.191" transform="translate(0.623 30.531)" fill="#f7e3c7"/>
        <path id="Shape-40" data-name="Shape" d="M0,1.491A1.491,1.491,0,1,1,1.491,2.983,1.493,1.493,0,0,1,0,1.491Z" transform="translate(0.323 30.231)" fill="#3a312a"/>
        <path id="Path-66" data-name="Path" d="M2.383,1.191A1.191,1.191,0,1,1,1.191,0,1.191,1.191,0,0,1,2.383,1.191Z" transform="translate(11.022 30.531)" fill="#f7e3c7"/>
        <path id="Shape-41" data-name="Shape" d="M0,1.491A1.491,1.491,0,1,1,1.491,2.983,1.493,1.493,0,0,1,0,1.491Z" transform="translate(10.722 30.231)" fill="#3a312a"/>
        <path id="Path-67" data-name="Path" d="M2.252,5.954a.156.156,0,0,0-.069.038,5.259,5.259,0,0,0-1.7-3.464A2.666,2.666,0,0,1,0,1.938,1.792,1.792,0,0,0,1.011.493,1.5,1.5,0,0,0,.923,0,5.094,5.094,0,0,1,2.446,3.619C2.446,3.8,2.478,5.872,2.252,5.954Z" transform="translate(10.095 24.721)" fill="#585858"/>
        <path id="Shape-42" data-name="Shape" d="M2.4,6.581a.3.3,0,0,1-.217-.265A4.946,4.946,0,0,0,.581,3.05a2.982,2.982,0,0,1-.538-.657.3.3,0,0,1,.1-.411A1.511,1.511,0,0,0,1.011.794,1.2,1.2,0,0,0,.94.4.3.3,0,0,1,1.435.087,5.384,5.384,0,0,1,3.046,3.92v.063c.017,2.383-.168,2.471-.386,2.552a.3.3,0,0,1-.177.058A.288.288,0,0,1,2.4,6.581Z" transform="translate(9.796 24.421)" fill="#3a312a"/>
        <path id="Path-68" data-name="Path" d="M.3,2.769a.3.3,0,0,1-.3-.3V.3A.3.3,0,0,1,.6.3V2.469A.3.3,0,0,1,.3,2.769Z" transform="translate(2.518 42.532)" fill="#3a312a"/>
        <path id="Path-69" data-name="Path" d="M.3,2.769a.3.3,0,0,1-.3-.3V.3A.3.3,0,0,1,.6.3V2.469A.3.3,0,0,1,.3,2.769Z" transform="translate(11.033 42.532)" fill="#3a312a"/>
        <path id="Path-70" data-name="Path" d="M1.657,2.029H0L.313,0H1.344Z" transform="translate(6.245 42.972)" fill="#8ac3da"/>
        <path id="Shape-43" data-name="Shape" d="M.3,2.628A.3.3,0,0,1,0,2.282L.317.254A.3.3,0,0,1,.613,0H1.644a.3.3,0,0,1,.3.254l.313,2.029a.3.3,0,0,1-.3.346Z" transform="translate(5.944 42.672)" fill="#3a312a"/>
        <path id="Path-71" data-name="Path" d="M1.735,0,1.378,1.786H.349L0,0Z" transform="translate(6.21 41.186)" fill="#8ac3da"/>
        <path id="Shape-44" data-name="Shape" d="M.649,2.386a.3.3,0,0,1-.294-.242L.005.357A.3.3,0,0,1,.068.109.3.3,0,0,1,.3,0H2.035a.3.3,0,0,1,.294.359L1.972,2.145a.3.3,0,0,1-.294.241Z" transform="translate(5.91 40.886)" fill="#3a312a"/>
        <path id="Path-72" data-name="Path" d="M1.676,2.052H0L.317,0H1.36Z" transform="translate(21.758 21.439)" fill="#8ac3da"/>
        <path id="Shape-45" data-name="Shape" d="M.3,2.651A.3.3,0,0,1,0,2.306L.32.254A.3.3,0,0,1,.617,0H1.66a.3.3,0,0,1,.3.254l.317,2.052a.3.3,0,0,1-.3.346Z" transform="translate(21.458 21.139)" fill="#3a312a"/>
        <path id="Path-73" data-name="Path" d="M1.755,0,1.394,1.807H.353L0,0Z" transform="translate(21.723 19.632)" fill="#8ac3da"/>
        <path id="Shape-46" data-name="Shape" d="M.653,2.407a.3.3,0,0,1-.294-.242L.005.357A.3.3,0,0,1,.068.109.3.3,0,0,1,.3,0H2.055a.3.3,0,0,1,.294.359L1.988,2.165a.3.3,0,0,1-.294.241Z" transform="translate(21.423 19.332)" fill="#3a312a"/>
        <path id="Path-74" data-name="Path" d="M0,0H1.351V3.458H0Z" transform="translate(3.93 39.251) rotate(-36.996)" fill="#d6df58"/>
        <path id="Shape-47" data-name="Shape" d="M2.338,4.17a.3.3,0,0,1-.2-.117L.06,1.292A.3.3,0,0,1,0,1.07.3.3,0,0,1,.12.873L1.2.06a.3.3,0,0,1,.42.059L3.7,2.88a.3.3,0,0,1-.059.42l-1.078.813a.307.307,0,0,1-.181.059Z" transform="translate(3.621 38.124)" fill="#3a312a"/>
        <path id="Path-75" data-name="Path" d="M0,0H1.351V3.458H0Z" transform="translate(8.151 41.979) rotate(-143.004)" fill="#d6df58"/>
        <path id="Shape-48" data-name="Shape" d="M1.2,4.113.12,3.3A.3.3,0,0,1,.06,2.88L2.141.12A.3.3,0,0,1,2.561.06L3.64.873a.3.3,0,0,1,.059.419l-2.08,2.76a.3.3,0,0,1-.2.117.215.215,0,0,1-.041,0A.3.3,0,0,1,1.2,4.113Z" transform="translate(6.771 38.123)" fill="#3a312a"/>
        <path id="Path-76" data-name="Path" d="M10.563,4.484c0,2.916-2.809,7.395-5.281,7.395C2.921,11.879,0,7.4,0,4.484c0-.155.007-.307.019-.458,0-.022,0-.044.007-.066a2.58,2.58,0,0,1,.12-.5A4.122,4.122,0,0,1,4.526.687a7.185,7.185,0,0,0,.83.047A5.9,5.9,0,0,0,8.363,0a2.651,2.651,0,0,0,.484.589,5.264,5.264,0,0,1,1.716,3.9Z" transform="translate(1.733 26.66)" fill="#f7e3c7"/>
        <path id="Shape-49" data-name="Shape" d="M0,4.784c0-.156.006-.313.02-.481,0-.03.005-.056.009-.082A2.922,2.922,0,0,1,.161,3.66,4.431,4.431,0,0,1,4.86.689a7.023,7.023,0,0,0,.8.045A5.634,5.634,0,0,0,8.507.044.3.3,0,0,1,8.734.009.3.3,0,0,1,8.92.145a2.342,2.342,0,0,0,.429.522,5.6,5.6,0,0,1,1.814,4.117c0,3.109-2.939,7.7-5.581,7.7C2.994,12.479,0,7.823,0,4.784Z" transform="translate(1.433 26.359)" fill="#3a312a"/>
        <path id="Path-77" data-name="Path" d="M1.031.516A.516.516,0,1,1,.516,0,.516.516,0,0,1,1.031.516Z" transform="translate(4.634 30.569)" fill="#3a312a"/>
        <path id="Path-78" data-name="Path" d="M1.031.516A.516.516,0,1,1,.516,0,.516.516,0,0,1,1.031.516Z" transform="translate(8.363 30.569)" fill="#3a312a"/>
        <path id="Path-79" data-name="Path" d="M1.776.664c0,.367-.4.664-.888.664S0,1.031,0,.664.4,0,.888,0,1.776.3,1.776.664Z" transform="translate(3.231 31.953)" fill="#f59689"/>
        <path id="Path-80" data-name="Path" d="M1.776.664c0,.367-.4.664-.888.664S0,1.031,0,.664.4,0,.888,0,1.776.3,1.776.664Z" transform="translate(9.021 31.953)" fill="#f59689"/>
        <g id="Group" transform="translate(1.4 28.8)">
          <path id="Path-81" data-name="Path" d="M1.76,1.508A1.783,1.783,0,0,1,.029.429.3.3,0,1,1,.571.171,1.2,1.2,0,0,0,1.76.909,1.248,1.248,0,0,0,2.938.195.3.3,0,0,1,3.5.406a1.842,1.842,0,0,1-1.74,1.1Z" transform="translate(3.854 5.42)" fill="#3a312a"/>
          <path id="Shape-50" data-name="Shape" d="M0,2.2a2.2,2.2,0,1,1,2.2,2.2A2.2,2.2,0,0,1,0,2.2Z" transform="translate(1.113 0.063)" fill="#3a312a"/>
          <path id="Shape-51" data-name="Shape" d="M0,2.2a2.2,2.2,0,1,1,2.2,2.2A2.2,2.2,0,0,1,0,2.2Z" transform="translate(5.846 0.063)" fill="#3a312a"/>
          <path id="Path-82" data-name="Path" d="M1.242.6H.3A.3.3,0,0,1,.3,0h.942a.3.3,0,0,1,0,.6Z" transform="translate(4.904 1.955)" fill="#3a312a"/>
          <path id="Path-83" data-name="Path" d="M1.394.711l-.03,0L.27.6A.3.3,0,0,1,.33,0l1.094.11a.3.3,0,0,1-.03.6Z" transform="translate(0.07 1.422)" fill="#3a312a"/>
          <path id="Path-84" data-name="Path" d="M.3.716a.3.3,0,0,1-.035-.6L1.237,0a.3.3,0,1,1,.071.6L.336.714Z" transform="translate(9.587 1.417)" fill="#3a312a"/>
        </g>
        <path id="Path-85" data-name="Path" d="M5.906.01a5.75,5.75,0,0,0-4.14,1.461A5.667,5.667,0,0,0,0,5.75,21.645,21.645,0,0,0,.144,8.1a2.523,2.523,0,0,1,.127-.571A4.122,4.122,0,0,1,4.65,4.757,7.308,7.308,0,0,0,5.48,4.8C7.7,4.8,9.5,3.828,9.5,2.625S7.854.132,5.906.01Z" transform="translate(1.608 22.59)" fill="#585858"/>
        <path id="Shape-52" data-name="Shape" d="M.151,8.463A21.879,21.879,0,0,1,0,6.051a5.908,5.908,0,0,1,1.867-4.5A6.08,6.08,0,0,1,6.224.011C8.288.14,10.1,1.5,10.1,2.925,10.1,4.315,8.2,5.4,5.78,5.4a7.576,7.576,0,0,1-.863-.049A3.827,3.827,0,0,0,.855,7.92a2.266,2.266,0,0,0-.113.5A.3.3,0,0,1,.464,8.7H.444A.3.3,0,0,1,.151,8.463Z" transform="translate(1.308 22.29)" fill="#3a312a"/>
        <path id="Path-86" data-name="Path" d="M3.5,2.728V5.174H1.714V3.29a.3.3,0,0,0-.594-.048.22.22,0,0,0-.008.062v1.87H.3V2.728A2.7,2.7,0,0,0,0,1.48L.526,0h.25A2.731,2.731,0,0,1,3.5,2.728Z" transform="translate(41.092 39.527)" fill="rgba(0,0,0,0.21)"/>
        <path id="Path-87" data-name="Path" d="M0,0H1.367V3.5H0Z" transform="translate(19.416 17.649) rotate(-36.996)" fill="#ed6e7a"/>
        <path id="Shape-53" data-name="Shape" d="M2.165,4.094.06,1.3A.3.3,0,0,1,0,1.08.3.3,0,0,1,.12.882L1.211.06a.3.3,0,0,1,.42.059L3.736,2.911a.3.3,0,0,1,.058.222.3.3,0,0,1-.117.2l-1.091.823a.3.3,0,0,1-.42-.059Z" transform="translate(19.103 16.532)" fill="#3a312a"/>
        <path id="Path-88" data-name="Path" d="M0,0H1.367V3.5H0Z" transform="translate(23.692 20.432) rotate(-143.004)" fill="#ed6e7a"/>
        <path id="Shape-54" data-name="Shape" d="M1.211,4.154.12,3.331A.3.3,0,0,1,.06,2.911L2.165.12A.3.3,0,0,1,2.586.06L3.677.882a.3.3,0,0,1,.059.42L1.631,4.094a.3.3,0,0,1-.42.059Z" transform="translate(22.3 16.532)" fill="#3a312a"/>
      </g>
    </g>
  </g>
</svg>
