<?xml version="1.0" encoding="UTF-8"?>
<svg width="63px" height="61px" viewBox="0 0 63 61" version="1.1" xmlns="http://www.w3.org/2000/svg" xmlns:xlink="http://www.w3.org/1999/xlink">
    <title>Group 11</title>
    <g id="Page-1" stroke="none" stroke-width="1" fill="none" fill-rule="evenodd">
        <g id="Layout-2.3-Copy-2" transform="translate(-758.000000, -998.000000)">
            <g id="Group-11" transform="translate(758.000000, 998.000000)">
                <circle id="Oval" fill-opacity="0.279092002" fill="#ABAEEF" cx="36" cy="34" r="27"></circle>
                <g id="Group" fill-rule="nonzero">
                    <g id="lock" transform="translate(7.000000, 0.000000)">
                        <rect id="Rectangle" fill="#F0F5F9" x="0.467600007" y="21.2948003" width="37.0644006" height="29.6040004" rx="3.77520006"></rect>
                        <rect id="Rectangle" fill="#FE7058" x="0.467600007" y="21.2948003" width="37.0644006" height="29.6040004" rx="3.77520006"></rect>
                        <path d="M37.5308006,25.0676004 L37.5308006,47.1244007 C37.5308006,48.1258172 37.1332957,49.0862791 36.4251873,49.7943875 C35.7170789,50.5024959 34.756617,50.9000032 33.7552005,50.9000032 L4.24440006,50.9000032 C2.54689563,50.9019133 1.05862618,49.7662063 0.612400009,48.1284007 C0.710000011,48.1340007 0.807600012,48.1400007 0.910800014,48.1400007 L30.4272005,48.1400007 C32.5116755,48.1382363 34.2010361,46.4488757 34.2028005,44.3644007 L34.2028005,22.3076003 C34.20413,21.9681444 34.1578116,21.6301816 34.0652005,21.3036003 C36.0238381,21.4653461 37.5308006,23.1022956 37.5308006,25.0676004 Z" id="Path" fill-opacity="0.0580474213" fill="#000000"></path>
                        <path d="M33.7572005,51.3000008 L4.24280006,51.3000008 C1.9382182,51.2973556 0.0706451478,49.4297826 0.068000001,47.1252007 L0.068000001,25.0696004 C0.0704247562,22.7648623 1.93806223,20.8970459 4.24280006,20.8944003 L33.7572005,20.8944003 C36.0620945,20.8968255 37.9299754,22.7647063 37.9324006,25.0696004 L37.9324006,47.1236007 C37.9306368,49.4289634 36.0625626,51.2975745 33.7572005,51.3000008 L33.7572005,51.3000008 Z M4.24280006,21.6944003 C2.37970725,21.6966049 0.869983774,23.2065073 0.868000013,25.0696004 L0.868000013,47.1236007 C0.869322417,48.9871624 2.37923924,50.497795 4.24280006,50.5000008 L33.7572005,50.5000008 C35.6202936,50.498017 37.130196,48.9882935 37.1324006,47.1252007 L37.1324006,25.0696004 C37.1301964,23.2066635 35.6205374,21.6970045 33.7576005,21.6948003 L4.24280006,21.6944003 Z" id="Shape" fill="#2F3A5A"></path>
                        <path d="M21.4120027,35.6044005 C21.4136252,34.4402322 20.5834901,33.4410334 19.4387421,33.2292726 C18.2939941,33.0175118 17.161351,33.6536267 16.7464127,34.7413384 C16.3314743,35.8290501 16.7526666,37.0579194 17.7476003,37.6624006 L17.0180003,42.2048006 L20.9824003,42.2048006 L20.2524003,37.6628006 C20.9720946,37.2264648 21.4117498,36.446035 21.4120027,35.6044005 L21.4120027,35.6044005 Z" id="Path" fill="#2F3A5A"></path>
                        <path d="M9.03000013,21.2948003 L9.03000013,13.9096002 C9.06472097,8.42807688 13.518167,4.00275036 18.9998003,4.00275036 C24.4814336,4.00275036 28.9348796,8.42807688 28.9696004,13.9096002 L28.9696004,21.2948003 L32.4124005,21.2948003 L32.4124005,13.9096002 C32.3721036,6.53061385 26.3788967,0.570046715 18.9998003,0.570046715 C11.6207039,0.570046715 5.627497,6.53061385 5.58720008,13.9096002 L5.58720008,21.2948003 L9.03000013,21.2948003 Z" id="Path" fill="#9297AB"></path>
                        <path d="M32.8124005,21.6944003 L28.5696004,21.6944003 L28.5696004,13.9096002 C28.5355864,8.64849099 24.2610195,4.40147058 18.9998003,4.40147058 C13.7385811,4.40147058 9.46401418,8.64849099 9.43000014,13.9096002 L9.43000014,21.6944003 L5.18720008,21.6944003 L5.18720008,13.9096002 C5.18720008,6.28111176 11.3713118,0.0970000014 18.9998003,0.0970000014 C26.6282887,0.0970000014 32.8124005,6.28111176 32.8124005,13.9096002 L32.8124005,21.6944003 Z M29.3696004,20.8944003 L32.0124005,20.8944003 L32.0124005,13.9096002 C32.0124005,6.72293964 26.1864609,0.897000207 18.9998003,0.897000207 C11.8131397,0.897000207 5.98720009,6.72293964 5.98720009,13.9096002 L5.98720009,20.8944003 L8.63000013,20.8944003 L8.63000013,13.9096002 C8.66541373,8.20765284 13.2977429,3.60400471 18.9998003,3.60400471 C24.7018576,3.60400471 29.3341868,8.20765284 29.3696004,13.9096002 L29.3696004,20.8944003 Z" id="Shape" fill="#2F3A5A"></path>
                    </g>
                </g>
            </g>
        </g>
    </g>
</svg>