<?xml version="1.0" encoding="UTF-8"?>
<svg width="63px" height="61px" viewBox="0 0 63 61" version="1.1" xmlns="http://www.w3.org/2000/svg" xmlns:xlink="http://www.w3.org/1999/xlink">
    <title>Group 12</title>
    <g id="Page-1" stroke="none" stroke-width="1" fill="none" fill-rule="evenodd">
        <g id="Layout-2.3-Copy-2" transform="translate(-1062.000000, -998.000000)">
            <g id="Group-12" transform="translate(1062.000000, 998.000000)">
                <circle id="Oval" fill-opacity="0.279092002" fill="#ABAEEF" cx="36" cy="34" r="27"></circle>
                <g id="Group" fill-rule="nonzero">
                    <g id="cloud-(2)" transform="translate(1.000000, 4.000000)">
                        <path d="M11.1106812,27.1321734 C5.99146525,26.9331804 1.90643549,22.7933485 1.7756757,17.6719354 C1.7756757,12.5519353 4.99158926,10.025838 8.31889742,8.74652986 C8.20911801,6.99186455 8.81813539,5.2680787 10.0058169,3.97180921 C11.1934983,2.67553971 12.8575623,1.91841961 14.6151137,1.87465949 C16.5706741,1.86633281 18.4617963,2.57331968 19.932303,3.86246492 C21.2377509,1.68258524 23.6150693,0.373659238 26.1551788,0.436216223 C28.6794531,0.592979076 30.895936,2.16897781 31.8729734,4.50177304 C32.7842734,4.00033128 33.8079613,3.73845762 34.8481086,3.74069195 C38.6936438,3.74069195 42.1434168,7.55647579 41.8362168,11.5313948 C45.6997412,11.5313948 48.8243251,15.0143786 48.8243251,19.3220976 C48.8243251,23.6298166 45.6997412,27.1128004 41.8362168,27.1128004 L11.1106812,27.1321734 Z" id="Path" fill="#FE7058"></path>
                        <path d="M46.5895142,25.0295139 C47.2115272,23.8205436 47.5342264,22.4799185 47.5304872,21.1203246 C47.5304872,16.8098381 44.4100547,13.3296218 40.542379,13.3296218 C40.8537303,9.35124338 37.4011897,5.538919 33.5542708,5.538919 C32.5142966,5.53806811 31.490948,5.79985496 30.5791356,6.30000009 C29.599817,3.9678624 27.3818511,2.39356256 24.8571896,2.23859463 C22.3182001,2.17617244 19.941969,3.48455329 18.6370814,5.66345954 C17.1651779,4.37460945 15.2728443,3.66836793 13.3164326,3.67772978 C11.6831451,3.68625344 10.1201516,4.34330799 8.97135149,5.50432441 C10.0055512,3.3191405 12.1929487,1.91276468 14.6102705,1.87881084 C16.5666822,1.86944899 18.4590157,2.57569051 19.9309192,3.8645406 C21.2333947,1.68313478 23.6112155,0.37387864 26.1510274,0.439675682 C28.675689,0.59464361 30.8936549,2.16894345 31.8729734,4.50108115 C32.7847969,4.00096405 33.8081382,3.73917907 34.8481086,3.74000006 C38.6950276,3.74000006 42.1406493,7.55232444 41.8362168,11.5307029 C45.6969737,11.5307029 48.8243251,15.0109191 48.8243251,19.3214057 C48.8474064,21.4418516 48.0461516,23.4884003 46.5895142,25.0295139 L46.5895142,25.0295139 Z" id="Path" fill="#EA6453"></path>
                        <polygon id="Path" fill="#323C6B" points="12.8099678 27.1307896 13.5018597 27.1307896 13.5018597 35.0183573 12.8099678 35.0183573"></polygon>
                        <polygon id="Path" fill="#323C6B" points="20.6394165 11.9963461 16.8305516 11.9963461 16.8305516 7.93078931 17.5224435 7.93078931 17.5224435 11.3044542 20.6394165 11.3044542"></polygon>
                        <circle id="Oval" fill="#EEEFEE" cx="22.1719571" cy="11.6504002" r="1.53254056"></circle>
                        <path d="M22.1719571,13.5302705 C21.1344976,13.5302705 20.2934706,12.6892434 20.2934706,11.651784 C20.2934706,10.6143245 21.1344976,9.77329744 22.1719571,9.77329744 C23.2094165,9.77329744 24.0504436,10.6143245 24.0504436,11.651784 C24.0489194,12.6886114 23.2087845,13.5287463 22.1719571,13.5302705 L22.1719571,13.5302705 Z M22.1719571,10.4644975 C21.516619,10.4644975 20.9853625,10.995754 20.9853625,11.6510921 C20.9853625,12.3064302 21.516619,12.8376867 22.1719571,12.8376867 C22.8272952,12.8376867 23.3585517,12.3064302 23.3585517,11.6510921 C23.3581705,10.9957999 22.8272489,10.4645687 22.1719571,10.4638056 L22.1719571,10.4644975 Z" id="Shape" fill="#323C6B"></path>
                        <polygon id="Path" fill="#323C6B" points="40.0013195 22.0730598 35.9357627 22.0730598 35.9357627 21.3811679 39.3094276 21.3811679 39.3094276 18.2641949 40.0013195 18.2641949"></polygon>
                        <circle id="Oval" fill="#EEEFEE" cx="39.6553736" cy="16.7316543" r="1.53254056"></circle>
                        <path d="M39.6553736,18.6101408 C38.8952539,18.6101408 38.2099935,18.1522187 37.919173,17.449933 C37.6283525,16.7476472 37.7892539,15.9393248 38.3268386,15.401938 C38.8644233,14.8645512 39.6728049,14.7039475 40.3749836,14.9950266 C41.0771622,15.2861057 41.5348318,15.9715347 41.5345521,16.7316543 C41.5330269,17.7687515 40.6924712,18.6089977 39.6553736,18.6101408 Z M39.6553736,15.5443678 C38.9996533,15.5443678 38.4680871,16.0759341 38.4680871,16.7316543 C38.4680871,17.3873745 38.9996533,17.9189408 39.6553736,17.9189408 C40.3110938,17.9189408 40.8426601,17.3873745 40.8426601,16.7316543 C40.8422784,16.0760922 40.3109356,15.5447495 39.6553736,15.5443678 L39.6553736,15.5443678 Z" id="Shape" fill="#323C6B"></path>
                        <polygon id="Path" fill="#323C6B" points="13.4250597 21.2054273 9.35881095 21.2054273 9.35881095 20.5135354 12.7331678 20.5135354 12.7331678 17.3972543 13.4250597 17.3972543"></polygon>
                        <circle id="Oval" fill="#EEEFEE" cx="13.0791137" cy="15.8640219" r="1.53254056"></circle>
                        <path d="M13.0791137,17.7432004 C12.3189311,17.7434801 11.6334584,17.2857356 11.3424199,16.583472 C11.0513813,15.8812084 11.2121119,15.0727725 11.7496421,14.5352422 C12.2871724,13.9977119 13.0956083,13.8369814 13.7978719,14.1280199 C14.5001355,14.4190585 14.9578801,15.1045312 14.9576004,15.8647137 C14.956076,16.9015412 14.1159412,17.7416761 13.0791137,17.7432004 L13.0791137,17.7432004 Z M13.0791137,14.677427 C12.5988383,14.6771474 12.1656982,14.9662429 11.9817108,15.4098793 C11.7977234,15.8535156 11.8991317,16.3643021 12.2386388,16.7040072 C12.5781459,17.0437122 13.0888732,17.1454183 13.5326167,16.9616895 C13.9763602,16.7779607 14.2657083,16.3449893 14.2657083,15.8647137 C14.2653271,15.2094216 13.7344056,14.6781904 13.0791137,14.677427 Z" id="Shape" fill="#323C6B"></path>
                        <circle id="Oval" fill="#27CCBC" cx="13.1559137" cy="37.2649303" r="2.24311355"></circle>
                        <path d="M13.1559137,39.8539898 C11.7263761,39.8539898 10.5673647,38.6953894 10.5668557,37.2658518 C10.566347,35.8363143 11.7245334,34.6768899 13.1540706,34.6758708 C14.5836079,34.674853 15.7434451,35.8326259 15.7449732,37.2621627 C15.7449732,38.6925092 14.5862594,39.8524625 13.1559137,39.8539898 L13.1559137,39.8539898 Z M13.1559137,35.3677627 C12.3883294,35.3677627 11.6963788,35.8302936 11.4028962,36.5395563 C11.1094136,37.2488191 11.2722351,38.0650414 11.8153952,38.6074092 C12.3585553,39.149777 13.1750145,39.3114067 13.883848,39.016889 C14.5926816,38.7223713 15.054201,38.0297462 15.0530833,37.2621627 C15.050414,36.2159412 14.202138,35.3689027 13.1559137,35.3677627 Z" id="Shape" fill="#323C6B"></path>
                        <polygon id="Path" fill="#323C6B" points="30.8462059 27.1307896 31.5380978 27.1307896 31.5380978 34.1991573 30.8462059 34.1991573"></polygon>
                        <circle id="Oval" fill="#89C5CD" cx="31.1921518" cy="36.4457303" r="2.24311355"></circle>
                        <path d="M31.1921518,39.0347898 C29.7622537,39.0347898 28.6030923,37.8756283 28.6030923,36.4457303 C28.6030923,35.0158322 29.7622537,33.8566708 31.1921518,33.8566708 C32.6220499,33.8566708 33.7812113,35.0158322 33.7812113,36.4457303 C33.7796859,37.874996 32.6214176,39.0332644 31.1921518,39.0347898 L31.1921518,39.0347898 Z M31.1921518,34.5485627 C30.1443751,34.5485627 29.2949842,35.3979535 29.2949842,36.4457303 C29.2949842,37.493507 30.1443751,38.3428979 31.1921518,38.3428979 C32.2399285,38.3428979 33.0893194,37.493507 33.0893194,36.4457303 C33.0881754,35.3984278 32.2394543,34.5497066 31.1921518,34.5485627 L31.1921518,34.5485627 Z" id="Shape" fill="#323C6B"></path>
                        <polygon id="Path" fill="#323C6B" points="40.4697303 34.546487 36.919633 34.546487 36.919633 27.1314815 37.6115249 27.1314815 37.6115249 33.8545951 40.4697303 33.8545951"></polygon>
                        <circle id="Oval" fill="#E7AA6C" cx="42.7163033" cy="34.2005411" r="2.24311355"></circle>
                        <path d="M42.7163033,36.7896005 C41.6691265,36.7896005 40.7250615,36.1587965 40.3243243,35.1913312 C39.923587,34.223866 40.145096,33.1102654 40.8855618,32.3697995 C41.6260276,31.6293337 42.7396283,31.4078248 43.7070935,31.808562 C44.6745587,32.2092992 45.3053628,33.1533642 45.3053628,34.2005411 C45.3038375,35.6298068 44.1455691,36.7880752 42.7163033,36.7896005 L42.7163033,36.7896005 Z M42.7163033,32.3033735 C41.9489707,32.3033735 41.2571945,32.7656035 40.963549,33.4745264 C40.6699035,34.1834494 40.8322171,34.999455 41.3748033,35.5420411 C41.9173894,36.0846273 42.733395,36.2469409 43.4423179,35.9532954 C44.1512409,35.6596499 44.6134709,34.9678737 44.6134709,34.2005411 C44.612327,33.1532385 43.7636059,32.3045174 42.7163033,32.3033735 Z" id="Shape" fill="#323C6B"></path>
                        <polygon id="Path" fill="#323C6B" points="25.6155031 42.0971033 22.7448436 42.0971033 22.7448436 41.4052114 24.9236112 41.4052114 24.9236112 27.1314815 25.6155031 27.1314815"></polygon>
                        <circle id="Oval" fill="#E1E6E9" cx="20.4982706" cy="41.7511574" r="2.24311355"></circle>
                        <path d="M20.4982706,44.3402172 C19.450968,44.3407766 18.5064784,43.7103276 18.1053051,42.7429068 C17.7041318,41.775486 17.9252991,40.6616584 18.665656,39.9209057 C19.4060128,39.1801529 20.519722,38.9583902 21.4873571,39.3590462 C22.4549922,39.7597022 23.0859463,40.7038547 23.0859463,41.7511574 C23.0844225,43.1798837 21.9269959,44.3379293 20.4982706,44.3402172 Z M20.4982706,39.8539893 C19.7308122,39.85343 19.0386115,40.315305 18.74453,41.0241834 C18.4504484,41.7330619 18.6124203,42.5492943 19.1548974,43.0921674 C19.6973745,43.6350405 20.5134886,43.7976079 21.2225814,43.5040437 C21.9316743,43.2104795 22.3940544,42.5186159 22.3940544,41.7511574 C22.3929121,40.7043942 21.5450327,39.8558958 20.4982706,39.8539893 L20.4982706,39.8539893 Z" id="Shape" fill="#323C6B"></path>
                        <polygon id="Path" fill="#323C6B" points="31.6937734 22.0426165 31.0018815 22.0426165 31.0018815 18.6682597 27.8849085 18.6682597 27.8849085 17.9763678 31.6937734 17.9763678"></polygon>
                        <circle id="Oval" fill="#EEEFEE" cx="26.352368" cy="18.3230057" r="1.53254056"></circle>
                        <g id="Group" fill="#323C6B">
                            <path d="M26.352368,20.2014922 C25.3149085,20.2014922 24.4738814,19.3604651 24.4738814,18.3230057 C24.4738814,17.2855462 25.3149085,16.4445192 26.352368,16.4445192 C27.3898274,16.4445192 28.2308545,17.2855462 28.2308545,18.3230057 C28.2293303,19.3598331 27.3891954,20.199968 26.352368,20.2014922 L26.352368,20.2014922 Z M26.352368,17.1357192 C25.6970299,17.1357192 25.1657733,17.6669757 25.1657733,18.3223138 C25.1657733,18.9776519 25.6970299,19.5089084 26.352368,19.5089084 C27.0077061,19.5089084 27.5389626,18.9776519 27.5389626,18.3223138 C27.5382,17.6672918 27.00739,17.1364817 26.352368,17.1357192 L26.352368,17.1357192 Z" id="Shape"></path>
                            <path d="M38.5448871,12.8446056 L38.1719573,12.2613407 C39.2630613,11.5576835 40.5330567,11.1816554 41.8313736,11.177838 L41.8313736,11.8697299 C40.6651828,11.8736515 39.5245869,12.2119883 38.5448871,12.8446056 Z" id="Path"></path>
                            <path d="M33.0588762,8.21238931 L32.3669843,8.21238931 C32.3697222,6.98038793 32.0939343,5.76370427 31.5602383,4.65329737 L32.182941,4.35094061 C32.7621483,5.55564603 33.0615865,6.87568107 33.0588762,8.21238931 L33.0588762,8.21238931 Z" id="Path"></path>
                            <path d="M20.6470273,5.27323251 C20.3720077,4.84635294 20.0531615,4.44936032 19.695676,4.08871357 L20.1869192,3.60438924 C20.5769257,3.99940219 20.9247466,4.43394645 21.2247571,4.90099467 L20.6470273,5.27323251 Z" id="Path"></path>
                            <path d="M8.23448661,11.5334704 C8.03474723,10.6089296 7.94739767,9.66364942 7.97433525,8.71816229 L8.66622716,8.7769731 C8.64714936,9.64525327 8.7281737,10.5128405 8.90769743,11.3625731 L8.23448661,11.5334704 Z" id="Path"></path>
                            <path d="M5.55548116,27.8206063 C5.5003105,27.820694 5.44594172,27.8073986 5.39703792,27.7818599 L5.30709197,27.736195 C5.20400008,27.6836112 5.0995244,27.6310274 5.00058386,27.5742923 C4.83864075,27.4786808 4.7827403,27.2712129 4.87472515,27.1071827 C4.96671,26.9431524 5.17288283,26.8826499 5.338919,26.9709626 C5.43163251,27.0228545 5.5264217,27.0719788 5.62190279,27.1197193 L5.71392441,27.166768 C5.85547901,27.2400702 5.92861983,27.4006094 5.89103981,27.5555244 C5.85345979,27.7104394 5.71488893,27.8196206 5.55548116,27.8199139 L5.55548116,27.8206063 Z" id="Path"></path>
                            <path d="M3.94060546,26.8263573 C3.85880194,26.8264212 3.77962227,26.7974949 3.71712438,26.7447139 C2.10298632,25.3842958 0.860935746,23.6360924 0.107524326,21.6641517 C0.0398888477,21.4853189 0.130032079,21.2855169 0.308864869,21.2178814 C0.487697659,21.1502459 0.687499668,21.2403892 0.755135146,21.4192219 C1.46719258,23.2812698 2.6406825,24.9318694 4.16547033,26.2161085 C4.27600962,26.310049 4.31619973,26.4629774 4.26612888,26.5991268 C4.21605804,26.7352763 4.08636201,26.8257266 3.94129736,26.8256653 L3.94060546,26.8263573 Z" id="Path"></path>
                            <path d="M41.3456655,4.99578397 C41.2492998,4.99585976 41.1572698,4.95573765 41.0917412,4.88508115 C39.4989927,3.10269184 37.2378951,2.06134415 34.8481086,2.00957841 C34.657048,2.00957841 34.5021627,1.85469313 34.5021627,1.66363246 C34.5021627,1.47257178 34.657048,1.31768651 34.8481086,1.31768651 C37.4306487,1.36923704 39.8758295,2.49084286 41.5995898,4.41459466 C41.6931615,4.51548849 41.7180401,4.66224562 41.6629483,4.78834127 C41.6078565,4.91443691 41.4832707,4.99589232 41.3456655,4.99578397 L41.3456655,4.99578397 Z" id="Path"></path>
                            <path d="M42.5184223,6.53040022 C42.4019604,6.53049736 42.2932655,6.47198934 42.2292114,6.37472442 L42.1600222,6.26817307 C42.1205844,6.20659469 42.0818385,6.14501631 42.0396331,6.0855136 C41.9650786,5.98513178 41.9504949,5.85233109 42.001488,5.73816202 C42.0524811,5.62399294 42.1611138,5.54622636 42.2856261,5.53475683 C42.4101385,5.52328731 42.5311496,5.57990013 42.6021412,5.68283252 C42.6519574,5.75202171 42.6983141,5.8212109 42.7405196,5.89524333 L42.8041736,5.99418387 C42.8741123,6.10038434 42.8801504,6.23639323 42.8198978,6.34837352 C42.7596452,6.46035382 42.6428158,6.53025206 42.5156547,6.53040022 L42.5184223,6.53040022 Z" id="Path"></path>
                            <path d="M11.1106812,27.4774274 C5.95331901,27.4774274 1.42972975,22.8957193 1.42972975,17.6719354 C1.42972975,13.3358488 3.62787032,10.2569299 7.96395688,8.51543796 C7.93562829,6.69377145 8.61985034,4.93306652 9.87081096,3.60854059 C11.0944699,2.28899298 12.8113712,1.53717517 14.6109624,1.53286489 C16.5113005,1.54073127 18.3564111,2.17278498 19.8624219,3.33178383 C21.27167,1.23874232 23.6566189,0.0155709993 26.1787031,0.0923459473 C28.7017635,0.238347534 30.9434907,1.75105559 32.023114,4.03612979 C32.9041238,3.61127364 33.8700106,3.39174315 34.8481086,3.3940541 C36.8525522,3.44511546 38.7459608,4.32554922 40.0767357,5.82536225 C41.4523227,7.273006 42.2131982,9.19751497 42.1994601,11.1944434 C46.0740547,11.402011 49.170271,14.9700975 49.170271,19.3214057 C49.170271,23.8076328 45.880325,27.4580545 41.8362168,27.4580545 L11.1106812,27.4774274 Z M14.6116543,2.22337301 C13.0021314,2.2292904 11.4674215,2.90367064 10.3745083,4.08525411 C9.19311122,5.33437587 8.5749977,7.01293414 8.66415148,8.72992445 L8.67868121,8.98108121 L8.44343796,9.07171905 C4.24849736,10.6817515 2.12162165,13.5752434 2.12162165,17.6719354 C2.12162165,22.4418382 6.40581631,26.7855355 11.1106812,26.7855355 L41.8362168,26.7647788 C45.4990926,26.7647788 48.4783791,23.4250166 48.4783791,19.3200219 C48.4783791,15.2150273 45.4984007,11.875265 41.8362168,11.875265 L41.4625952,11.875265 L41.4916547,11.5023353 C41.6005356,9.57487168 40.9041672,7.68873828 39.5688871,6.29446496 C38.3690557,4.93619128 36.6597105,4.1362588 34.8481086,4.08525411 C33.8653976,4.08337608 32.8983216,4.33121607 32.0376437,4.80551359 L31.7193734,4.97917845 L31.5609302,4.65329737 C30.6344101,2.43294996 28.5278932,0.930977104 26.1268112,0.778702714 C23.7149487,0.716915767 21.4580709,1.96365021 20.2263571,4.03820547 L19.9945733,4.42220547 L19.6818381,4.10047574 C18.4814057,2.86821626 16.2230705,2.22129733 14.6116543,2.22129733 L14.6116543,2.22337301 Z" id="Shape"></path>
                        </g>
                        <path d="M15.1374921,25.0295139 C15.1374921,24.8105584 15.3149906,24.6330598 15.5339462,24.6330598 L20.6643246,24.6330598 C20.8832802,24.6330598 21.0607787,24.8105584 21.0607787,25.0295139 C21.0607787,25.2484694 20.8832802,25.4259679 20.6643246,25.4259679 L15.5339462,25.4259679 C15.3149906,25.4259679 15.1374921,25.2484694 15.1374921,25.0295139 L15.1374921,25.0295139 Z" id="Path" fill="#FFFFFF"></path>
                        <path d="M13.5558272,25.0295139 C13.5558272,24.8105584 13.7333258,24.6330598 13.9522813,24.6330598 L14.1598489,24.6330598 C14.3788044,24.6330598 14.5563029,24.8105584 14.5563029,25.0295139 C14.5563029,25.2484694 14.3788044,25.4259679 14.1598489,25.4259679 L13.9522813,25.4259679 C13.7333258,25.4259679 13.5558272,25.2484694 13.5558272,25.0295139 Z" id="Path" fill="#FFFFFF"></path>
                    </g>
                </g>
            </g>
        </g>
    </g>
</svg>