<svg xmlns="http://www.w3.org/2000/svg" width="63" height="61" viewBox="0 0 63 61">
  <g id="s4" transform="translate(-30 -40)">
    <circle id="Oval" cx="27" cy="27" r="27" transform="translate(39 47)" fill="rgba(171,174,239,0.28)"/>
    <g id="Rectangle" transform="translate(30 40)">
      <g id="cloud_2_" data-name="cloud (2)" transform="translate(1 4)">
        <path id="Path" d="M9.335,26.7A9.716,9.716,0,0,1,0,17.238c0-5.12,3.216-7.646,6.543-8.925a6.47,6.47,0,0,1,6.3-6.872,8.014,8.014,0,0,1,5.317,1.988A7.051,7.051,0,0,1,24.38,0,6.646,6.646,0,0,1,30.1,4.068a6.144,6.144,0,0,1,2.975-.761c3.846,0,7.3,3.816,6.988,7.791,3.864,0,6.988,3.483,6.988,7.791s-3.125,7.791-6.988,7.791Z" transform="translate(1.776 0.434)" fill="#fe7058"/>
        <path id="Path-2" data-name="Path" d="M37.618,24.592a8.494,8.494,0,0,0,.941-3.909c0-4.31-3.12-7.791-6.988-7.791A7.425,7.425,0,0,0,24.583,5.1a6.176,6.176,0,0,0-2.975.761A6.648,6.648,0,0,0,15.886,1.8a7.048,7.048,0,0,0-6.22,3.425A8.018,8.018,0,0,0,4.345,3.24,6.158,6.158,0,0,0,0,5.067,6.337,6.337,0,0,1,5.639,1.442,8.018,8.018,0,0,1,10.96,3.427,7.032,7.032,0,0,1,17.18,0,6.648,6.648,0,0,1,22.9,4.064,6.177,6.177,0,0,1,25.877,3.3c3.847,0,7.293,3.812,6.988,7.791,3.861,0,6.988,3.48,6.988,7.791a8.18,8.18,0,0,1-2.235,5.708Z" transform="translate(8.971 0.437)" fill="#ea6453"/>
        <path id="Path-3" data-name="Path" d="M0,0H.692V7.888H0Z" transform="translate(12.81 27.131)" fill="#323c6b"/>
        <path id="Path-4" data-name="Path" d="M3.809,4.066H0V0H.692V3.374H3.809Z" transform="translate(16.831 7.931)" fill="#323c6b"/>
        <circle id="Oval-2" data-name="Oval" cx="1.533" cy="1.533" r="1.533" transform="translate(20.639 10.118)" fill="#eeefee"/>
        <path id="Shape" d="M0,1.878A1.878,1.878,0,1,1,1.878,3.757,1.878,1.878,0,0,1,0,1.878Z" transform="translate(20.293 9.773)" fill="#323c6b"/>
        <path id="Path-5" data-name="Path" d="M4.066,3.809H0V3.117H3.374V0h.692Z" transform="translate(35.936 18.264)" fill="#323c6b"/>
        <circle id="Oval-3" data-name="Oval" cx="1.533" cy="1.533" r="1.533" transform="translate(38.123 15.199)" fill="#eeefee"/>
        <path id="Shape-2" data-name="Shape" d="M.143,2.6a1.879,1.879,0,1,1,1.736,1.16A1.881,1.881,0,0,1,.143,2.6Z" transform="translate(37.776 14.852)" fill="#323c6b"/>
        <path id="Path-6" data-name="Path" d="M4.066,3.808H0V3.116H3.374V0h.692Z" transform="translate(9.359 17.397)" fill="#323c6b"/>
        <circle id="Oval-4" data-name="Oval" cx="1.533" cy="1.533" r="1.533" transform="translate(11.547 14.331)" fill="#eeefee"/>
        <path id="Shape-3" data-name="Shape" d="M.143,2.6A1.879,1.879,0,1,1,1.88,3.758,1.878,1.878,0,0,1,.143,2.6Z" transform="translate(11.199 13.985)" fill="#323c6b"/>
        <circle id="Oval-5" data-name="Oval" cx="2.243" cy="2.243" r="2.243" transform="translate(10.913 35.022)" fill="#27ccbc"/>
        <path id="Shape-4" data-name="Shape" d="M0,2.59A2.589,2.589,0,1,1,2.589,5.178,2.588,2.588,0,0,1,0,2.59Z" transform="translate(10.567 34.676)" fill="#323c6b"/>
        <path id="Path-7" data-name="Path" d="M0,0H.692V7.068H0Z" transform="translate(30.846 27.131)" fill="#323c6b"/>
        <circle id="Oval-6" data-name="Oval" cx="2.243" cy="2.243" r="2.243" transform="translate(28.949 34.203)" fill="#89c5cd"/>
        <path id="Shape-5" data-name="Shape" d="M0,2.589A2.589,2.589,0,1,1,2.589,5.178,2.589,2.589,0,0,1,0,2.589Z" transform="translate(28.603 33.857)" fill="#323c6b"/>
        <path id="Path-8" data-name="Path" d="M3.55,7.415H0V0H.692V6.723H3.55Z" transform="translate(36.92 27.131)" fill="#323c6b"/>
        <circle id="Oval-7" data-name="Oval" cx="2.243" cy="2.243" r="2.243" transform="translate(40.473 31.957)" fill="#e7aa6c"/>
        <path id="Shape-6" data-name="Shape" d="M.2,3.58a2.589,2.589,0,1,1,2.392,1.6A2.589,2.589,0,0,1,.2,3.58Z" transform="translate(40.127 31.611)" fill="#323c6b"/>
        <path id="Path-9" data-name="Path" d="M2.871,14.966H0v-.692H2.179V0h.692Z" transform="translate(22.745 27.131)" fill="#323c6b"/>
        <circle id="Oval-8" data-name="Oval" cx="2.243" cy="2.243" r="2.243" transform="translate(18.255 39.508)" fill="#e1e6e9"/>
        <path id="Shape-7" data-name="Shape" d="M.2,3.581a2.589,2.589,0,1,1,2.392,1.6A2.588,2.588,0,0,1,.2,3.581Z" transform="translate(17.908 39.162)" fill="#323c6b"/>
        <path id="Path-10" data-name="Path" d="M3.809,4.066H3.117V.692H0V0H3.809Z" transform="translate(27.885 17.976)" fill="#323c6b"/>
        <circle id="Oval-9" data-name="Oval" cx="1.533" cy="1.533" r="1.533" transform="translate(24.82 16.79)" fill="#eeefee"/>
        <g id="Group">
          <path id="Shape-8" data-name="Shape" d="M0,1.878A1.878,1.878,0,1,1,1.878,3.757,1.878,1.878,0,0,1,0,1.878Z" transform="translate(24.474 16.445)" fill="#323c6b"/>
          <path id="Path-11" data-name="Path" d="M.373,1.667,0,1.084A6.789,6.789,0,0,1,3.659,0V.692A6.1,6.1,0,0,0,.373,1.667Z" transform="translate(38.172 11.178)" fill="#323c6b"/>
          <path id="Path-12" data-name="Path" d="M1.5,3.861H.807A8.174,8.174,0,0,0,0,.3L.623,0A8.87,8.87,0,0,1,1.5,3.861Z" transform="translate(31.56 4.351)" fill="#323c6b"/>
          <path id="Path-13" data-name="Path" d="M.951,1.669A7.294,7.294,0,0,0,0,.484L.491,0A8,8,0,0,1,1.529,1.3Z" transform="translate(19.696 3.604)" fill="#323c6b"/>
          <path id="Path-14" data-name="Path" d="M.265,2.815A11.748,11.748,0,0,1,0,0L.7.059A11.307,11.307,0,0,0,.938,2.644Z" transform="translate(7.97 8.718)" fill="#323c6b"/>
          <path id="Path-15" data-name="Path" d="M.725.89A.341.341,0,0,1,.567.851L.477.806C.374.753.269.7.17.644a.346.346,0,0,1,.338-.6C.6.092.7.142.791.189L.883.236A.346.346,0,0,1,.725.89Z" transform="translate(4.83 26.93)" fill="#323c6b"/>
          <path id="Path-16" data-name="Path" d="M3.856,5.631a.346.346,0,0,1-.223-.082A12.46,12.46,0,0,1,.022.469.346.346,0,1,1,.67.224a11.766,11.766,0,0,0,3.41,4.8.346.346,0,0,1-.224.61Z" transform="translate(0.085 21.195)" fill="#323c6b"/>
          <path id="Path-17" data-name="Path" d="M6.844,3.678a.346.346,0,0,1-.254-.111A8.624,8.624,0,0,0,.346.692.346.346,0,0,1,.346,0,9.315,9.315,0,0,1,7.1,3.1a.346.346,0,0,1-.254.581Z" transform="translate(34.502 1.318)" fill="#323c6b"/>
          <path id="Path-18" data-name="Path" d="M.547,1A.346.346,0,0,1,.258.841L.189.735C.149.673.11.612.068.552A.346.346,0,1,1,.631.15,2.376,2.376,0,0,1,.769.362l.064.1A.346.346,0,0,1,.544,1Z" transform="translate(41.971 5.533)" fill="#323c6b"/>
          <path id="Shape-9" data-name="Shape" d="M0,17.583c0-4.336,2.2-7.415,6.534-9.157A6.989,6.989,0,0,1,8.441,3.52a6.488,6.488,0,0,1,4.74-2.076,8.672,8.672,0,0,1,5.252,1.8A7.345,7.345,0,0,1,24.749,0a6.906,6.906,0,0,1,5.845,3.944A6.477,6.477,0,0,1,33.419,3.3a7.236,7.236,0,0,1,5.228,2.432,7.716,7.716,0,0,1,2.123,5.369c3.875.208,6.971,3.776,6.971,8.127,0,4.487-3.29,8.137-7.334,8.137l-30.725.02A10,10,0,0,1,0,17.583Z" transform="translate(1.43 0.089)" fill="#323c6b"/>
        </g>
        <path id="Path-19" data-name="Path" d="M0,.4A.4.4,0,0,1,.4,0h5.13a.4.4,0,0,1,0,.793H.4A.4.4,0,0,1,0,.4Z" transform="translate(15.137 24.633)" fill="#fff"/>
        <path id="Path-20" data-name="Path" d="M0,.4A.4.4,0,0,1,.4,0H.6A.4.4,0,0,1,.6.793H.4A.4.4,0,0,1,0,.4Z" transform="translate(13.556 24.633)" fill="#fff"/>
      </g>
    </g>
  </g>
</svg>
