<svg xmlns="http://www.w3.org/2000/svg" width="63" height="61" viewBox="0 0 63 61">
  <g id="s5" transform="translate(-30 -40)">
    <circle id="Oval" cx="27" cy="27" r="27" transform="translate(39 47)" fill="rgba(171,174,239,0.28)"/>
    <g id="Rectangle" transform="translate(30 40)">
      <g id="graph" transform="translate(2 3)">
        <g id="Group">
          <path id="Path" d="M47.395,44.653.346,44.574A.346.346,0,0,1,0,44.228V.346a.346.346,0,0,1,.692,0V43.883l46.7.078a.346.346,0,0,1,0,.692Z" transform="translate(0.046 0.006)" fill="#323c6b"/>
          <path id="Path-2" data-name="Path" d="M1.719.692H.346A.346.346,0,0,1,.346,0H1.719a.346.346,0,0,1,0,.692Z" transform="translate(2.163 2.206)" fill="#323c6b"/>
          <path id="Path-3" data-name="Path" d="M1.349.692h-1A.346.346,0,0,1,.346,0h1a.346.346,0,0,1,0,.692Z" transform="translate(2.163 6.341)" fill="#323c6b"/>
          <path id="Path-4" data-name="Path" d="M1.719.692H.346A.346.346,0,0,1,.346,0H1.719a.346.346,0,0,1,0,.692Z" transform="translate(2.163 10.477)" fill="#323c6b"/>
          <path id="Path-5" data-name="Path" d="M1.349.692h-1A.346.346,0,0,1,.346,0h1a.346.346,0,0,1,0,.692Z" transform="translate(2.163 14.612)" fill="#323c6b"/>
          <path id="Path-6" data-name="Path" d="M1.719.692H.346A.346.346,0,0,1,.346,0H1.719a.346.346,0,0,1,0,.692Z" transform="translate(2.163 18.748)" fill="#323c6b"/>
          <path id="Path-7" data-name="Path" d="M1.349.692h-1A.346.346,0,0,1,.346,0h1a.346.346,0,0,1,0,.692Z" transform="translate(2.163 22.886)" fill="#323c6b"/>
          <path id="Path-8" data-name="Path" d="M1.719.692H.346A.346.346,0,0,1,.346,0H1.719a.346.346,0,0,1,0,.692Z" transform="translate(2.163 27.019)" fill="#323c6b"/>
          <path id="Path-9" data-name="Path" d="M1.349.692h-1A.346.346,0,0,1,.346,0h1a.346.346,0,0,1,0,.692Z" transform="translate(2.163 31.154)" fill="#323c6b"/>
          <path id="Path-10" data-name="Path" d="M.346.935A.346.346,0,0,1,.027.454L.13.211a.346.346,0,0,1,.637.27l-.1.243A.346.346,0,0,1,.346.935Z" transform="translate(6.835 22.228)" fill="#323c6b"/>
          <path id="Path-11" data-name="Path" d="M.347,6.374a.346.346,0,0,1-.318-.484L2.435.211a.346.346,0,1,1,.637.271L.666,6.16a.346.346,0,0,1-.319.214Z" transform="translate(7.586 15.012)" fill="#323c6b"/>
          <path id="Path-12" data-name="Path" d="M.346,1.211A.346.346,0,0,1,0,.865V.346a.346.346,0,0,1,.692,0V.865A.346.346,0,0,1,.346,1.211Z" transform="translate(46.892 19.838)" fill="#323c6b"/>
          <path id="Path-13" data-name="Path" d="M.365,7.668a.346.346,0,0,1-.346-.346L0,.346a.346.346,0,0,1,.692,0L.711,7.322A.346.346,0,0,1,.365,7.668Z" transform="translate(46.901 21.986)" fill="#323c6b"/>
        </g>
        <path id="Path-14" data-name="Path" d="M44.848,17.332,0,17.249,2.276,11.8,9.527,4.864l6.656,6.8L27.205,0l8.946,10.572,8.656-5.819Z" transform="translate(0.392 26.982)" fill="#27ccbc"/>
        <path id="Path-15" data-name="Path" d="M44.848,17.332h-.007L44.807,7.078,36.151,12.9,27.205,2.325,16.183,13.99l-6.656-6.8L2.276,14.122.969,17.249H0L2.276,11.8,9.527,4.864l6.656,6.8L27.205,0l8.946,10.572,8.656-5.819Z" transform="translate(0.392 26.982)" fill="#21b3a9"/>
        <path id="Path-16" data-name="Path" d="M42.531,20.411,33.875,26.23,24.929,15.658,13.907,27.323l-6.656-6.8L0,27.454,9.894,4.11l4.082,9.354,5.231-7.279,3.729,5.971L30.056,0l6.988,14.6,5.431-8.787Z" transform="translate(2.668 11.324)" fill="#fcd462"/>
        <path id="Path-17" data-name="Path" d="M42.531,20.411l-.028.021L42.454,8.808,37.03,17.595l-7-14.6L22.922,15.152,19.186,9.181,13.955,16.46,9.88,7.106,2.1,25.441,0,27.454,9.894,4.11l4.082,9.354,5.231-7.279,3.729,5.971L30.056,0l6.988,14.6,5.431-8.787Z" transform="translate(2.668 11.324)" fill="#f7be56"/>
        <path id="Shape" d="M.345,17.941a.346.346,0,0,1-.318-.48L2.3,12.01a.367.367,0,0,1,.08-.116L9.635,4.961a.346.346,0,0,1,.484.008l6.4,6.544L27.3.109A.353.353,0,0,1,27.56,0a.347.347,0,0,1,.255.122l8.746,10.337,8.4-5.647A.346.346,0,0,1,45.5,5.1l.041,12.578a.346.346,0,0,1-.346.347h0Z" transform="translate(0.047 26.635)" fill="#323c6b"/>
        <path id="Path-18" data-name="Path" d="M.45,1.1A.45.45,0,0,1,.121.342L.3.15A.45.45,0,1,1,.958.764L.778.957A.448.448,0,0,1,.45,1.1Z" transform="translate(18.124 32.428)" fill="#fff"/>
        <path id="Path-19" data-name="Path" d="M.45,5.147A.45.45,0,0,1,.121,4.39L4.095.142a.45.45,0,0,1,.657.615L.777,5a.448.448,0,0,1-.327.142Z" transform="translate(19.683 26.714)" fill="#fff"/>
        <path id="Shape-2" data-name="Shape" d="M.057,27.991a.347.347,0,0,1-.028-.328L9.923,4.318a.346.346,0,0,1,.634,0l3.842,8.8L19.274,6.33a.314.314,0,0,1,.292-.144.346.346,0,0,1,.282.162l3.426,5.486L30.105.172A.336.336,0,0,1,30.419,0a.345.345,0,0,1,.3.2l6.711,14.027,5.1-8.248a.346.346,0,0,1,.641.18l.055,14.6a.345.345,0,0,1-.153.289l-8.655,5.819a.345.345,0,0,1-.457-.064L25.262,16.523,14.505,27.906a.283.283,0,0,1-.251.109.344.344,0,0,1-.247-.1L7.591,21.354l-7,6.7a.345.345,0,0,1-.239.1h0A.344.344,0,0,1,.057,27.991Z" transform="translate(2.321 10.978)" fill="#323c6b"/>
      </g>
    </g>
  </g>
</svg>
