<?xml version="1.0" encoding="UTF-8"?>
<svg width="63px" height="61px" viewBox="0 0 63 61" version="1.1" xmlns="http://www.w3.org/2000/svg" xmlns:xlink="http://www.w3.org/1999/xlink">
    <title>Group 13</title>
    <g id="Page-1" stroke="none" stroke-width="1" fill="none" fill-rule="evenodd">
        <g id="Layout-2.3-Copy-2" transform="translate(-150.000000, -1405.000000)">
            <g id="Group-13" transform="translate(150.000000, 1405.000000)">
                <circle id="Oval" fill-opacity="0.279092002" fill="#ABAEEF" cx="36" cy="34" r="27"></circle>
                <g id="Group" fill-rule="nonzero">
                    <g id="graph" transform="translate(2.000000, 3.000000)">
                        <g id="Group" fill="#323C6B">
                            <path d="M47.4405412,44.6590926 L0.391891898,44.579525 C0.200831225,44.579525 0.0459459466,44.4246397 0.0459459466,44.233579 L0.0459459466,0.351718924 C0.0459459466,0.160658251 0.200831225,0.00577297306 0.391891898,0.00577297306 C0.582952571,0.00577297306 0.737837849,0.160658251 0.737837849,0.351718924 L0.737837849,43.888325 L47.4405412,43.9665088 C47.6316019,43.9665088 47.7864872,44.121394 47.7864872,44.3124547 C47.7864872,44.5035154 47.6316019,44.6584007 47.4405412,44.6584007 L47.4405412,44.6590926 Z" id="Path"></path>
                            <path d="M3.88179465,2.89788112 L2.50908112,2.89788112 C2.31802045,2.89788112 2.16313517,2.74299585 2.16313517,2.55193517 C2.16313517,2.3608745 2.31802045,2.20598922 2.50908112,2.20598922 L3.88179465,2.20598922 C4.07285533,2.20598922 4.2277406,2.3608745 4.2277406,2.55193517 C4.2277406,2.74299585 4.07285533,2.89788112 3.88179465,2.89788112 Z" id="Path"></path>
                            <path d="M3.51232438,7.03331902 L2.50908112,7.03331902 C2.31802045,7.03331902 2.16313517,6.87843375 2.16313517,6.68737307 C2.16313517,6.4963124 2.31802045,6.34142712 2.50908112,6.34142712 L3.51232438,6.34142712 C3.70338505,6.34142712 3.85827033,6.4963124 3.85827033,6.68737307 C3.85827033,6.87843375 3.70338505,7.03331902 3.51232438,7.03331902 Z" id="Path"></path>
                            <path d="M3.88179465,11.1687569 L2.50908112,11.1687569 C2.31802045,11.1687569 2.16313517,11.0138716 2.16313517,10.822811 C2.16313517,10.6317503 2.31802045,10.476865 2.50908112,10.476865 L3.88179465,10.476865 C4.07285533,10.476865 4.2277406,10.6317503 4.2277406,10.822811 C4.2277406,11.0138716 4.07285533,11.1687569 3.88179465,11.1687569 Z" id="Path"></path>
                            <path d="M3.51232438,15.3041948 L2.50908112,15.3041948 C2.31802045,15.3041948 2.16313517,15.1493095 2.16313517,14.9582489 C2.16313517,14.7671882 2.31802045,14.6123029 2.50908112,14.6123029 L3.51232438,14.6123029 C3.70338505,14.6123029 3.85827033,14.7671882 3.85827033,14.9582489 C3.85827033,15.1493095 3.70338505,15.3041948 3.51232438,15.3041948 Z" id="Path"></path>
                            <path d="M3.88179465,19.4396327 L2.50908112,19.4396327 C2.31802045,19.4396327 2.16313517,19.2847474 2.16313517,19.0936868 C2.16313517,18.9026261 2.31802045,18.7477408 2.50908112,18.7477408 L3.88179465,18.7477408 C4.07285533,18.7477408 4.2277406,18.9026261 4.2277406,19.0936868 C4.2277406,19.2847474 4.07285533,19.4396327 3.88179465,19.4396327 Z" id="Path"></path>
                            <path d="M3.51232438,23.5778382 L2.50908112,23.5778382 C2.31802045,23.5778382 2.16313517,23.4229529 2.16313517,23.2318922 C2.16313517,23.0408316 2.31802045,22.8859463 2.50908112,22.8859463 L3.51232438,22.8859463 C3.70338505,22.8859463 3.85827033,23.0408316 3.85827033,23.2318922 C3.85827033,23.4229529 3.70338505,23.5778382 3.51232438,23.5778382 Z" id="Path"></path>
                            <path d="M3.88179465,27.7105085 L2.50908112,27.7105085 C2.31802045,27.7105085 2.16313517,27.5556232 2.16313517,27.3645626 C2.16313517,27.1735019 2.31802045,27.0186166 2.50908112,27.0186166 L3.88179465,27.0186166 C4.07285533,27.0186166 4.2277406,27.1735019 4.2277406,27.3645626 C4.2277406,27.5556232 4.07285533,27.7105085 3.88179465,27.7105085 Z" id="Path"></path>
                            <path d="M3.51232438,31.8459464 L2.50908112,31.8459464 C2.31802045,31.8459464 2.16313517,31.6910611 2.16313517,31.5000005 C2.16313517,31.3089398 2.31802045,31.1540545 2.50908112,31.1540545 L3.51232438,31.1540545 C3.70338505,31.1540545 3.85827033,31.3089398 3.85827033,31.5000005 C3.85827033,31.6910611 3.70338505,31.8459464 3.51232438,31.8459464 Z" id="Path"></path>
                            <path d="M7.18073524,23.1627033 C7.06475908,23.1626086 6.95654621,23.1044061 6.89253567,23.0076946 C6.82852513,22.910983 6.81723421,22.7886308 6.86246497,22.6818382 L6.96486497,22.4389841 C7.01306686,22.3251535 7.11833515,22.2456851 7.24101629,22.2305138 C7.36369744,22.2153426 7.48515326,22.2667734 7.55963252,22.3654328 C7.63411177,22.4640921 7.6502993,22.5949913 7.60209741,22.708822 L7.49969741,22.951676 C7.44545908,23.0797364 7.31980804,23.1628678 7.18073524,23.1627033 L7.18073524,23.1627033 Z" id="Path"></path>
                            <path d="M7.93351363,21.3852349 C7.81660628,21.3856405 7.70740154,21.3269755 7.64319821,21.2292748 C7.57899489,21.1315741 7.56847942,21.0080561 7.61524336,20.9009084 L10.0216434,15.2225516 C10.0963481,15.0465847 10.2995576,14.9644955 10.4755245,15.0392002 C10.6514913,15.113905 10.7335805,15.3171144 10.6588758,15.4930813 L8.2524758,21.1714382 C8.19909425,21.3005836 8.07325644,21.3849304 7.93351363,21.3852349 L7.93351363,21.3852349 Z" id="Path"></path>
                            <path d="M47.2378169,21.0489733 C47.0467562,21.0489733 46.891871,20.894088 46.891871,20.7030273 L46.891871,20.1841084 C46.891871,19.9930477 47.0467562,19.8381625 47.2378169,19.8381625 C47.4288776,19.8381625 47.5837629,19.9930477 47.5837629,20.1841084 L47.5837629,20.7030273 C47.5837629,20.894088 47.4288776,21.0489733 47.2378169,21.0489733 Z" id="Path"></path>
                            <path d="M47.2654926,29.6547248 C47.0744319,29.6547248 46.9195466,29.4998395 46.9195466,29.3087788 L46.9008656,22.3324328 C46.9008656,22.1413721 47.0557508,21.9864868 47.2468115,21.9864868 C47.4378722,21.9864868 47.5927575,22.1413721 47.5927575,22.3324328 L47.6114385,29.3087788 C47.6114385,29.4998395 47.4565533,29.6547248 47.2654926,29.6547248 Z" id="Path"></path>
                        </g>
                        <polygon id="Path" fill="#27CCBC" points="45.240325 44.3138385 0.391891898 44.2308115 2.66821626 38.7787033 9.91924339 31.8459464 16.5752435 38.6472438 27.5970815 26.9819463 36.5432438 37.5540546 45.1988115 31.7352437"></polygon>
                        <polygon id="Path" fill="#21B3A9" points="45.240325 44.3138385 45.2334061 44.3138385 45.1988115 34.0600005 36.5432438 39.8788114 27.5970815 29.3067031 16.5752435 40.9720006 9.91924339 34.1707032 2.66821626 41.1034601 1.36054056 44.2308115 0.391891898 44.2308115 2.66821626 38.7787033 9.91924339 31.8459464 16.5752435 38.6472438 27.5970815 26.9819463 36.5432438 37.5540546 45.1988115 31.7352437"></polygon>
                        <polygon id="Path" fill="#FCD462" points="45.1988115 31.7352437 36.5432438 37.5540546 27.5970815 26.9819463 16.5752435 38.6472438 9.91924339 31.8459464 2.66821626 38.7787033 12.5622705 15.4342705 16.6444327 24.788649 21.8751355 17.5099462 25.6044328 23.4809733 32.7240005 11.3244326 39.7121087 25.9233517 45.1434601 17.1363246"></polygon>
                        <polygon id="Path" fill="#F7BE56" points="45.1988115 31.7352437 45.1711358 31.7560005 45.1227034 20.1322165 39.6982709 28.9192437 32.7032437 14.3203245 25.590595 26.4768653 21.8543787 20.5058381 16.6236759 27.784541 12.5484326 18.4301624 4.77156764 36.7652978 2.66821626 38.7787033 12.5622705 15.4342705 16.6444327 24.788649 21.8751355 17.5099462 25.6044328 23.4809733 32.7240005 11.3244326 39.7121087 25.9233517 45.1434601 17.1363246"></polygon>
                        <path d="M45.240325,44.6597844 L0.391891898,44.5767574 C0.276285018,44.5764687 0.1684629,44.5184517 0.104528115,44.4221326 C0.0405933302,44.3258134 0.0289968673,44.2039237 0.0736216227,44.0972763 L2.34994598,38.6451681 C2.36841996,38.6013146 2.39574258,38.5617439 2.43020544,38.5289303 L9.68123258,31.5961734 C9.81800117,31.4665973 10.03331,31.4702883 10.1655569,31.6044761 L16.5697084,38.1483898 L27.3459247,26.7439355 C27.4139471,26.6729756 27.5084855,26.6336055 27.606768,26.6352555 C27.7052014,26.6380323 27.7978095,26.6825748 27.8613842,26.7577734 L36.6075897,37.0939465 L45.0057736,31.4474167 C45.1117572,31.3761511 45.2483839,31.3690754 45.3611622,31.4290115 C45.4739406,31.4889476 45.5445225,31.6061445 45.5447574,31.7338599 L45.5862709,44.3124547 C45.5862709,44.5035154 45.4313857,44.6584007 45.240325,44.6584007 L45.240325,44.6597844 Z M0.910810824,43.8855574 L44.8929953,43.9672007 L44.8542493,32.3828545 L36.7362816,37.8411898 C36.5899075,37.9397006 36.3928509,37.9122736 36.2789411,37.7775357 L27.5832437,27.5008653 L16.8264003,38.8845627 C16.7666694,38.9612143 16.6720052,39.0021572 16.5752435,38.9931898 C16.4823106,38.9931765 16.3932911,38.9557733 16.3282381,38.889406 L9.91163258,32.3323464 L2.95950275,38.97866 L0.910810824,43.8855574 Z" id="Shape" fill="#323C6B"></path>
                        <path d="M18.5741192,33.5272439 C18.3949189,33.5273195 18.2327749,33.4210012 18.1614055,33.2566262 C18.0900361,33.0922512 18.1230629,32.9011923 18.2454705,32.770314 L18.4253624,32.5779681 C18.5340835,32.4564098 18.7000922,32.4032345 18.8592068,32.4390006 C19.0183214,32.4747668 19.1456052,32.593869 19.1918481,32.7502604 C19.2380911,32.9066518 19.1960458,33.0758224 19.0819679,33.1923681 L18.902076,33.384714 C18.8173031,33.4757193 18.6984911,33.5273549 18.5741192,33.5272439 L18.5741192,33.5272439 Z" id="Path" fill="#FFFFFF"></path>
                        <path d="M20.1329517,31.8604762 C19.9537514,31.8605519 19.7916073,31.7542336 19.7202379,31.5898586 C19.6488685,31.4254836 19.6818954,31.2344247 19.804303,31.1035464 L23.7778382,26.856022 C23.8877138,26.7387308 24.0518171,26.6889671 24.2083322,26.7254765 C24.3648472,26.7619859 24.4899954,26.8792218 24.5366349,27.0330225 C24.5832743,27.1868231 24.5443192,27.3538227 24.4344436,27.4711139 L20.4602165,31.7186383 C20.3754384,31.8091427 20.2569612,31.8604762 20.1329517,31.8604762 L20.1329517,31.8604762 Z" id="Path" fill="#FFFFFF"></path>
                        <path d="M2.66821626,39.1246513 C2.5513089,39.125057 2.44210416,39.066392 2.37790084,38.9686913 C2.31369751,38.8709905 2.30318205,38.7474726 2.34994598,38.6403249 L12.2440002,15.2958921 C12.2989966,15.1698794 12.4233956,15.0883954 12.5608867,15.0883245 C12.6983778,15.0883954 12.8227767,15.1698794 12.8777732,15.2958921 L16.7205408,24.0926058 L21.5956111,17.3072219 C21.6585513,17.2086299 21.7710598,17.1531755 21.8875895,17.1633084 C22.0029141,17.1670381 22.1087877,17.2280192 22.1698814,17.325903 L25.5961301,22.8119139 L32.426487,11.1493839 C32.4893581,11.0368371 32.6112526,10.9703737 32.739914,10.9784867 C32.8678006,10.9839013 32.9822456,11.0594883 33.0374275,11.174984 L39.748779,25.2024004 L44.8473304,16.954357 C44.9285936,16.8232269 45.0868616,16.7617501 45.2353331,16.8036431 C45.3838046,16.8455361 45.4865954,16.9806739 45.4873304,17.1349408 L45.5426848,31.7338599 C45.5431623,31.8495507 45.4857801,31.9578239 45.3897736,32.0223789 L36.734206,37.8411898 C36.5878319,37.9397006 36.3907752,37.9122736 36.2768654,37.7775357 L27.5832437,27.5008653 L16.8264003,38.8845627 C16.7666694,38.9612143 16.6720052,39.0021572 16.5752435,38.9931898 C16.4823106,38.9931765 16.3932911,38.9557733 16.3282381,38.889406 L9.91163258,32.3323464 L2.90761085,39.0284763 C2.8431985,39.0902027 2.75743004,39.1246513 2.66821626,39.1246513 L2.66821626,39.1246513 Z M9.91924339,31.5000005 C10.0121763,31.5000137 10.1011958,31.5374169 10.1662488,31.6037843 L16.5704002,38.1476979 L27.3459247,26.7439355 C27.4139471,26.6729756 27.5084855,26.6336055 27.606768,26.6353085 C27.7052014,26.6380323 27.7978095,26.6825748 27.8613842,26.7577734 L36.6075897,37.0939465 L44.8521736,31.5512005 L44.8023574,18.3464435 L40.0061628,26.1053193 C39.9425063,26.215968 39.8206424,26.2798657 39.6934276,26.2692977 C39.5670595,26.2623894 39.4545493,26.1870288 39.4000655,26.0728004 L32.6935572,12.0619894 L25.9033301,23.656022 C25.8423137,23.7606203 25.7310471,23.8257008 25.6099679,23.8276112 C25.489447,23.8266802 25.3773325,23.765692 25.3110706,23.6650166 L21.8516111,18.1298814 L16.9281084,24.9906815 C16.8555557,25.0919229 16.7341802,25.146347 16.6103248,25.1331739 C16.4864693,25.1200009 16.3792565,25.0412645 16.3296219,24.9270274 L12.5691894,16.3129732 L3.64378384,37.3700114 L9.68330825,31.5961734 C9.74685465,31.5352682 9.83122732,31.5008758 9.91924339,31.5000005 Z" id="Shape" fill="#323C6B"></path>
                    </g>
                </g>
            </g>
        </g>
    </g>
</svg>