<?xml version="1.0" encoding="UTF-8"?>
<svg width="63px" height="61px" viewBox="0 0 63 61" version="1.1" xmlns="http://www.w3.org/2000/svg" xmlns:xlink="http://www.w3.org/1999/xlink">
    <title>Group 15</title>
    <g id="Page-1" stroke="none" stroke-width="1" fill="none" fill-rule="evenodd">
        <g id="Layout-2.3-Copy-2" transform="translate(-454.000000, -1405.000000)">
            <g id="Group-15" transform="translate(454.000000, 1405.000000)">
                <circle id="Oval" fill-opacity="0.279092002" fill="#ABAEEF" cx="36" cy="34" r="27"></circle>
                <g id="Group" fill-rule="nonzero">
                    <g id="machine-learning-(1)" transform="translate(3.000000, 2.000000)">
                        <path d="M33.1969302,5.1632217 C42.5969736,6.71029199 47.6941413,16.9551354 44.1620331,25.8023571 C43.9081088,26.4375139 43.6652547,27.0775139 43.4403898,27.7251247 C42.3890549,30.4407545 41.9544459,33.3561089 42.1680006,36.2603032 C42.397219,39.1783439 43.81973,41.8726794 46.1000223,43.7078277 L26.2994599,47.6405413 C25.6075679,45.5358061 24.935049,43.4310709 24.2410814,41.3263358 C24.1388864,40.8739514 23.914941,40.4581212 23.5934706,40.1238276 C23.0477244,39.7884755 22.4008991,39.6571006 21.7675679,39.7529736 C20.6107246,39.7993303 19.4545733,39.8221628 18.3212543,39.7993303 C17.3983845,39.8573482 16.4757343,39.6824777 15.6380975,39.2907898 C14.8770164,38.8279141 14.1346164,37.5326925 14.6895137,36.8387249 C14.9329206,36.4328379 14.9329206,35.9258659 14.6895137,35.5199789 C14.4347919,35.1291773 14.2106439,34.7192801 14.0190705,34.2939465 C13.8115029,33.4844329 14.94413,33.2298167 15.3606489,33.0215572 C14.9212975,33.1142708 13.7644543,32.8368221 13.6724326,32.1428545 C13.6032434,31.7035032 13.9734056,31.2641518 13.9270489,30.8241086 C13.8144524,30.1951116 13.327829,29.6994257 12.7010164,29.5752437 C12.2858813,29.4596977 11.8451461,29.4368653 11.4057948,29.3206275 C10.9764783,29.2188746 10.6281284,28.9062196 10.4807353,28.4903572 C10.4193235,28.0655538 10.5274267,27.6336383 10.7817083,27.2878491 C11.5427894,25.8770815 12.3315461,24.4663139 13.0947029,23.0548544 C13.604621,22.0025719 14.0525782,20.9213757 14.4362813,19.8168003 C14.63246,19.2514902 14.7106394,18.6519579 14.6659894,18.0552435 C14.4558945,15.0227701 15.5387212,12.042986 17.6466597,9.85286501 C20.6992868,6.58575145 25.0858815,4.90579676 29.9623356,4.90579676 C31.0457349,4.90363709 32.1275123,4.98971649 33.1969302,5.1632217 L33.1969302,5.1632217 Z" id="Path" fill="#FCD462"></path>
                        <path d="M46.1014061,43.7105952 L43.2854061,44.2710277 C41.4393703,42.4453412 40.3037289,40.0219855 40.0819465,37.4351357 C39.8648595,34.5298473 40.299821,31.6127681 41.3550276,28.8971896 C41.5764331,28.2468112 41.8185952,27.6102707 42.0745952,26.9737301 C45.6032439,18.1244327 40.5109195,7.88443255 31.1081086,6.33459469 C30.037557,6.16099743 28.954585,6.07537786 27.8700545,6.07859469 C25.2291396,6.05054093 22.6135826,6.59584206 20.2038922,7.67686498 C23.1084101,5.80443313 26.5044037,4.83862218 29.959568,4.90237845 C31.0442775,4.90171171 32.1272293,4.98964369 33.1976221,5.16529737 C42.5935141,6.70821632 47.6927575,16.9551354 44.1641088,25.8044328 C43.9081088,26.4409734 43.6659466,27.0775139 43.4376223,27.7278923 C42.3885631,30.4426851 41.9537917,33.356126 42.1645412,36.2589195 C42.3952314,39.1788073 43.8193966,41.8744592 46.1014061,43.7105952 L46.1014061,43.7105952 Z" id="Path" fill="#F7BE56"></path>
                        <path d="M19.7389408,23.5274166 C18.2946349,19.3510334 19.60196,14.7169741 23.0160197,11.9111957 C26.4300794,9.10541729 31.2296183,8.72066939 35.0470492,10.9467461 L34.7011032,11.5438488 C31.1331361,9.46183671 26.6462503,9.82082758 23.4547127,12.4436603 C20.2631751,15.0664931 19.0415788,19.3987814 20.3927787,23.3025517 L19.7389408,23.5274166 Z" id="Path" fill="#323C6B"></path>
                        <path d="M29.7160221,30.6435316 C27.6407,30.6458899 25.6110695,30.0341841 23.8826814,28.8854275 L24.2659896,28.3090815 C27.9513024,30.7527733 32.8114671,30.4506421 36.1657524,27.5693351 C39.5200378,24.6880281 40.5517951,19.9290408 38.6919357,15.9172975 L39.3194817,15.626011 C40.8375768,18.9012495 40.5790533,22.7247737 38.6338873,25.7658474 C36.6887213,28.806921 33.3259772,30.6448886 29.7160221,30.6400653 L29.7160221,30.6435316 Z" id="Path" fill="#323C6B"></path>
                        <path d="M29.7312437,26.1365409 C26.3850071,26.1365409 23.6723463,23.4238802 23.6723463,20.0776435 C23.6723463,16.7314069 26.3850071,14.0187462 29.7312437,14.0187462 C33.0774803,14.0187462 35.7901411,16.7314069 35.7901411,20.0776435 C35.7863282,23.4222996 33.0758997,26.132728 29.7312437,26.1365409 L29.7312437,26.1365409 Z M29.7312437,14.7106381 C26.7671284,14.7106381 24.3642382,17.1135283 24.3642382,20.0776435 C24.3642382,23.0417588 26.7671284,25.444649 29.7312437,25.444649 C32.695359,25.444649 35.0982492,23.0417588 35.0982492,20.0776435 C35.0948177,17.1149508 32.6939364,14.7140695 29.7312437,14.7106381 L29.7312437,14.7106381 Z" id="Shape" fill="#323C6B"></path>
                        <circle id="Oval" fill="#FE7058" cx="36.456433" cy="12.3817299" r="1.95321084"></circle>
                        <path d="M36.456433,14.6808876 C35.5263224,14.6817264 34.6873296,14.1220875 34.3308097,13.2630183 C33.9742898,12.4039491 34.1704833,11.4147005 34.8278739,10.7567159 C35.4852646,10.0987312 36.4743356,9.90164433 37.3337264,10.2573882 C38.1931173,10.613132 38.7535141,11.451619 38.7535141,12.3817299 C38.751992,13.6500782 37.7247793,14.678219 36.456433,14.6808876 L36.456433,14.6808876 Z M36.456433,10.7744637 C35.8061668,10.7736252 35.2194629,11.1646899 34.9700347,11.7652167 C34.7206065,12.3657434 34.8576045,13.0573969 35.3171153,13.5175019 C35.7766261,13.9776069 36.468102,14.1154986 37.0689506,13.8668466 C37.6697992,13.6181946 38.0616222,13.0319967 38.0616222,12.3817299 C38.0608616,11.4951872 37.3429739,10.7763712 36.456433,10.7744637 L36.456433,10.7744637 Z" id="Shape" fill="#323C6B"></path>
                        <circle id="Oval" fill="#27CCBC" cx="22.5023571" cy="27.4435247" r="1.95321084"></circle>
                        <g id="Group" fill="#323C6B">
                            <path d="M22.5023571,29.7426815 C21.2325679,29.7426815 20.2032003,28.713314 20.2032003,27.4435247 C20.2032003,26.1737355 21.2325679,25.1443679 22.5023571,25.1443679 C23.7721463,25.1443679 24.8015139,26.1737355 24.8015139,27.4435247 C24.7999889,28.7126818 23.7715141,29.7411566 22.5023571,29.7426815 L22.5023571,29.7426815 Z M22.5023571,25.8362598 C21.6146892,25.8362598 20.8950922,26.5558568 20.8950922,27.4435247 C20.8950922,28.3311926 21.6146892,29.0507896 22.5023571,29.0507896 C23.390025,29.0507896 24.109622,28.3311926 24.109622,27.4435247 C24.108859,26.5561731 23.3897087,25.8370228 22.5023571,25.8362598 Z" id="Shape"></path>
                            <polygon id="Path" points="6.03948117 23.8609085 5.34758927 23.8609085 5.34758927 16.7710921 14.6272435 16.7710921 14.6272435 17.462984 6.03948117 17.462984"></polygon>
                            <polygon id="Path" points="5.69422711 24.363222 2.77375139 21.2670057 3.2774487 20.7923679 5.69353522 23.3544436 8.10685417 20.7923679 8.60985959 21.2670057"></polygon>
                            <polygon id="Path" points="20.5491463 7.68170822 7.8058812 7.68170822 7.8058812 0.591891901 8.4977731 0.591891901 8.4977731 6.98981632 20.5491463 6.98981632"></polygon>
                            <polygon id="Path" points="5.73850819 3.66181627 5.23550278 3.18648653 8.1559785 0.0902702716 11.071611 3.18648653 10.5679137 3.66112438 8.15528661 1.09904867"></polygon>
                            <polygon id="Path" points="0.548627035 11.6144218 16.0836759 11.6144218 16.0836759 12.3063137 0.548627035 12.3063137"></polygon>
                            <polygon id="Path" points="3.14460545 14.8753083 0.0483891899 11.9548326 3.14460545 9.03850824 3.6192433 9.54220555 1.05716758 11.9555245 3.61993519 14.371611"></polygon>
                            <path d="M18.2216219,42.2188763 L18.2119354,42.2188763 L17.7753516,42.2043466 C17.5845027,42.1968503 17.4358385,42.0361072 17.4432435,41.8452547 C17.4543543,41.6560928 17.612883,41.5094766 17.8023354,41.5131466 L18.2306165,41.5269844 C18.4216772,41.5294682 18.5745489,41.686367 18.5720651,41.8774277 C18.5695814,42.0684883 18.4126826,42.2213601 18.2216219,42.2188763 L18.2216219,42.2188763 Z" id="Path"></path>
                            <path d="M15.9300759,41.9670291 C15.9013878,41.9671102 15.8728007,41.963624 15.8449732,41.9566493 C15.3300486,41.8333422 14.8367009,41.6329707 14.3816218,41.3623141 C13.221775,40.6251085 12.4106051,39.4489247 12.133665,38.1028114 C12.1073914,37.9792176 12.150591,37.851131 12.2463519,37.7686957 C12.3421127,37.6862604 12.4751998,37.6625915 12.5935113,37.7069549 C12.7118228,37.7513184 12.7965359,37.8566564 12.8144867,37.9817303 C13.0522297,39.1335873 13.7470479,40.139738 14.7400218,40.7700547 C15.1360389,41.0049322 15.5652308,41.1787082 16.0131029,41.2855141 C16.1825961,41.3279928 16.2938031,41.490195 16.2723249,41.663605 C16.2508467,41.8370151 16.1034272,41.9671843 15.9286921,41.9670291 L15.9300759,41.9670291 Z" id="Path"></path>
                            <path d="M37.5081087,4.66229196 C37.458976,4.6623807 37.4103879,4.65200268 37.3655789,4.63184872 L37.15386,4.54467034 C36.9786574,4.46824607 36.8985817,4.26426216 36.975006,4.08905952 C37.0514302,3.91385688 37.2554141,3.83378119 37.4306168,3.91020546 L37.6513303,4.00153519 C37.8003022,4.06853509 37.8821106,4.23060505 37.847543,4.3902506 C37.8129754,4.54989615 37.6714526,4.66360882 37.5081087,4.66298642 L37.5081087,4.66229196 Z" id="Path"></path>
                            <path d="M44.2422926,10.2783785 C44.1288462,10.2784188 44.0225894,10.2228343 43.957925,10.1296218 C42.7551925,8.38686749 41.219727,6.89913542 39.4398709,5.75202171 C39.3350866,5.68552557 39.2739491,5.56799641 39.2796539,5.44402495 C39.2853586,5.32005348 39.3570316,5.20863584 39.4674799,5.152044 C39.5779282,5.09545216 39.7102279,5.10235769 39.8141844,5.17014062 C41.670658,6.36655205 43.2720131,7.91852615 44.5259682,9.73662717 C44.5992877,9.84231555 44.6079143,9.97995728 44.5483647,10.0939732 C44.488815,10.207989 44.3709228,10.2795509 44.2422926,10.2797623 L44.2422926,10.2783785 Z" id="Path"></path>
                            <path d="M26.2994599,47.9864929 C26.1501817,47.9864929 26.0176845,47.8908964 25.9708112,47.7491683 C25.6239427,46.6961088 25.2807643,45.6430493 24.941276,44.5899899 C24.6017878,43.5369304 24.2593013,42.4850241 23.9138166,41.4342709 C23.8280059,41.0422354 23.639617,40.6800226 23.3679139,40.3846709 C22.8853447,40.1113596 22.3240725,40.0105747 21.7765625,40.0989195 C20.4668111,40.1515033 19.3334922,40.1681087 18.3108759,40.1452763 C17.3269336,40.2059272 16.3438612,40.0134574 15.4554381,39.5862276 C14.802968,39.1620461 14.3430869,38.4986845 14.1747462,37.7388762 C14.0870656,37.3494608 14.175401,36.9411943 14.4162164,36.6228546 C14.5692905,36.3216373 14.5543452,35.9624234 14.3767786,35.6749627 C14.2979712,35.524111 14.2113676,35.3774623 14.1173191,35.2356113 C13.9371936,34.976762 13.7920261,34.6952674 13.6855786,34.3984221 C13.5584538,33.9196295 13.7769398,33.416224 14.2134921,33.1820762 C14.083023,33.1273069 13.9587133,33.0588902 13.842638,32.9779681 C13.566016,32.8004004 13.3778725,32.5136576 13.3251029,32.1892113 C13.3006892,31.9021893 13.3494907,31.6136652 13.4669407,31.3506383 C13.5368353,31.1965409 13.5749564,31.0299376 13.5790272,30.8607788 C13.4761377,30.3782413 13.0947599,30.0039462 12.6103786,29.9101194 C12.4073855,29.8577683 12.2015551,29.8171105 11.9939029,29.7883464 C11.7662817,29.7556184 11.5404421,29.7115127 11.3172326,29.656195 C10.7591717,29.5263674 10.3116214,29.1106722 10.1410164,28.5636977 C10.0555887,28.0555826 10.1769144,27.5344054 10.4779677,27.1162599 C10.8571245,26.4153734 11.244584,25.7089517 11.6327353,25.003222 C12.0208867,24.2974923 12.4069623,23.5931463 12.7881948,22.8888003 C13.1731067,22.1276262 13.5071013,21.3417567 13.7879786,20.5363679 C13.893838,20.254076 14.0003894,19.9704003 14.111784,19.6860327 C14.2889047,19.1714905 14.3595252,18.6263002 14.3193516,18.0836111 C14.1057953,14.9533188 15.2210178,11.877917 17.3913516,9.61208663 C20.435676,6.35120009 24.9011463,4.5550283 29.9574923,4.5550283 C31.0610844,4.55348583 32.162977,4.64164649 33.2522816,4.81865953 C37.6257507,5.55004722 41.4275774,8.23452857 43.580152,12.1112002 C45.9691772,16.3389344 46.301551,21.4248894 44.4830709,25.9275896 C44.2312223,26.5579031 43.9904439,27.1930599 43.7662709,27.8358274 C42.7270266,30.5032523 42.2984026,33.3695717 42.5118709,36.2243249 C42.7353434,39.0447627 44.1067821,41.649821 46.3055142,43.430379 C46.4154209,43.5118624 46.46698,43.6504647 46.4370466,43.7839676 C46.4071132,43.9174706 46.3013116,44.0207902 46.1671358,44.0475466 L26.368649,47.9795683 C26.345894,47.9843045 26.3227022,47.9864929 26.2994599,47.9864929 L26.2994599,47.9864929 Z M22.1398057,39.3994168 C22.7330863,39.3524441 23.3242485,39.5131365 23.8121085,39.8539898 C24.1888618,40.2297004 24.4525619,40.7036415 24.5731896,41.2218601 C24.9191355,42.2703069 25.2620833,43.3219826 25.6020328,44.3768871 C25.9115391,45.3321592 26.2224292,46.2872007 26.5347031,47.2420115 L45.3105736,43.5134061 C43.2901524,41.6247168 42.0469579,39.0502507 41.8241304,36.2935141 C41.5994921,33.3392018 42.039711,30.372098 43.1124331,27.6102707 C43.3248439,27.0014058 43.5628547,26.3648653 43.8396115,25.6729734 C45.5798378,21.3650327 45.2622367,16.498884 42.9768223,12.4536867 C40.9270001,8.76071988 37.306464,6.20271024 33.140887,5.50432441 C32.088638,5.33335176 31.0242318,5.24819926 29.9581842,5.24968848 C25.0955679,5.24968848 20.8127571,6.96767578 17.8978165,10.0867245 C15.8617559,12.2073226 14.8129203,15.0873509 15.0084759,18.0206489 C15.0580383,18.6649651 14.9746709,19.312593 14.7635462,19.9233516 C14.6466164,20.2222489 14.5414489,20.5024652 14.4369732,20.7819895 C14.1448648,21.6152625 13.7981678,22.4283824 13.3991353,23.2160652 C13.0158272,23.92364 12.6295209,24.6302923 12.2402164,25.336022 C11.8509119,26.0417517 11.4657587,26.746559 11.0847569,27.4504437 C10.880576,27.7213923 10.7837346,28.0582426 10.8128434,28.3962599 C10.9301717,28.7014906 11.1943603,28.9263375 11.5144218,28.9933626 C11.6970813,29.0404112 11.9018813,29.0729302 12.1032218,29.1047572 C12.3362446,29.1379908 12.5672336,29.1841886 12.7951137,29.2431356 C13.5634458,29.4046325 14.1519589,30.024265 14.2736867,30.7998924 C14.2836261,31.0686068 14.2327767,31.3360985 14.1249299,31.5824221 C14.0510962,31.7414419 14.0137458,31.9149561 14.015611,32.0902707 C14.043217,32.2263142 14.1278706,32.3439726 14.2480867,32.4133843 C14.5566342,32.6153319 14.9229579,32.7103767 15.2907678,32.683914 C15.4614581,32.6470739 15.6328429,32.7432159 15.69038,32.9080851 C15.747917,33.0729543 15.6735652,33.254855 15.5170164,33.3322167 C15.4346813,33.3730383 15.32813,33.4166275 15.2084327,33.4636762 C14.5801948,33.7127573 14.2757624,33.8968005 14.3560218,34.2088438 C14.4458967,34.4409087 14.5636932,34.6611673 14.706811,34.8647573 C14.8131684,35.0266964 14.9113105,35.1938844 15.0008651,35.365687 C15.3051184,35.8915988 15.2898968,36.5434581 14.9614272,37.0545951 C14.8469096,37.2184898 14.8102236,37.4244379 14.8611029,37.6177952 C14.994371,38.1803681 15.3360928,38.6714386 15.8172975,38.9918925 C16.5986138,39.3467408 17.4551249,39.5042628 18.3115678,39.4506168 C19.3369516,39.4713736 20.4564327,39.4568438 21.7530382,39.4056438 C21.8817301,39.4028763 22.0097301,39.3994168 22.1398057,39.3994168 L22.1398057,39.3994168 Z" id="Shape"></path>
                        </g>
                        <path d="M18.4471787,14.0879353 C18.2883752,14.0878805 18.1413728,14.0040787 18.0604222,13.8674569 C17.9794716,13.730835 17.9765746,13.5616486 18.0528003,13.4223353 C18.4603389,12.676308 18.9601194,11.9845188 19.5403679,11.363265 C20.1267575,10.7403316 20.775974,10.1796868 21.4776652,9.69027041 C21.6088119,9.59116032 21.7835845,9.57149995 21.933473,9.63899607 C22.0833615,9.70649219 22.1844824,9.85038984 22.197197,10.014282 C22.2099115,10.1781741 22.1321937,10.3359458 21.9945084,10.4257515 C21.3430373,10.8794808 20.7401961,11.3993154 20.1955895,11.9769732 C19.6668724,12.5431193 19.2114905,13.1735408 18.8401733,13.853384 C18.7617254,13.9973609 18.6111388,14.0872357 18.4471787,14.0879353 L18.4471787,14.0879353 Z" id="Path" fill="#FFFFFF"></path>
                        <path d="M23.6993301,9.35885483 C23.4883477,9.35920656 23.3054829,9.21284531 23.2596087,9.00691023 C23.2137345,8.80097515 23.3171848,8.59083425 23.5083679,8.50160013 C23.6259895,8.44624877 23.7477625,8.39781634 23.8695355,8.34938391 L23.9387247,8.32309202 C24.0891675,8.25738791 24.2634588,8.27887758 24.3934363,8.37915677 C24.5234138,8.47943596 24.5884244,8.6425706 24.5630435,8.80476146 C24.5376626,8.96695231 24.4259232,9.10242773 24.2715247,9.15820554 L24.2023355,9.18518933 C24.0971679,9.22739473 23.9947679,9.26821635 23.8902922,9.3159569 C23.8305667,9.34412317 23.765364,9.35877015 23.6993301,9.35885483 L23.6993301,9.35885483 Z" id="Path" fill="#FFFFFF"></path>
                    </g>
                </g>
            </g>
        </g>
    </g>
</svg>