<svg xmlns="http://www.w3.org/2000/svg" width="63" height="61" viewBox="0 0 63 61">
  <g id="s6" transform="translate(-30 -40)">
    <circle id="Oval" cx="27" cy="27" r="27" transform="translate(39 47)" fill="rgba(171,174,239,0.28)"/>
    <g id="Rectangle" transform="translate(30 40)">
      <g id="machine-learning_1_" data-name="machine-learning (1)" transform="translate(3 2)">
        <path id="Path" d="M22.733.257C32.133,1.8,37.23,12.049,33.7,20.9c-.254.635-.5,1.275-.722,1.923A19.65,19.65,0,0,0,31.7,31.355,10.628,10.628,0,0,0,35.636,38.8l-19.8,3.933c-.692-2.1-1.364-4.209-2.058-6.314a2.543,2.543,0,0,0-.648-1.2,2.712,2.712,0,0,0-1.826-.371c-1.157.046-2.313.069-3.446.046a5.517,5.517,0,0,1-2.683-.509c-.761-.463-1.5-1.758-.949-2.452a1.282,1.282,0,0,0,0-1.319,9.057,9.057,0,0,1-.67-1.226c-.208-.81.925-1.064,1.342-1.272-.439.093-1.6-.185-1.688-.879-.069-.439.3-.879.255-1.319a1.552,1.552,0,0,0-1.226-1.249c-.415-.116-.856-.138-1.3-.255a1.3,1.3,0,0,1-.925-.83,1.635,1.635,0,0,1,.3-1.2c.761-1.411,1.55-2.822,2.313-4.233a30,30,0,0,0,1.342-3.238,4.377,4.377,0,0,0,.23-1.762,10.756,10.756,0,0,1,2.981-8.2A16.506,16.506,0,0,1,19.5,0a19.944,19.944,0,0,1,3.235.257Z" transform="translate(10.464 4.906)" fill="#fcd462"/>
        <path id="Path-2" data-name="Path" d="M25.9,38.811l-2.816.56a10.927,10.927,0,0,1-3.2-6.836A19.551,19.551,0,0,1,21.151,24c.221-.65.464-1.287.72-1.923C25.4,13.225,20.307,2.985,10.9,1.435a19.861,19.861,0,0,0-3.238-.256A18.256,18.256,0,0,0,0,2.777,17.412,17.412,0,0,1,9.756,0a19.92,19.92,0,0,1,3.238.263c9.4,1.543,14.5,11.79,10.966,20.639-.256.637-.5,1.273-.726,1.923a19.709,19.709,0,0,0-1.273,8.531A10.64,10.64,0,0,0,25.9,38.811Z" transform="translate(20.204 4.899)" fill="#f7be56"/>
        <path id="Path-3" data-name="Path" d="M.581,14.019A10.566,10.566,0,0,1,15.889,1.439l-.346.6A9.875,9.875,0,0,0,1.235,13.794Z" transform="translate(19.158 9.508)" fill="#323c6b"/>
        <path id="Path-4" data-name="Path" d="M5.833,15.018A10.517,10.517,0,0,1,0,13.259l.383-.576A9.882,9.882,0,0,0,14.809.291L15.437,0a10.569,10.569,0,0,1-9.6,15.014Z" transform="translate(23.883 15.626)" fill="#323c6b"/>
        <path id="Shape" d="M0,6.059a6.059,6.059,0,1,1,6.059,6.059A6.059,6.059,0,0,1,0,6.059Z" transform="translate(23.672 14.019)" fill="#323c6b"/>
        <circle id="Oval-2" data-name="Oval" cx="1.953" cy="1.953" r="1.953" transform="translate(34.503 10.429)" fill="#fe7058"/>
        <path id="Shape-2" data-name="Shape" d="M.176,3.181A2.3,2.3,0,1,1,2.3,4.6,2.3,2.3,0,0,1,.176,3.181Z" transform="translate(34.155 10.083)" fill="#323c6b"/>
        <circle id="Oval-3" data-name="Oval" cx="1.953" cy="1.953" r="1.953" transform="translate(20.549 25.49)" fill="#27ccbc"/>
        <g id="Group">
          <path id="Shape-3" data-name="Shape" d="M0,2.3A2.3,2.3,0,1,1,2.3,4.6,2.3,2.3,0,0,1,0,2.3Z" transform="translate(20.203 25.144)" fill="#323c6b"/>
          <path id="Path-5" data-name="Path" d="M.692,7.09H0V0H9.28V.692H.692Z" transform="translate(5.348 16.771)" fill="#323c6b"/>
          <path id="Path-6" data-name="Path" d="M2.92,3.571,0,.475.5,0,2.92,2.562,5.333,0l.5.475Z" transform="translate(2.774 20.792)" fill="#323c6b"/>
          <path id="Path-7" data-name="Path" d="M12.743,7.09H0V0H.692V6.4H12.743Z" transform="translate(7.806 0.592)" fill="#323c6b"/>
          <path id="Path-8" data-name="Path" d="M.5,3.572,0,3.1,2.92,0,5.836,3.1l-.5.475L2.92,1.009Z" transform="translate(5.236 0.09)" fill="#323c6b"/>
          <path id="Path-9" data-name="Path" d="M0,0H15.535V.692H0Z" transform="translate(0.549 11.614)" fill="#323c6b"/>
          <path id="Path-10" data-name="Path" d="M3.1,5.837,0,2.916,3.1,0l.475.5L1.009,2.917,3.572,5.333Z" transform="translate(0.048 9.039)" fill="#323c6b"/>
          <path id="Path-11" data-name="Path" d="M.779.706H.769L.332.691A.346.346,0,0,1,0,.332.353.353,0,0,1,.359,0L.788.014A.346.346,0,1,1,.779.706Z" transform="translate(17.443 41.513)" fill="#323c6b"/>
          <path id="Path-12" data-name="Path" d="M3.8,4.282a.346.346,0,0,1-.085-.01,5.258,5.258,0,0,1-1.463-.594A5.074,5.074,0,0,1,.008.418.346.346,0,1,1,.688.3,4.342,4.342,0,0,0,2.614,3.085,4.577,4.577,0,0,0,3.887,3.6a.346.346,0,0,1-.084.682Z" transform="translate(12.126 37.685)" fill="#323c6b"/>
          <path id="Path-13" data-name="Path" d="M.562.781A.346.346,0,0,1,.42.751L.208.663A.346.346,0,1,1,.485.029L.705.12A.346.346,0,0,1,.562.782Z" transform="translate(36.946 3.881)" fill="#323c6b"/>
          <path id="Path-14" data-name="Path" d="M4.963,5.164a.346.346,0,0,1-.284-.149A16.062,16.062,0,0,0,.161.638.346.346,0,1,1,.535.056,16.739,16.739,0,0,1,5.247,4.623a.346.346,0,0,1-.284.543Z" transform="translate(39.279 5.114)" fill="#323c6b"/>
          <path id="Shape-4" data-name="Shape" d="M15.856,43.195q-.52-1.581-1.03-3.16T13.8,36.879a2.268,2.268,0,0,0-.546-1.049,2.439,2.439,0,0,0-1.591-.286c-1.309.053-2.443.069-3.466.047a5.778,5.778,0,0,1-2.855-.559,2.972,2.972,0,0,1-1.281-1.848A1.353,1.353,0,0,1,4.3,32.068a.969.969,0,0,0-.04-.948A4.764,4.764,0,0,0,4,30.681a3.588,3.588,0,0,1-.432-.838A1.069,1.069,0,0,1,4.1,28.627a2.01,2.01,0,0,1-.371-.2,1.154,1.154,0,0,1-.518-.788,1.7,1.7,0,0,1,.141-.839,1.26,1.26,0,0,0,.112-.49,1.231,1.231,0,0,0-.969-.951,5.487,5.487,0,0,0-.617-.122A6.688,6.688,0,0,1,1.2,25.1,1.614,1.614,0,0,1,.027,24.008a1.931,1.931,0,0,1,.337-1.447c.379-.7.767-1.408,1.155-2.113s.774-1.41,1.156-2.114a19.241,19.241,0,0,0,1-2.353c.105-.283.212-.566.324-.851a4.016,4.016,0,0,0,.207-1.6A11.151,11.151,0,0,1,7.277,5.057,16.884,16.884,0,0,1,19.843,0a20.3,20.3,0,0,1,3.295.264A14.559,14.559,0,0,1,33.466,7.556a15.945,15.945,0,0,1,.9,13.816c-.252.631-.493,1.265-.717,1.909A19.165,19.165,0,0,0,32.4,31.669a10.325,10.325,0,0,0,3.793,7.206.346.346,0,0,1-.138.617l-19.8,3.932a.352.352,0,0,1-.068.006A.347.347,0,0,1,15.856,43.195Z" transform="translate(10.114 4.555)" fill="#323c6b"/>
        </g>
        <path id="Path-15" data-name="Path" d="M.45,4.489a.45.45,0,0,1-.394-.666A10.135,10.135,0,0,1,1.543,1.764,12.413,12.413,0,0,1,3.48.091.45.45,0,1,1,4,.826,11.524,11.524,0,0,0,2.2,2.378,9.235,9.235,0,0,0,.843,4.254a.45.45,0,0,1-.393.235Z" transform="translate(17.998 9.599)" fill="#fff"/>
        <path id="Path-16" data-name="Path" d="M.451,1.073A.45.45,0,0,1,.26.216C.377.161.5.112.621.064L.69.038a.45.45,0,1,1,.333.835L.954.9C.848.942.746.983.641,1.03a.449.449,0,0,1-.191.043Z" transform="translate(23.249 8.285)" fill="#fff"/>
      </g>
    </g>
  </g>
</svg>
