<svg xmlns="http://www.w3.org/2000/svg" width="57.954" height="54.934" viewBox="0 0 57.954 54.934">
  <g id="s7" transform="translate(-35.046 -46.066)">
    <circle id="Oval" cx="27" cy="27" r="27" transform="translate(39 47)" fill="rgba(171,174,239,0.28)"/>
    <g id="Rectangle" transform="translate(35.046 46.066)">
      <g id="computer_2_" data-name="computer (2)" transform="translate(-0.046 -0.067)">
        <path id="Path" d="M6.414,10.587a.346.346,0,0,1-.346-.346V6.049A2.077,2.077,0,0,1,8.143,3.974h2.015a1.641,1.641,0,0,0,0-3.283H.346A.346.346,0,0,1,.346,0h9.812a2.333,2.333,0,0,1,0,4.666H8.143A1.385,1.385,0,0,0,6.76,6.049v4.192A.346.346,0,0,1,6.414,10.587Z" transform="translate(29.643 15.666)"/>
        <path id="Path-2" data-name="Path" d="M10.363,7.08l-.031-.4A9.192,9.192,0,0,0,8.2,1.376a3.957,3.957,0,0,0-6,0A9.192,9.192,0,0,0,.062,6.685l-.031.4a10.113,10.113,0,0,0,.215,3.011l.02.09A3.848,3.848,0,0,0,3.8,13.441H6.6a3.848,3.848,0,0,0,3.531-3.259l.02-.09a10.1,10.1,0,0,0,.216-3.011Z" transform="translate(30.86 25.907)" fill="#a4c9ff"/>
        <path id="Path-3" data-name="Path" d="M2.12,1.376A9.162,9.162,0,0,0,0,6.526H5.119V0A3.968,3.968,0,0,0,2.12,1.376Z" transform="translate(30.937 25.907)" fill="#a4c9ff"/>
        <path id="Path-4" data-name="Path" d="M5.119,6.526A9.162,9.162,0,0,0,3,1.376,3.969,3.969,0,0,0,0,0V6.526H5.119Z" transform="translate(36.056 25.907)" fill="#a4c9ff"/>
        <path id="Path-5" data-name="Path" d="M0,16.363V.861A.861.861,0,0,1,.861,0H28.42a.861.861,0,0,1,.861.861v15.5a.861.861,0,0,1-.861.861H.861A.861.861,0,0,1,0,16.363Z" transform="translate(2.127 2.135)" fill="#6bdddd"/>
        <path id="Path-6" data-name="Path" d="M20.724,2.009H.806A.805.805,0,0,1,0,1.2v-.4A.805.805,0,0,1,.806,0H20.724a.805.805,0,0,1,.806.806v.4A.806.806,0,0,1,20.724,2.009Z" transform="translate(5.99 30.985)" fill="#f9cfcf"/>
        <path id="Path-7" data-name="Path" d="M1.158,0,0,4.736H15.789L14.631,0Z" transform="translate(8.86 26.248)" fill="#a4c9ff"/>
        <path id="Path-8" data-name="Path" d="M0,0V2.871a2.3,2.3,0,0,0,2.3,2.3H30.429a2.3,2.3,0,0,0,2.3-2.3V0Z" transform="translate(0.392 21.081)" fill="#f9cfcf"/>
        <path id="Path-9" data-name="Path" d="M1.509,2.871H1.362A1.366,1.366,0,0,1,0,1.509V1.362A1.366,1.366,0,0,1,1.362,0h.147A1.366,1.366,0,0,1,2.871,1.362v.147A1.366,1.366,0,0,1,1.509,2.871Z" transform="translate(15.319 22.229)" fill="#f9a7a7"/>
        <g id="Group">
          <path id="Shape" d="M2.642,26.528A2.645,2.645,0,0,1,0,23.885V2.642A2.645,2.645,0,0,1,2.642,0H30.775a2.645,2.645,0,0,1,2.642,2.642V23.885a2.645,2.645,0,0,1-2.642,2.642Z" transform="translate(0.046 0.067)"/>
          <path id="Shape-2" data-name="Shape" d="M1.151,2.7A1.153,1.153,0,0,1,0,1.55v-.4A1.153,1.153,0,0,1,1.151,0H21.07a1.153,1.153,0,0,1,1.151,1.151v.4A1.153,1.153,0,0,1,21.07,2.7Z" transform="translate(5.644 30.639)"/>
          <path id="Shape-3" data-name="Shape" d="M.346,5.428A.346.346,0,0,1,.01,5L1.167.264A.347.347,0,0,1,1.5,0H14.977a.346.346,0,0,1,.336.264L16.47,5a.346.346,0,0,1-.336.428Z" transform="translate(8.515 25.903)"/>
          <path id="Shape-4" data-name="Shape" d="M2.642,5.859A2.645,2.645,0,0,1,0,3.217V.346A.346.346,0,0,1,.346,0H33.071a.346.346,0,0,1,.346.346V3.217a2.645,2.645,0,0,1-2.642,2.642Z" transform="translate(0.046 20.735)"/>
          <path id="Shape-5" data-name="Shape" d="M1.207,17.915A1.209,1.209,0,0,1,0,16.708V1.207A1.208,1.208,0,0,1,1.207,0H28.765a1.208,1.208,0,0,1,1.207,1.207v15.5a1.208,1.208,0,0,1-1.207,1.207Z" transform="translate(1.781 1.789)"/>
          <path id="Shape-6" data-name="Shape" d="M4.145,14.132A4.2,4.2,0,0,1,.275,10.6l-.021-.09A10.449,10.449,0,0,1,.032,7.4L.063,7A9.543,9.543,0,0,1,2.282,1.495a4.3,4.3,0,0,1,6.521,0A9.537,9.537,0,0,1,11.022,7l.031.4a10.418,10.418,0,0,1-.223,3.115l-.02.09a4.2,4.2,0,0,1-3.869,3.529Z" transform="translate(30.514 25.561)"/>
          <path id="Shape-7" data-name="Shape" d="M.346,7.217A.346.346,0,0,1,0,6.839a9.529,9.529,0,0,1,2.2-5.344A4.325,4.325,0,0,1,5.465,0a.346.346,0,0,1,.346.346V6.872a.346.346,0,0,1-.346.346Z" transform="translate(30.591 25.561)"/>
          <path id="Shape-8" data-name="Shape" d="M.346,7.217A.346.346,0,0,1,0,6.872V.346A.346.346,0,0,1,.346,0a4.325,4.325,0,0,1,3.26,1.495,9.524,9.524,0,0,1,2.2,5.344.347.347,0,0,1-.345.378Z" transform="translate(35.711 25.561)"/>
        </g>
      </g>
    </g>
  </g>
</svg>
