<?xml version="1.0" encoding="UTF-8"?>
<svg width="63px" height="61px" viewBox="0 0 63 61" version="1.1" xmlns="http://www.w3.org/2000/svg" xmlns:xlink="http://www.w3.org/1999/xlink">
    <title>Group 16</title>
    <g id="Page-1" stroke="none" stroke-width="1" fill="none" fill-rule="evenodd">
        <g id="Layout-2.3-Copy-2" transform="translate(-758.000000, -1405.000000)">
            <g id="Group-16" transform="translate(758.000000, 1405.000000)">
                <circle id="Oval" fill-opacity="0.279092002" fill="#ABAEEF" cx="36" cy="34" r="27"></circle>
                <g id="Group" fill-rule="nonzero">
                    <g id="computer-(2)" transform="translate(5.000000, 6.000000)">
                        <path d="M36.0564187,26.2524416 C35.8655736,26.2524416 35.7106848,26.0975528 35.7106848,25.9067077 L35.7106848,21.7146838 C35.7106848,20.5708231 36.6412276,19.6402802 37.7850883,19.6402802 L39.8005443,19.6402802 C40.7056757,19.6402802 41.4419161,18.903867 41.4419161,17.9989084 C41.4419161,17.093777 40.7056757,16.3573637 39.8005443,16.3573637 L29.9882696,16.3573637 C29.7974245,16.3573637 29.6425357,16.2024749 29.6425357,16.0116298 C29.6425357,15.8207846 29.7974245,15.6658958 29.9882696,15.6658958 L39.8005443,15.6658958 C41.0868474,15.6658958 42.133384,16.7126053 42.133384,17.9989084 C42.133384,19.2852115 41.0868474,20.3317481 39.8005443,20.3317481 L37.7850883,20.3317481 C37.0225722,20.3317481 36.4021526,20.9521676 36.4021526,21.7146838 L36.4021526,25.9067077 C36.4021526,26.0977257 36.2472638,26.2524416 36.0564187,26.2524416 Z" id="Path" fill="#000000"></path>
                        <path d="M41.2220293,32.9863014 L41.1910862,32.5913004 C41.0306656,30.5417896 40.2586418,28.6644544 39.0554877,27.2825559 C38.2794879,26.3912538 37.1862772,25.9065348 36.0562458,25.9065348 C34.9262145,25.9065348 33.8330038,26.3912538 33.057004,27.2825559 C31.8538499,28.6644544 31.081826,30.5417896 30.9214055,32.5913004 L30.8904623,32.9863014 C30.8112892,33.9975731 30.884412,35.0176611 31.1058546,35.9974711 L31.1262529,36.0878805 C31.561359,38.0124084 33.007564,39.3471142 34.6575792,39.3471142 L37.4545667,39.3471142 C39.1045819,39.3471142 40.5507869,38.0124084 40.9858931,36.0878805 L41.0062914,35.9974711 C41.2282526,35.0176611 41.3012024,33.9975731 41.2220293,32.9863014 L41.2220293,32.9863014 Z" id="Path" fill="#A4C9FF"></path>
                        <path d="M33.057004,27.2827288 C31.8851388,28.6286709 31.1240056,30.4453299 30.9369635,32.4326085 L36.0562458,32.4326085 L36.0562458,25.9068805 C34.9263873,25.9067077 33.8330038,26.3914267 33.057004,27.2827288 Z" id="Path" fill="#A4C9FF"></path>
                        <path d="M41.175701,32.4326085 C40.9886589,30.4453299 40.2275257,28.6286709 39.0556605,27.2827288 C38.2796607,26.3914267 37.18645,25.9067077 36.0564187,25.9067077 L36.0564187,32.4324356 L41.175701,32.4324356 L41.175701,32.4326085 Z" id="Path" fill="#A4C9FF"></path>
                        <path d="M2.12678227,18.4976296 L2.12678227,2.99613024 C2.12678227,2.52057322 2.5122756,2.13490702 2.98800549,2.13490702 L30.5462842,2.13490702 C31.0218412,2.13490702 31.4075074,2.52040035 31.4075074,2.99613024 L31.4075074,18.4976296 C31.4075074,18.9731866 31.0220141,19.3588528 30.5462842,19.3588528 L2.98800549,19.3588528 C2.5122756,19.3588528 2.12678227,18.9731866 2.12678227,18.4976296 Z" id="Path" fill="#6BDDDD"></path>
                        <path d="M26.7139964,32.9940804 L6.79522753,32.9940804 C6.35026796,32.9940804 5.98966747,32.6334799 5.98966747,32.1885204 L5.98966747,31.7902349 C5.98966747,31.3452753 6.35026796,30.9846748 6.79522753,30.9846748 L26.7139964,30.9846748 C27.158956,30.9846748 27.5195565,31.3452753 27.5195565,31.7902349 L27.5195565,32.1885204 C27.5195565,32.6334799 27.1587831,32.9940804 26.7139964,32.9940804 Z" id="Path" fill="#F9CFCF"></path>
                        <polygon id="Path" fill="#A4C9FF" points="10.0179864 26.2482928 8.86029629 30.9846748 24.6489277 30.9846748 23.4910647 26.2482928"></polygon>
                        <path d="M0.39188941,21.0809535 L0.39188941,23.9515823 C0.39188941,25.2199073 1.42010212,26.24812 2.68842704,26.24812 L30.8207969,26.24812 C32.0891219,26.24812 33.1173346,25.2199073 33.1173346,23.9515823 L33.1173346,21.0809535 L0.39188941,21.0809535 Z" id="Path" fill="#F9CFCF"></path>
                        <path d="M16.8282533,25.0997647 L16.6809707,25.0997647 C15.932111,25.0997647 15.3192976,24.4869513 15.3192976,23.7380916 L15.3192976,23.590809 C15.3192976,22.8419493 15.932111,22.2291359 16.6809707,22.2291359 L16.8282533,22.2291359 C17.577113,22.2291359 18.1899264,22.8419493 18.1899264,23.590809 L18.1899264,23.7380916 C18.1899264,24.4871242 17.577113,25.0997647 16.8282533,25.0997647 Z" id="Path" fill="#F9A7A7"></path>
                        <g id="Group" fill="#000000">
                            <path d="M30.8207969,26.5938539 L2.68842704,26.5938539 C1.23150426,26.5938539 0.0461554797,25.408678 0.0461554797,23.9515823 L0.0461554797,2.70882534 C0.0461554797,1.25172969 1.23133139,0.0665537815 2.68842704,0.0665537815 L30.8207969,0.0665537815 C32.2777197,0.0665537815 33.4630685,1.25172969 33.4630685,2.70882534 L33.4630685,23.9515823 C33.4630685,25.4085051 32.2777197,26.5938539 30.8207969,26.5938539 Z M2.68842704,0.758021642 C1.61284878,0.758021642 0.73762334,1.63324709 0.73762334,2.70882534 L0.73762334,23.9515823 C0.73762334,25.0273335 1.61284878,25.902386 2.68842704,25.902386 L30.8207969,25.902386 C31.8965481,25.902386 32.7716006,25.0271606 32.7716006,23.9515823 L32.7716006,2.70882534 C32.7716006,1.63307422 31.8963752,0.758021642 30.8207969,0.758021642 L2.68842704,0.758021642 Z" id="Shape"></path>
                            <path d="M26.7139964,33.3398143 L6.79522753,33.3398143 C6.16046003,33.3398143 5.64393354,32.8234607 5.64393354,32.1885204 L5.64393354,31.7902349 C5.64393354,31.1552945 6.16046003,30.6389409 6.79522753,30.6389409 L26.7139964,30.6389409 C27.3487639,30.6389409 27.8652904,31.1552945 27.8652904,31.7902349 L27.8652904,32.1885204 C27.8652904,32.8234607 27.3487639,33.3398143 26.7139964,33.3398143 Z M6.79522753,31.3304087 C6.54163169,31.3304087 6.3354014,31.536639 6.3354014,31.7902349 L6.3354014,32.1885204 C6.3354014,32.4421162 6.54163169,32.6483465 6.79522753,32.6483465 L26.7139964,32.6483465 C26.9675923,32.6483465 27.1738226,32.4421162 27.1738226,32.1885204 L27.1738226,31.7902349 C27.1738226,31.536639 26.9675923,31.3304087 26.7139964,31.3304087 L6.79522753,31.3304087 Z" id="Shape"></path>
                            <path d="M24.6487548,31.3302359 L8.86029629,31.3302359 C8.75415598,31.3302359 8.65389314,31.2814874 8.58837656,31.1979926 C8.52285998,31.1144979 8.49935007,31.0054188 8.52441578,30.9023901 L9.68227871,26.166181 C9.72013658,26.0112922 9.85877588,25.9025589 10.0181592,25.9025589 L23.4910647,25.9025589 C23.6504481,25.9025589 23.7890874,26.0114651 23.8269453,26.166181 L24.9846353,30.9023901 C25.0098739,31.0054188 24.9861911,31.1144979 24.9206745,31.1979926 C24.855158,31.2814874 24.755068,31.3302359 24.6487548,31.3302359 Z M9.30076132,30.638768 L24.2084626,30.638768 L23.2198365,26.5940268 L10.2893875,26.5940268 L9.30076132,30.638768 Z" id="Shape"></path>
                            <path d="M30.8207969,26.5938539 L2.68842704,26.5938539 C1.23150426,26.5938539 0.0461554797,25.408678 0.0461554797,23.9515823 L0.0461554797,21.0809535 C0.0461554797,20.8901084 0.20104428,20.7352196 0.39188941,20.7352196 L33.1173346,20.7352196 C33.3081797,20.7352196 33.4630685,20.8901084 33.4630685,21.0809535 L33.4630685,23.9515823 C33.4630685,25.4085051 32.2777197,26.5938539 30.8207969,26.5938539 Z M0.73762334,21.4265146 L0.73762334,23.9514095 C0.73762334,25.0271606 1.61284878,25.9022132 2.68842704,25.9022132 L30.8207969,25.9022132 C31.8965481,25.9022132 32.7716006,25.0269877 32.7716006,23.9514095 L32.7716006,21.4265146 L0.73762334,21.4265146 Z" id="Shape"></path>
                            <path d="M30.5461113,19.7044139 L2.98800549,19.7044139 C2.32246768,19.7044139 1.78104834,19.1629945 1.78104834,18.4976296 L1.78104834,2.99613024 C1.78104834,2.33041956 2.32246768,1.78917309 2.98800549,1.78917309 L30.5461113,1.78917309 C31.2116491,1.78917309 31.7530685,2.33059242 31.7530685,2.99613024 L31.7530685,18.4976296 C31.7530685,19.1629945 31.2116491,19.7044139 30.5461113,19.7044139 Z M2.98800549,2.48064095 C2.7038122,2.48064095 2.4725162,2.71193695 2.4725162,2.99613024 L2.4725162,18.4976296 C2.4725162,18.7818229 2.7038122,19.012946 2.98800549,19.012946 L30.5461113,19.012946 C30.8303046,19.012946 31.0616006,18.78165 31.0616006,18.4976296 L31.0616006,2.99613024 C31.0616006,2.71176408 30.8303046,2.48064095 30.5461113,2.48064095 L2.98800549,2.48064095 Z" id="Shape"></path>
                            <path d="M37.4547396,39.6928482 L34.6577521,39.6928482 C32.8497365,39.6928482 31.2588418,38.24163 30.7891623,36.1641148 L30.768764,36.0738783 C30.5388509,35.0565562 30.4638266,34.0088095 30.5457656,32.9593342 L30.5767088,32.5643331 C30.7409324,30.467284 31.5290329,28.5111214 32.7963206,27.0557544 C33.6233162,26.1058505 34.8114308,25.5611467 36.0562458,25.5611467 C37.3010608,25.5611467 38.4891755,26.1058505 39.3161711,27.0557544 C40.5834588,28.5112943 41.3717321,30.4674569 41.53561,32.5643331 L41.5665532,32.9593342 C41.648665,34.0089824 41.5736408,35.0569019 41.3435548,36.0738783 L41.3231565,36.1641148 C40.8536498,38.2418029 39.2627552,39.6928482 37.4547396,39.6928482 L37.4547396,39.6928482 Z M36.0564187,26.2524416 C35.0116108,26.2524416 34.0134769,26.710712 33.3178602,27.5097031 C32.147378,28.8537437 31.4187438,30.6681554 31.2662751,32.6182676 L31.2353319,33.0132686 C31.158579,33.9932515 31.2285901,34.9716785 31.4432909,35.9210639 L31.4636892,36.0113004 C31.8616289,37.7717776 33.1750721,39.0012074 34.657925,39.0012074 L37.4549124,39.0012074 C38.9375924,39.0012074 40.2510356,37.7717776 40.6491482,36.0113004 L40.6695465,35.9210639 C40.8842473,34.9718514 40.9540856,33.9935972 40.8775055,33.0132686 L40.8465623,32.6182676 C40.6940936,30.6683283 39.9654594,28.8540895 38.7949772,27.5097031 C38.0991876,26.7108848 37.1010538,26.2524416 36.0564187,26.2524416 Z" id="Shape"></path>
                            <path d="M36.0564187,32.7781696 L30.9369635,32.7781696 C30.8396394,32.7781696 30.7468099,32.7372001 30.6812933,32.6652874 C30.6157767,32.5932019 30.5836235,32.496915 30.5927854,32.4001095 C30.784322,30.3658111 31.5668908,28.4679047 32.7964935,27.0557544 C33.623489,26.1058505 34.8116037,25.5611467 36.0564187,25.5611467 C36.2472638,25.5611467 36.4021526,25.7160355 36.4021526,25.9068806 L36.4021526,32.4326085 C36.4021526,32.6234536 36.2472638,32.7781696 36.0564187,32.7781696 L36.0564187,32.7781696 Z M31.3241855,32.0867017 L35.7106848,32.0867017 L35.7106848,26.2692097 C34.7937984,26.3584091 33.9363782,26.7993927 33.3178602,27.5098759 C32.2585315,28.7263408 31.5579017,30.3397082 31.3241855,32.0867017 Z" id="Shape"></path>
                            <path d="M41.175701,32.7781696 L36.0564187,32.7781696 C35.8655736,32.7781696 35.7106848,32.6232808 35.7106848,32.4324356 L35.7106848,25.9067077 C35.7106848,25.7158626 35.8655736,25.5609738 36.0564187,25.5609738 C37.3012337,25.5609738 38.4893484,26.1056776 39.3163439,27.0555816 C40.5459466,28.4677318 41.3285154,30.3656382 41.5198791,32.3999367 C41.5290411,32.496915 41.4968878,32.5930291 41.4313712,32.6651146 C41.3658547,32.7372001 41.2730251,32.7781696 41.175701,32.7781696 Z M36.4021526,32.0867017 L40.788479,32.0867017 C40.5547629,30.339881 39.8543059,28.7265136 38.7949772,27.5097031 C38.1764592,26.7993927 37.3188661,26.3582362 36.4021526,26.2690369 L36.4021526,32.0867017 Z" id="Shape"></path>
                        </g>
                    </g>
                </g>
            </g>
        </g>
    </g>
</svg>