<svg xmlns="http://www.w3.org/2000/svg" width="63" height="61" viewBox="0 0 63 61">
  <g id="s8" transform="translate(-30 -40)">
    <circle id="Oval" cx="27" cy="27" r="27" transform="translate(39 47)" fill="rgba(171,174,239,0.28)"/>
    <g id="Rectangle" transform="translate(30 40)">
      <g id="website" transform="translate(3 2)">
        <path id="Path" d="M0,0V26.313a2.413,2.413,0,0,0,2.415,2.415H16.268c-1.271-2.952.188-7.192,4.373-7.192s5.644,4.239,4.37,7.192H38.753a2.413,2.413,0,0,0,2.415-2.415V0Z" transform="translate(2.441 13.001)" fill="#eeefee"/>
        <path id="Path-2" data-name="Path" d="M4.719,0V26.313A2.413,2.413,0,0,1,2.3,28.727H0a2.413,2.413,0,0,0,2.415-2.415V0Z" transform="translate(38.889 13.001)" fill="#e1e6e9"/>
        <path id="Path-3" data-name="Path" d="M41.168,2.415v8.434H0V2.415A2.413,2.413,0,0,1,2.415,0H38.753a2.413,2.413,0,0,1,2.415,2.415Z" transform="translate(2.441 2.152)" fill="#9297ab"/>
        <path id="Path-4" data-name="Path" d="M41.147,2.415v8.434h-2.3v-6.3a2.413,2.413,0,0,0-2.415-2.415H.09A.394.394,0,0,0,0,2.138,2.4,2.4,0,0,1,2.394,0H38.732a2.413,2.413,0,0,1,2.415,2.415Z" transform="translate(2.461 2.152)" fill="#84879c"/>
        <path id="Path-5" data-name="Path" d="M2.678,1.342A1.337,1.337,0,1,1,2.288.394a1.339,1.339,0,0,1,.389.948Z" transform="translate(25.687 6.069)" fill="#eeefee"/>
        <path id="Shape" d="M.131,2.338A1.688,1.688,0,1,1,1.695,3.377h0A1.688,1.688,0,0,1,.131,2.338Z" transform="translate(25.334 5.723)" fill="#323c6b"/>
        <circle id="Oval-2" data-name="Oval" cx="1.342" cy="1.342" r="1.342" transform="translate(31.477 6.069)" fill="#eeefee"/>
        <path id="Shape-2" data-name="Shape" d="M0,1.687a1.688,1.688,0,1,1,1.686,1.69A1.689,1.689,0,0,1,0,1.687Z" transform="translate(31.133 5.723)" fill="#323c6b"/>
        <path id="Path-6" data-name="Path" d="M2.678,1.342a1.34,1.34,0,1,1-.392-.95,1.339,1.339,0,0,1,.392.95Z" transform="translate(37.276 6.069)" fill="#eeefee"/>
        <path id="Shape-3" data-name="Shape" d="M0,1.688A1.688,1.688,0,1,1,1.688,3.377,1.688,1.688,0,0,1,0,1.688Z" transform="translate(36.923 5.723)" fill="#323c6b"/>
        <path id="Path-7" data-name="Path" d="M16.259.692H.346A.346.346,0,0,1,.346,0H16.259a.346.346,0,0,1,0,.692Z" transform="translate(5.749 7.065)" fill="#323c6b"/>
        <path id="Path-8" data-name="Path" d="M0,0H32.865V9.352H0Z" transform="translate(6.592 16.653)" fill="#89c5cd"/>
        <path id="Path-9" data-name="Path" d="M32.865,0V9.354H30.921V1.74H0V0Z" transform="translate(6.592 16.654)" fill="#6eaaad"/>
        <path id="Shape-4" data-name="Shape" d="M.346,11.541A.346.346,0,0,1,0,11.2V2.76A2.767,2.767,0,0,1,2.76,0H39.1A2.768,2.768,0,0,1,41.86,2.76V11.2a.346.346,0,0,1-.347.346Z" transform="translate(2.095 1.806)" fill="#323c6b"/>
        <path id="Shape-5" data-name="Shape" d="M2.76,29.421A2.768,2.768,0,0,1,0,26.66V.346A.346.346,0,0,1,.346,0H41.513a.346.346,0,0,1,.347.346V26.659a2.768,2.768,0,0,1-2.761,2.76H25.358a.345.345,0,0,1-.317-.484,5.238,5.238,0,0,0-.374-4.837,4.158,4.158,0,0,0-3.678-1.868A4.16,4.16,0,0,0,17.312,24.1a5.24,5.24,0,0,0-.38,4.838.347.347,0,0,1-.318.485Z" transform="translate(2.095 12.655)" fill="#323c6b"/>
        <path id="Shape-6" data-name="Shape" d="M8.545,20.3l-.34-2.86a7.293,7.293,0,0,1-1.83-.761L4.111,18.466,1.836,16.191l1.783-2.266a7.278,7.278,0,0,1-.756-1.83L0,11.758V8.545L2.863,8.2a7.26,7.26,0,0,1,.756-1.827L1.836,4.111,4.111,1.836,6.377,3.619A7.26,7.26,0,0,1,8.2,2.863L8.545,0h3.212l.34,2.863a7.26,7.26,0,0,1,1.827.756L16.19,1.836l2.275,2.275L16.683,6.377A7.291,7.291,0,0,1,17.438,8.2l2.863.34v3.21l-2.863.34a7.294,7.294,0,0,1-.755,1.832l1.783,2.263-2.275,2.275-2.263-1.783a7.293,7.293,0,0,1-1.83.761l-.34,2.86Z" transform="translate(12.874 29.149)" fill="#f56b55"/>
        <path id="Shape-7" data-name="Shape" d="M13.464,15.367a7.137,7.137,0,0,0,.754-1.826l.893-.1c-.083.167-.173.332-.263.491l1.785,2.263L15.222,17.6Zm3.619-5.383-2.865-.338a7.067,7.067,0,0,0-.754-1.827L15.25,5.549,12.973,3.28,10.7,5.058A7.3,7.3,0,0,0,8.877,4.3L8.538,1.439h-2L6.711,0h3.21l.339,2.865a7.074,7.074,0,0,1,1.826.754l2.27-1.786,2.276,2.276-1.785,2.27A7.067,7.067,0,0,1,15.6,8.206l2.864.338v3.21l-1.383.167ZM.893,3.28l-.865.865L0,4.109,2.276,1.833l2.27,1.786a5.248,5.248,0,0,1,.561-.291L4.989,4.3a7.316,7.316,0,0,0-1.827.754Z" transform="translate(14.708 29.15)" fill="rgba(0,0,0,0.2)"/>
        <g id="Group">
          <path id="Shape-8" data-name="Shape" d="M.346,10.044A.346.346,0,0,1,0,9.7V.346A.346.346,0,0,1,.346,0H33.211a.346.346,0,0,1,.346.346V9.7a.346.346,0,0,1-.346.346Z" transform="translate(6.246 16.307)" fill="#323c6b"/>
          <path id="Shape-9" data-name="Shape" d="M8.541,20.69l-.313-2.63a7.7,7.7,0,0,1-1.482-.614L4.667,19.084a.346.346,0,0,1-.459-.027L1.934,16.782a.346.346,0,0,1-.027-.459l1.639-2.083a7.688,7.688,0,0,1-.612-1.482L.305,12.446A.347.347,0,0,1,0,12.1V8.891a.347.347,0,0,1,.305-.346l2.629-.313a7.69,7.69,0,0,1,.612-1.479L1.907,4.672a.346.346,0,0,1,.027-.459L4.208,1.938a.346.346,0,0,1,.458-.027L6.752,3.55a7.63,7.63,0,0,1,1.479-.611L8.545.305A.346.346,0,0,1,8.89,0H12.1a.347.347,0,0,1,.346.305l.313,2.633a7.661,7.661,0,0,1,1.48.611l2.084-1.639a.346.346,0,0,1,.458.027l2.275,2.275a.348.348,0,0,1,.027.459l-1.64,2.083a7.713,7.713,0,0,1,.612,1.479l2.629.313a.345.345,0,0,1,.305.346v3.212a.346.346,0,0,1-.305.346l-2.629.312a7.632,7.632,0,0,1-.612,1.482l1.633,2.076a.348.348,0,0,1-.027.459l-2.275,2.274a.346.346,0,0,1-.459.027l-2.08-1.639a7.739,7.739,0,0,1-1.483.615l-.313,2.629A.347.347,0,0,1,12.1,21H8.886A.347.347,0,0,1,8.541,20.69Z" transform="translate(12.531 28.803)" fill="#323c6b"/>
          <path id="Path-10" data-name="Path" d="M3.28,5.818a.346.346,0,0,1-.346-.346v-.92A4.161,4.161,0,0,0,.22.668.346.346,0,0,1,.459.019,4.856,4.856,0,0,1,3.626,4.552v.92a.346.346,0,0,1-.346.346Z" transform="translate(42.404 0.015)" fill="#323c6b"/>
          <path id="Path-11" data-name="Path" d="M.346,1.124A.346.346,0,0,1,0,.778V.346a.346.346,0,0,1,.692,0V.778A.346.346,0,0,1,.346,1.124Z" transform="translate(45.338 6.611)" fill="#323c6b"/>
          <path id="Path-12" data-name="Path" d="M.994.7H.424L.34.692A.346.346,0,0,1,0,.34.369.369,0,0,1,.346,0H.991a.346.346,0,0,1,0,.692Z" transform="translate(4.431 43.454)" fill="#323c6b"/>
          <path id="Path-13" data-name="Path" d="M3.244,5.739a.341.341,0,0,1-.123-.023A4.865,4.865,0,0,1,0,1.2V.346a.346.346,0,0,1,.692,0V1.2A4.169,4.169,0,0,0,3.366,5.068a.346.346,0,0,1-.123.669Z" transform="translate(0.019 38.114)" fill="#323c6b"/>
        </g>
        <path id="Path-14" data-name="Path" d="M6.866,1.059.53,1.068A.53.53,0,0,1,.53.008L6.874,0a.509.509,0,0,1,.342.13.531.531,0,0,1-.35.929Z" transform="translate(8.516 22.936)" fill="#fff"/>
        <path id="Path-15" data-name="Path" d="M.53,0h.34a.484.484,0,0,1,.35.138.5.5,0,0,1,.179.4.527.527,0,0,1-.529.521H.53A.53.53,0,0,1,.53,0Z" transform="translate(16.648 22.938)" fill="#fff"/>
      </g>
    </g>
  </g>
</svg>
