<?xml version="1.0" encoding="UTF-8"?>
<svg width="63px" height="61px" viewBox="0 0 63 61" version="1.1" xmlns="http://www.w3.org/2000/svg" xmlns:xlink="http://www.w3.org/1999/xlink">
    <title>Group 17</title>
    <g id="Page-1" stroke="none" stroke-width="1" fill="none" fill-rule="evenodd">
        <g id="Layout-2.3-Copy-2" transform="translate(-1062.000000, -1405.000000)">
            <g id="Group-17" transform="translate(1062.000000, 1405.000000)">
                <circle id="Oval" fill-opacity="0.279092002" fill="#ABAEEF" cx="36" cy="34" r="27"></circle>
                <g id="Group" fill-rule="nonzero">
                    <g id="website" transform="translate(3.000000, 2.000000)">
                        <path d="M2.44053968,13.0012975 L2.44053968,39.3139465 C2.43998922,39.9545344 2.69421761,40.5690439 3.14718179,41.0220081 C3.60014597,41.4749722 4.21465546,41.7292006 4.85524332,41.7286502 L18.7089949,41.7286502 C17.4379894,38.7763465 18.8971895,34.5371248 23.0824436,34.5371248 C27.2676977,34.5371248 28.7268977,38.7763465 27.4524328,41.7286502 L41.193406,41.7286502 C41.8339939,41.7292006 42.4485034,41.4749722 42.9014675,41.0220081 C43.3544317,40.5690439 43.6086601,39.9545344 43.6081097,39.3139465 L43.6081097,13.0012975 L2.44053968,13.0012975 Z" id="Path" fill="#EEEFEE"></path>
                        <path d="M43.6081097,13.0012975 L43.6081097,39.3139465 C43.6086601,39.9545344 43.3544317,40.5690439 42.9014675,41.0220081 C42.4485034,41.4749722 41.8339939,41.7292006 41.193406,41.7286502 L38.889406,41.7286502 C39.5299938,41.7292006 40.1445033,41.4749722 40.5974675,41.0220081 C41.0504317,40.5690439 41.3046601,39.9545344 41.3041087,39.3139465 L41.3041087,13.0012975 L43.6081097,13.0012975 Z" id="Path" fill="#E1E6E9"></path>
                        <path d="M43.6081097,4.5671352 L43.6081097,13.0012975 L2.44053968,13.0012975 L2.44053968,4.5671352 C2.43998922,3.92654735 2.69421761,3.31203786 3.14718179,2.85907368 C3.60014597,2.4061095 4.21465546,2.1518811 4.85524332,2.15243157 L41.193406,2.15243157 C41.8339939,2.1518811 42.4485034,2.4061095 42.9014675,2.85907368 C43.3544317,3.31203786 43.6086601,3.92654735 43.6081097,4.5671352 Z" id="Path" fill="#9297AB"></path>
                        <path d="M43.6081097,4.5671352 L43.6081097,13.0012975 L41.3041087,13.0012975 L41.3041087,6.69816226 C41.3046601,6.05757441 41.0504317,5.44306492 40.5974675,4.99010074 C40.1445033,4.53713655 39.5299938,4.28290816 38.889406,4.28345952 L2.55124328,4.28345952 C2.52109523,4.28231174 2.49091516,4.28463328 2.46129733,4.29037844 C2.59597219,3.07082612 3.62828253,2.14890734 4.85524332,2.15242239 L41.193406,2.15242239 C41.8339939,2.1518811 42.4485034,2.4061095 42.9014675,2.85907368 C43.3544317,3.31203786 43.6086601,3.92654735 43.6081097,4.5671352 Z" id="Path" fill="#84879C"></path>
                        <path d="M28.3643552,7.41081092 C28.3624333,8.15021209 27.7614803,8.74806478 27.0220791,8.74615793 C26.2826779,8.74424194 25.6848239,8.14329022 25.6867291,7.40388905 C25.6886434,6.66448787 26.2895938,6.0666325 27.028995,6.06853608 C27.3841836,6.06908955 27.7245656,6.21090445 27.9750723,6.46270917 C28.2255791,6.7145139 28.365633,7.05562421 28.3643552,7.41081092 L28.3643552,7.41081092 Z" id="Path" fill="#EEEFEE"></path>
                        <path d="M27.0283031,9.09903873 C26.3449224,9.10154785 25.7274289,8.69182919 25.464162,8.06118974 C25.200895,7.43055029 25.3437905,6.70339941 25.8261233,6.21928094 C26.3084561,5.73516248 27.035074,5.58958087 27.666682,5.8505156 C28.29829,6.11145033 28.7102923,6.72742553 28.7102923,7.41081092 C28.7091621,8.34029067 27.9577723,9.09446225 27.0283031,9.09903873 L27.0283031,9.09903873 Z M27.0283031,6.41446699 C26.6247704,6.41196445 26.2595677,6.65310546 26.1033916,7.02519957 C25.9472156,7.39729368 26.030913,7.82684787 26.3153634,8.11308722 C26.5998137,8.39932657 27.0288347,8.4857154 27.4019007,8.33187532 C27.7749666,8.17803523 28.0184004,7.81435147 28.0184004,7.41081092 C28.0180335,6.86313462 27.5759663,6.41828713 27.0283031,6.41446699 L27.0283031,6.41446699 Z" id="Shape" fill="#323C6B"></path>
                        <circle id="Oval" fill="#EEEFEE" cx="32.8194383" cy="7.41081092" r="1.34227029"></circle>
                        <path d="M32.8194383,9.09902716 C31.8873333,9.09788113 31.1325345,8.34153425 31.1332977,7.40942884 C31.1340621,6.47732342 31.8900994,5.72221456 32.822205,5.72259595 C33.7543107,5.72297764 34.5097302,6.47870519 34.5097302,7.41081092 C34.5085849,8.34352267 33.7521508,9.09902716 32.8194383,9.09902716 L32.8194383,9.09902716 Z M32.8194383,6.41448562 C32.2694552,6.41563238 31.8244272,6.86220808 31.8251896,7.41219182 C31.8259541,7.96217557 32.2722203,8.407514 32.8222045,8.4071331 C33.3721886,8.40675172 33.8178383,7.9607952 33.8178383,7.41081092 C33.817655,7.14626575 33.7123416,6.89263866 33.5250853,6.70577169 C33.337829,6.51890472 33.0839833,6.41411935 32.8194383,6.41448562 L32.8194383,6.41448562 Z" id="Shape" fill="#323C6B"></path>
                        <path d="M39.9535386,7.41081092 C39.951625,8.14931158 39.3520776,8.74679423 38.6135747,8.74615782 C37.8750719,8.7455204 37.276556,8.14700448 37.2759185,7.40850163 C37.2752821,6.66999877 37.8727648,6.07045138 38.6112654,6.06853776 C38.967483,6.06780388 39.3093229,6.20898464 39.5612073,6.46086903 C39.8130917,6.71275342 39.9542725,7.05459336 39.9535386,7.41081092 L39.9535386,7.41081092 Z" id="Path" fill="#EEEFEE"></path>
                        <path d="M38.6105735,9.09902844 C37.6782876,9.09864508 36.9227946,8.34263581 36.9230492,7.41034985 C36.923304,6.47806388 37.67921,5.72246753 38.611496,5.72259484 C39.543782,5.72272215 40.2994823,6.47852492 40.2994823,7.41081092 C40.2998495,7.85878629 40.1220075,8.28850937 39.8051761,8.605211 C39.4883446,8.92191262 39.0585487,9.09957856 38.6105735,9.09902844 L38.6105735,9.09902844 Z M38.6105735,6.41448272 C38.060409,6.41486864 37.6146865,6.86110728 37.6149411,7.41127186 C37.6151959,7.96143645 38.0613313,8.40726226 38.6114959,8.40713502 C39.1616605,8.40700773 39.607592,7.96097556 39.607592,7.41081092 C39.6081431,7.14628007 39.5032561,6.89243446 39.3161392,6.70544743 C39.1290223,6.5184604 38.875104,6.41374966 38.6105735,6.41448272 L38.6105735,6.41448272 Z" id="Shape" fill="#323C6B"></path>
                        <path d="M22.0086274,7.75675687 L6.0951136,7.75675687 C5.90405293,7.75675687 5.74916765,7.60187159 5.74916765,7.41081092 C5.74916765,7.21975025 5.90405293,7.06486497 6.0951136,7.06486497 L22.0086274,7.06486497 C22.199688,7.06486497 22.3545733,7.21975025 22.3545733,7.41081092 C22.3545733,7.60187159 22.199688,7.75675687 22.0086274,7.75675687 Z" id="Path" fill="#323C6B"></path>
                        <polygon id="Path" fill="#89C5CD" points="6.59189199 16.653103 39.4567573 16.653103 39.4567573 26.0054058 6.59189199 26.0054058"></polygon>
                        <polygon id="Path" fill="#6EAAAD" points="39.4567573 16.6544867 39.4567573 26.0088653 37.5125411 26.0088653 37.5125411 18.3945949 6.59189199 18.3945949 6.59189199 16.6544867"></polygon>
                        <path d="M43.6081088,13.3472434 L2.44054058,13.3472434 C2.2494799,13.3472434 2.09459463,13.1923582 2.09459463,13.0012975 L2.09459463,4.5671352 C2.09839761,3.04404906 3.33215717,1.81028949 4.85524332,1.80648651 L41.193406,1.80648651 C42.7164922,1.81028949 43.9502517,3.04404906 43.9540547,4.5671352 L43.9540547,13.0012975 C43.9540547,13.1923582 43.7991694,13.3472434 43.6081088,13.3472434 L43.6081088,13.3472434 Z M2.78648653,12.6553515 L43.2621628,12.6553515 L43.2621628,4.5671352 C43.2606382,3.42522448 42.3353167,2.499903 41.193406,2.49837842 L4.85524332,2.49837842 C3.71333259,2.499903 2.78801111,3.42522448 2.78648653,4.5671352 L2.78648653,12.6553515 Z" id="Shape" fill="#323C6B"></path>
                        <path d="M41.193406,42.0745952 L27.4524328,42.0745952 C27.3356481,42.0747687 27.2266587,42.0160085 27.1626205,41.9183468 C27.0985823,41.820685 27.0881404,41.6973059 27.1348545,41.5902709 C27.8093538,40.0140962 27.669535,38.2075647 26.7605409,36.7539465 C25.9515905,35.5241111 24.552709,34.8136182 23.0824436,34.8858384 C21.6131748,34.8147578 20.2156497,35.5250963 19.4071138,36.7539465 C18.4966426,38.2072516 18.3547752,40.0140581 19.0272651,41.5916547 C19.0739792,41.6986897 19.0635373,41.8220688 18.9994991,41.9197306 C18.9354609,42.0173923 18.8264715,42.0759794 18.7096868,42.0759794 L4.85524332,42.0759794 C3.33215717,42.072176 2.09839761,40.8384165 2.09459463,39.3153303 L2.09459463,13.0012975 C2.09459463,12.8102368 2.2494799,12.6553515 2.44054058,12.6553515 L43.6081088,12.6553515 C43.7991694,12.6553515 43.9540547,12.8102368 43.9540547,13.0012975 L43.9540547,39.3139465 C43.9502517,40.8370327 42.7164922,42.0707922 41.193406,42.0745952 L41.193406,42.0745952 Z M27.9526707,41.3827033 L41.193406,41.3827033 C42.3353167,41.3811787 43.2606382,40.4558573 43.2621628,39.3139465 L43.2621628,13.3472434 L2.78648653,13.3472434 L2.78648653,39.3139465 C2.78801111,40.4558573 3.71333259,41.3811787 4.85524332,41.3827033 L18.208757,41.3827033 C17.6615035,39.7033774 17.8897036,37.867634 18.8314597,36.3734059 C19.7742945,34.9571173 21.384166,34.131099 23.0845193,34.1911789 C24.7859946,34.1302872 26.3972726,34.9563553 27.3410382,36.3734059 C28.2796323,37.869157 28.5037949,39.7050584 27.9526707,41.3827033 L27.9526707,41.3827033 Z" id="Shape" fill="#323C6B"></path>
                        <path d="M15.7366273,41.2443249 C15.9042097,41.8858203 16.1583951,42.5014983 16.4921732,43.074379 L14.7098597,45.340325 L16.9848003,47.6152656 L19.2479787,45.832952 C19.8206147,46.1685535 20.4362907,46.4246003 21.0780327,46.5940331 L21.4184436,49.4543143 L24.6308977,49.4543143 L24.9713085,46.5940331 C25.6130505,46.4246003 26.2287266,46.1685535 26.8013626,45.832952 L29.064541,47.6152656 L31.3394815,45.340325 L29.557168,43.0771466 C29.8909369,42.5033629 30.144895,41.8867406 30.3120221,41.2443249 L33.1750708,40.9039141 L33.1750708,37.6942276 L30.3120221,37.3538168 C30.1444397,36.7131974 29.8902475,36.0984339 29.5564761,35.5265303 L31.3387897,33.2605843 L29.0638491,30.9856437 L26.7979031,32.7679572 C26.2259956,32.4341936 25.6112332,32.1800018 24.9706166,32.0124113 L24.6302058,29.1493626 L21.4184436,29.1493626 L21.0780327,32.0124113 C20.4374161,32.1800018 19.8226537,32.4341936 19.2507462,32.7679572 L16.9848003,30.9856437 L14.7098597,33.2605843 L16.4921732,35.5265303 C16.1584019,36.0984339 15.9042096,36.7131974 15.7366273,37.3538168 L12.8735786,37.6942276 L12.8735786,40.9066817 L15.7366273,41.2443249 Z M19.0376435,39.298033 C19.0399357,37.0982083 20.8244965,35.3164342 23.0243221,35.3175794 C25.2241478,35.3187257 27.0068523,37.1023577 27.0068523,39.3021836 C27.0068523,41.5020096 25.2241503,43.2856427 23.0243247,43.2867901 C21.9669985,43.287157 20.9528621,42.8673457 20.2051546,42.1197681 C19.4574472,41.3721904 19.0374599,40.3581268 19.0376435,39.3008006 L19.0376435,39.298033 Z" id="Shape" fill="#F56B55"></path>
                        <path d="M19.2535138,32.7686491 L16.9841084,30.983568 L14.707784,33.2598924 L14.7354597,33.294487 L15.6003246,32.4296221 L17.86973,34.2077843 C18.4416813,33.8749367 19.0561514,33.6212351 19.6963246,33.4536221 L19.8139462,32.4780545 C19.6215892,32.5638262 19.434454,32.6608593 19.2535138,32.7686491 L19.2535138,32.7686491 Z M29.5557842,43.0778385 C29.6457302,42.9187033 29.7356761,42.7526493 29.8187031,42.5865952 L28.9261626,42.690379 C28.7603299,43.3311483 28.5065302,43.9458558 28.1720004,44.5169736 L29.9294059,46.7517845 L31.3408653,45.340325 L29.5557842,43.0778385 Z M30.3099464,37.3558924 C30.1453753,36.7147024 29.891505,36.0998238 29.5557842,35.5292978 L31.3408653,33.2598924 L29.064541,30.983568 L26.7951355,32.7686491 C26.2246218,32.4329037 25.6097397,32.1790319 24.9685409,32.014487 L24.6295139,29.1500545 L21.4191355,29.1500545 L21.2461625,30.5891896 L23.2457301,30.5891896 L23.5847571,33.4536221 C24.224933,33.621227 24.8394042,33.8749291 25.4113517,34.2077843 L27.6807572,32.4296221 L29.9570815,34.6990275 L28.1720004,36.968433 C28.5077212,37.538959 28.7615915,38.1538375 28.9261626,38.7950276 L31.7905951,39.1340546 L31.7905951,41.071352 L33.1743789,40.9052979 L33.1743789,37.6949195 L30.3099464,37.3558924 Z" id="Shape" fill-opacity="0.200038243" fill="#000000"></path>
                        <g id="Group" fill="#323C6B">
                            <path d="M39.4567573,26.3513517 L6.59189199,26.3513517 C6.40083132,26.3513517 6.24594604,26.1964665 6.24594604,26.0054058 L6.24594604,16.653103 C6.24594604,16.4620423 6.40083132,16.307157 6.59189199,16.307157 L39.4567573,16.307157 C39.647818,16.307157 39.8027033,16.4620423 39.8027033,16.653103 L39.8027033,26.0054058 C39.8027033,26.1964665 39.647818,26.3513517 39.4567573,26.3513517 Z M6.93783794,25.6594598 L39.1108114,25.6594598 L39.1108114,16.9990489 L6.93783794,16.9990489 L6.93783794,25.6594598 Z" id="Shape"></path>
                            <path d="M24.6302058,49.7975012 L21.4184436,49.7975012 C21.242252,49.7987231 21.0932844,49.6673337 21.0724976,49.4923683 L20.7590706,46.8631791 C20.2447272,46.7107266 19.7477727,46.5048024 19.2763462,46.2487791 L17.1985949,47.8864872 C17.060934,47.9950118 16.8638584,47.9834191 16.7398705,47.8595034 L14.4649299,45.5845628 C14.3410143,45.4605749 14.3294216,45.2634994 14.4379462,45.1258385 L16.0770381,43.0432439 C15.821764,42.5720434 15.6167588,42.0752999 15.4654056,41.5612114 L12.8362164,41.2484763 C12.661251,41.2276895 12.5298616,41.0787219 12.5310835,40.9025303 L12.5310835,37.6942276 C12.5298616,37.518036 12.661251,37.3690685 12.8362164,37.3482816 L15.4654056,37.0348546 C15.6172877,36.5220602 15.8222756,36.0265181 16.0770381,35.5562816 L14.4379462,33.4743789 C14.3294216,33.336718 14.3410143,33.1396425 14.4649299,33.0156545 L16.7398705,30.740714 C16.8635823,30.6169904 17.0601941,30.6051106 17.197903,30.7130383 L19.2825733,32.3521302 C19.7528901,32.0972084 20.2487032,31.8924362 20.7618381,31.7411897 L21.0752652,29.1078491 C21.096052,28.9328837 21.2450196,28.8014943 21.4212111,28.8027162 L24.6336652,28.8027162 C24.8098568,28.8014943 24.9588244,28.9328837 24.9796112,29.1078491 L25.2930382,31.7411897 C25.8061732,31.8924362 26.3019863,32.0972084 26.7723031,32.3521302 L28.8569734,30.7130383 C28.9946822,30.6051106 29.1912941,30.6169904 29.3150058,30.740714 L31.5899464,33.0156545 C31.7138621,33.1396425 31.7254548,33.336718 31.6169302,33.4743789 L29.9778383,35.5583573 C30.2326007,36.0285938 30.4375887,36.5241359 30.5894707,37.0369303 L33.21866,37.3503573 C33.3936253,37.3711441 33.5250147,37.5201117 33.5237929,37.6963033 L33.5237929,40.9087574 C33.5250147,41.0849489 33.3936253,41.2339165 33.21866,41.2547033 L30.5894707,41.5674385 C30.4381175,42.081527 30.2331123,42.5782704 29.9778383,43.0494709 L31.6107032,45.1258385 C31.7192278,45.2634994 31.7076351,45.4605749 31.5837194,45.5845628 L29.3087788,47.8595034 C29.1847909,47.9834191 28.9877154,47.9950118 28.8500545,47.8864872 L26.7695355,46.2473953 C26.298109,46.5034186 25.8011546,46.7093428 25.2868112,46.8617953 L24.9733842,49.4909845 C24.9533652,49.6654464 24.8058122,49.7972326 24.6302058,49.7975012 L24.6302058,49.7975012 Z M21.7242598,49.1056007 L24.321622,49.1056007 L24.6260544,46.5504439 C24.6429362,46.4095494 24.7441476,46.2932524 24.8813625,46.2570818 C25.4932737,46.096155 26.0805138,45.8529263 26.6270058,45.5340547 C26.7498354,45.4622265 26.904118,45.4729329 27.0158491,45.5610385 L29.0375572,47.1523899 L30.8772978,45.3119574 L29.2859464,43.2902493 C29.1978408,43.1785183 29.1871343,43.0242357 29.2589626,42.901406 C29.5765823,42.3554412 29.8186466,41.7689007 29.9785302,41.1578385 C30.0145518,41.0201387 30.131236,40.9185549 30.2725842,40.9018384 L32.8325843,40.5980979 L32.8325843,38.0014276 L30.2725842,37.697687 C30.131236,37.6809706 30.0145518,37.5793868 29.9785302,37.441687 C29.8183944,36.8315857 29.576337,36.245993 29.2589626,35.700887 C29.1874513,35.5782253 29.1981504,35.4243226 29.2859464,35.3127357 L30.8772978,33.28826 L29.0361734,31.4478275 L27.0110058,33.0391789 C26.8994189,33.1269748 26.7455162,33.137674 26.6228545,33.0661627 C26.0779285,32.7485906 25.4922761,32.5067413 24.8820544,32.347287 C24.7446258,32.3110227 24.6433621,32.1943911 24.6267463,32.0532329 L24.3223139,29.4932329 L21.7256436,29.4932329 L21.4212111,32.0532329 C21.4045953,32.1943911 21.3033317,32.3110227 21.165903,32.347287 C20.5561238,32.5070779 19.9709428,32.7491576 19.4264868,33.0668545 C19.303825,33.1383659 19.1499223,33.1276667 19.0383354,33.0398708 L17.0131678,31.4485194 L15.1706597,33.2875681 L16.7620111,35.3120438 C16.849807,35.4236307 16.8605062,35.5775334 16.7889948,35.7001951 C16.4722734,36.2447244 16.2306872,36.8296049 16.0708111,37.4389195 C16.0347894,37.5766192 15.9181053,37.6782031 15.776757,37.6949195 L13.216757,37.99866 L13.216757,40.5967141 L15.776757,40.9004547 C15.9181053,40.9171711 16.0347894,41.0187549 16.0708111,41.1564547 C16.2306947,41.767517 16.472759,42.3540574 16.7903786,42.9000223 C16.8622069,43.0228519 16.8515004,43.1771345 16.7633948,43.2888655 L15.1720435,45.3105736 L17.011784,47.1510061 L19.0334922,45.5596547 C19.1452232,45.4715491 19.2995058,45.4608427 19.4223354,45.5326709 C19.968431,45.8511872 20.5551968,46.0941794 21.1665949,46.2550061 C21.3038099,46.2911767 21.4050212,46.4074737 21.421903,46.5483683 L21.7242598,49.1056007 Z M23.0243247,43.632736 C21.2724374,43.6332955 19.6927281,42.5784517 19.0218574,40.9601063 C18.3509867,39.341761 18.7210811,37.4786434 19.9595556,36.2395752 C21.1980301,35.000507 23.0609701,34.6295197 24.6796368,35.2996147 C26.2983035,35.9697097 27.3539042,37.5489133 27.3541842,39.3008006 C27.3515175,41.6913468 25.4148693,43.6289234 23.0243247,43.632736 L23.0243247,43.632736 Z M23.0243247,35.6628327 C21.5520927,35.6622733 20.224541,36.5487676 19.6608837,37.9088255 C19.0972263,39.2688835 19.4085058,40.8345689 20.4495311,41.8755942 C21.4905564,42.9166194 23.0562418,43.2278989 24.4162997,42.6642416 C25.7763577,42.1005843 26.662852,40.7730325 26.6622926,39.3008006 C26.6592442,37.2928705 25.0322548,35.6658811 23.0243247,35.6628327 Z" id="Shape"></path>
                            <path d="M45.6837845,5.83260549 C45.4927238,5.83260549 45.3378385,5.67772021 45.3378385,5.48665954 L45.3378385,4.5671352 C45.3306871,2.8333288 44.2492001,1.28566938 42.6235466,0.682854064 C42.4483508,0.614021135 42.3603405,0.417745589 42.4254834,0.241144465 C42.4906262,0.064543341 42.6850125,-0.027564636 42.8629412,0.03385946 C44.7597925,0.737755037 46.0215087,2.54390854 46.0297304,4.5671352 L46.0297304,5.48665954 C46.0297304,5.67772021 45.8748451,5.83260549 45.6837845,5.83260549 L45.6837845,5.83260549 Z" id="Path"></path>
                            <path d="M45.6837845,7.73530822 C45.4927238,7.73530822 45.3378385,7.58042295 45.3378385,7.38936227 L45.3378385,6.95692983 C45.3378385,6.76586916 45.4927238,6.61098388 45.6837845,6.61098388 C45.8748451,6.61098388 46.0297304,6.76586916 46.0297304,6.95692983 L46.0297304,7.38936227 C46.0297304,7.58042295 45.8748451,7.73530822 45.6837845,7.73530822 Z" id="Path"></path>
                            <path d="M5.42467035,44.1502709 L4.85524332,44.1502709 L4.7708325,44.1461196 C4.58003328,44.1427096 4.42802983,43.9854433 4.43111358,43.7946385 C4.44498945,43.6105826 4.59280374,43.4651333 4.77705953,43.4542277 L4.83656223,43.4542277 L5.42190278,43.4542277 C5.61296346,43.4542277 5.76784873,43.609113 5.76784873,43.8001736 C5.76784873,43.9912343 5.61296346,44.1461196 5.42190278,44.1461196 L5.42467035,44.1502709 Z" id="Path"></path>
                            <path d="M3.26250816,43.8527577 C3.22039848,43.8527577 3.17864237,43.8450725 3.1393514,43.829925 C1.26827621,43.1110788 0.0295293027,41.3183291 0.0189189192,39.3139465 L0.0189189192,38.45946 C0.0189189192,38.2683994 0.173804197,38.1135141 0.36486487,38.1135141 C0.555925543,38.1135141 0.710810821,38.2683994 0.710810821,38.45946 L0.710810821,39.3139465 C0.720847941,41.0307946 1.78227994,42.5659576 3.38497302,43.1816223 C3.54070868,43.2411938 3.63179201,43.4033784 3.6016065,43.5673637 C3.57142099,43.731349 3.42855652,43.8504698 3.26181626,43.8506817 L3.26250816,43.8527577 Z" id="Path"></path>
                        </g>
                        <path d="M15.3816867,23.9954598 L9.04534068,24.0037625 C8.75282678,24.0037625 8.51569742,23.7666332 8.51569742,23.4741193 C8.51569742,23.1816054 8.75282678,22.944476 9.04534068,22.944476 L15.3892975,22.936167 C15.5156433,22.9355427 15.6377118,22.9819041 15.731784,23.066249 C15.8970554,23.2121485 15.9549117,23.4450334 15.8771336,23.6513144 C15.7993555,23.8575954 15.6021432,23.9943068 15.3816867,23.9947679 L15.3816867,23.9954598 Z" id="Path" fill="#FFFFFF"></path>
                        <path d="M17.1771462,22.938249 L17.5168651,22.938249 C17.6474495,22.9352788 17.7736975,22.9851793 17.8669624,23.0766274 C17.9847353,23.1751953 18.050785,23.322341 18.0461624,23.475849 C18.0431208,23.7655613 17.8065894,23.9983824 17.5168651,23.9968512 L17.1771462,23.9968512 C16.8846323,23.9968512 16.647503,23.7597142 16.647503,23.4672003 C16.647503,23.1746865 16.8846323,22.9375571 17.1771462,22.9375571 L17.1771462,22.938249 Z" id="Path" fill="#FFFFFF"></path>
                    </g>
                </g>
            </g>
        </g>
    </g>
</svg>