<?xml version="1.0" encoding="UTF-8"?>
<svg width="63px" height="61px" viewBox="0 0 63 61" version="1.1" xmlns="http://www.w3.org/2000/svg" xmlns:xlink="http://www.w3.org/1999/xlink">
    <title>Group 18</title>
    <g id="Page-1" stroke="none" stroke-width="1" fill="none" fill-rule="evenodd">
        <g id="Layout-2.3-Copy-2" transform="translate(-1062.000000, -1812.000000)">
            <g id="Group-18" transform="translate(1062.000000, 1812.000000)">
                <circle id="Oval" fill-opacity="0.279092002" fill="#ABAEEF" cx="36" cy="34" r="27"></circle>
                <g id="Group" fill-rule="nonzero">
                    <g id="user-(5)" transform="translate(3.000000, 1.000000)">
                        <path d="M5.82283252,6.78054064 C5.82283252,10.618465 8.19048661,12.7453407 11.113038,12.7453407 C14.0355894,12.7453407 16.399784,10.6156975 16.399784,6.78054064 L16.399784,6.3654055 C16.399784,2.52748112 14.0321299,0.400605411 11.113038,0.400605411 C8.19394607,0.400605411 5.82283252,2.5288649 5.82283252,6.3654055 L5.82283252,6.78054064 Z" id="Path" fill="#89C5CD"></path>
                        <path d="M29.4474815,6.78054064 C29.4474815,10.618465 31.8151356,12.7453407 34.737687,12.7453407 C37.6602384,12.7453407 40.024433,10.6191569 40.024433,6.78054064 L40.024433,6.3654055 C40.024433,2.52748112 37.6567789,0.400605411 34.737687,0.400605411 C31.8185951,0.400605411 29.4474815,2.5288649 29.4474815,6.3654055 L29.4474815,6.78054064 Z" id="Path" fill="#FCD462"></path>
                        <path d="M16.399784,6.3654055 L16.399784,6.78054064 C16.399784,9.06378392 15.5625948,10.7381623 14.268757,11.7137299 C14.7854467,10.6967625 15.0421733,9.56764064 15.0160002,8.42724337 L15.0160002,8.01210823 C15.0160002,4.17210817 12.6497299,2.04800003 9.72994609,2.04800003 C8.58393378,2.02887704 7.46499051,2.39698256 6.55416226,3.0927568 C7.43198397,1.39532592 9.20344845,0.349651139 11.1137299,0.401297303 C14.0335137,0.401297303 16.399784,2.52540544 16.399784,6.3654055 L16.399784,6.3654055 Z" id="Path" fill="#6EAAAD"></path>
                        <path d="M40.0209736,6.3654055 L40.0209736,6.78054064 C40.0209736,9.06378392 39.1837844,10.7381623 37.8899465,11.7137299 C38.4066362,10.6967625 38.6633629,9.56764064 38.6371898,8.42724337 L38.6371898,8.01210823 C38.6371898,4.17210817 36.2709195,2.04800003 33.3511356,2.04800003 C32.2106261,2.02979852 31.0970707,2.3952981 30.1891896,3.08583788 C31.063097,1.39222174 32.8298477,0.348843882 34.7349194,0.401297303 C37.6547033,0.401297303 40.0209736,2.52540544 40.0209736,6.3654055 L40.0209736,6.3654055 Z" id="Path" fill="#F7BE56"></path>
                        <path d="M34.7356113,33.5567573 L34.7356113,44.5301628 C34.7356112,45.3819679 35.0741314,46.1988549 35.6766431,46.8009774 C36.2791549,47.4030998 37.0962606,47.741092 37.9480654,47.740546 C39.7211085,47.740546 41.1584439,46.3032059 41.1584439,44.5301628 L41.1584439,28.7467248 C41.1584439,29.9313009 42.1187326,30.8915896 43.3033088,30.8915896 C44.4878849,30.8915896 45.4481737,29.9313009 45.4481737,28.7467248 L45.4481737,21.4970814 C45.4476355,19.6076493 44.6948332,17.7961839 43.3560794,16.4628828 C42.0173255,15.1295816 40.2028029,14.3841785 38.3133844,14.3912863 L34.7363032,19.1737084 L31.1578383,14.3912863 C29.2678216,14.3832563 27.4524082,15.1282519 26.1129046,16.4616533 C24.7734011,17.7950546 24.0201242,19.6070474 24.0195895,21.4970814 L24.0195895,28.7467248 C24.0195895,29.9313009 24.9798783,30.8915896 26.1644544,30.8915896 C27.3490306,30.8915896 28.3093193,29.9313009 28.3093193,28.7467248 L28.3093193,44.5301628 C28.3093181,45.382568 28.6483131,46.1999803 29.2515735,46.8022024 C29.854834,47.4044245 30.672829,47.7420109 31.5252329,47.740546 C33.2982759,47.740546 34.7356113,46.3032059 34.7356113,44.5301628 L34.7356113,33.5567573 Z" id="Path" fill="#FCD462"></path>
                        <g id="Group" transform="translate(2.267568, 0.100000)" fill="#323C6B">
                            <path d="M3.82095141,49.7356326 C3.78022292,49.7362295 3.73970152,49.7296712 3.70125411,49.716217 C1.55933711,48.9347674 0.103334986,46.9348155 0.0176216219,44.6564115 C0.0098189965,44.4655532 0.158182047,44.304491 0.349037843,44.2966277 C0.441184722,44.2909558 0.531659478,44.3231081 0.599562512,44.3856572 C0.667465547,44.4482064 0.706923506,44.5357422 0.708821632,44.6280439 C0.784652262,46.6257031 2.06135133,48.379011 3.93926492,49.0644548 C4.09628084,49.1224778 4.18922816,49.2845971 4.15997264,49.4494145 C4.13071713,49.6142319 3.98765269,49.7344585 3.82025952,49.734898 L3.82095141,49.7356326 Z" id="Path"></path>
                            <path d="M0.346962167,43.6621628 C0.155901494,43.6621628 0.00101621623,43.5072775 0.00101621623,43.3162169 L0.00101621623,42.8623358 C0.00101621623,42.6712751 0.155901494,42.5163898 0.346962167,42.5163898 C0.53802284,42.5163898 0.692908118,42.6712751 0.692908118,42.8623358 L0.692908118,43.3162169 C0.692908118,43.5072775 0.53802284,43.6621628 0.346962167,43.6621628 L0.346962167,43.6621628 Z" id="Path"></path>
                            <path d="M39.8090168,6.06821658 C39.6245122,6.06844707 39.4722959,5.92384159 39.4630709,5.73956765 C39.4259019,3.834245 38.6972867,2.00742005 37.4129952,0.599502712 C37.2807812,0.461556906 37.2854277,0.242549123 37.4233735,0.110335137 C37.5613193,-0.021878849 37.7803271,-0.0172322906 37.9125411,0.120713515 C39.3131791,1.64816437 40.1102294,3.63304357 40.1549628,5.70497306 C40.1596701,5.79663893 40.127756,5.88641806 40.0662465,5.95454567 C40.004737,6.02267328 39.9186747,6.06356419 39.827006,6.06821658 L39.8090168,6.06821658 Z" id="Path"></path>
                            <path d="M39.7592006,8.14389203 L39.7218384,8.14389203 C39.531939,8.12323026 39.3947255,7.95256518 39.4153303,7.76265958 L39.42986,7.63673525 C39.4423141,7.53156768 39.4547682,7.42916768 39.4609952,7.31777308 C39.4760745,7.12887529 39.6376622,6.98561511 39.827006,6.99327578 C40.0176666,7.00477623 40.1629282,7.16862141 40.1515033,7.3592866 C40.1445844,7.48036768 40.1307465,7.5979893 40.1169087,7.71630282 L40.1030709,7.83669201 C40.0833469,8.01169048 39.9353071,8.1439434 39.7592006,8.14389203 L39.7592006,8.14389203 Z" id="Path"></path>
                        </g>
                        <path d="M11.1109623,33.5567573 L11.1109623,44.5301628 C11.1109621,45.3819679 11.4494824,46.1988549 12.0519941,46.8009774 C12.6545059,47.4030998 13.4716116,47.741092 14.3234164,47.7405449 C16.0964595,47.7405449 17.5337949,46.3032059 17.5337949,44.5301628 L17.5337949,28.7467248 C17.5337949,29.9313009 18.4940836,30.8915896 19.6786598,30.8915896 C20.8632359,30.8915896 21.8235246,29.9313009 21.8235246,28.7467248 L21.8235246,21.4970814 C21.8229846,19.6080103 21.0704671,17.7968612 19.732163,16.4636201 C18.3938589,15.1303789 16.5798706,14.3847316 14.690811,14.3912802 L11.1137299,19.1737084 L7.53526498,14.3912802 C5.645009,14.3828873 3.82923925,15.1277198 2.48943577,16.4611612 C1.14963229,17.7946026 0.3961655,19.6068065 0.395632438,21.4970814 L0.395632438,28.7467248 C0.395632438,29.9313009 1.35592116,30.8915896 2.54049734,30.8915896 C3.72507351,30.8915896 4.68536223,29.9313009 4.68536223,28.7467248 L4.68536223,44.5301628 C4.68536126,45.3824479 5.02426135,46.1997551 5.627372,46.8019572 C6.23048266,47.4041594 7.04829976,47.741827 7.9005839,47.7405449 C8.7520292,47.7405449 9.56860151,47.4023059 10.1706643,46.8002432 C10.772727,46.1981804 11.1109623,45.3816081 11.1109623,44.5301628 L11.1109623,33.5567573 Z" id="Path" fill="#89C5CD"></path>
                        <path d="M41.1556763,29.5209518 C40.1392335,29.5209518 39.3152438,30.3449415 39.3152438,31.3613843 L39.3152438,45.5680007 C39.3166582,46.3516522 39.0283442,47.1081684 38.5057303,47.6921088 C40.0379413,47.4184656 41.1541298,46.0866167 41.1556763,44.5301628 L41.1556763,29.5209518 Z" id="Path" fill="#F7BE56"></path>
                        <path d="M45.452325,21.4970814 L45.452325,28.7481085 C45.4496617,29.9315798 44.4909313,30.8903101 43.3074601,30.8929734 L43.2936223,30.8929734 C43.4982924,30.5600803 43.6061117,30.1767231 43.6049736,29.7859464 L43.6049736,22.5349193 C43.6072115,18.9894949 40.9934747,15.9859127 37.4817303,15.4983786 L38.3120006,14.3912706 C40.2024881,14.3823325 42.0186509,15.1269641 43.358685,16.4605058 C44.698719,17.7940474 45.4521625,19.6065723 45.452325,21.4970814 L45.452325,21.4970814 Z" id="Path" fill="#F7BE56"></path>
                        <path d="M17.5344867,29.5209518 C17.0445387,29.5209518 16.5746576,29.7155829 16.2282121,30.0620285 C15.8817665,30.4084741 15.6871354,30.8783551 15.6871354,31.3683032 L15.6871354,45.5680007 C15.6885498,46.3516522 15.4002358,47.1081684 14.8776218,47.6921088 C16.4131812,47.4224733 17.5334679,46.0892153 17.5344867,44.5301628 L17.5344867,29.5209518 Z" id="Path" fill="#6EAAAD"></path>
                        <path d="M21.8311355,21.4970814 L21.8311355,28.7481085 C21.8284636,29.9342784 20.865524,30.8941218 19.6793516,30.8929745 L19.6724327,30.8929745 C19.8771367,30.5600951 19.9849587,30.1767281 19.9837841,29.7859464 L19.9837841,22.5349193 C19.9839165,18.9902824 17.3712145,15.9878892 13.8605407,15.4983786 L14.690811,14.3912706 C16.5812986,14.3823325 18.3974614,15.1269641 19.7374954,16.4605058 C21.0775295,17.7940474 21.8309729,19.6065723 21.8311355,21.4970814 L21.8311355,21.4970814 Z" id="Path" fill="#6EAAAD"></path>
                        <path d="M11.113038,13.0885191 C7.74144876,13.0885191 5.47688657,10.5520434 5.47688657,6.77777307 L5.47688657,6.3654055 C5.47688657,2.59044328 7.74144876,0.0546594603 11.113038,0.0546594603 C14.4846272,0.0546594603 16.74573,2.59251896 16.74573,6.3654055 L16.74573,6.78054064 C16.74573,10.5520434 14.4832435,13.0885191 11.113038,13.0885191 L11.113038,13.0885191 Z M11.113038,0.748627038 C8.15589201,0.748627038 6.16877847,3.00696221 6.16877847,6.36748118 L6.16877847,6.78054064 C6.16877847,10.1410596 8.15589201,12.3993948 11.113038,12.3993948 C14.070184,12.3993948 16.0538381,10.138292 16.0538381,6.78054064 L16.0538381,6.3654055 C16.0538381,3.00627032 14.0681083,0.747935146 11.113038,0.747935146 L11.113038,0.748627038 Z" id="Shape" fill="#323C6B"></path>
                        <path d="M34.737687,13.0885191 C31.3660978,13.0885191 29.1015356,10.5520434 29.1015356,6.77777307 L29.1015356,6.3654055 C29.1015356,2.59044328 31.3660978,0.0546594603 34.737687,0.0546594603 C38.1092762,0.0546594603 40.370379,2.59113517 40.370379,6.3654055 L40.370379,6.78054064 C40.3696871,10.5520434 38.1065087,13.0885191 34.737687,13.0885191 Z M34.737687,0.748627038 C31.780541,0.748627038 29.7934275,3.00696221 29.7934275,6.36748118 L29.7934275,6.78054064 C29.7934275,10.1410596 31.780541,12.3993948 34.737687,12.3993948 C37.694833,12.3993948 39.6784871,10.1417515 39.6784871,6.78054064 L39.6784871,6.3654055 C39.6777952,3.00627032 37.6927573,0.747935146 34.737687,0.747935146 L34.737687,0.748627038 Z" id="Shape" fill="#323C6B"></path>
                        <path d="M37.9480654,48.0867471 C36.5759276,48.0852916 35.3265328,47.2958743 34.7363032,46.0571683 C34.0224187,47.5585966 32.363582,48.3650899 30.7418424,47.9991955 C29.1201027,47.633301 27.9682596,46.1926665 27.9682166,44.5301628 L27.9682166,30.4674599 C27.2654395,31.205439 26.1840044,31.4408821 25.2380401,31.0618563 C24.2920759,30.6828305 23.6724114,29.7657966 23.6736418,28.7467248 L23.6736418,21.4970814 C23.6743599,19.5147521 24.4646184,17.6143472 25.8697086,16.2160085 C27.2747989,14.8176698 29.178988,14.0365739 31.1612978,14.045116 C31.2701868,14.045116 31.3727211,14.0966728 31.4380545,14.183784 L34.737687,18.5952868 L38.0359357,14.183784 C38.1120889,14.0919277 38.2266748,14.0407733 38.3459033,14.045116 C42.4615279,14.0457873 45.7981268,17.381457 45.7996566,21.4970814 L45.7996566,28.7467248 C45.8008869,29.7657966 45.1812224,30.6828305 44.2352582,31.0618563 C43.2892939,31.4408821 42.2078588,31.205439 41.5050817,30.4674599 L41.5050817,44.5301628 C41.5027934,46.493588 39.911491,48.0845808 37.9480654,48.0867471 L37.9480654,48.0867471 Z M34.7356113,33.2108113 C34.926672,33.2108113 35.0815573,33.3656966 35.0815573,33.5567573 L35.0815573,44.5301628 C35.0815573,46.1123363 36.3641623,47.3949412 37.9463357,47.3949412 C39.5285091,47.3949412 40.8111141,46.1123363 40.8111141,44.5301628 L40.8111141,20.3416219 C40.8111141,20.1505613 40.9659994,19.995676 41.1570601,19.995676 C41.3481207,19.995676 41.503006,20.1505613 41.503006,20.3416219 L41.503006,28.7467248 C41.503006,29.7413866 42.3093388,30.5477194 43.3040006,30.5477194 C44.2986625,30.5477194 45.1049953,29.7413866 45.1049953,28.7467248 L45.1049953,21.4970814 C45.1043149,17.8185275 42.1633943,14.8152042 38.4856654,14.7372975 L35.0137519,19.3792003 C34.9458112,19.4621686 34.8442316,19.5102792 34.7369951,19.5102792 C34.6297586,19.5102792 34.528179,19.4621686 34.4602384,19.3792003 L30.9876329,14.7372975 C27.3085499,14.8137263 24.3658712,17.8178966 24.3655355,21.4977733 L24.3655355,28.7467248 C24.3655355,29.7413866 25.1718683,30.5477194 26.1665301,30.5477194 C27.161192,30.5477194 27.9675247,29.7413866 27.9675247,28.7467248 L27.9675247,20.3416219 C27.9675247,20.1505613 28.12241,19.995676 28.3134707,19.995676 C28.5045314,19.995676 28.6594166,20.1505613 28.6594166,20.3416219 L28.6594166,44.5301628 C28.6594166,46.1123363 29.9420216,47.3949412 31.5241951,47.3949412 C33.1063685,47.3949412 34.3889735,46.1123363 34.3889735,44.5301628 L34.3889735,33.5567573 C34.3889735,33.3656966 34.5438588,33.2108113 34.7349194,33.2108113 L34.7356113,33.2108113 Z" id="Shape" fill="#323C6B"></path>
                        <path d="M14.3234164,48.0867474 C12.9512786,48.0852916 11.7018838,47.2958743 11.1116542,46.0571683 C10.3977141,47.5587136 8.73868629,48.3652001 7.11685586,47.9991194 C5.49502543,47.6330387 4.34328713,46.1921041 4.34356763,44.5294709 L4.34356763,30.4674599 C3.6407905,31.205439 2.55935538,31.4408821 1.61339114,31.0618563 C0.667426897,30.6828305 0.0477624325,29.7657966 0.0489927611,28.7467248 L0.0489927611,21.4970814 C0.0505225615,17.381457 3.38712142,14.0457873 7.50274606,14.0454056 C7.62220463,14.039564 7.73730711,14.090949 7.81271363,14.183784 L11.1123461,18.5952868 L14.4140543,14.183784 C14.4898732,14.0914883 14.6046894,14.0402311 14.7240218,14.0454056 C18.8385657,14.0473148 22.1734786,17.3825374 22.1750076,21.4970814 L22.1750076,28.7467248 C22.1762379,29.7657966 21.5565734,30.6828305 20.6106092,31.0618563 C19.6646449,31.4408821 18.5832098,31.205439 17.8804327,30.4674599 L17.8804327,44.5301628 C17.8781444,46.493588 16.286842,48.0845808 14.3234164,48.0867474 Z M11.1109623,33.2108113 C11.302023,33.2108113 11.4569083,33.3656966 11.4569083,33.5567573 L11.4569083,44.5301628 C11.4569083,46.1123362 12.7395133,47.3949412 14.3216867,47.3949412 C15.9038601,47.3949412 17.1864651,46.1123362 17.1864651,44.5301628 L17.1864651,20.3416219 C17.1864651,20.1505613 17.3413504,19.995676 17.5324111,19.995676 C17.7234717,19.995676 17.878357,20.1505613 17.878357,20.3416219 L17.878357,28.7467248 C17.878357,29.7413866 18.6846898,30.5477194 19.6793516,30.5477194 C20.6740135,30.5477194 21.4803463,29.7413866 21.4803463,28.7467248 L21.4803463,21.4970814 C21.4796659,17.8185275 18.5387453,14.8152042 14.8610164,14.7372975 L11.3891029,19.3792003 C11.3211622,19.4621686 11.2195826,19.5102792 11.1123461,19.5102792 C11.0051096,19.5102792 10.90353,19.4621686 10.8355894,19.3792003 L7.36298389,14.7372975 C3.68416989,14.8137206 0.741598658,17.8174738 0.740886498,21.4970814 L0.740886498,28.7467248 C0.740886498,29.7413866 1.54721927,30.5477193 2.54188112,30.5477193 C3.53654297,30.5477193 4.34287572,29.7413866 4.34287574,28.7467248 L4.34287574,20.3416219 C4.34287574,20.1505613 4.49776102,19.995676 4.68882169,19.995676 C4.87988236,19.995676 5.03476764,20.1505613 5.03476764,20.3416219 L5.03476764,44.5301628 C5.03476768,46.1123362 6.31737265,47.3949412 7.89954606,47.3949412 C9.48171947,47.3949412 10.7643245,46.1123362 10.7643245,44.5301628 L10.7643245,33.5567573 C10.7643245,33.3656966 10.9192098,33.2108113 11.1102704,33.2108113 L11.1109623,33.2108113 Z" id="Shape" fill="#323C6B"></path>
                        <path d="M30.1372977,39.6281087 L30.1372977,34.9841303 C30.1372977,34.7548574 30.3231601,34.5689951 30.5524329,34.5689951 C30.7817057,34.5689951 30.967568,34.7548574 30.967568,34.9841303 L30.967568,39.6281087 C30.967568,39.8573815 30.7817057,40.0432438 30.5524329,40.0432438 C30.3231601,40.0432438 30.1372977,39.8573815 30.1372977,39.6281087 L30.1372977,39.6281087 Z" id="Path" fill="#FFFFFF"></path>
                        <path d="M30.1372977,41.2782709 L30.1372977,41.0222709 C30.1372977,40.7929981 30.3231601,40.6071357 30.5524329,40.6071357 C30.7817057,40.6071357 30.967568,40.7929981 30.967568,41.0222709 L30.967568,41.2782709 C30.967568,41.5075437 30.7817057,41.693406 30.5524329,41.693406 C30.3231601,41.693406 30.1372977,41.5075437 30.1372977,41.2782709 L30.1372977,41.2782709 Z" id="Path" fill="#FFFFFF"></path>
                    </g>
                </g>
            </g>
        </g>
    </g>
</svg>