<svg xmlns="http://www.w3.org/2000/svg" width="63" height="61" viewBox="0 0 63 61">
  <g id="s9" transform="translate(-30 -40)">
    <circle id="Oval" cx="27" cy="27" r="27" transform="translate(39 47)" fill="rgba(171,174,239,0.28)"/>
    <g id="Rectangle" transform="translate(30 40)">
      <g id="web-browser" transform="translate(2 3)">
        <path id="Path" d="M44.888,0V29.564a3.444,3.444,0,0,1-3.442,3.442h-38A3.444,3.444,0,0,1,0,29.564V0Z" transform="translate(2.293 13.57)" fill="#eeefee"/>
        <path id="Path-2" data-name="Path" d="M0,0H9.415V5.564H0Z" transform="translate(19.482 16.563)" fill="#fcd462"/>
        <path id="Path-3" data-name="Path" d="M0,0H7.257V5.564H0Z" transform="translate(10.145 26.564)" fill="#27ccbc"/>
        <path id="Path-4" data-name="Path" d="M0,0H7.257V5.564H0Z" transform="translate(32.072 37.043)" fill="#fcd462"/>
        <path id="Path-5" data-name="Path" d="M0,0H5.1V5.1H0Z" transform="translate(32.088 29.573) rotate(-45)" fill="#89c5cd"/>
        <circle id="Oval-2" data-name="Oval" cx="2.782" cy="2.782" r="2.782" transform="translate(10.992 37.043)" fill="#fe7058"/>
        <path id="Path-6" data-name="Path" d="M9.412,0V5.561H7.953V1.212H0V0Z" transform="translate(19.483 16.564)" fill="#f7be56"/>
        <path id="Path-7" data-name="Path" d="M7.259,0V5.561H5.97V1.218H0V0Z" transform="translate(10.143 26.566)" fill="#21b3a9"/>
        <path id="Path-8" data-name="Path" d="M7.26,0V5.568H5.97V1.225H0V0Z" transform="translate(32.071 37.041)" fill="#f7be56"/>
        <path id="Path-9" data-name="Path" d="M4.576,3.6l-3.6,3.6L.953,7.188,3.585,4.557,0,.972.972,0Z" transform="translate(34.728 25.97)" fill="#6eaaad"/>
        <path id="Path-10" data-name="Path" d="M5.133,2.786A2.772,2.772,0,0,1,3.72,5.2a2.745,2.745,0,0,0,.421-1.465A2.781,2.781,0,0,0,1.361.952,2.748,2.748,0,0,0,0,1.309,2.777,2.777,0,0,1,5.133,2.786Z" transform="translate(11.42 37.043)" fill="#ea6453"/>
        <path id="Path-11" data-name="Path" d="M4.653.692H.346A.346.346,0,0,1,.346,0H4.653a.346.346,0,0,1,0,.692Z" transform="translate(14.829 18.997)" fill="#323c6b"/>
        <path id="Path-12" data-name="Path" d="M.346,6.513A.346.346,0,0,1,0,6.167V.346a.346.346,0,0,1,.692,0V6.167A.346.346,0,0,1,.346,6.513Z" transform="translate(13.43 20.396)" fill="#323c6b"/>
        <circle id="Oval-3" data-name="Oval" cx="1.399" cy="1.399" r="1.399" transform="translate(23.04 28.175)" fill="#fe7058"/>
        <path id="Shape" d="M0,1.745A1.745,1.745,0,1,1,1.745,3.49,1.745,1.745,0,0,1,0,1.745Z" transform="translate(22.694 27.83)" fill="#323c6b"/>
        <path id="Path-13" data-name="Path" d="M6.6.692H.346A.346.346,0,0,1,.346,0H6.6a.346.346,0,0,1,0,.692Z" transform="translate(25.492 29.228)" fill="#323c6b"/>
        <path id="Path-14" data-name="Path" d="M.346,6.739A.346.346,0,0,1,0,6.393V.346a.346.346,0,0,1,.692,0V6.393A.346.346,0,0,1,.346,6.739Z" transform="translate(24.093 21.781)" fill="#323c6b"/>
        <path id="Path-15" data-name="Path" d="M.346,5.6A.346.346,0,0,1,0,5.258V.346a.346.346,0,0,1,.692,0V5.258A.346.346,0,0,1,.346,5.6Z" transform="translate(13.428 31.785)" fill="#323c6b"/>
        <path id="Path-16" data-name="Path" d="M6.58.692H.346A.346.346,0,0,1,.346,0H6.58a.346.346,0,0,1,0,.692Z" transform="translate(16.21 39.478)" fill="#323c6b"/>
        <path id="Path-17" data-name="Path" d="M6.85.692H.346A.346.346,0,0,1,.346,0h6.5a.346.346,0,0,1,0,.692Z" transform="translate(25.243 39.478)" fill="#323c6b"/>
        <path id="Path-18" data-name="Path" d="M.346,4.558A.346.346,0,0,1,0,4.212V.346a.346.346,0,0,1,.692,0V4.212A.346.346,0,0,1,.346,4.558Z" transform="translate(35.353 32.831)" fill="#323c6b"/>
        <circle id="Oval-4" data-name="Oval" cx="1.399" cy="1.399" r="1.399" transform="translate(22.79 38.424)" fill="#84879c"/>
        <path id="Shape-2" data-name="Shape" d="M0,1.745A1.745,1.745,0,1,1,1.745,3.49,1.745,1.745,0,0,1,0,1.745Z" transform="translate(22.444 38.079)" fill="#323c6b"/>
        <circle id="Oval-5" data-name="Oval" cx="1.399" cy="1.399" r="1.399" transform="translate(12.377 17.944)" fill="#84879c"/>
        <path id="Shape-3" data-name="Shape" d="M0,1.742A1.743,1.743,0,1,1,1.741,3.486,1.743,1.743,0,0,1,0,1.742Z" transform="translate(12.035 17.602)" fill="#323c6b"/>
        <path id="Path-19" data-name="Path" d="M44.888,3.442v7.791H0V3.442A3.444,3.444,0,0,1,3.442,0h38a3.444,3.444,0,0,1,3.442,3.442Z" transform="translate(2.293 2.336)" fill="#fe7058"/>
        <path id="Path-20" data-name="Path" d="M3.312,0V29.564A3.439,3.439,0,0,1,0,33a3.394,3.394,0,0,0,1.07-2.483V0Z" transform="translate(43.868 13.57)" fill="#e1e6e9"/>
        <path id="Path-21" data-name="Path" d="M44.657,3.439v7.791H42.414V5.514a3.444,3.444,0,0,0-3.442-3.442h-38A3.2,3.2,0,0,0,0,2.214,3.428,3.428,0,0,1,3.208,0H41.215a3.444,3.444,0,0,1,3.442,3.439Z" transform="translate(2.524 2.339)" fill="#ea6453"/>
        <circle id="Oval-6" data-name="Oval" cx="1.519" cy="1.519" r="1.519" transform="translate(39.868 6.433)" fill="#eeefee"/>
        <path id="Shape-4" data-name="Shape" d="M0,1.868A1.868,1.868,0,1,1,1.868,3.736,1.868,1.868,0,0,1,0,1.868Z" transform="translate(39.519 6.082)" fill="#323c6b"/>
        <circle id="Oval-7" data-name="Oval" cx="1.519" cy="1.519" r="1.519" transform="translate(33.831 6.433)" fill="#eeefee"/>
        <path id="Shape-5" data-name="Shape" d="M0,1.868A1.868,1.868,0,1,1,1.868,3.736,1.868,1.868,0,0,1,0,1.868Z" transform="translate(33.482 6.082)" fill="#323c6b"/>
        <circle id="Oval-8" data-name="Oval" cx="1.519" cy="1.519" r="1.519" transform="translate(27.794 6.433)" fill="#eeefee"/>
        <g id="Group" transform="translate(1.876 1.976)">
          <path id="Shape-6" data-name="Shape" d="M0,1.868A1.868,1.868,0,1,1,1.868,3.736,1.868,1.868,0,0,1,0,1.868Z" transform="translate(25.569 4.106)" fill="#323c6b"/>
          <path id="Path-22" data-name="Path" d="M17,.692H.346A.346.346,0,0,1,.346,0H17a.346.346,0,1,1,0,.692Z" transform="translate(4.345 5.631)" fill="#323c6b"/>
          <path id="Shape-7" data-name="Shape" d="M3.788,33.7A3.792,3.792,0,0,1,0,29.91V.346A.346.346,0,0,1,.346,0H45.234a.346.346,0,0,1,.346.346V29.91A3.791,3.791,0,0,1,41.792,33.7Z" transform="translate(0.071 11.248)" fill="#323c6b"/>
          <path id="Shape-8" data-name="Shape" d="M.346,11.925A.346.346,0,0,1,0,11.579V3.788A3.792,3.792,0,0,1,3.788,0h38a3.792,3.792,0,0,1,3.788,3.788v7.791a.346.346,0,0,1-.346.346Z" transform="translate(0.072 0.014)" fill="#323c6b"/>
          <path id="Shape-9" data-name="Shape" d="M.346,6.256A.346.346,0,0,1,0,5.91V.346A.346.346,0,0,1,.346,0H9.762a.346.346,0,0,1,.346.346V5.91a.346.346,0,0,1-.346.346Z" transform="translate(17.26 14.241)" fill="#323c6b"/>
          <path id="Shape-10" data-name="Shape" d="M.346,6.256A.346.346,0,0,1,0,5.91V.346A.346.346,0,0,1,.346,0H7.6a.346.346,0,0,1,.346.346V5.91a.346.346,0,0,1-.346.346Z" transform="translate(7.926 24.243)" fill="#323c6b"/>
          <path id="Shape-11" data-name="Shape" d="M.346,6.257A.346.346,0,0,1,0,5.911V.346A.346.346,0,0,1,.346,0H7.6a.346.346,0,0,1,.346.346V5.91a.346.346,0,0,1-.346.346Z" transform="translate(29.85 34.722)" fill="#323c6b"/>
          <path id="Shape-12" data-name="Shape" d="M3.705,7.8.1,4.195a.345.345,0,0,1,0-.49L3.705.1a.345.345,0,0,1,.49,0l3.6,3.6a.347.347,0,0,1,0,.49l-3.6,3.6a.346.346,0,0,1-.245.1h0A.342.342,0,0,1,3.705,7.8Z" transform="translate(29.873 23.648)" fill="#323c6b"/>
          <path id="Shape-13" data-name="Shape" d="M0,3.128A3.128,3.128,0,1,1,3.128,6.256,3.128,3.128,0,0,1,0,3.128Z" transform="translate(8.77 34.723)" fill="#323c6b"/>
        </g>
        <path id="Path-23" data-name="Path" d="M6.4.4A.393.393,0,0,1,6,.79l-5.61,0A.393.393,0,1,1,.393,0L6,0A.393.393,0,0,1,6.4.4Z" transform="translate(11.676 11.214)" fill="#fff"/>
        <path id="Path-24" data-name="Path" d="M1.007.394A.393.393,0,0,1,.613.786H.393A.393.393,0,1,1,.393,0h.22a.394.394,0,0,1,.394.394Z" transform="translate(18.724 11.223)" fill="#fff"/>
        <path id="Path-25" data-name="Path" d="M.346,1.07A.346.346,0,0,1,0,.724V.346a.346.346,0,0,1,.692,0V.724A.346.346,0,0,1,.346,1.07Z" transform="translate(0.002 36.021)" fill="#323c6b"/>
        <path id="Path-26" data-name="Path" d="M.346,5.718A.346.346,0,0,1,0,5.373V.346a.346.346,0,0,1,.692,0V5.369a.346.346,0,0,1-.346.349Z" transform="translate(0.002 29.59)" fill="#323c6b"/>
        <path id="Path-27" data-name="Path" d="M.94.692H.346A.346.346,0,0,1,.346,0H.94a.346.346,0,0,1,0,.692Z" transform="translate(32.439 0.046)" fill="#323c6b"/>
        <path id="Path-28" data-name="Path" d="M6.477.692H.346A.346.346,0,0,1,.346,0H6.477a.346.346,0,1,1,0,.692Z" transform="translate(34.843 0.046)" fill="#323c6b"/>
      </g>
    </g>
  </g>
</svg>
