<?xml version="1.0" encoding="UTF-8"?>
<svg width="54px" height="56px" viewBox="0 0 54 56" version="1.1" xmlns="http://www.w3.org/2000/svg" xmlns:xlink="http://www.w3.org/1999/xlink">
    <title>Rectangle Copy 24</title>
    <g id="Page-1" stroke="none" stroke-width="1" fill="none" fill-rule="evenodd">
        <g id="Layout-2-Copy" transform="translate(-1097.000000, -4026.000000)" fill-rule="nonzero">
            <g id="Group" transform="translate(1095.000000, 4025.000000)">
                <g id="eco-services" transform="translate(2.230769, 1.115385)">
                    <path d="M52.9584382,32.3248113 L52.9584382,25.7219272 L45.9612023,24.631479 C45.4693071,22.4671663 44.6136621,20.4020322 43.4307142,18.5240427 L47.607293,12.8040127 L42.9383532,8.13507289 L37.2183232,12.3116517 C35.3403406,11.1286905 33.2752041,10.2730445 31.110887,9.78116356 L30.0212104,2.78469942 L23.4183263,2.78469942 L22.3271064,9.78193528 C20.1627892,10.2738162 18.0976527,11.1294623 16.2196701,12.3124235 L10.4996401,8.13584461 L5.83070029,12.8047844 L10.0065074,18.5240427 C8.82354622,20.4020253 7.96790021,22.4671618 7.47601924,24.631479 L0.481098552,25.7219272 L0.481098552,32.3248113 L7.47833441,33.4160313 C7.96958063,35.5799342 8.82443785,37.6447953 10.0065074,39.5226958 L5.83224375,45.2427258 L10.5011835,49.9116656 L16.2204418,45.7374019 C18.0984244,46.9203631 20.1635609,47.7760091 22.3278781,48.2678901 L23.4190981,55.265126 L30.0219822,55.265126 L31.1132021,48.2678901 C33.2769836,47.7758436 35.3415854,46.9202029 37.2190949,45.7374019 L42.939125,49.9139808 L47.6080647,45.245041 L43.4314859,39.525011 C44.6144338,37.6470215 45.4700788,35.5818874 45.9619741,33.4175747 L52.9584382,32.3248113 Z" id="Path" fill="#FE7058"></path>
                    <path d="M31.110887,9.78425046 C33.3341644,10.4709606 35.4660328,11.4245616 37.4598733,12.6242006 L35.9550084,13.7200509 C33.7401589,12.2780187 31.3289032,11.1629721 28.7957102,10.4093482 L27.7075771,3.40979714 L23.3164586,3.40979714 L23.4167829,2.78469942 L30.0227539,2.78469942 L31.110887,9.78425046 Z" id="Path" fill-opacity="0.350988855" fill="#000000"></path>
                    <path d="M43.4276273,39.5188372 L47.6103799,45.245041 L42.9414401,49.9139808 L41.9613487,49.196276 L45.2952032,45.8624215 L41.1124505,40.1439349 C42.3737769,38.0391769 43.3028021,35.7524056 43.8667391,33.3643257 L46.1124606,33.0170491 C45.5447302,35.3054079 44.6398917,37.4966308 43.4276273,39.5188372 L43.4276273,39.5188372 Z" id="Path" fill-opacity="0.245164991" fill="#000000"></path>
                    <path d="M52.9584382,25.7203838 L52.9584382,32.3263547 L50.6432615,32.6890658 L50.6432615,26.3454815 L43.6437104,25.2573484 C43.1540427,23.0907539 42.2979854,21.0236888 41.1124505,19.1452818 L45.2952032,13.4267952 L41.2436439,9.3752359 L42.9414401,8.13275771 L47.6103799,12.8016975 L43.4276273,18.5279013 C44.614425,20.4028718 45.4706076,22.4676291 45.9588872,24.6322507 L52.9584382,25.7203838 Z" id="Path" fill-opacity="0.350988855" fill="#000000"></path>
                    <circle id="Oval" fill="#FFFFFF" cx="26.7197684" cy="29.0233692" r="11.7811628"></circle>
                    <path d="M26.7205401,41.1903948 C20.0008774,41.1903948 14.5535146,35.7430319 14.5535146,29.0233692 C14.5535146,22.3037066 20.0008774,16.8563437 26.7205401,16.8563437 C33.4402028,16.8563437 38.8875657,22.3037066 38.8875657,29.0233692 C38.8799106,35.7398585 33.4370294,41.1827397 26.7205401,41.1903948 L26.7205401,41.1903948 Z M26.7205401,17.6280693 C20.4270897,17.6280693 15.3252401,22.7299189 15.3252401,29.0233692 C15.3252401,35.3168196 20.4270897,40.4186692 26.7205401,40.4186692 C33.0139905,40.4186692 38.1158401,35.3168196 38.1158401,29.0233692 C38.1086104,22.7329159 33.0109934,17.635299 26.7205401,17.6280693 L26.7205401,17.6280693 Z" id="Shape" fill="#323C6B"></path>
                    <circle id="Oval" fill="#FFFFFF" cx="26.7197684" cy="29.0233692" r="11.7811628"></circle>
                    <path d="M26.7205401,41.1903948 C20.0008774,41.1903948 14.5535146,35.7430319 14.5535146,29.0233692 C14.5535146,22.3037066 20.0008774,16.8563437 26.7205401,16.8563437 C33.4402028,16.8563437 38.8875657,22.3037066 38.8875657,29.0233692 C38.8799106,35.7398585 33.4370294,41.1827397 26.7205401,41.1903948 L26.7205401,41.1903948 Z M26.7205401,17.6280693 C20.4270897,17.6280693 15.3252401,22.7299189 15.3252401,29.0233692 C15.3252401,35.3168196 20.4270897,40.4186692 26.7205401,40.4186692 C33.0139905,40.4186692 38.1158401,35.3168196 38.1158401,29.0233692 C38.1086104,22.7329159 33.0109934,17.635299 26.7205401,17.6280693 L26.7205401,17.6280693 Z" id="Shape" fill="#323C6B"></path>
                    <path d="M35.4734517,36.9621103 L31.1255497,30.5953743 C32.4604669,28.3500199 32.3718753,25.5342367 30.898449,23.3772399 C29.4250227,21.2202432 26.8342785,20.1136593 24.257192,20.5405616 L26.8301251,24.2965501 L26.4280561,26.4365451 L24.2502465,27.9167148 L22.1179687,27.5146457 L19.5527529,23.7578856 C18.2225565,26.0028669 18.3136301,28.8152304 19.786287,30.9694461 C21.2589438,33.1236617 23.8463916,34.2294633 26.4211106,33.804981 L30.7165352,40.0960879 C32.5253244,39.4375758 34.1545504,38.3642002 35.4734517,36.9621103 L35.4734517,36.9621103 Z" id="Path" fill="#E1E6E9"></path>
                    <path d="M35.4734517,36.9644255 C35.1013437,37.3625099 34.7016275,37.7338592 34.277277,38.0757103 L29.5851855,31.2999597 C30.7338141,29.3647779 30.8365442,26.9828389 29.8587948,24.955949 C28.8810455,22.9290591 26.9528644,21.5268093 24.7233143,21.2212236 L24.2602789,20.5421051 C26.8364593,20.1190678 29.4244551,21.2266811 30.8969453,23.3824729 C32.3694355,25.5382647 32.4597845,28.3518686 31.1286366,30.5976894 L35.4734517,36.9644255 Z" id="Path" fill="#EEEFEE"></path>
                    <g id="Group" fill="#323C6B">
                        <path d="M47.7014435,48.7262957 C47.5451623,48.7265747 47.4041451,48.6325591 47.344301,48.4881894 C47.2844569,48.3438198 47.3176051,48.1776092 47.4282527,48.0672415 L47.8627342,47.6335317 C48.0141386,47.4873004 48.2548035,47.4893917 48.4036438,47.638232 C48.5524841,47.7870724 48.5545754,48.0277373 48.4083442,48.1791417 L47.9746344,48.6136232 C47.9021302,48.6859446 47.8038506,48.726478 47.7014435,48.7262957 L47.7014435,48.7262957 Z" id="Path"></path>
                        <path d="M43.175273,53.335812 C43.0931053,53.3349848 43.0133473,53.3079481 42.9476139,53.2586395 L40.2581503,51.2938261 C40.0859605,51.1680935 40.0482996,50.9265797 40.1740322,50.75439 C40.2997648,50.5822002 40.5412786,50.5445392 40.7134684,50.6702719 L43.1397736,52.4413821 L46.3679017,49.2101671 C46.5193061,49.0639358 46.759971,49.0660271 46.9088114,49.2148674 C47.0576517,49.3637077 47.059743,49.6043726 46.9135117,49.755777 L43.4484638,53.2208249 C43.3763403,53.2939959 43.2780135,53.335382 43.175273,53.335812 L43.175273,53.335812 Z" id="Path"></path>
                        <path d="M20.4139986,6.96899553 C20.3941034,6.96893294 20.3742406,6.96738519 20.3545758,6.96436518 C20.1440353,6.93153305 19.9999635,6.73425492 20.0327662,6.52370987 L20.1246015,5.93256807 C20.1611064,5.7258395 20.3561816,5.58622337 20.5636357,5.61834937 C20.7710899,5.65047537 20.9147992,5.84255508 20.8870664,6.05064209 L20.7952311,6.64178388 C20.7662898,6.82997503 20.6044022,6.96892308 20.4139986,6.96899553 L20.4139986,6.96899553 Z" id="Path"></path>
                        <path d="M20.7844269,4.59362441 C20.7621934,4.59362441 20.7399956,4.59184078 20.7180585,4.58822211 C20.6171109,4.57070514 20.5272743,4.51375968 20.4683545,4.42994009 C20.4094347,4.34612049 20.3862696,4.24230929 20.4039662,4.14139299 L21.0560743,0.403154268 C21.088347,0.218318368 21.2489029,0.0834904485 21.436535,0.083659717 L24.2147471,0.083659717 C24.4278533,0.083659717 24.6006099,0.256416533 24.6006099,0.469522668 C24.6006099,0.682628803 24.4278533,0.85538546 24.2147471,0.85538546 L21.7606598,0.85538546 L21.1641159,4.27412979 C21.1318934,4.45867866 20.9717676,4.59341866 20.7844269,4.59362441 L20.7844269,4.59362441 Z" id="Path"></path>
                        <path d="M30.0212104,55.6479026 L23.4183263,55.6479026 C23.2281734,55.6479026 23.0663774,55.5093465 23.0370939,55.3214619 L21.9867754,48.5812107 C19.9578853,48.0930747 18.0181168,47.2897204 16.2381915,46.2004373 L10.7280708,50.2234427 C10.5746099,50.3354461 10.3624549,50.3190761 10.2279927,50.1848565 L5.55905289,45.5159167 C5.42483324,45.3814544 5.40846326,45.1692995 5.52046661,45.0158385 L9.54347208,39.5057178 C8.45390793,37.7258458 7.65029155,35.7860732 7.16192693,33.757134 L0.421675682,32.7060437 C0.23379115,32.6767602 0.0952357603,32.5149642 0.0952357603,32.3248113 L0.0952357603,25.7219272 C0.0952357603,25.5317743 0.23379115,25.3699783 0.421675682,25.3406948 L7.16192693,24.2903762 C7.65021519,22.2611697 8.45383384,20.3211311 9.54347208,18.5410207 L5.52046661,13.0316717 C5.40846326,12.8782108 5.42483324,12.6660558 5.55905289,12.5315935 L10.2279927,7.86265376 C10.3624549,7.7284341 10.5746099,7.71206412 10.7280708,7.82406748 L16.2381915,11.8478447 C18.0181504,10.7584512 19.9578954,9.95484631 21.9867754,9.46629952 L23.0370939,2.72604827 C23.0663774,2.53816374 23.2281734,2.39960835 23.4183263,2.39960835 L30.0212104,2.39960835 C30.2113633,2.39960835 30.3731593,2.53816374 30.4024429,2.72604827 L31.4535331,9.46629952 C33.4825413,9.95483195 35.4223273,10.7587143 37.202117,11.8486164 L42.7122376,7.8248392 C42.8656986,7.71283585 43.0778535,7.72920583 43.2123158,7.86342548 L47.8812556,12.5323653 C48.0154753,12.6668275 48.0318452,12.8789825 47.9198419,13.0324434 L43.8960647,18.5417924 C44.9856288,20.3216644 45.7892452,22.261437 46.2776098,24.2903762 L53.0178611,25.3406948 C53.2057456,25.3699783 53.344301,25.5317743 53.344301,25.7219272 L53.344301,32.3248113 C53.344301,32.5149642 53.2057456,32.6767602 53.0178611,32.7060437 L46.2776098,33.7563622 C45.7892452,35.7853015 44.9856288,37.7250741 43.8960647,39.5049461 L47.9198419,45.0142951 C48.0318452,45.167756 48.0154753,45.379911 47.8812556,45.5143732 L43.2123158,50.183313 C43.0778535,50.3175327 42.8656986,50.3339026 42.7122376,50.2218993 L37.2013453,46.2004373 C35.4216596,47.2898249 33.4821694,48.0934322 31.4535331,48.5819824 L30.4032146,55.3214619 C30.3738863,55.5096357 30.2116556,55.6479026 30.0212104,55.6479026 L30.0212104,55.6479026 Z M23.7486249,54.8761763 L29.6909119,54.8761763 L30.731198,48.2069238 C30.7553982,48.0506094 30.8725475,47.9248957 31.0267689,47.8897446 C33.1497885,47.4081725 35.1754016,46.5689079 37.0169028,45.4078751 C37.1509416,45.3235293 37.3229086,45.3296491 37.4506126,45.4233096 L42.9036256,49.4054136 L47.1048997,45.2041396 L43.1227957,39.7511266 C43.0293746,39.6232619 43.0235609,39.4512991 43.1081329,39.3174168 C44.2664632,37.4764249 45.1033624,35.451896 45.5830568,33.3303697 C45.6182079,33.1761483 45.7439216,33.0589991 45.900236,33.0347988 L52.5718037,31.9945127 L52.5718037,26.0522258 L45.900236,25.0119397 C45.7439216,24.9877394 45.6182079,24.8705902 45.5830568,24.7163688 C45.1026548,22.5938434 44.2646993,20.5685017 43.105046,18.7270065 C43.020474,18.5931243 43.0262877,18.4211614 43.1197088,18.2932967 L47.1018128,12.8402838 L42.9005387,8.63900969 L37.4475257,12.6211137 C37.319661,12.7145348 37.1476982,12.7203485 37.0138159,12.6357765 C35.1728309,11.4774327 33.1482997,10.6405326 31.0267689,10.1608525 C30.8725475,10.1257014 30.7553982,9.99998771 30.731198,9.84367333 L29.6909119,3.17056221 L23.7486249,3.17056221 L22.7091105,9.84135815 C22.6846209,9.99737567 22.5675301,10.1227209 22.4135396,10.1577656 C20.2919811,10.6397426 18.2677454,11.4787162 16.4272643,12.6388634 C16.293382,12.7234354 16.1214192,12.7176217 15.9935545,12.6242006 L10.5405415,8.64209659 L6.33849573,12.8433707 L10.3205997,18.2963836 C10.4142602,18.4240877 10.4203801,18.5960546 10.3360342,18.7300934 C9.17566324,20.5706483 8.33691886,22.5952217 7.85570823,24.7171405 C7.82055712,24.8713619 7.69484339,24.9885112 7.53852901,25.0127114 L0.867733069,26.0522258 L0.867733069,31.9945127 L7.53698556,33.0340271 C7.69329994,33.0582273 7.81901367,33.1753766 7.85416477,33.329598 C8.33537541,35.4515168 9.17411979,37.4760902 10.3344908,39.3166451 C10.4188366,39.4506839 10.4127168,39.6226508 10.3190563,39.7503549 L6.33695228,45.2033678 L10.5382264,49.4046419 L15.9912393,45.4225379 C16.1189434,45.3288774 16.2909103,45.3227576 16.4249491,45.4071034 C18.2652744,46.5673807 20.2895781,47.4061214 22.4112245,47.8874294 C22.5654458,47.9225805 22.6825951,48.0482942 22.7067953,48.2046086 L23.7486249,54.8761763 Z" id="Shape"></path>
                        <path d="M30.71422,40.4819649 C30.5867075,40.4819649 30.4674144,40.4190112 30.3954973,40.3137145 L26.2366682,34.2217128 C23.5446817,34.5690887 20.890214,33.3512413 19.3977563,31.0840776 C17.9052985,28.8169139 17.8360583,25.8972296 19.2193674,23.5618673 C19.2863689,23.4480893 19.4068965,23.3764715 19.5388618,23.3720228 C19.6715562,23.3649416 19.7979857,23.4290384 19.8707038,23.540259 L22.3456278,27.1673692 L24.164585,27.5100154 L26.0776927,26.2096578 L26.4203389,24.3845268 L23.9384694,20.7574165 C23.8638693,20.6484906 23.8501377,20.5089854 23.9020685,20.387605 C23.9539993,20.2662246 24.0643829,20.1798202 24.1946823,20.1585575 C26.8758558,19.7144721 29.5752907,20.8398806 31.1469896,23.0570107 C32.7186884,25.2741408 32.8868546,28.1939375 31.5800961,30.5768528 L35.7921743,36.7452554 C35.8940255,36.8947888 35.8783031,37.0950095 35.7543598,37.2268122 C34.3932155,38.6709242 32.7139413,39.7775803 30.8500437,40.4587989 C30.8064993,40.4745057 30.7605089,40.482345 30.71422,40.4819649 L30.71422,40.4819649 Z M26.4195671,33.4191182 C26.5470796,33.4190895 26.6663727,33.4820577 26.7382898,33.5873543 L30.8608479,39.626107 C32.4054929,39.0193582 33.8070473,38.0979538 34.9764604,36.9204371 L30.8091422,30.8122291 C30.7246184,30.6883736 30.7195024,30.5267663 30.7960229,30.3978125 C31.9962055,28.3779448 31.9785038,25.8593992 30.7500477,23.8566013 C29.5215916,21.8538034 27.2846291,20.6964857 24.9401692,20.8507953 L27.1503913,24.0781517 C27.2083427,24.1626916 27.2302779,24.2668146 27.2113576,24.3675488 L26.8092885,26.5075438 C26.7903506,26.6083805 26.7320331,26.697523 26.6472262,26.7552678 L24.4694166,28.2346657 C24.384969,28.2921448 24.2811747,28.3137917 24.1807912,28.2948603 L22.0454265,27.893563 C21.9449978,27.8746245 21.856184,27.8166181 21.7984743,27.7322723 L19.5959695,24.5064594 C18.6041891,26.6332146 18.8707246,29.1341722 20.2884492,31.0041382 C21.7061737,32.8741043 24.042279,33.8060067 26.3578291,33.425292 C26.3779341,33.421473 26.3983329,33.4194073 26.4187954,33.4191182 L26.4195671,33.4191182 Z" id="Shape"></path>
                    </g>
                    <path d="M12.9390646,35.2488795 C12.7366224,35.2486723 12.554083,35.1269794 12.4760293,34.9401893 C11.0100738,31.4258911 10.9057995,27.4915293 12.1835453,23.9045135 C12.2756072,23.6430322 12.5622104,23.5056907 12.8236917,23.5977526 C13.0851729,23.6898144 13.2225144,23.9764177 13.1304526,24.2378989 C11.9352299,27.5908819 12.0320775,31.2688903 13.4021,34.5543265 C13.4661931,34.709152 13.4488753,34.8857406 13.3559256,35.0251652 C13.2629759,35.1645897 13.1066317,35.2484941 12.9390646,35.2488795 L12.9390646,35.2488795 Z" id="Path" fill="#FFFFFF"></path>
                    <path d="M13.551043,22.5146539 C13.4701733,22.5140506 13.3906803,22.4936474 13.3195254,22.4552128 C13.202024,22.3928051 13.1141819,22.2862104 13.0753806,22.1589479 C13.0365793,22.0316854 13.0500077,21.8942142 13.1127029,21.776866 C13.3118081,21.4033508 13.5410106,21.0228901 13.8319511,20.5799196 C13.9284942,20.4258398 14.1008578,20.336067 14.2824514,20.345284 C14.4640449,20.354501 14.6264331,20.4612645 14.7068792,20.6243277 C14.7873253,20.7873909 14.7732324,20.9812201 14.6700451,21.1309317 C14.3968543,21.5476635 14.1823146,21.9026573 13.9978721,22.2491621 C13.9099602,22.4139318 13.7377916,22.5162219 13.551043,22.5146539 L13.551043,22.5146539 Z" id="Path" fill="#FFFFFF"></path>
                </g>
            </g>
        </g>
    </g>
</svg>