<?xml version="1.0" encoding="UTF-8"?>
<svg width="59px" height="62px" viewBox="0 0 59 62" version="1.1" xmlns="http://www.w3.org/2000/svg" xmlns:xlink="http://www.w3.org/1999/xlink">
    <title>Rectangle Copy 30</title>
    <g id="Page-1" stroke="none" stroke-width="1" fill="none" fill-rule="evenodd">
        <g id="Layout-2-Copy" transform="translate(-693.000000, -4022.000000)">
            <g id="Group" transform="translate(690.000000, 4018.000000)">
                <g id="organization-chart" transform="translate(3.807692, 4.096154)">
                    <path d="M23.5368696,13.7379541 C23.5368696,14.6467541 22.8517388,15.3832425 22.0066849,15.3832425 C21.1616311,15.3832425 20.4765003,14.646481 20.4765003,13.7379541 C20.4765003,12.829154 21.1616311,12.0926655 22.0066849,12.0926655 C22.8517388,12.0923925 23.5368696,12.829154 23.5368696,13.7379541 Z" id="Path" fill="#F8E4C8"></path>
                    <path d="M22.0064311,15.7928579 C20.9527157,15.7928579 20.0954772,14.8709502 20.0954772,13.7379541 C20.0954772,12.6049579 20.9527157,11.6830502 22.0064311,11.6830502 C23.0601465,11.6830502 23.917385,12.6049579 23.917385,13.7379541 C23.917385,14.8709502 23.0604003,15.7928579 22.0064311,15.7928579 Z M22.0064311,12.5020079 C21.3725772,12.5020079 20.8570157,13.056354 20.8570157,13.737681 C20.8570157,14.4190079 21.3725772,14.9733541 22.0064311,14.9733541 C22.640285,14.9733541 23.1558466,14.4190079 23.1558466,13.737681 C23.1561003,13.056354 22.640285,12.5020079 22.0064311,12.5020079 L22.0064311,12.5020079 Z" id="Shape" fill="#3A312A" fill-rule="nonzero"></path>
                    <ellipse id="Oval" fill="#F8E4C8" cx="35.3630544" cy="13.7379541" rx="1.53018464" ry="1.64528849"></ellipse>
                    <path d="M35.3633082,15.7928579 C34.3095928,15.7928579 33.4521005,14.8709502 33.4521005,13.7379541 C33.4521005,12.6049579 34.309339,11.6830502 35.3633082,11.6830502 C36.4170236,11.6830502 37.2742621,12.6049579 37.2742621,13.7379541 C37.2742621,14.8709502 36.4170236,15.7928579 35.3633082,15.7928579 Z M35.3633082,12.5020079 C34.7294544,12.5020079 34.213639,13.056354 34.213639,13.737681 C34.213639,14.4190079 34.7294544,14.9733541 35.3633082,14.9733541 C35.9971621,14.9733541 36.5127236,14.4190079 36.5127236,13.737681 C36.5127236,13.056354 35.9971621,12.5020079 35.3633082,12.5020079 L35.3633082,12.5020079 Z" id="Shape" fill="#3A312A" fill-rule="nonzero"></path>
                    <path d="M35.4686544,12.939204 C35.4686544,16.9676349 31.8602312,23.1509157 28.6848697,23.1509157 C25.6536927,23.1509157 21.9010849,16.9676349 21.9010849,12.939204 C21.9010849,8.91077321 24.9383542,5.64504624 28.6848697,5.64504624 C32.4313851,5.64504624 35.4686544,8.91077321 35.4686544,12.939204 Z" id="Path" fill="#F8E4C8" fill-rule="nonzero"></path>
                    <path d="M28.6848697,23.560258 C27.1483389,23.560258 25.3836004,22.1855888 23.843008,19.7885195 C22.4103003,17.5593926 21.5203157,14.9348502 21.5203157,12.939204 C21.5203157,8.69121936 24.7345158,5.23543085 28.6851235,5.23543085 C32.6357313,5.23543085 35.8496775,8.69121936 35.8496775,12.939204 C35.8494236,17.2295156 32.0754928,23.560258 28.6848697,23.560258 Z M28.6848697,6.05466163 C25.1541235,6.05466163 22.2816003,9.1428886 22.2816003,12.939204 C22.2816003,16.6639733 25.8588004,22.7410273 28.6848697,22.7410273 C31.591662,22.7410273 35.0878851,16.7205002 35.0878851,12.939204 C35.0878851,9.1428886 32.2156159,6.05466163 28.6848697,6.05466163 Z" id="Shape" fill="#3A312A" fill-rule="nonzero"></path>
                    <path d="M8.29086935,3.20319236 C8.29086935,3.20319236 9.15597706,6.66007318 11.6472233,6.82036933 C11.6472233,6.82036933 8.32183859,8.05604243 8.26573858,10.6986079 C8.26573858,10.6986079 7.61106934,6.9924078 4.984777,6.85941933 C4.984777,6.85941933 8.0436232,6.36105394 8.29086935,3.20319236 Z" id="Path" fill="#D6DF58" fill-rule="nonzero"></path>
                    <path d="M8.26548474,11.1082232 C8.08449243,11.1082232 7.92660012,10.9700463 7.89182319,10.7758886 C7.88573089,10.741754 7.25847703,7.38481934 4.96675392,7.26848857 C4.77129238,7.2586578 4.6146693,7.09098857 4.60451545,6.88044626 C4.59436161,6.67017702 4.73423084,6.48612317 4.92766161,6.45417317 C5.03960777,6.43560394 7.69306165,5.95826547 7.91136935,3.16851159 C7.92685396,2.97025774 8.07230781,2.8132385 8.25634628,2.79521543 C8.44368474,2.77965004 8.60995397,2.9044462 8.65818474,3.0961462 C8.66630782,3.12782312 9.48546937,6.27093855 11.6698156,6.41184625 C11.8510617,6.42358856 11.999054,6.57132317 12.0241848,6.76466164 C12.0490617,6.9580001 11.9432079,7.14369241 11.7718617,7.20759242 C11.7411463,7.21906165 8.69575398,8.38482705 8.64625397,10.7081655 C8.64168474,10.9176155 8.49140782,11.0893809 8.29746935,11.1068579 C8.28680782,11.1076771 8.27589243,11.1082232 8.26548474,11.1082232 L8.26548474,11.1082232 Z M6.30046163,6.81272318 C7.28487703,7.35041165 7.88192319,8.3818232 8.22639243,9.23682706 C8.74068475,8.13851166 9.73449245,7.38345396 10.4980617,6.93533472 C9.44866168,6.43232702 8.77622321,5.392177 8.38276166,4.55328468 C7.92710781,5.74417316 7.04423087,6.4290501 6.30046163,6.81272318 L6.30046163,6.81272318 Z" id="Shape" fill="#3A312A" fill-rule="nonzero"></path>
                    <path d="M2.78266158,7.84003858 C2.78266158,7.84003858 3.39468467,10.2851694 5.15663085,10.3984963 C5.15663085,10.3984963 2.80449235,11.2726156 2.76489235,13.141554 C2.76489235,13.141554 2.30187696,10.5200155 0.444230776,10.4260771 C0.444230776,10.4263502 2.60801542,10.0738078 2.78266158,7.84003858 Z" id="Path" fill="#D6DF58" fill-rule="nonzero"></path>
                    <path d="M2.7646385,13.5514425 C2.58364619,13.5514425 2.42524619,13.4127194 2.39097696,13.2182887 C2.38691542,13.1958964 1.95842311,10.9129732 0.426461545,10.8351463 C0.231000003,10.8253155 0.0743769242,10.6576463 0.0642230779,10.447104 C0.0540692316,10.2368348 0.193938464,10.0527809 0.387369237,10.0208309 C0.462507699,10.0079963 2.25669234,9.68166938 2.40341542,7.80535781 C2.41890004,7.60710396 2.56460773,7.44953857 2.74890004,7.43178857 C2.93293851,7.41240011 3.10200005,7.54074627 3.15048466,7.73271935 C3.15581543,7.75429242 3.71580006,9.89576169 5.17973085,9.98997323 C5.36123085,10.0014425 5.50947701,10.1494502 5.53410008,10.3430617 C5.55897701,10.5366732 5.45312316,10.7220925 5.28126931,10.7859925 C5.26070777,10.7936386 3.17891543,11.5923886 3.14566159,13.1511117 C3.14109235,13.3608348 2.99056158,13.5326002 2.79636927,13.5500771 C2.78570773,13.5508964 2.7750462,13.5514425 2.7646385,13.5514425 L2.7646385,13.5514425 Z M1.61750772,10.4036848 C2.15236157,10.7674232 2.51180773,11.3307809 2.74636158,11.8452579 C3.09565389,11.2360232 3.63863082,10.7881771 4.10824622,10.4875194 C3.52770005,10.1407117 3.12230774,9.5724386 2.85399235,9.06096552 C2.55597696,9.68549245 2.08864618,10.1194117 1.61750772,10.4036848 Z" id="Shape" fill="#3A312A" fill-rule="nonzero"></path>
                    <path d="M2.78266158,0.560626931 C2.78266158,0.560626931 3.39468467,3.00575774 5.15663085,3.11935774 C5.15663085,3.11935774 2.80449235,3.99347698 2.76489235,5.86241547 C2.76489235,5.86241547 2.30187696,3.24087697 0.444230776,3.14693851 C0.444230776,3.14693851 2.60801542,2.79412312 2.78266158,0.560626931 Z" id="Path" fill="#D6DF58" fill-rule="nonzero"></path>
                    <path d="M2.7646385,6.27203086 C2.58364619,6.27203086 2.42524619,6.13330778 2.39097696,5.93887701 C2.38691542,5.9164847 1.95842311,3.63356159 0.426461545,3.55573467 C0.231000003,3.5459039 0.0743769242,3.37823467 0.0642230779,3.16769235 C0.0540692316,2.9576962 0.193938464,2.77336927 0.387369237,2.74141927 C0.462507699,2.72858466 2.25669234,2.40225773 2.40341542,0.525946162 C2.41890004,0.327692313 2.56460773,0.170126926 2.74864619,0.152376925 C2.93268466,0.134626925 3.10200005,0.261334619 3.15023082,0.453307699 C3.15556159,0.474880776 3.71554621,2.61607696 5.179477,2.71056158 C5.36072316,2.72230389 5.50922316,2.8700385 5.53384624,3.06365005 C5.55872316,3.25726159 5.45261547,3.4429539 5.28101546,3.50658082 C5.26045392,3.51422698 3.17866159,4.31270391 3.14540774,5.87170009 C3.14083851,6.08142317 2.99030774,6.25318855 2.79611543,6.27066548 C2.78570773,6.27148471 2.7750462,6.27203086 2.7646385,6.27203086 Z M1.61750772,3.12400005 C2.15236157,3.48773851 2.51180773,4.05082314 2.74636158,4.56557314 C3.09565389,3.95606544 3.63863082,3.50849236 4.10824622,3.20783466 C3.52770005,2.86130004 3.12230774,2.29275388 2.85399235,1.78100772 C2.55597696,2.40580773 2.08864618,2.83972697 1.61750772,3.12400005 Z" id="Shape" fill="#3A312A" fill-rule="nonzero"></path>
                    <path d="M48.4846161,34.9415582 C48.2741776,34.9415582 48.1038469,34.7580505 48.1038469,34.5319428 L48.1038469,27.4319427 L9.26538475,27.4319427 L9.26538475,34.5319428 C9.26538475,34.7580505 9.09505398,34.9415582 8.88461552,34.9415582 C8.67417705,34.9415582 8.50384628,34.7580505 8.50384628,34.5319428 L8.50384628,27.0223273 C8.50384628,26.7962196 8.67417705,26.6127119 8.88461552,26.6127119 L48.4846161,26.6127119 C48.6950546,26.6127119 48.8653853,26.7962196 48.8653853,27.0223273 L48.8653853,34.5319428 C48.8653853,34.7580505 48.6950546,34.9415582 48.4846161,34.9415582 Z" id="Path" fill="#3A312A" fill-rule="nonzero"></path>
                    <path d="M28.6846158,34.9415582 C28.4741773,34.9415582 28.3038466,34.7580505 28.3038466,34.5319428 L28.3038466,27.0223273 C28.3038466,26.7962196 28.4741773,26.6127119 28.6846158,26.6127119 C28.8950543,26.6127119 29.065385,26.7962196 29.065385,27.0223273 L29.065385,34.5319428 C29.065385,34.7580505 28.8950543,34.9415582 28.6846158,34.9415582 Z" id="Path" fill="#3A312A" fill-rule="nonzero"></path>
                    <path d="M37.3026929,28.2853081 L37.3026929,32.0756159 L20.0665388,32.0756159 L20.0665388,28.2853081 C20.0665388,25.9750773 21.8079234,24.1045004 23.9554619,24.1045004 L26.5269235,24.1045004 L26.5269235,22.2666926 C27.2478466,22.8237696 27.9865389,23.1514619 28.6846158,23.1514619 C29.3979235,23.1514619 30.1340774,22.8401542 30.8448466,22.3103849 L30.8448466,24.1045004 L33.4137697,24.1045004 C35.5613082,24.1045004 37.3026929,25.9750773 37.3026929,28.2853081 L37.3026929,28.2853081 Z" id="Path" fill="#F8E4C8" fill-rule="nonzero"></path>
                    <path d="M37.3026929,32.4852313 L20.0665388,32.4852313 C19.8561003,32.4852313 19.6857695,32.3017236 19.6857695,32.0756159 L19.6857695,28.2853081 C19.6857695,25.753885 21.6010388,23.6946119 23.9554619,23.6946119 L26.1461542,23.6946119 L26.1461542,22.2666926 C26.1461542,22.1132234 26.2261158,21.9723157 26.3530389,21.9021349 C26.4799619,21.8322272 26.6330312,21.8439696 26.7490389,21.9340849 C27.4329004,22.4622157 28.1022927,22.7418465 28.6846158,22.7418465 C29.2900389,22.7418465 29.9439466,22.4835157 30.628062,21.9736811 C30.7445774,21.8871157 30.8961235,21.8770119 31.0215235,21.9474657 C31.1471774,22.0181926 31.2256158,22.158008 31.2256158,22.3103849 L31.2256158,23.6946119 L33.4137697,23.6946119 C35.7681928,23.6946119 37.6834621,25.753885 37.6834621,28.2853081 L37.6834621,32.0756159 C37.6834621,32.3017236 37.5131313,32.4852313 37.3026929,32.4852313 Z M20.447308,31.6660005 L36.9219236,31.6660005 L36.9219236,28.2853081 C36.9219236,26.2058273 35.3480774,24.5138427 33.4137697,24.5138427 L30.8448466,24.5138427 C30.6344081,24.5138427 30.4640774,24.330335 30.4640774,24.1042273 L30.4640774,23.0403196 C29.8566235,23.386308 29.2603389,23.5610773 28.6846158,23.5610773 C28.1160004,23.5610773 27.5207312,23.3767503 26.9076927,23.0119196 L26.9076927,24.1042273 C26.9076927,24.330335 26.7373619,24.5138427 26.5269235,24.5138427 L23.9554619,24.5138427 C22.0209003,24.5138427 20.447308,26.2055542 20.447308,28.2853081 L20.447308,31.6660005 Z" id="Shape" fill="#3A312A" fill-rule="nonzero"></path>
                    <path d="M37.3026929,28.2853081 L37.3026929,32.0756159 L20.0665388,32.0756159 L20.0665388,28.2853081 C20.0665388,25.9750773 21.8079234,24.1045004 23.9554619,24.1045004 L24.6281542,24.1045004 L27.2986158,27.9139235 L28.6846158,26.7915773 L30.0706158,27.9139235 L32.7410774,24.1045004 L33.4137697,24.1045004 C35.5613082,24.1045004 37.3026929,25.9750773 37.3026929,28.2853081 L37.3026929,28.2853081 Z" id="Path" fill="#ED6E7A" fill-rule="nonzero"></path>
                    <path d="M37.3026929,32.4852313 L20.0665388,32.4852313 C19.8561003,32.4852313 19.6857695,32.3017236 19.6857695,32.0756159 L19.6857695,28.2853081 C19.6857695,25.753885 21.6010388,23.6946119 23.9554619,23.6946119 L24.6281542,23.6946119 C24.7477158,23.6946119 24.8601696,23.7549619 24.9322619,23.8576388 L27.3737543,27.3404619 L28.4559004,26.4644312 C28.5914543,26.3546542 28.778285,26.3546542 28.9138389,26.4644312 L29.9959851,27.3404619 L32.4374774,23.8576388 C32.5095697,23.7549619 32.6220236,23.6946119 32.7415851,23.6946119 L33.4142774,23.6946119 C35.7687005,23.6946119 37.6839698,25.753885 37.6839698,28.2853081 L37.6839698,32.0756159 C37.6834621,32.3017236 37.5131313,32.4852313 37.3026929,32.4852313 L37.3026929,32.4852313 Z M20.447308,31.6660005 L36.9219236,31.6660005 L36.9219236,28.2853081 C36.9219236,26.2058273 35.3480774,24.5138427 33.4137697,24.5138427 L32.9309543,24.5138427 L30.3747235,28.160512 C30.2483081,28.3410158 30.0096928,28.377062 29.8416466,28.2410697 L28.6846158,27.3041427 L27.527585,28.2410697 C27.3597927,28.377062 27.1211773,28.3410158 26.9945081,28.160512 L24.4382773,24.5138427 L23.9554619,24.5138427 C22.0209003,24.5138427 20.447308,26.2055542 20.447308,28.2853081 L20.447308,31.6660005 Z" id="Shape" fill="#3A312A" fill-rule="nonzero"></path>
                    <path d="M25.5864235,27.0955119 L24.6281542,24.1045004 L23.9554619,24.1045004 C21.8079234,24.1045004 20.0665388,25.9750773 20.0665388,28.2853081 L20.0665388,32.0756159 L27.1818466,32.0756159 L26.6642542,30.4598197 L25.5864235,27.0955119 Z" id="Path" fill="#585858" fill-rule="nonzero"></path>
                    <path d="M27.1818466,32.4852313 L20.0665388,32.4852313 C19.8561003,32.4852313 19.6857695,32.3017236 19.6857695,32.0756159 L19.6857695,28.2853081 C19.6857695,25.753885 21.6010388,23.6946119 23.9554619,23.6946119 L24.6281542,23.6946119 C24.7906158,23.6946119 24.9350542,23.8054811 24.9881081,23.9709657 L25.9463773,26.9619773 C26.0149158,27.1757966 25.9093158,27.4090043 25.7105542,27.4824619 C25.5120465,27.5564658 25.2950081,27.4425927 25.2264696,27.2285004 L24.3565388,24.5138427 L23.9554619,24.5138427 C22.0209003,24.5138427 20.447308,26.2055542 20.447308,28.2853081 L20.447308,31.6660005 L26.6480081,31.6660005 L26.3043004,30.5936274 C26.2357619,30.3798081 26.3413619,30.1463274 26.5401235,30.0728697 C26.7386312,29.9991389 26.9556696,30.1127389 27.0242081,30.3265581 L27.5418004,31.9420812 C27.5819081,32.0674236 27.5633773,32.2058736 27.4917927,32.3134659 C27.4204619,32.4213313 27.3049619,32.4852313 27.1818466,32.4852313 Z" id="Path" fill="#3A312A" fill-rule="nonzero"></path>
                    <path d="M37.3026929,28.2853081 L37.3026929,32.0756159 L30.1873851,32.0756159 L32.7410774,24.1045004 L33.4137697,24.1045004 C35.5613082,24.1045004 37.3026929,25.9750773 37.3026929,28.2853081 L37.3026929,28.2853081 Z" id="Path" fill="#585858" fill-rule="nonzero"></path>
                    <path d="M37.3026929,32.4852313 L30.1873851,32.4852313 C30.0642697,32.4852313 29.9487697,32.4213313 29.8774389,32.3134659 C29.8058543,32.2056005 29.7873235,32.0674236 29.8274312,31.9423543 L32.3811236,23.9712388 C32.4339236,23.8057542 32.5786159,23.694885 32.7410774,23.694885 L33.4137697,23.694885 C35.7681928,23.694885 37.6834621,25.7541581 37.6834621,28.2855812 L37.6834621,32.0758889 C37.6834621,32.3017236 37.5131313,32.4852313 37.3026929,32.4852313 Z M30.7212235,31.6660005 L36.9219236,31.6660005 L36.9219236,28.2853081 C36.9219236,26.2058273 35.3480774,24.5138427 33.4137697,24.5138427 L33.0126928,24.5138427 L30.7212235,31.6660005 Z" id="Shape" fill="#3A312A" fill-rule="nonzero"></path>
                    <path d="M26.9518619,12.8567348 C26.9518619,13.2499656 26.6553696,13.5686464 26.2895773,13.5686464 C25.923785,13.5686464 25.6275465,13.2499656 25.6275465,12.8567348 C25.6275465,12.463504 25.9240388,12.1448233 26.2895773,12.1448233 C26.6553696,12.1448233 26.9518619,12.463504 26.9518619,12.8567348 Z" id="Path" fill="#3A312A" fill-rule="nonzero"></path>
                    <ellipse id="Oval" fill="#3A312A" fill-rule="nonzero" cx="31.0799082" cy="12.8567348" rx="1" ry="1"></ellipse>
                    <path d="M26.1070619,14.9733541 C26.1070619,15.4796387 25.5963235,15.8900733 24.9665311,15.8900733 C24.3367388,15.8900733 23.8260004,15.4796387 23.8260004,14.9733541 C23.8260004,14.4670694 24.3367388,14.0566348 24.9665311,14.0566348 C25.5963235,14.0566348 26.1070619,14.4670694 26.1070619,14.9733541 Z" id="Path" fill="#F59689" fill-rule="nonzero"></path>
                    <path d="M33.543739,14.9733541 C33.543739,15.4796387 33.0330005,15.8900733 32.4032082,15.8900733 C31.773162,15.8900733 31.2626774,15.4796387 31.2626774,14.9733541 C31.2626774,14.4670694 31.7734159,14.0566348 32.4032082,14.0566348 C33.0332543,14.0566348 33.543739,14.4670694 33.543739,14.9733541 Z" id="Path" fill="#F59689" fill-rule="nonzero"></path>
                    <path d="M28.7630543,4.03525775 C24.8850465,4.03525775 21.7414157,7.26685011 21.7414157,11.2532271 C21.7414157,11.6751309 21.8122388,11.9894425 21.9442388,12.3821271 C22.0064311,12.5672733 23.0119157,11.9757886 23.0974619,11.9110694 C23.5257004,11.5869271 23.8755004,11.1478194 24.1369619,10.6620155 C24.2451004,10.4599386 24.3352157,10.2545848 24.4078157,10.0492309 C24.6393234,9.39357322 25.2681004,7.56914627 25.9065235,7.71223858 C26.7627466,7.90421166 27.7332004,8.0126232 28.7628004,8.0126232 C29.7924004,8.0126232 30.7628543,7.90421166 31.6190774,7.71223858 C32.2575005,7.56914627 32.8865313,9.39357322 33.1177851,10.0492309 C33.1903851,10.2548578 33.2805005,10.4602117 33.388639,10.6622886 C33.8204313,11.4656809 34.550239,12.2302963 35.4376851,12.3695656 C35.4399698,12.3234156 35.494039,12.3078502 35.5344005,12.2920117 C35.8250544,12.1784117 35.7841851,11.5036386 35.7841851,11.252954 C35.7846928,7.26685011 32.641062,4.03525775 28.7630543,4.03525775 L28.7630543,4.03525775 Z" id="Path" fill="#585858" fill-rule="nonzero"></path>
                    <path d="M21.9985619,12.8231463 C21.948808,12.8231463 21.9031157,12.8171387 21.8625003,12.8034848 C21.7322772,12.7592463 21.6317542,12.6565694 21.5863157,12.5216694 C21.4510157,12.1186079 21.3609003,11.7488617 21.3606465,11.2532271 C21.3606465,7.04756934 24.6814619,3.62564236 28.7630543,3.62564236 C32.8446466,3.62564236 36.1654621,7.04729626 36.1654621,11.2532271 L36.1662236,11.3316002 C36.1715544,11.7196425 36.1812005,12.4321002 35.708539,12.6582079 C35.6994005,12.6680387 35.6897544,12.6773233 35.6796005,12.6866079 C35.5971005,12.7595194 35.4902313,12.7922887 35.3831082,12.7750848 C34.4954082,12.6358156 33.6267467,11.9225386 33.0594005,10.8673694 C32.9426313,10.6491809 32.8426159,10.4230732 32.7621466,10.1947809 L32.7476774,10.1540925 C32.0823466,8.26658474 31.7487928,8.12321935 31.6886312,8.11393474 C30.7818928,8.31846935 29.7946851,8.42251166 28.7628004,8.42251166 C27.7309158,8.42251166 26.7437081,8.31846935 25.8288465,8.11338858 C25.7770619,8.12321935 25.4435081,8.26658474 24.7781773,10.1535463 L24.7637081,10.1947809 C24.6832388,10.4233463 24.5832234,10.649454 24.4667081,10.8668232 C24.1643773,11.4285425 23.7668542,11.9053348 23.316785,12.2464079 C23.3081542,12.2526886 22.4742696,12.8231463 21.9985619,12.8231463 L21.9985619,12.8231463 Z M35.5008928,12.3053925 L35.6382236,12.6874271 C35.6460928,12.6841502 35.6547236,12.679781 35.6636082,12.6740463 L35.5008928,12.3053925 Z M28.7630543,4.44487314 C25.1013235,4.44487314 22.1221849,7.49923857 22.1221849,11.2532271 C22.1224388,11.5126502 22.1531542,11.721554 22.2092542,11.9364656 C22.4430465,11.8324233 22.777108,11.6467309 22.8832157,11.5727271 C23.2388542,11.3034732 23.5599696,10.9162502 23.8074696,10.4569348 C23.9031696,10.2783425 23.9856696,10.0918309 24.0519234,9.90422707 L24.0663927,9.86326553 C24.5723081,8.42824628 25.1551388,7.12594241 25.9844542,7.31136165 C26.8482927,7.50524627 27.7832081,7.60328088 28.7630543,7.60328088 C29.7429004,7.60328088 30.6778158,7.50524627 31.5416543,7.31136165 C32.3702082,7.13031164 32.9538005,8.42824628 33.4597159,9.86381169 L33.4741851,9.90450015 C33.540439,10.0923771 33.6226851,10.2783425 33.7188928,10.4580271 C34.1362159,11.2343848 34.7342774,11.7742579 35.3430005,11.9331886 C35.3485851,11.9304579 35.3544236,11.9277271 35.3602621,11.9255425 C35.3937698,11.8411617 35.4087467,11.6461848 35.4046851,11.3438886 L35.4039236,11.2535002 C35.4039236,7.49923857 32.4247851,4.44487314 28.7630543,4.44487314 L28.7630543,4.44487314 Z" id="Shape" fill="#3A312A" fill-rule="nonzero"></path>
                    <path d="M28.6846158,19.2653041 C27.6499389,19.2653041 26.9036312,18.7647541 26.4665081,17.777581 C26.3761389,17.5733195 26.4566081,17.3286426 26.646485,17.2314272 C26.8363619,17.1347579 27.0638081,17.2210503 27.1539235,17.4250387 C27.4623466,18.121658 27.9487158,18.4460734 28.6846158,18.4460734 C29.545662,18.4460734 30.0640158,17.8548618 30.202362,17.4575349 C30.2764851,17.2456272 30.4968235,17.138581 30.6925389,17.2177733 C30.8895235,17.2969656 30.9892851,17.5331772 30.9156697,17.7450849 C30.6605543,18.4772041 29.8535774,19.2653041 28.6846158,19.2653041 L28.6846158,19.2653041 Z" id="Path" fill="#3A312A" fill-rule="nonzero"></path>
                    <path d="M34.0103082,5.00058469 C34.0103082,7.07078087 31.6259312,8.74911167 28.6846158,8.74911167 C25.7433004,8.74911167 23.3589234,7.07078087 23.3589234,5.00058469 C23.3589234,2.93038851 28.4873773,0.54478847 28.6846158,0.54478847 C28.750362,0.54478847 34.0103082,2.93038851 34.0103082,5.00058469 Z" id="Path" fill="#585858" fill-rule="nonzero"></path>
                    <path d="M28.6846158,9.15900014 C25.5381927,9.15900014 22.9781542,7.29361165 22.9781542,5.00058469 C22.9781542,2.58112312 28.4287389,0.135173079 28.6846158,0.135173079 C28.9006389,0.135173079 30.4848928,0.945119245 31.5680543,1.64501541 C33.4411851,2.8558385 34.3908236,3.98446544 34.3908236,5.00058469 C34.3908236,7.29361165 31.8310389,9.15900014 28.6846158,9.15900014 Z M28.6698927,0.973792322 C27.7984389,1.2900154 23.7399465,3.44950774 23.7399465,5.00058469 C23.7399465,6.84166933 25.9580542,8.33976936 28.6848697,8.33976936 C31.4114312,8.33976936 33.629539,6.84194241 33.629539,5.00058469 C33.6292851,3.48992313 29.6101389,1.36565771 28.6698927,0.973792322 L28.6698927,0.973792322 Z" id="Shape" fill="#3A312A" fill-rule="nonzero"></path>
                    <path d="M23.2949542,32.4846851 C23.0845157,32.4846851 22.914185,32.3011774 22.914185,32.0750697 L22.914185,29.079962 C22.914185,28.8538543 23.0845157,28.6703466 23.2949542,28.6703466 C23.5053927,28.6703466 23.6757234,28.8538543 23.6757234,29.079962 L23.6757234,32.0750697 C23.6757234,32.3011774 23.5053927,32.4846851 23.2949542,32.4846851 Z" id="Path" fill="#3A312A" fill-rule="nonzero"></path>
                    <path d="M34.2314082,32.4846851 C34.0209697,32.4846851 33.850639,32.3011774 33.850639,32.0750697 L33.850639,29.079962 C33.850639,28.8538543 34.0209697,28.6703466 34.2314082,28.6703466 C34.4418467,28.6703466 34.6121774,28.8538543 34.6121774,29.079962 L34.6121774,32.0750697 C34.6121774,32.3011774 34.4415928,32.4846851 34.2314082,32.4846851 Z" id="Path" fill="#3A312A" fill-rule="nonzero"></path>
                    <path d="M56.9833855,61.4425817 L56.9833855,57.6959662 C56.9833855,55.412497 55.2628162,53.5615816 53.1401546,53.5615816 L50.6009315,53.5615816 L50.6009315,51.7863085 C49.8985392,52.31007 49.1717777,52.6191931 48.4668469,52.6191931 C47.7903469,52.6191931 47.0765315,52.3070662 46.3771853,51.7770238 L46.3340315,51.7770238 L46.3340315,53.5615816 L43.7935391,53.5615816 C41.6708775,53.5615816 39.9503083,55.412497 39.9503083,57.6959662 L39.9503083,61.4425817 L56.9833855,61.4425817 Z" id="Path" fill="#F7E3C7" fill-rule="nonzero"></path>
                    <path d="M56.9833855,61.8521971 L39.9503083,61.8521971 C39.7398698,61.8521971 39.5695391,61.6686894 39.5695391,61.4425817 L39.5695391,57.6959662 C39.5695391,55.1904854 41.4642468,53.1519662 43.7935391,53.1519662 L45.9535161,53.1519662 L45.9535161,51.7770238 C45.9535161,51.5509162 46.1238468,51.3674085 46.3342853,51.3674085 L46.3771853,51.3674085 C46.4558776,51.3674085 46.5322853,51.3936238 46.5965084,51.4419585 C47.2681853,51.9512469 47.8977238,52.2095777 48.4668469,52.2095777 C49.0628777,52.2095777 49.7079007,51.9539777 50.3841469,51.4498777 C50.5006623,51.3630392 50.6524623,51.3529354 50.7776084,51.4233892 C50.9032623,51.4941162 50.9817008,51.6339315 50.9817008,51.7863085 L50.9817008,53.1519662 L53.1399008,53.1519662 C55.4689393,53.1519662 57.3639011,55.1904854 57.3639011,57.6959662 L57.3639011,61.4425817 C57.3641547,61.6686894 57.1938239,61.8521971 56.9833855,61.8521971 L56.9833855,61.8521971 Z M40.3310775,61.0329663 L56.6026162,61.0329663 L56.6026162,57.6959662 C56.6026162,55.6421547 55.0493316,53.971197 53.1401546,53.971197 L50.6011854,53.971197 C50.3907469,53.971197 50.2204161,53.7876893 50.2204161,53.5615816 L50.2204161,52.51597 C49.6213392,52.8564969 49.0336853,53.0288085 48.4668469,53.0288085 C47.9076238,53.0288085 47.3202238,52.8474854 46.7150545,52.4883892 L46.7150545,53.5615816 C46.7150545,53.7876893 46.5447238,53.971197 46.3342853,53.971197 L43.7935391,53.971197 C41.8843622,53.971197 40.3310775,55.6421547 40.3310775,57.6959662 L40.3310775,61.0329663 Z" id="Shape" fill="#3A312A" fill-rule="nonzero"></path>
                    <path d="M56.9833855,61.4434009 L56.9833855,57.6946009 C56.9833855,55.4119508 55.2633239,53.5602162 53.1399008,53.5602162 L52.5324469,53.5602162 L52.5479316,53.573597 L49.9069161,57.3406932 L48.5437623,56.2369162 L47.1808622,57.3406932 L44.5398468,53.573597 L44.5553314,53.5602162 L43.7935391,53.5602162 C41.670116,53.5602162 39.9500544,55.4122239 39.9500544,57.6946009 L39.9500544,61.4434009 L56.9833855,61.4434009 Z" id="Path" fill="#8AC3DA" fill-rule="nonzero"></path>
                    <path d="M56.9833855,61.8530163 L39.9503083,61.8530163 C39.7398698,61.8530163 39.5695391,61.6695086 39.5695391,61.4434009 L39.5695391,57.6943278 C39.5695391,55.1885739 41.4645006,53.1500546 43.793793,53.1500546 L44.5555853,53.1500546 C44.7170314,53.1500546 44.8609622,53.2595585 44.9147776,53.4234046 C44.9152853,53.4255893 44.9160468,53.4277739 44.9168084,53.4296854 L47.2562546,56.7666855 L48.3153007,55.9089508 C48.4508546,55.7991739 48.6376853,55.7991739 48.773493,55.9089508 L49.8325392,56.7666855 L52.1925469,53.4004662 C52.2522008,53.2524585 52.3816623,53.1500546 52.5332085,53.1500546 L53.1404085,53.1500546 C55.4697008,53.1500546 57.3646624,55.1885739 57.3646624,57.6943278 L57.3646624,61.4434009 C57.3641547,61.6695086 57.1938239,61.8530163 56.9833855,61.8530163 L56.9833855,61.8530163 Z M40.3310775,61.0337855 L56.6026162,61.0337855 L56.6026162,57.6943278 C56.6026162,55.6405162 55.0493316,53.9692854 53.1399008,53.9692854 L52.7472008,53.9692854 L50.2112777,57.5867355 C50.0846084,57.7672393 49.8459931,57.8027393 49.6782007,57.6672932 L48.54427,56.7492085 L47.4103392,57.6672932 C47.242293,57.8032855 47.0036776,57.7669662 46.8772622,57.5867355 L44.3413391,53.9692854 L43.7940468,53.9692854 C41.8848699,53.9692854 40.3313314,55.6402431 40.3313314,57.6943278 L40.3313314,61.0337855 L40.3310775,61.0337855 Z" id="Shape" fill="#3A312A" fill-rule="nonzero"></path>
                    <path d="M47.1412622,61.443674 L44.5403545,53.5733239 L44.5555853,53.55967 L43.7930314,53.55967 C41.670116,53.55967 39.9500544,55.4114047 39.9500544,57.695147 L39.9500544,61.443674 L47.1412622,61.443674 Z" id="Path" fill="#585858" fill-rule="nonzero"></path>
                    <path d="M47.1412622,61.8532894 L39.9503083,61.8532894 C39.7398698,61.8532894 39.5695391,61.6697817 39.5695391,61.443674 L39.5695391,57.695147 C39.5695391,55.188847 41.4642468,53.1497816 43.7932853,53.1497816 L44.5558391,53.1497816 C44.7160161,53.1497816 44.8589314,53.2576469 44.9137622,53.4193085 C44.9279776,53.4616354 44.935593,53.5050546 44.9366084,53.548747 L47.5004546,61.3060432 C47.5420853,61.4316586 47.5240622,61.5709278 47.4527315,61.6796125 C47.3811469,61.7885702 47.2651392,61.8532894 47.1412622,61.8532894 L47.1412622,61.8532894 Z M40.3310775,61.0340586 L46.6018392,61.0340586 L44.2669622,53.9692854 L43.7930314,53.9692854 C41.8838545,53.9692854 40.3308237,55.6407893 40.3308237,57.6954201 L40.3308237,61.0340586 L40.3310775,61.0340586 Z" id="Shape" fill="#3A312A" fill-rule="nonzero"></path>
                    <path d="M56.9831316,57.695147 L56.9831316,61.443674 L49.9475315,61.443674 L52.5486931,53.5733239 L52.5321931,53.55967 L53.1404085,53.55967 C55.2633239,53.55967 56.9831316,55.4114047 56.9831316,57.695147 L56.9831316,57.695147 Z" id="Path" fill="#585858" fill-rule="nonzero"></path>
                    <path d="M56.9831316,61.8532894 L49.9475315,61.8532894 C49.8239084,61.8532894 49.7079007,61.7885702 49.6363161,61.6798855 C49.5649854,61.5712009 49.5472161,61.4319317 49.588593,61.3063163 L52.1625931,53.5178893 C52.1653854,53.4894893 52.17097,53.4613623 52.1798546,53.4337816 C52.2324008,53.2682969 52.36897,53.1500546 52.5316854,53.1500546 L53.1399008,53.1500546 C55.4689393,53.1500546 57.3636473,55.1891201 57.3636473,57.6954201 L57.3636473,61.4439471 C57.3639009,61.6697817 57.1935701,61.8532894 56.9831316,61.8532894 L56.9831316,61.8532894 Z M50.4872084,61.0340586 L56.6023624,61.0340586 L56.6023624,57.695147 C56.6023624,55.6407893 55.0493316,53.9690123 53.1401546,53.9690123 L52.8218316,53.9690123 L50.4872084,61.0340586 Z" id="Shape" fill="#3A312A" fill-rule="nonzero"></path>
                    <path d="M43.3797699,43.3130045 C43.3797699,44.2114276 42.7027622,44.9397237 41.8676083,44.9397237 C41.0324545,44.9397237 40.3554468,44.2114276 40.3554468,43.3130045 C40.3554468,42.4145814 41.0324545,41.6862852 41.8676083,41.6862852 C42.7027622,41.6860122 43.3797699,42.4143083 43.3797699,43.3130045 Z" id="Path" fill="#F7E3C7"></path>
                    <path d="M41.8676083,45.3490661 C40.8237929,45.3490661 39.9746775,44.4356237 39.9746775,43.3127314 C39.9746775,42.1898391 40.8237929,41.2763968 41.8676083,41.2763968 C42.9114237,41.2763968 43.7605391,42.1898391 43.7605391,43.3127314 C43.7605391,44.4358968 42.9111699,45.3490661 41.8676083,45.3490661 Z M41.8676083,42.0956276 C41.2436545,42.0956276 40.736216,42.6415083 40.736216,43.3127314 C40.736216,43.9839545 41.2436545,44.5298353 41.8676083,44.5298353 C42.4915622,44.5298353 42.9990006,43.9839545 42.9990006,43.3127314 C42.9990006,42.6415083 42.4913083,42.0956276 41.8676083,42.0956276 Z" id="Shape" fill="#3A312A" fill-rule="nonzero"></path>
                    <path d="M56.5787547,43.3130045 C56.5787547,44.2114276 55.901747,44.9397237 55.0665931,44.9397237 C54.2314393,44.9397237 53.5544316,44.2114276 53.5544316,43.3130045 C53.5544316,42.4145814 54.2314393,41.6862852 55.0665931,41.6862852 C55.901747,41.6860122 56.5787547,42.4143083 56.5787547,43.3130045 Z" id="Path" fill="#F7E3C7"></path>
                    <path d="M55.0665931,45.3490661 C54.0227777,45.3490661 53.1736623,44.4356237 53.1736623,43.3127314 C53.1736623,42.1898391 54.0227777,41.2763968 55.0665931,41.2763968 C56.1104085,41.2763968 56.9595239,42.1898391 56.9595239,43.3127314 C56.9595239,44.4358968 56.1104085,45.3490661 55.0665931,45.3490661 Z M55.0665931,42.0956276 C54.4426393,42.0956276 53.9352008,42.6415083 53.9352008,43.3127314 C53.9352008,43.9839545 54.4426393,44.5298353 55.0665931,44.5298353 C55.690547,44.5298353 56.1979855,43.9839545 56.1979855,43.3127314 C56.1979855,42.6415083 55.690547,42.0956276 55.0665931,42.0956276 Z" id="Shape" fill="#3A312A" fill-rule="nonzero"></path>
                    <path d="M43.1409006,61.8527432 C42.9304622,61.8527432 42.7601314,61.6692355 42.7601314,61.4431278 L42.7601314,58.4818816 C42.7601314,58.2557739 42.9304622,58.0722662 43.1409006,58.0722662 C43.3513391,58.0722662 43.5216699,58.2557739 43.5216699,58.4818816 L43.5216699,61.4431278 C43.5216699,61.6692355 43.3510853,61.8527432 43.1409006,61.8527432 Z" id="Path" fill="#3A312A" fill-rule="nonzero"></path>
                    <path d="M53.9478931,61.8527432 C53.7374546,61.8527432 53.5671239,61.6692355 53.5671239,61.4431278 L53.5671239,58.4818816 C53.5671239,58.2557739 53.7374546,58.0722662 53.9478931,58.0722662 C54.1583316,58.0722662 54.3286623,58.2557739 54.3286623,58.4818816 L54.3286623,61.4431278 C54.3286623,61.6692355 54.1583316,61.8527432 53.9478931,61.8527432 Z" id="Path" fill="#3A312A" fill-rule="nonzero"></path>
                    <polygon id="Path" fill="#ED6E7A" fill-rule="nonzero" points="49.5934161 61.4434009 47.4900469 61.4434009 47.8873161 58.6735816 49.1961469 58.6735816"></polygon>
                    <path d="M49.5934161,61.8530163 L47.4900469,61.8530163 C47.3788622,61.8530163 47.2735161,61.8008586 47.2009161,61.7101971 C47.1285699,61.6195355 47.0965853,61.4991086 47.113593,61.3811394 L47.5108622,58.6113201 C47.5395469,58.4117009 47.6992161,58.2642393 47.8870623,58.2642393 L49.195893,58.2642393 C49.3837392,58.2642393 49.5436623,58.4117009 49.572093,58.6113201 L49.9693623,61.3811394 C49.98637,61.4993817 49.9543854,61.6195355 49.8820392,61.7101971 C49.8102007,61.8005855 49.7046007,61.8530163 49.5934161,61.8530163 Z M47.9340238,61.0337855 L49.1494392,61.0337855 L48.8697007,59.083197 L48.2137623,59.083197 L47.9340238,61.0337855 Z" id="Shape" fill="#3A312A" fill-rule="nonzero"></path>
                    <polygon id="Path" fill="#ED6E7A" fill-rule="nonzero" points="49.6477392 56.2341855 49.1946238 58.6730355 47.8883315 58.6730355 47.4458776 56.2341855"></polygon>
                    <path d="M49.1946238,59.0826509 L47.8883315,59.0826509 C47.7060699,59.0826509 47.5494469,58.9439278 47.5146699,58.7514086 L47.0722161,56.3125585 C47.0503853,56.1926778 47.0795776,56.0681547 47.1519238,55.9736701 C47.2242699,55.8791854 47.3321546,55.8245701 47.4458776,55.8245701 L49.6477392,55.8245701 C49.7617161,55.8245701 49.8698546,55.8794585 49.9422007,55.9744893 C50.0145469,56.0695201 50.0434854,56.1943162 50.0211469,56.3144701 L49.5680315,58.7533201 C49.532493,58.9450201 49.3763777,59.0826509 49.1946238,59.0826509 Z M48.2020853,58.2634201 L48.8826469,58.2634201 L49.1834546,56.6438008 L47.9083853,56.6438008 L48.2020853,58.2634201 Z" id="Shape" fill="#3A312A" fill-rule="nonzero"></path>
                    <polygon id="Path" fill="#8AC3DA" fill-rule="nonzero" transform="translate(46.573240, 54.917143) rotate(-36.995898) translate(-46.573240, -54.917143) " points="45.7724188 52.647944 47.5338547 52.5855227 47.3740611 57.1863421 45.6126252 57.2487635"></polygon>
                    <path d="M47.1813699,57.7505816 C47.1638545,57.7505816 47.1460853,57.7492162 47.1283161,57.7464855 C47.0283007,57.7311932 46.9379315,57.6741201 46.8772622,57.5872816 L44.2370084,53.8182739 C44.1760853,53.7317085 44.1499391,53.6224777 44.1639007,53.5148854 C44.1778622,53.4072931 44.2311699,53.3100777 44.311893,53.2448123 L45.6806314,52.1355739 C45.8486776,51.9998546 46.087293,52.0356277 46.2139622,52.2164046 L48.8542161,55.9851393 C48.9806315,56.1656431 48.9473777,56.4226085 48.7793315,56.5588739 L47.4108469,57.6686586 C47.3440853,57.7221816 47.2636161,57.7505816 47.1813699,57.7505816 Z M45.074193,53.6527893 L47.2562546,56.7675047 L48.0167776,56.150897 L45.8347161,53.0364546 L45.074193,53.6527893 Z" id="Shape" fill="#3A312A" fill-rule="nonzero"></path>
                    <polygon id="Path" fill="#8AC3DA" fill-rule="nonzero" transform="translate(50.529857, 54.870284) rotate(-143.004102) translate(-50.529857, -54.870284) " points="49.5692418 52.5386632 51.3306777 52.6010846 51.4904712 57.201904 49.7290353 57.1394827"></polygon>
                    <path d="M49.9074238,57.7505816 C49.8251777,57.7505816 49.7447084,57.7221816 49.6782007,57.6681124 L48.3097161,56.5583278 C48.1416699,56.4220624 48.1084161,56.1653701 48.2348315,55.9845931 L50.8750854,52.2158585 C51.0017546,52.0350815 51.24037,51.9993085 51.4084162,52.1350277 L52.7771546,53.2442662 C52.8576239,53.3095316 52.9109316,53.40702 52.9248931,53.5143393 C52.9391085,53.6222046 52.9127085,53.7311623 52.8517854,53.8177277 L50.2115315,57.5867355 C50.1508623,57.6735739 50.0604931,57.730647 49.9604777,57.7459393 C49.9427084,57.7494893 49.9249392,57.7505816 49.9074238,57.7505816 L49.9074238,57.7505816 Z M49.0720161,56.150897 L49.8325392,56.7675047 L52.0146008,53.6527893 L51.2540777,53.0364546 L49.0720161,56.150897 Z" id="Shape" fill="#3A312A" fill-rule="nonzero"></path>
                    <path d="M55.1704162,42.5238122 C55.1704162,46.5055468 51.6054008,52.6202854 48.4676084,52.6202854 C45.4712084,52.6202854 41.7635314,46.5055468 41.7635314,42.5238122 C41.7635314,42.3127237 41.772416,42.1040929 41.7876468,41.898466 C41.7901852,41.8681545 41.7927237,41.838116 41.7965314,41.8080775 C41.8206468,41.5926199 41.8729391,41.3610506 41.9483314,41.1196506 C42.7223083,38.6081621 45.0645468,37.0404275 47.5073084,37.3394467 C47.8477161,37.3820467 48.1995469,37.4038929 48.5605161,37.4038929 C50.0802931,37.4038929 51.4447162,37.0158506 52.3778546,36.4011544 C52.5436162,36.6960775 52.7502469,36.967789 52.9924162,37.2048198 C54.3314547,38.522689 55.1704162,40.4170237 55.1704162,42.5238122 L55.1704162,42.5238122 Z" id="Path" fill="#F7E3C7" fill-rule="nonzero"></path>
                    <path d="M48.4676084,53.0296277 C45.1828391,53.0296277 41.3827622,46.6718507 41.3827622,42.5235391 C41.3827622,42.3110852 41.3911391,42.0959006 41.4081468,41.8656968 C41.4117006,41.8241891 41.4147468,41.7881429 41.419316,41.7518237 C41.4452083,41.5213468 41.5020698,41.2624698 41.5873622,40.9888468 C42.4108391,38.316516 44.9188391,36.6103313 47.5504622,36.9317429 C47.8807161,36.9727044 48.2203623,36.9937313 48.5605161,36.9937313 C49.9505777,36.9937313 51.2693085,36.6502005 52.1790931,36.0513428 C52.2656546,35.9942698 52.3697315,35.9762467 52.46797,36.0027352 C52.5664623,36.0284044 52.6512469,36.0955813 52.7037931,36.1887005 C52.8522931,36.453039 53.03557,36.6928005 53.2488008,36.9014313 C54.7122239,38.3421852 55.5509316,40.3910814 55.5509316,42.5235391 C55.5511854,46.7677007 51.8199008,53.0296277 48.4676084,53.0296277 L48.4676084,53.0296277 Z M46.912293,37.7124698 C44.8462391,37.7124698 42.9632083,39.1278275 42.3098083,41.2479968 C42.2405083,41.4708275 42.1950699,41.6750891 42.1747622,41.8569583 C42.1709545,41.8875429 42.1689237,41.9118468 42.1668929,41.9361506 C42.151916,42.1395929 42.1443006,42.3334776 42.1443006,42.5238122 C42.1443006,46.2046161 45.6768238,52.21067 48.4676084,52.21067 C51.3375931,52.21067 54.789647,46.261143 54.789647,42.5238122 C54.789647,40.6207391 54.0410547,38.792216 52.7355239,37.5068429 C52.5601162,37.3350775 52.4007008,37.1463813 52.2590546,36.942939 C51.2596623,37.4989236 49.9356007,37.8135083 48.56077,37.8135083 C48.1914238,37.8135083 47.8220776,37.7908429 47.4639007,37.7463313 C47.2788469,37.7233929 47.0948084,37.7124698 46.912293,37.7124698 L46.912293,37.7124698 Z" id="Shape" fill="#3A312A" fill-rule="nonzero"></path>
                    <ellipse id="Oval" fill="#3A312A" fill-rule="nonzero" cx="46.1002391" cy="42.4418891" rx="1" ry="1"></ellipse>
                    <path d="M51.4881238,42.4418891 C51.4881238,42.8307506 51.1951854,43.1458814 50.8337084,43.1458814 C50.4722315,43.1458814 50.1792931,42.8307506 50.1792931,42.4418891 C50.1792931,42.0530275 50.4722315,41.7378968 50.8337084,41.7378968 C51.1951854,41.7378968 51.4881238,42.0530275 51.4881238,42.4418891 Z" id="Path" fill="#3A312A" fill-rule="nonzero"></path>
                    <path d="M45.9197545,44.5344776 C45.9197545,45.0350276 45.4151084,45.441093 44.7926776,45.441093 C44.1702468,45.441093 43.6656007,45.0353007 43.6656007,44.5344776 C43.6656007,44.0339276 44.1702468,43.6281353 44.7926776,43.6281353 C45.4148545,43.6281353 45.9197545,44.0339276 45.9197545,44.5344776 Z" id="Path" fill="#F59689" fill-rule="nonzero"></path>
                    <path d="M53.2688546,44.5344776 C53.2688546,45.0350276 52.7642085,45.441093 52.1417777,45.441093 C51.5193469,45.441093 51.0147008,45.0353007 51.0147008,44.5344776 C51.0147008,44.0339276 51.5193469,43.6281353 52.1417777,43.6281353 C52.7642085,43.6281353 53.2688546,44.0339276 53.2688546,44.5344776 Z" id="Path" fill="#F59689" fill-rule="nonzero"></path>
                    <path d="M48.4668469,48.7824623 C47.4420699,48.7824623 46.7033776,48.2865546 46.2705699,47.3086661 C46.1802007,47.1044045 46.2609238,46.8600007 46.4508007,46.7627853 C46.6404238,46.6661161 46.8678699,46.7524084 46.9582392,46.9566699 C47.262093,47.6434584 47.7413546,47.9635046 48.4668469,47.9635046 C49.3154546,47.9635046 49.8261931,47.3807584 49.9625084,46.9891661 C50.0361238,46.7772584 50.2554469,46.669393 50.4526854,46.7494045 C50.64967,46.8285969 50.7496854,47.0645353 50.6758161,47.2767161 C50.4232392,48.0014623 49.6243854,48.7824623 48.4668469,48.7824623 L48.4668469,48.7824623 Z" id="Path" fill="#3A312A" fill-rule="nonzero"></path>
                    <path d="M48.55087,33.7179005 C44.7216007,33.7179005 41.6175699,36.9104429 41.6175699,40.8490314 C41.6175699,41.2657468 41.6876314,41.5762352 41.8178545,41.9645506 C41.8792852,42.1475122 42.8720776,41.5634006 42.9566083,41.4992275 C43.3792622,41.1789083 43.7247468,40.7449891 43.9829083,40.2651929 C44.0897776,40.0658468 44.1786237,39.8626775 44.2504622,39.6597814 C44.4789237,39.0120429 45.0998314,37.2094621 45.7303853,37.3509159 C46.5759468,37.5404313 47.5342161,37.6477506 48.55087,37.6477506 C49.5675238,37.6477506 50.5257931,37.5404313 51.3713546,37.3509159 C52.0019085,37.2094621 52.6228162,39.0120429 52.8512777,39.6597814 C52.9228623,39.8629506 53.0119623,40.0658468 53.1188316,40.265466 C53.5452931,41.0590275 54.2657085,41.8146314 55.1422393,41.9522622 C55.1445239,41.9066583 55.1978316,41.8910929 55.2376854,41.8755275 C55.5245316,41.763566 55.4844239,41.0964391 55.4844239,40.8490314 C55.4841701,36.9107159 52.3801392,33.7179005 48.55087,33.7179005 L48.55087,33.7179005 Z" id="Path" fill="#585858" fill-rule="nonzero"></path>
                    <path d="M41.8701468,42.4050237 C41.8209006,42.4050237 41.7754622,42.3987429 41.7353545,42.3850891 C41.6053852,42.3411237 41.5048622,42.2387199 41.4596775,42.1038199 C41.3259006,41.7051275 41.2368006,41.3392045 41.2368006,40.8490314 C41.2368006,36.6911621 44.5177622,33.3085582 48.55087,33.3085582 C52.5839777,33.3085582 55.8649393,36.6914352 55.8649393,40.8490314 L55.8657008,40.9265852 C55.8710316,41.3108045 55.8806778,42.0164352 55.4118239,42.2411776 C55.4029393,42.2504622 55.3938008,42.2594737 55.3841547,42.2682122 C55.3014008,42.3419429 55.1940239,42.3744391 55.0874085,42.3572352 C54.2093547,42.2196045 53.3503393,41.5142468 52.7893392,40.4702737 C52.6740931,40.2550891 52.5753469,40.0314391 52.4956392,39.8047852 L52.4809162,39.7635506 C51.8440162,37.9557813 51.5226469,37.7670852 51.4391315,37.752339 C50.5453392,37.954416 49.5703161,38.0570929 48.55087,38.0570929 C47.5314238,38.0570929 46.5566545,37.954416 45.6527084,37.7517929 C45.5793468,37.7670852 45.2579776,37.9557813 44.6210776,39.7635506 L44.6063545,39.8047852 C44.5266468,40.031166 44.4279007,40.2545429 44.3131622,40.4694544 C44.0138776,41.0254391 43.6206699,41.4970429 43.1759314,41.8340199 C43.1673006,41.8405737 42.3415391,42.4050237 41.8701468,42.4050237 L41.8701468,42.4050237 Z M55.2044316,41.8883622 L55.3410008,42.2706699 C55.3488701,42.2671199 55.3575008,42.2630237 55.3663854,42.2572891 L55.2044316,41.8883622 Z M48.55087,34.127789 C44.9378776,34.127789 41.9983391,37.1428313 41.9983391,40.8490314 C41.9983391,41.1027198 42.0282929,41.3072545 42.0828699,41.5172506 C42.3128545,41.4140275 42.6387929,41.2327045 42.7428699,41.1603391 C43.0929237,40.8946352 43.4097237,40.5128737 43.6539237,40.0598391 C43.7481007,39.8837044 43.8290776,39.7001967 43.8948237,39.5142314 L43.909293,39.4732698 C44.4096237,38.053816 44.9848391,36.7678967 45.8085699,36.9497659 C46.6612392,37.1409198 47.5839699,37.2381352 48.5511238,37.2381352 C49.5185315,37.2381352 50.4412623,37.1411929 51.2939315,36.9497659 C52.1174085,36.7681698 52.6928777,38.053816 53.1932085,39.4732698 L53.2076777,39.5142314 C53.27317,39.7001967 53.3544008,39.8842506 53.4490854,40.0606583 C53.8600623,40.8258198 54.4489854,41.3580468 55.0480624,41.5153391 C55.0526316,41.5131545 55.0572008,41.5109698 55.0617701,41.5090583 C55.0940085,41.4252237 55.1084777,41.2337968 55.1044162,40.9386006 L55.1036547,40.8490314 C55.1034008,37.1428313 52.1638623,34.127789 48.55087,34.127789 L48.55087,34.127789 Z" id="Shape" fill="#3A312A" fill-rule="nonzero"></path>
                    <path d="M53.9504316,61.8295317 C53.7399931,61.8295317 53.5696623,61.646024 53.5696623,61.4199163 L53.5696623,58.4608547 C53.5696623,58.234747 53.7399931,58.0512393 53.9504316,58.0512393 C54.16087,58.0512393 54.3312008,58.234747 54.3312008,58.4608547 L54.3312008,61.4199163 C54.3312008,61.646024 54.1606162,61.8295317 53.9504316,61.8295317 Z" id="Path" fill="#3A312A" fill-rule="nonzero"></path>
                    <path d="M43.1513083,61.8295317 C42.9408699,61.8295317 42.7705391,61.646024 42.7705391,61.4199163 L42.7705391,58.4608547 C42.7705391,58.234747 42.9408699,58.0512393 43.1513083,58.0512393 C43.3617468,58.0512393 43.5320776,58.234747 43.5320776,58.4608547 L43.5320776,61.4199163 C43.5320776,61.646024 43.3617468,61.8295317 43.1513083,61.8295317 Z" id="Path" fill="#3A312A" fill-rule="nonzero"></path>
                    <path d="M55.901747,34.8973198 C55.901747,34.8973198 52.6636854,38.554366 48.6694161,38.554366 C44.6751468,38.554366 43.2368545,36.9169967 43.2368545,34.8973198 C43.2368545,32.8776428 44.6751468,31.2402735 48.6694161,31.2402735 C52.6636854,31.2402735 55.901747,34.8973198 55.901747,34.8973198 Z" id="Path" fill="#585858"></path>
                    <path d="M48.6691623,38.9642544 C43.6110237,38.9642544 42.8558314,36.4161736 42.8558314,34.8973198 C42.8558314,33.3784659 43.6110237,30.8306582 48.6691623,30.8306582 C52.7794392,30.8306582 56.0406008,34.4601236 56.1774239,34.6146851 C56.317547,34.7727967 56.317547,35.0212967 56.1774239,35.1794082 C56.0408547,35.3345159 52.7794392,38.9642544 48.6691623,38.9642544 L48.6691623,38.9642544 Z M48.6691623,31.6498889 C46.364493,31.6498889 43.6173699,32.2132466 43.6173699,34.8973198 C43.6173699,37.5813929 46.364493,38.1450236 48.6691623,38.1450236 C51.8074623,38.1450236 54.509147,35.7351198 55.3534393,34.8973198 C54.509147,34.0595197 51.8074623,31.6498889 48.6691623,31.6498889 Z" id="Shape" fill="#3A312A" fill-rule="nonzero"></path>
                    <polygon id="Path" fill="#585858" fill-rule="nonzero" points="21.6853157 55.043297 21.6853157 58.9947201 35.5016544 58.9947201 35.5016544 41.9828468 21.6853157 41.9828468 21.6853157 51.5003969"></polygon>
                    <path d="M35.5016544,59.4043355 L21.6853157,59.4043355 C21.4748772,59.4043355 21.3045465,59.2208278 21.3045465,58.9947201 L21.3045465,55.043297 C21.3045465,54.8171893 21.4748772,54.6336816 21.6853157,54.6336816 C21.8957542,54.6336816 22.0660849,54.8171893 22.0660849,55.043297 L22.0660849,58.5851047 L35.1208851,58.5851047 L35.1208851,42.3924622 L22.0660849,42.3924622 L22.0660849,51.5003969 C22.0660849,51.7265046 21.8957542,51.9100123 21.6853157,51.9100123 C21.4748772,51.9100123 21.3045465,51.7265046 21.3045465,51.5003969 L21.3045465,41.9828468 C21.3045465,41.7567391 21.4748772,41.5732314 21.6853157,41.5732314 L35.5016544,41.5732314 C35.7120928,41.5732314 35.8824236,41.7567391 35.8824236,41.9828468 L35.8824236,58.9947201 C35.8824236,59.2208278 35.7120928,59.4043355 35.5016544,59.4043355 Z" id="Path" fill="#3A312A" fill-rule="nonzero"></path>
                    <path d="M36.8630313,61.4199163 L36.8630313,59.619247 C36.8630313,57.4264393 35.2107467,55.6492547 33.1726159,55.6492547 L30.7344235,55.6492547 L30.7344235,53.9444354 C30.0599543,54.4474431 29.3621312,54.7440047 28.6851235,54.7440047 C28.0355312,54.7440047 27.3501466,54.4444393 26.6784696,53.9354239 L26.6370927,53.9354239 L26.6370927,55.6489816 L24.1973773,55.6489816 C22.1589926,55.6489816 20.5069618,57.4264393 20.5069618,59.618974 L20.5069618,61.4196432 L36.8630313,61.4196432 L36.8630313,61.4199163 Z" id="Path" fill="#F8E4C8" fill-rule="nonzero"></path>
                    <path d="M36.8630313,61.8295317 L20.506708,61.8295317 C20.2962695,61.8295317 20.1259388,61.646024 20.1259388,61.4199163 L20.1259388,59.619247 C20.1259388,57.2041547 21.9523619,55.2396393 24.1973773,55.2396393 L26.2563235,55.2396393 L26.2563235,53.935697 C26.2563235,53.7095893 26.4266542,53.5260816 26.6370927,53.5260816 L26.6784696,53.5260816 C26.7569081,53.5260816 26.8335696,53.552297 26.8977927,53.6006316 C27.5405312,54.0875277 28.1418927,54.3346623 28.6851235,54.3346623 C29.2545004,54.3346623 29.8708389,54.0902585 30.5176389,53.6080046 C30.6341543,53.5208931 30.7857005,53.5110623 30.9111005,53.5815162 C31.0365005,53.6522431 31.1151928,53.7920585 31.1151928,53.9444354 L31.1151928,55.2396393 L33.1726159,55.2396393 C35.4176313,55.2396393 37.2440544,57.2041547 37.2440544,59.619247 L37.2440544,61.4199163 C37.2438006,61.646024 37.0734698,61.8295317 36.8630313,61.8295317 L36.8630313,61.8295317 Z M20.8874772,61.0103009 L36.4825159,61.0103009 L36.4825159,59.619247 C36.4825159,57.656097 34.9977698,56.0588701 33.1726159,56.0588701 L30.7344235,56.0588701 C30.5239851,56.0588701 30.3536543,55.8753624 30.3536543,55.6492547 L30.3536543,54.6721854 C29.2215004,55.3081816 28.1771773,55.3253854 27.0178619,54.64597 L27.0178619,55.6492547 C27.0178619,55.8753624 26.8475312,56.0588701 26.6370927,56.0588701 L24.1973773,56.0588701 C22.3724773,56.0588701 20.8874772,57.656097 20.8874772,59.619247 L20.8874772,61.0103009 Z" id="Shape" fill="#3A312A" fill-rule="nonzero"></path>
                    <path d="M36.8630313,61.4199163 L36.8630313,59.6181547 C36.8630313,57.425347 35.2107467,55.6478893 33.1726159,55.6478893 L32.5892774,55.6478893 L32.6045082,55.6599047 L30.0683312,59.278447 L28.7595004,58.2175432 L27.4506696,59.278447 L24.9144927,55.6599047 L24.9297234,55.6478893 L24.1973773,55.6478893 C22.1589926,55.6478893 20.5069618,57.425347 20.5069618,59.6181547 L20.5069618,61.4199163 L36.8630313,61.4199163 Z" id="Path" fill="#ED6E7A" fill-rule="nonzero"></path>
                    <path d="M36.8630313,61.8295317 L20.506708,61.8295317 C20.2962695,61.8295317 20.1259388,61.646024 20.1259388,61.4199163 L20.1259388,59.6181547 C20.1259388,57.2030624 21.9523619,55.2382739 24.1973773,55.2382739 L24.9297234,55.2382739 C25.0926927,55.2382739 25.237385,55.3496893 25.2899311,55.515447 L27.5255543,58.7049855 L28.5302773,57.8906701 C28.666085,57.7808932 28.8529158,57.7808932 28.9887235,57.8906701 L29.9934466,58.7049855 L32.2491236,55.4867739 C32.3087774,55.3395854 32.4379851,55.238547 32.5892774,55.238547 L33.1726159,55.238547 C35.4176313,55.238547 37.2440544,57.2033355 37.2440544,59.6184278 L37.2440544,61.4201894 C37.2438006,61.646024 37.0734698,61.8295317 36.8630313,61.8295317 L36.8630313,61.8295317 Z M20.8874772,61.0103009 L36.4825159,61.0103009 L36.4825159,59.6181547 C36.4825159,57.6550047 34.9977698,56.0575047 33.1726159,56.0575047 L32.802762,56.0575047 L30.3724389,59.5250355 C30.2457697,59.7055394 30.0074081,59.7413124 29.839362,59.6055932 L28.7597543,58.7303816 L27.6801466,59.6055932 C27.5121004,59.7413124 27.273485,59.7055394 27.1468158,59.5250355 L24.7164927,56.0575047 L24.1976311,56.0575047 C22.3727311,56.0575047 20.8877311,57.6550047 20.8877311,59.6181547 L20.8877311,61.0103009 L20.8874772,61.0103009 Z" id="Shape" fill="#3A312A" fill-rule="nonzero"></path>
                    <path d="M24.9142388,55.6588124 L27.0780235,61.4190971 L20.5059465,61.4190971 L20.5059465,59.6187009 C20.5059465,57.4248009 22.160008,55.6481624 24.1968696,55.6481624 L24.9287081,55.6481624 L24.9142388,55.6588124 Z" id="Path" fill="#585858" fill-rule="nonzero"></path>
                    <path d="M27.0780235,61.8287125 L20.5059465,61.8287125 C20.295508,61.8287125 20.1251772,61.6452048 20.1251772,61.4190971 L20.1251772,59.6187009 C20.1251772,57.2033355 21.9516003,55.238547 24.1968696,55.238547 L24.9287081,55.238547 C25.0959927,55.238547 25.2437311,55.3559701 25.2927235,55.5280085 C25.3008465,55.5566816 25.3059235,55.5859008 25.3082081,55.614847 L27.4308696,61.2653548 C27.4783389,61.3917894 27.4643773,61.5351548 27.3935543,61.6479355 C27.322985,61.7609894 27.2046927,61.8287125 27.0780235,61.8287125 L27.0780235,61.8287125 Z M20.8869695,61.0094817 L26.5137235,61.0094817 L24.6535388,56.0577778 L24.1971234,56.0577778 C22.3719696,56.0577778 20.8869695,57.6552778 20.8869695,59.6187009 L20.8869695,61.0094817 Z" id="Shape" fill="#3A312A" fill-rule="nonzero"></path>
                    <path d="M36.8627775,59.618974 L36.8627775,61.4193701 L30.4397081,61.4193701 L32.6034928,55.6590854 L32.5887697,55.6487085 L33.1718543,55.6487085 C35.2112544,55.6484354 36.8627775,57.4250739 36.8627775,59.618974 L36.8627775,59.618974 Z" id="Path" fill="#585858" fill-rule="nonzero"></path>
                    <path d="M36.8627775,61.8287125 L30.4397081,61.8287125 C30.3130389,61.8287125 30.1947466,61.7609894 30.1239235,61.6482086 C30.0531004,61.5354278 30.0391389,61.3917894 30.0866081,61.2659009 L32.2212005,55.5831701 C32.2237389,55.5665124 32.2272928,55.5498547 32.2321159,55.533197 C32.2811082,55.3611585 32.4217389,55.238547 32.5887697,55.238547 L33.1718543,55.238547 C35.4171236,55.238547 37.2435467,57.2033355 37.2435467,59.6187009 L37.2435467,61.4190971 C37.2435467,61.6452048 37.0732159,61.8287125 36.8627775,61.8287125 L36.8627775,61.8287125 Z M31.004262,61.0094817 L36.4820082,61.0094817 L36.4820082,59.6187009 C36.4820082,57.6552778 34.9970082,56.0577778 33.1718543,56.0577778 L32.8641928,56.0577778 L31.004262,61.0094817 Z" id="Shape" fill="#3A312A" fill-rule="nonzero"></path>
                    <path d="M23.7998542,45.8075622 C23.7998542,46.6702122 23.1497542,47.3698353 22.3476003,47.3698353 C21.5457003,47.3698353 20.8956003,46.6704853 20.8956003,45.8075622 C20.8956003,44.9449122 21.5457003,44.2452891 22.3476003,44.2452891 C23.1497542,44.2452891 23.7998542,44.9446391 23.7998542,45.8075622 Z" id="Path" fill="#F8E4C8"></path>
                    <path d="M22.3478542,47.7791776 C21.3372926,47.7791776 20.5148311,46.8949545 20.5148311,45.8075622 C20.5148311,44.720443 21.3370388,43.8356737 22.3478542,43.8356737 C23.3584157,43.8356737 24.1808773,44.7201699 24.1808773,45.8075622 C24.1806234,46.8946815 23.3584157,47.7791776 22.3478542,47.7791776 Z M22.3478542,44.6549045 C21.7571542,44.6549045 21.2763695,45.1718391 21.2763695,45.8075622 C21.2763695,46.4430122 21.7571542,46.9599469 22.3478542,46.9599469 C22.9385542,46.9599469 23.4193388,46.4430122 23.4193388,45.8075622 C23.419085,45.1721122 22.9385542,44.6549045 22.3478542,44.6549045 Z" id="Shape" fill="#3A312A" fill-rule="nonzero"></path>
                    <polygon id="Path" fill="#ED6E7A" fill-rule="nonzero" transform="translate(26.860062, 56.955883) rotate(-36.995898) translate(-26.860062, -56.955883) " points="26.0910275 54.7768918 27.7825382 54.7169484 27.6290968 59.1348745 25.9375861 59.1948179"></polygon>
                    <path d="M27.4504158,59.6880624 C27.4329004,59.6880624 27.4151312,59.686697 27.3976158,59.6839663 C27.2976004,59.668674 27.2072312,59.6116009 27.1465619,59.5247624 L24.6111465,55.9054008 C24.5502234,55.8188354 24.5240773,55.7096047 24.5380388,55.6020124 C24.5520004,55.4944201 24.6053081,55.3972047 24.6860311,55.3319393 L26.0001927,54.2666662 C26.1682389,54.130947 26.4068542,54.16672 26.5335235,54.347497 L29.0689389,57.9665855 C29.1953543,58.1470893 29.1621004,58.4040547 28.9940543,58.5403201 L27.6798927,59.6058663 C27.6131312,59.6596624 27.5326619,59.6880624 27.4504158,59.6880624 L27.4504158,59.6880624 Z M25.4483311,55.7396431 L27.5253004,58.7047124 L28.2315004,58.1320701 L26.1542773,55.1672739 L25.4483311,55.7396431 Z" id="Shape" fill="#3A312A" fill-rule="nonzero"></path>
                    <polygon id="Path" fill="#ED6E7A" fill-rule="nonzero" transform="translate(30.672422, 56.906388) rotate(-143.004102) translate(-30.672422, -56.906388) " points="29.7499464 54.6674529 31.4414572 54.7273963 31.5948986 59.1453224 29.9033878 59.085379"></polygon>
                    <path d="M30.0683312,59.6880624 C29.9860851,59.6880624 29.9056158,59.6593894 29.8391081,59.6055932 L28.5249466,58.540047 C28.3569004,58.4037816 28.3236466,58.1470893 28.450062,57.9663124 L30.9854774,54.3472239 C31.1121466,54.166447 31.350762,54.1306739 31.5188082,54.2663931 L32.8329697,55.3316662 C33.0010159,55.4679316 33.0345236,55.724897 32.9078543,55.9054008 L30.3724389,59.5247624 C30.3117697,59.6116009 30.2214005,59.668674 30.1213851,59.6839663 C30.1036158,59.686697 30.0858466,59.6880624 30.0683312,59.6880624 L30.0683312,59.6880624 Z M29.2872466,58.1323432 L29.9934466,58.7049855 L32.0704159,55.7399162 L31.3644697,55.167547 L29.2872466,58.1323432 Z" id="Shape" fill="#3A312A" fill-rule="nonzero"></path>
                    <path d="M36.470839,45.7731545 C36.470839,46.6358045 35.820739,47.3351546 35.0185851,47.3351546 C34.2166851,47.3351546 33.5663313,46.6358045 33.5663313,45.7731545 C33.5663313,44.9102314 34.2164313,44.2108814 35.0185851,44.2108814 C35.820739,44.2111545 36.470839,44.9105045 36.470839,45.7731545 Z" id="Path" fill="#F8E4C8"></path>
                    <path d="M35.018839,47.745043 C34.0082774,47.745043 33.1858159,46.8605469 33.1858159,45.7731545 C33.1858159,44.6860353 34.0080236,43.801266 35.018839,43.801266 C36.0296544,43.801266 36.8518621,44.6857622 36.8518621,45.7731545 C36.8516082,46.8605469 36.0294005,47.745043 35.018839,47.745043 Z M35.018839,44.6204968 C34.428139,44.6204968 33.9473544,45.1377045 33.9473544,45.7731545 C33.9473544,46.4086045 34.428139,46.9258122 35.018839,46.9258122 C35.609539,46.9258122 36.0903236,46.4086045 36.0903236,45.7731545 C36.0900698,45.1377045 35.609539,44.6204968 35.018839,44.6204968 Z" id="Shape" fill="#3A312A" fill-rule="nonzero"></path>
                    <path d="M35.1226621,45.0492276 C35.1226621,48.873943 31.6985312,54.7445508 28.6851235,54.7445508 C25.8087927,54.7445508 22.2475849,48.873943 22.2475849,45.0492276 C22.2475849,41.2245122 25.1297542,38.1239967 28.6851235,38.1239967 C32.2404928,38.1239967 35.1226621,41.2245122 35.1226621,45.0492276 L35.1226621,45.0492276 Z" id="Path" fill="#F8E4C8" fill-rule="nonzero"></path>
                    <path d="M28.6848697,55.1541662 C25.5237235,55.1541662 21.8668157,49.0388815 21.8668157,45.0492276 C21.8668157,41.0046852 24.9254081,37.7146544 28.6848697,37.7146544 C32.4445851,37.7146544 35.5031775,41.0049583 35.5031775,45.0492276 C35.5034313,49.1309084 31.911762,55.1541662 28.6848697,55.1541662 L28.6848697,55.1541662 Z M28.6848697,38.5336121 C25.3452696,38.5336121 22.6283542,41.4563545 22.6283542,45.0489545 C22.6283542,48.5773815 26.0118696,54.3346623 28.6848697,54.3346623 C31.4345312,54.3346623 34.741639,48.6311776 34.741639,45.0489545 C34.7418928,41.4563545 32.0247236,38.5336121 28.6848697,38.5336121 L28.6848697,38.5336121 Z" id="Shape" fill="#3A312A" fill-rule="nonzero"></path>
                    <path d="M27.0407081,44.9708545 C27.0407081,45.3441507 26.7594466,45.6467199 26.4124389,45.6467199 C26.0654312,45.6467199 25.7841696,45.3441507 25.7841696,44.9708545 C25.7841696,44.5975584 26.0654312,44.2949891 26.4124389,44.2949891 C26.7591927,44.2949891 27.0407081,44.5975584 27.0407081,44.9708545 Z" id="Path" fill="#3A312A" fill-rule="nonzero"></path>
                    <path d="M31.5860774,44.9708545 C31.5860774,45.3441507 31.3048159,45.6467199 30.9578082,45.6467199 C30.6108005,45.6467199 30.3295389,45.3441507 30.3295389,44.9708545 C30.3295389,44.5975584 30.6108005,44.2949891 30.9578082,44.2949891 C31.3048159,44.2949891 31.5860774,44.5975584 31.5860774,44.9708545 Z" id="Path" fill="#3A312A" fill-rule="nonzero"></path>
                    <path d="M26.2388081,46.9804276 C26.2388081,47.4613161 25.7542158,47.8509969 25.1564081,47.8509969 C24.5586004,47.8509969 24.0740081,47.4613161 24.0740081,46.9804276 C24.0740081,46.4998122 24.5586004,46.1098584 25.1564081,46.1098584 C25.7542158,46.1101315 26.2388081,46.4998122 26.2388081,46.9804276 Z" id="Path" fill="#F59689" fill-rule="nonzero"></path>
                    <path d="M33.2959851,46.9804276 C33.2959851,47.4613161 32.8113928,47.8509969 32.2135851,47.8509969 C31.6157774,47.8509969 31.1311851,47.4613161 31.1311851,46.9804276 C31.1311851,46.4998122 31.6157774,46.1098584 32.2135851,46.1098584 C32.8113928,46.1101315 33.2959851,46.4998122 33.2959851,46.9804276 Z" id="Path" fill="#F59689" fill-rule="nonzero"></path>
                    <path d="M28.6848697,51.0760354 C27.6948696,51.0760354 26.9805466,50.5967854 26.5622081,49.651393 C26.4718389,49.4471315 26.5525619,49.2027277 26.742185,49.1055123 C26.9323158,49.008843 27.1592543,49.0951353 27.2496235,49.2993969 C27.5387543,49.9525969 27.994662,50.2568046 28.6846158,50.2568046 C29.4918466,50.2568046 29.9774543,49.7038238 30.106662,49.33162 C30.1802774,49.1197123 30.3996005,49.0118469 30.5968389,49.0918584 C30.7935697,49.1710507 30.8935851,49.4069892 30.8197158,49.61917 C30.5760235,50.3207046 29.8035697,51.0760354 28.6848697,51.0760354 L28.6848697,51.0760354 Z" id="Path" fill="#3A312A" fill-rule="nonzero"></path>
                    <path d="M36.0113775,42.5109776 C36.0113775,43.2204314 35.9255775,43.9083122 35.7633698,44.5631507 C34.114639,43.7078737 32.5461236,42.658166 31.0931082,41.4713737 C30.6669005,41.1237468 30.2472928,40.7619198 29.8464697,40.3782468 C29.3545158,39.914016 28.8894697,39.413466 28.469862,38.8714083 C27.5570312,37.6889852 26.8866235,36.3304275 26.3195312,34.915889 C27.0353773,34.6662967 27.7994543,34.5322159 28.5929773,34.5322159 C30.7148774,34.5322159 32.6293851,35.4912621 33.9818774,37.0284121 C35.2404467,38.4574236 36.0113775,40.3867121 36.0113775,42.5109776 L36.0113775,42.5109776 Z" id="Path" fill="#585858" fill-rule="nonzero"></path>
                    <path d="M35.7633698,44.9727661 C35.7067621,44.9727661 35.6501544,44.9591122 35.5981159,44.9320776 C33.9666467,44.0860853 32.3735082,43.0314622 30.8628697,41.7974275 C30.3795466,41.4033775 29.9640004,41.039366 29.5931312,40.6840929 C29.0615774,40.1824506 28.5843466,39.6600544 28.1769235,39.133016 C27.3516696,38.064466 26.6505466,36.7758159 25.9697312,35.0778236 C25.9273388,34.9718698 25.9283542,34.8517159 25.9725235,34.7468544 C26.0166927,34.6417197 26.0999542,34.5614351 26.2020004,34.5259351 C26.9701389,34.2580467 27.7745773,34.1220544 28.5929773,34.1220544 C30.7575235,34.1220544 32.7695082,35.0540659 34.2583159,36.7463236 C35.6341621,38.3085967 36.3921467,40.3555814 36.3921467,42.5104314 C36.3921467,43.243643 36.3043159,43.9694814 36.1314467,44.6677391 C36.1022544,44.7859814 36.0255928,44.883743 35.9225313,44.9348084 C35.8717621,44.9602045 35.8176928,44.9727661 35.7633698,44.9727661 L35.7633698,44.9727661 Z M26.8434696,35.1783159 C27.4395004,36.5942198 28.0545696,37.6922621 28.7625466,38.6092544 C29.144585,39.1029775 29.5936389,39.594516 30.0975235,40.0699429 C30.4551928,40.4126544 30.8555082,40.7632852 31.3230928,41.1447737 C32.6611159,42.2376276 34.0643774,43.1854776 35.5008928,43.9667507 C35.5872005,43.4902314 35.6308621,43.002516 35.6308621,42.5109776 C35.6308621,40.5666698 34.9472544,38.7195775 33.7056928,37.3099544 C32.3620851,35.7826351 30.5463235,34.9415582 28.5932312,34.9415582 C27.9977081,34.9415582 27.4110696,35.0210236 26.8434696,35.1783159 L26.8434696,35.1783159 Z" id="Shape" fill="#3A312A" fill-rule="nonzero"></path>
                    <path d="M33.9818774,37.028139 C32.7057928,38.2799236 31.3170005,39.3872506 29.8464697,40.3779737 C27.2392158,42.1357699 24.3798927,43.5232737 21.4535542,44.6783891 C21.2725619,43.989143 21.1761003,43.2622122 21.1761003,42.5109776 C21.1761003,38.9577006 23.3355696,35.9467544 26.319785,34.9156159 C27.0356312,34.6660236 27.7997081,34.5319428 28.5932312,34.5319428 C30.7148774,34.5319428 32.6291313,35.490989 33.9818774,37.028139 L33.9818774,37.028139 Z" id="Path" fill="#585858" fill-rule="nonzero"></path>
                    <path d="M21.4533003,45.0880045 C21.3936465,45.0880045 21.3345003,45.0729853 21.2801772,45.0432199 C21.1857465,44.9916084 21.1156849,44.8995814 21.0870003,44.7895314 C20.8933157,44.0519507 20.7950772,43.2851506 20.7950772,42.5107045 C20.7950772,38.8522929 22.968508,35.6430928 26.2030158,34.5256621 C26.9701389,34.2580467 27.7745773,34.1220544 28.5929773,34.1220544 C30.7575235,34.1220544 32.7695082,35.0540659 34.2583159,36.7463236 C34.3286313,36.8263352 34.3659467,36.9333813 34.3623928,37.0431582 C34.3585851,37.1529352 34.3139082,37.2564313 34.2385159,37.3307082 C33.0030466,38.5423506 31.5934389,39.6840852 30.0485312,40.7250545 C27.6494312,42.3427622 24.8807311,43.7616699 21.5847926,45.0628814 C21.5421465,45.0798122 21.4974696,45.0880045 21.4533003,45.0880045 L21.4533003,45.0880045 Z M28.5929773,34.9415582 C27.8545389,34.9415582 27.1290466,35.0638967 26.4368081,35.3052967 C23.5173234,36.3137698 21.5566157,39.2094775 21.5566157,42.5109776 C21.5566157,43.0601353 21.6111926,43.6049237 21.7193311,44.1355122 C24.7908696,42.8979276 27.3867004,41.5530237 29.6441543,40.031166 C31.0281235,39.0988814 32.2993851,38.0844006 33.4287467,37.0117544 C32.1173774,35.6736775 30.4150851,34.9415582 28.5929773,34.9415582 L28.5929773,34.9415582 Z" id="Shape" fill="#3A312A" fill-rule="nonzero"></path>
                    <path d="M23.5703773,61.8295317 C23.3599388,61.8295317 23.189608,61.646024 23.189608,61.4199163 L23.189608,58.5654432 C23.189608,58.3393355 23.3599388,58.1558278 23.5703773,58.1558278 C23.7808157,58.1558278 23.9511465,58.3393355 23.9511465,58.5654432 L23.9511465,61.4199163 C23.9511465,61.646024 23.7808157,61.8295317 23.5703773,61.8295317 Z" id="Path" fill="#3A312A" fill-rule="nonzero"></path>
                    <path d="M33.799362,61.8295317 C33.5889236,61.8295317 33.4185928,61.646024 33.4185928,61.4199163 L33.4185928,58.5763663 C33.4185928,58.3502586 33.5889236,58.1667509 33.799362,58.1667509 C34.0098005,58.1667509 34.1801313,58.3502586 34.1801313,58.5763663 L34.1801313,61.4199163 C34.1801313,61.646024 34.0095467,61.8295317 33.799362,61.8295317 Z" id="Path" fill="#3A312A" fill-rule="nonzero"></path>
                    <path d="M17.4189233,61.4425817 L17.4189233,57.6959662 C17.4189233,55.412497 15.6983541,53.5615816 13.5756925,53.5615816 L11.0364694,53.5615816 L11.0364694,51.7863085 C10.3340771,52.31007 9.60731553,52.6191931 8.90238475,52.6191931 C8.22588474,52.6191931 7.51206934,52.3070662 6.81272318,51.7770238 L6.76956933,51.7770238 L6.76956933,53.5615816 L4.22907699,53.5615816 C2.10641542,53.5615816 0.38584616,55.412497 0.38584616,57.6959662 L0.38584616,61.4425817 L17.4189233,61.4425817 Z" id="Path" fill="#F7E3C7" fill-rule="nonzero"></path>
                    <path d="M17.4189233,61.8521971 L0.38584616,61.8521971 C0.175407695,61.8521971 0.00507692315,61.6686894 0.00507692315,61.4425817 L0.00507692315,57.6959662 C0.00507692315,55.1904854 1.89978464,53.1519662 4.22907699,53.1519662 L6.38905394,53.1519662 L6.38905394,51.7770238 C6.38905394,51.5509162 6.55938471,51.3674085 6.76982318,51.3674085 L6.81272318,51.3674085 C6.89141549,51.3674085 6.96782318,51.3936238 7.03204626,51.4419585 C7.70372319,51.9512469 8.33300782,52.2095777 8.90238475,52.2095777 C9.49841553,52.2095777 10.1434386,51.9539777 10.8196848,51.4498777 C10.9359463,51.3630392 11.0877463,51.3529354 11.2131463,51.4233892 C11.3385463,51.4941162 11.4172386,51.6339315 11.4172386,51.7863085 L11.4172386,53.1519662 L13.5756925,53.1519662 C15.904731,53.1519662 17.7996926,55.1904854 17.7996926,57.6959662 L17.7996926,61.4425817 C17.7996926,61.6686894 17.6293618,61.8521971 17.4189233,61.8521971 Z M0.766615396,61.0329663 L17.0381541,61.0329663 L17.0381541,57.6959662 C17.0381541,55.6421547 15.4848695,53.971197 13.5756925,53.971197 L11.0364694,53.971197 C10.8260309,53.971197 10.6557002,53.7876893 10.6557002,53.5615816 L10.6557002,52.51597 C10.0566232,52.8564969 9.46896937,53.0288085 8.9021309,53.0288085 C8.34290782,53.0288085 7.75550781,52.8474854 7.15033857,52.4883892 L7.15033857,53.5615816 C7.15033857,53.7876893 6.9800078,53.971197 6.76956933,53.971197 L4.22907699,53.971197 C2.31990003,53.971197 0.766615396,55.6421547 0.766615396,57.6959662 L0.766615396,61.0329663 Z" id="Shape" fill="#3A312A" fill-rule="nonzero"></path>
                    <path d="M17.4189233,61.4434009 L17.4189233,57.6946009 C17.4189233,55.4119508 15.6988618,53.5602162 13.5754387,53.5602162 L12.9682387,53.5602162 L12.9837233,53.573597 L10.3427078,57.3406932 L8.97955398,56.2369162 L7.61665396,57.3406932 L4.97563854,53.573597 L4.99112315,53.5602162 L4.22907699,53.5602162 C2.10565388,53.5602162 0.38584616,55.4122239 0.38584616,57.6946009 L0.38584616,61.4434009 L17.4189233,61.4434009 Z" id="Path" fill="#D6DF58" fill-rule="nonzero"></path>
                    <path d="M17.4189233,61.8530163 L0.38584616,61.8530163 C0.175407695,61.8530163 0.00507692315,61.6695086 0.00507692315,61.4434009 L0.00507692315,57.6943278 C0.00507692315,55.1885739 1.90003849,53.1500546 4.22933083,53.1500546 L4.99112315,53.1500546 C5.15256931,53.1500546 5.29650008,53.2595585 5.35031546,53.4234046 C5.35082316,53.4255893 5.3515847,53.4277739 5.35234623,53.4296854 L7.69179242,56.7666855 L8.75083859,55.9089508 C8.88639244,55.7991739 9.07347706,55.7991739 9.20903091,55.9089508 L10.2680771,56.7666855 L12.6280848,53.4004662 C12.6877387,53.2524585 12.8172002,53.1500546 12.9687463,53.1500546 L13.5759464,53.1500546 C15.9052387,53.1500546 17.8002003,55.1885739 17.8002003,57.6943278 L17.8002003,61.4434009 C17.7996926,61.6695086 17.6293618,61.8530163 17.4189233,61.8530163 L17.4189233,61.8530163 Z M0.766615396,61.0337855 L17.0381541,61.0337855 L17.0381541,57.6943278 C17.0381541,55.6405162 15.4848695,53.9692854 13.5754387,53.9692854 L13.1827387,53.9692854 L10.6468155,57.5867355 C10.5201463,57.7672393 10.2817848,57.8027393 10.1137386,57.6672932 L8.97980783,56.7492085 L7.84587704,57.6672932 C7.67783088,57.8032855 7.43946934,57.7669662 7.31280011,57.5867355 L4.77687699,53.9692854 L4.22958468,53.9692854 C2.32040773,53.9692854 0.766869242,55.6402431 0.766869242,57.6943278 L0.766869242,61.0337855 L0.766615396,61.0337855 Z" id="Shape" fill="#3A312A" fill-rule="nonzero"></path>
                    <path d="M7.57705396,61.443674 L4.97589238,53.5733239 L4.99112315,53.55967 L4.22856929,53.55967 C2.10565388,53.55967 0.385592313,55.4114047 0.385592313,57.695147 L0.385592313,61.443674 L7.57705396,61.443674 Z" id="Path" fill="#585858" fill-rule="nonzero"></path>
                    <path d="M7.57705396,61.8532894 L0.38584616,61.8532894 C0.175407695,61.8532894 0.00507692315,61.6697817 0.00507692315,61.443674 L0.00507692315,57.695147 C0.00507692315,55.188847 1.89978464,53.1497816 4.22882314,53.1497816 L4.991377,53.1497816 C5.15155392,53.1497816 5.29446931,53.2576469 5.34930008,53.4193085 C5.36351546,53.4616354 5.37113085,53.5050546 5.37214623,53.548747 L7.93599243,61.3060432 C7.9776232,61.4316586 7.95960012,61.5709278 7.88826935,61.6796125 C7.81668473,61.7885702 7.70067704,61.8532894 7.57705396,61.8532894 L7.57705396,61.8532894 Z M0.766615396,61.0340586 L7.03737703,61.0340586 L4.70250007,53.9692854 L4.22856929,53.9692854 C2.31939234,53.9692854 0.76636155,55.6407893 0.76636155,57.6954201 L0.76636155,61.0340586 L0.766615396,61.0340586 Z" id="Shape" fill="#3A312A" fill-rule="nonzero"></path>
                    <path d="M17.4189233,57.695147 L17.4189233,61.443674 L10.3833232,61.443674 L12.984231,53.5733239 L12.967731,53.55967 L13.5759464,53.55967 C15.6988618,53.55967 17.4189233,55.4114047 17.4189233,57.695147 Z" id="Path" fill="#585858" fill-rule="nonzero"></path>
                    <path d="M17.4189233,61.8532894 L10.3833232,61.8532894 C10.2597002,61.8532894 10.1436925,61.7885702 10.0721078,61.6798855 C10.0007771,61.5712009 9.98300784,61.4319317 10.0243848,61.3063163 L12.5983848,53.5178893 C12.6011771,53.4894893 12.6067617,53.4613623 12.6156463,53.4337816 C12.6684463,53.2682969 12.8047617,53.1500546 12.9674771,53.1500546 L13.5756925,53.1500546 C15.904731,53.1500546 17.799439,55.1891201 17.799439,57.6954201 L17.799439,61.4439471 C17.7996926,61.6697817 17.629108,61.8532894 17.4189233,61.8532894 L17.4189233,61.8532894 Z M10.9227463,61.0340586 L17.0379003,61.0340586 L17.0379003,57.695147 C17.0379003,55.6407893 15.4848695,53.9690123 13.5756925,53.9690123 L13.2573694,53.9690123 L10.9227463,61.0340586 Z" id="Shape" fill="#3A312A" fill-rule="nonzero"></path>
                    <ellipse id="Oval" fill="#F7E3C7" cx="2.30314619" cy="43.3130045" rx="1.51216156" ry="1.62671926"></ellipse>
                    <path d="M2.30314619,45.3490661 C1.25933079,45.3490661 0.410215391,44.4356237 0.410215391,43.3127314 C0.410215391,42.1898391 1.25933079,41.2763968 2.30314619,41.2763968 C3.34696159,41.2763968 4.19633083,42.1898391 4.19633083,43.3127314 C4.19607699,44.4358968 3.34696159,45.3490661 2.30314619,45.3490661 Z M2.30314619,42.0956276 C1.67919233,42.0956276 1.17175386,42.6415083 1.17175386,43.3127314 C1.17175386,43.9839545 1.67944618,44.5298353 2.30314619,44.5298353 C2.92710004,44.5298353 3.43479236,43.9839545 3.43479236,43.3127314 C3.43453851,42.6415083 2.92710004,42.0956276 2.30314619,42.0956276 Z" id="Shape" fill="#3A312A" fill-rule="nonzero"></path>
                    <path d="M17.0142926,43.3130045 C17.0142926,44.2114276 16.3372849,44.9397237 15.502131,44.9397237 C14.6669771,44.9397237 13.9899694,44.2114276 13.9899694,43.3130045 C13.9899694,42.4145814 14.6669771,41.6862852 15.502131,41.6862852 C16.3372849,41.6860122 17.0142926,42.4143083 17.0142926,43.3130045 Z" id="Path" fill="#F7E3C7"></path>
                    <path d="M15.502131,45.3490661 C14.4583156,45.3490661 13.6092002,44.4356237 13.6092002,43.3127314 C13.6092002,42.1898391 14.4583156,41.2763968 15.502131,41.2763968 C16.5459464,41.2763968 17.3950618,42.1898391 17.3950618,43.3127314 C17.3950618,44.4358968 16.5459464,45.3490661 15.502131,45.3490661 Z M15.502131,42.0956276 C14.8781771,42.0956276 14.3707387,42.6415083 14.3707387,43.3127314 C14.3707387,43.9839545 14.8781771,44.5298353 15.502131,44.5298353 C16.1260849,44.5298353 16.6335233,43.9839545 16.6335233,43.3127314 C16.6335233,42.6415083 16.1260849,42.0956276 15.502131,42.0956276 Z" id="Shape" fill="#3A312A" fill-rule="nonzero"></path>
                    <path d="M15.6722079,41.8831737 C15.6417464,41.8954622 15.6021464,41.909116 15.5841233,41.9353314 C15.4440002,40.0672121 14.6418464,38.3992583 13.427954,37.2059121 C13.1857848,36.9672429 12.979154,36.6958044 12.8133925,36.3995159 C13.6114848,35.8754813 14.0960771,35.1843236 14.0960771,34.4270813 C14.0960771,34.2034313 14.0577464,33.9773236 13.9851464,33.7536736 C15.1822848,35.0374082 15.917931,36.7780005 15.917931,38.6955467 C15.9181849,38.9424083 15.9590541,41.770666 15.6722079,41.8831737 Z" id="Path" fill="#585858" fill-rule="nonzero"></path>
                    <path d="M15.5843772,42.3446737 C15.5493464,42.3446737 15.5143156,42.3397583 15.4795387,42.3288352 C15.3269772,42.2815929 15.2175695,42.1379545 15.2048771,41.9681006 C15.0761771,40.254816 14.3539848,38.6709698 13.1715694,37.5082083 C12.9024925,37.2430506 12.6725079,36.9413006 12.4877079,36.6106044 C12.3798233,36.417539 12.4369386,36.1671275 12.6156463,36.0497044 C13.3251464,35.5838351 13.7158156,35.0076428 13.7158156,34.4270813 C13.7158156,34.2525851 13.6856079,34.0715351 13.6262079,33.8885736 C13.5675694,33.7083428 13.632554,33.5081774 13.782831,33.4065928 C13.9328541,33.3047351 14.1285694,33.3284928 14.2544771,33.4631197 C15.5732079,34.8776582 16.2994618,36.7356736 16.2994618,38.6952737 L16.2999695,38.7810198 C16.3218002,42.0350045 16.0857233,42.1562506 15.8103002,42.2646622 C15.7445541,42.3168199 15.6653541,42.3446737 15.5843772,42.3446737 L15.5843772,42.3446737 Z M13.3446925,36.5082005 C13.4472464,36.6491082 13.5609694,36.7812775 13.6853541,36.9036159 C14.5169541,37.7214813 15.1454771,38.7255852 15.5338618,39.8345506 C15.5389387,39.5366237 15.5407156,39.190089 15.5379233,38.7870275 L15.5374156,38.6952737 C15.5374156,37.3402659 15.1454771,36.0390544 14.4177002,34.9347313 C14.2818925,35.5133813 13.9140694,36.0535275 13.3446925,36.5082005 Z" id="Shape" fill="#3A312A" fill-rule="nonzero"></path>
                    <path d="M3.57618467,61.8527432 C3.3657462,61.8527432 3.19541543,61.6692355 3.19541543,61.4431278 L3.19541543,58.4818816 C3.19541543,58.2557739 3.3657462,58.0722662 3.57618467,58.0722662 C3.78662313,58.0722662 3.95695391,58.2557739 3.95695391,58.4818816 L3.95695391,61.4431278 C3.95695391,61.6692355 3.78662313,61.8527432 3.57618467,61.8527432 Z" id="Path" fill="#3A312A" fill-rule="nonzero"></path>
                    <path d="M14.3836848,61.8527432 C14.1732464,61.8527432 14.0029156,61.6692355 14.0029156,61.4431278 L14.0029156,58.4818816 C14.0029156,58.2557739 14.1732464,58.0722662 14.3836848,58.0722662 C14.5941233,58.0722662 14.7644541,58.2557739 14.7644541,58.4818816 L14.7644541,61.4431278 C14.7644541,61.6692355 14.5938694,61.8527432 14.3836848,61.8527432 Z" id="Path" fill="#3A312A" fill-rule="nonzero"></path>
                    <polygon id="Path" fill="#8AC3DA" fill-rule="nonzero" points="10.028954 61.4434009 7.92583858 61.4434009 8.32285397 58.6735816 9.63193861 58.6735816"></polygon>
                    <path d="M10.028954,61.8530163 L7.92558473,61.8530163 C7.81440012,61.8530163 7.70880011,61.8008586 7.63645396,61.7101971 C7.56410781,61.6195355 7.53212319,61.4991086 7.54913088,61.3811394 L7.94640012,58.6113201 C7.97508473,58.4117009 8.13475397,58.2642393 8.32260012,58.2642393 L9.63143091,58.2642393 C9.81927707,58.2642393 9.97920015,58.4117009 10.0076309,58.6113201 L10.4049002,61.3811394 C10.4219078,61.4993817 10.3899232,61.6195355 10.3175771,61.7101971 C10.2457386,61.8005855 10.1401386,61.8530163 10.028954,61.8530163 L10.028954,61.8530163 Z M8.36981551,61.0337855 L9.58523091,61.0337855 L9.30549245,59.083197 L8.64955398,59.083197 L8.36981551,61.0337855 Z" id="Shape" fill="#3A312A" fill-rule="nonzero"></path>
                    <polygon id="Path" fill="#8AC3DA" fill-rule="nonzero" points="10.0832771 56.2341855 9.63016168 58.6730355 8.32386935 58.6730355 7.8814155 56.2341855"></polygon>
                    <path d="M9.63016168,59.0826509 L8.32386935,59.0826509 C8.14160781,59.0826509 7.98498473,58.9439278 7.95020781,58.7514086 L7.50775396,56.3125585 C7.48592319,56.1926778 7.5151155,56.0681547 7.58746165,55.9736701 C7.65980781,55.8791854 7.76743858,55.8245701 7.8814155,55.8245701 L10.0830232,55.8245701 C10.1970002,55.8245701 10.3051386,55.8794585 10.3774848,55.9744893 C10.4498309,56.0695201 10.4787694,56.1943162 10.4564309,56.3144701 L10.0035694,58.7533201 C9.96828476,58.9450201 9.81191553,59.0826509 9.63016168,59.0826509 Z M8.63762321,58.2634201 L9.31818475,58.2634201 L9.61899245,56.6438008 L8.3439232,56.6438008 L8.63762321,58.2634201 Z" id="Shape" fill="#3A312A" fill-rule="nonzero"></path>
                    <polygon id="Path" fill="#8AC3DA" fill-rule="nonzero" points="29.7434081 32.0742505 27.6156696 32.0742505 28.0175081 29.2724812 29.3415697 29.2724812"></polygon>
                    <path d="M29.7434081,32.4838659 L27.6156696,32.4838659 C27.504485,32.4838659 27.398885,32.4317082 27.3265389,32.3410466 C27.2541927,32.2503851 27.2222081,32.1302312 27.2392158,32.0119889 L27.6410543,29.2102197 C27.6697389,29.0106004 27.8294081,28.8631389 28.0172543,28.8631389 L29.3413158,28.8631389 C29.529162,28.8631389 29.6890851,29.0106004 29.7175158,29.2102197 L30.1193543,32.0119889 C30.136362,32.1302312 30.1043774,32.2503851 30.0320312,32.3410466 C29.9599389,32.4317082 29.8545928,32.4838659 29.7434081,32.4838659 Z M28.0596466,31.6646351 L29.2994312,31.6646351 L29.0151235,29.6820966 L28.3439543,29.6820966 L28.0596466,31.6646351 Z" id="Shape" fill="#3A312A" fill-rule="nonzero"></path>
                    <polygon id="Path" fill="#8AC3DA" fill-rule="nonzero" points="29.7982389 26.804685 29.3400466 29.271662 28.0185235 29.271662 27.5709927 26.804685"></polygon>
                    <path d="M29.3400466,29.6812774 L28.0185235,29.6812774 C27.836262,29.6812774 27.6796389,29.5422812 27.644862,29.3500351 L27.1973312,26.8830581 C27.1755004,26.7631773 27.2046927,26.6386542 27.2770389,26.5441696 C27.349385,26.449685 27.4570158,26.3950696 27.5709927,26.3950696 L29.7982389,26.3950696 C29.9122158,26.3950696 30.0203543,26.4499581 30.0927004,26.5449889 C30.1650466,26.6400196 30.1939851,26.7648158 30.1716466,26.8849696 L29.7134543,29.3519466 C29.6779158,29.5436466 29.5215466,29.6812774 29.3400466,29.6812774 L29.3400466,29.6812774 Z M28.3320235,28.8620466 L29.0278158,28.8620466 L29.3337004,27.2143004 L28.0332466,27.2143004 L28.3320235,28.8620466 Z" id="Shape" fill="#3A312A" fill-rule="nonzero"></path>
                    <polygon id="Path" fill="#D6DF58" fill-rule="nonzero" transform="translate(6.993258, 54.923347) rotate(-36.995898) translate(-6.993258, -54.923347) " points="6.19243649 52.6541483 7.9538724 52.591727 7.79407887 57.1925464 6.03264295 57.2549678"></polygon>
                    <path d="M7.61690781,57.7505816 C7.59939242,57.7505816 7.58162319,57.7492162 7.56410781,57.7464855 C7.46409242,57.7311932 7.37372319,57.6741201 7.31305396,57.5872816 L4.67280007,53.8182739 C4.61187699,53.7317085 4.58573084,53.6224777 4.59969238,53.5148854 C4.61365391,53.4072931 4.66696161,53.3100777 4.74768469,53.2448123 L6.11642317,52.1355739 C6.28421548,51.9998546 6.52308471,52.0356277 6.64975395,52.2164046 L9.29000783,55.9851393 C9.41667706,56.1656431 9.38316937,56.4226085 9.21512321,56.5588739 L7.84663858,57.6686586 C7.77962319,57.7221816 7.69915396,57.7505816 7.61690781,57.7505816 L7.61690781,57.7505816 Z M5.5099847,53.6527893 L7.69204627,56.7675047 L8.45256936,56.150897 L6.27050779,53.0364546 L5.5099847,53.6527893 Z" id="Shape" fill="#3A312A" fill-rule="nonzero"></path>
                    <polygon id="Path" fill="#D6DF58" fill-rule="nonzero" transform="translate(10.981473, 54.876597) rotate(-143.004102) translate(-10.981473, -54.876597) " points="10.0208585 52.5449762 11.7822944 52.6073976 11.942088 57.208217 10.1806521 57.1457957"></polygon>
                    <path d="M10.3432155,57.7505816 C10.2609694,57.7505816 10.1805002,57.7221816 10.1139925,57.6681124 L8.74525398,56.5583278 C8.57720782,56.4220624 8.54370013,56.1653701 8.67036936,55.9845931 L11.3106232,52.2158585 C11.4372925,52.0350815 11.675654,51.9993085 11.843954,52.1350277 L13.2126925,53.2442662 C13.2931617,53.3095316 13.3464694,53.40702 13.360431,53.5143393 C13.3746464,53.6222046 13.3482464,53.7311623 13.2873233,53.8177277 L10.6470694,57.5867355 C10.5864002,57.6735739 10.4960309,57.730647 10.3960155,57.7459393 C10.3785002,57.7494893 10.3607309,57.7505816 10.3432155,57.7505816 L10.3432155,57.7505816 Z M9.50780783,56.150897 L10.2683309,56.7675047 L12.4501386,53.6527893 L11.6896156,53.0364546 L9.50780783,56.150897 Z" id="Shape" fill="#3A312A" fill-rule="nonzero"></path>
                    <path d="M15.6059541,42.5238122 C15.6059541,46.5055468 12.0409386,52.6202854 8.90314629,52.6202854 C5.90674624,52.6202854 2.19906926,46.5055468 2.19906926,42.5238122 C2.19906926,42.3127237 2.20795388,42.1040929 2.22343849,41.898466 C2.22597696,41.8681545 2.22851542,41.838116 2.23232311,41.8080775 C2.25669234,41.5926199 2.3087308,41.3610506 2.38412311,41.1196506 C3.15810005,38.6081621 5.50033854,37.0404275 7.94310012,37.3394467 C8.28350782,37.3820467 8.63533859,37.4038929 8.99630783,37.4038929 C10.5160848,37.4038929 11.8805079,37.0158506 12.8136463,36.4011544 C12.9794079,36.6960775 13.1860387,36.967789 13.4282079,37.2048198 C14.7669925,38.522689 15.6059541,40.4170237 15.6059541,42.5238122 L15.6059541,42.5238122 Z" id="Path" fill="#F7E3C7" fill-rule="nonzero"></path>
                    <path d="M8.90314629,53.0296277 C5.61837701,53.0296277 1.81830003,46.6718507 1.81830003,42.5235391 C1.81830003,42.3105391 1.82667695,42.0950814 1.84393849,41.8654237 C1.84723849,41.8258275 1.85028464,41.7897814 1.85485387,41.7537352 C1.88100003,41.5210737 1.93786157,41.2621968 2.02315388,40.9888468 C2.84663081,38.316516 5.354377,36.6095121 7.98625397,36.9317429 C8.31625397,36.9727044 8.65590013,36.9937313 8.99630783,36.9937313 C10.3863694,36.9937313 11.7051002,36.6502005 12.6148848,36.0513428 C12.7014463,35.9942698 12.8055233,35.9762467 12.9037617,36.0027352 C13.002254,36.0284044 13.0870387,36.0955813 13.1395848,36.1887005 C13.287831,36.4527659 13.4713617,36.6925275 13.6845925,36.9017044 C15.1477618,38.3421852 15.9867233,40.3910814 15.9867233,42.5235391 C15.9867233,46.7677007 12.2554386,53.0296277 8.90314629,53.0296277 L8.90314629,53.0296277 Z M7.34808472,37.7124698 C5.28203085,37.7124698 3.39900005,39.1278275 2.74560004,41.2479968 C2.67630004,41.4702814 2.63086158,41.6750891 2.61030004,41.8569583 C2.60674619,41.8856314 2.60471542,41.9096622 2.60268465,41.933966 C2.58745388,42.1387737 2.5798385,42.3326583 2.5798385,42.5235391 C2.5798385,46.204343 6.11236163,52.2103969 8.90314629,52.2103969 C11.7731309,52.2103969 15.2251848,46.2608699 15.2251848,42.5235391 C15.2251848,40.620466 14.4765925,38.7919429 13.1710617,37.5065698 C12.995654,37.3345313 12.8362387,37.1458352 12.6945925,36.9426659 C11.695454,37.4986506 10.3711386,37.8132352 8.99630783,37.8132352 C8.62670782,37.8132352 8.25761551,37.7905698 7.89943858,37.7460583 C7.71463858,37.7233929 7.53034627,37.7124698 7.34808472,37.7124698 L7.34808472,37.7124698 Z" id="Shape" fill="#3A312A" fill-rule="nonzero"></path>
                    <path d="M7.19019241,42.4418891 C7.19019241,42.8307506 6.89725395,43.1458814 6.53577702,43.1458814 C6.17430009,43.1458814 5.88136163,42.8307506 5.88136163,42.4418891 C5.88136163,42.0530275 6.17430009,41.7378968 6.53577702,41.7378968 C6.89725395,41.7378968 7.19019241,42.0530275 7.19019241,42.4418891 Z" id="Path" fill="#3A312A" fill-rule="nonzero"></path>
                    <path d="M11.9236617,42.4418891 C11.9236617,42.8307506 11.6307233,43.1458814 11.2692463,43.1458814 C10.9077694,43.1458814 10.6148309,42.8307506 10.6148309,42.4418891 C10.6148309,42.0530275 10.9077694,41.7378968 11.2692463,41.7378968 C11.6307233,41.7378968 11.9236617,42.0530275 11.9236617,42.4418891 Z" id="Path" fill="#3A312A" fill-rule="nonzero"></path>
                    <path d="M6.3552924,44.5344776 C6.3552924,45.0350276 5.85064624,45.441093 5.22821546,45.441093 C4.60578468,45.441093 4.10113852,45.0353007 4.10113852,44.5344776 C4.10113852,44.0339276 4.60578468,43.6281353 5.22821546,43.6281353 C5.85064624,43.6281353 6.3552924,44.0339276 6.3552924,44.5344776 Z" id="Path" fill="#F59689" fill-rule="nonzero"></path>
                    <path d="M13.7043925,44.5344776 C13.7043925,45.0350276 13.1997464,45.441093 12.5773156,45.441093 C11.9548848,45.441093 11.4502386,45.0353007 11.4502386,44.5344776 C11.4502386,44.0339276 11.9548848,43.6281353 12.5773156,43.6281353 C13.1997464,43.6281353 13.7043925,44.0339276 13.7043925,44.5344776 Z" id="Path" fill="#F59689" fill-rule="nonzero"></path>
                    <g id="Group" transform="translate(1.776923, 39.323078)" fill="#3A312A" fill-rule="nonzero">
                        <path d="M7.12546164,9.45938476 C6.10068471,9.45938476 5.36199239,8.96347706 4.92918469,7.98558858 C4.83881546,7.78132704 4.91953853,7.53692319 5.10941546,7.4397078 C5.29903854,7.34303857 5.52673854,7.42933088 5.61685393,7.63359242 C5.92070778,8.32038089 6.40022317,8.64042705 7.12546164,8.64042705 C7.97406935,8.64042705 8.48480782,8.05768089 8.62112321,7.66608858 C8.69473859,7.45418088 8.91406167,7.34631549 9.11130014,7.42632703 C9.30828475,7.50551934 9.40804629,7.74145781 9.33443091,7.95363858 C9.08185398,8.67838474 8.28300012,9.45938476 7.12546164,9.45938476 L7.12546164,9.45938476 Z" id="Path"></path>
                        <path d="M4.19937699,6.08087701 C2.66310004,6.08087701 1.41316156,4.73624622 1.41316156,3.08358466 C1.41316156,1.4309231 2.66310004,0.086292309 4.19937699,0.086292309 C5.73565393,0.086292309 6.98559241,1.4309231 6.98559241,3.08358466 C6.98559241,4.73624622 5.73565393,6.08087701 4.19937699,6.08087701 Z M4.19937699,0.90552309 C3.08296158,0.90552309 2.17470003,1.88259234 2.17470003,3.08358466 C2.17470003,4.28430391 3.08296158,5.26164623 4.19937699,5.26164623 C5.31579239,5.26164623 6.22405394,4.28457699 6.22405394,3.08358466 C6.22405394,1.88286541 5.31579239,0.90552309 4.19937699,0.90552309 Z" id="Shape"></path>
                        <path d="M10.2061386,6.08087701 C8.66986167,6.08087701 7.41992319,4.73624622 7.41992319,3.08358466 C7.41992319,1.4309231 8.66986167,0.086292309 10.2061386,0.086292309 C11.7424156,0.086292309 12.992354,1.4309231 12.992354,3.08358466 C12.992354,4.73624622 11.7424156,6.08087701 10.2061386,6.08087701 Z M10.2061386,0.90552309 C9.08972321,0.90552309 8.18146166,1.88259234 8.18146166,3.08358466 C8.18146166,4.28430391 9.08972321,5.26164623 10.2061386,5.26164623 C11.322554,5.26164623 12.2308156,4.28457699 12.2308156,3.08358466 C12.2308156,1.88286541 11.322554,0.90552309 10.2061386,0.90552309 Z" id="Shape"></path>
                        <path d="M7.80069242,3.48801159 L6.60456933,3.48801159 C6.39413086,3.48801159 6.22380009,3.3045039 6.22380009,3.0783962 C6.22380009,2.8522885 6.39413086,2.66878081 6.60456933,2.66878081 L7.80069242,2.66878081 C8.01113089,2.66878081 8.18146166,2.8522885 8.18146166,3.0783962 C8.18146166,3.3045039 8.01113089,3.48801159 7.80069242,3.48801159 L7.80069242,3.48801159 Z" id="Path"></path>
                        <path d="M1.85840772,2.91209235 C1.84546157,2.91209235 1.83276926,2.9115462 1.8198231,2.90990774 L0.431284622,2.75916927 C0.222115388,2.73650389 0.0695538472,2.53579235 0.0906230783,2.31050388 C0.111692309,2.08548849 0.298015389,1.91836541 0.507692315,1.94403464 L1.8962308,2.09477311 C2.10540003,2.11743849 2.25796157,2.31815003 2.23689234,2.5434385 C2.21709234,2.75480004 2.05158465,2.91209235 1.85840772,2.91209235 L1.85840772,2.91209235 Z" id="Path"></path>
                        <path d="M12.5488848,2.91209235 C12.358754,2.91209235 12.1942617,2.75889619 12.1714156,2.55108465 C12.1465386,2.32634234 12.2955463,2.12262695 12.5044617,2.09586542 L13.7389156,1.93775388 C13.9468156,1.90771541 14.1372002,2.07156157 14.1620771,2.29575773 C14.1869541,2.52050004 14.0379464,2.72421543 13.829031,2.75097696 L12.5945771,2.9090885 C12.5790925,2.91127312 12.5638617,2.91209235 12.5488848,2.91209235 Z" id="Path"></path>
                    </g>
                    <path d="M9.53700014,30.8574197 C7.26964626,30.7050428 5.26375392,31.8328505 4.28263853,32.8522466 C2.80220773,34.1605582 2.04066926,36.5300467 2.04066926,38.6950006 C2.04066926,39.090689 2.10565388,41.3416622 2.2229308,41.898466 C2.24196926,41.6578852 2.2988308,41.3951852 2.38412311,41.1188314 C3.15759235,38.6081621 5.50033854,37.0396082 7.94310012,37.3391736 C8.28274628,37.3809544 8.6348309,37.4028006 8.99580013,37.4028006 C11.8122233,37.4028006 14.0955694,36.0707313 14.0955694,34.4273544 C14.0958233,32.7842505 12.0094617,31.0237235 9.53700014,30.8574197 Z" id="Path" fill="#585858" fill-rule="nonzero"></path>
                    <path d="M2.2229308,42.3083545 C2.04650772,42.3083545 1.89140772,42.1770045 1.85180772,41.9894006 C1.71904618,41.3591391 1.66015387,38.9830967 1.66015387,38.6955467 C1.66015387,36.2007159 2.56765388,33.8465197 4.02930006,32.5464005 C5.14901546,31.3904659 7.28919242,30.2946081 9.56086168,30.4486235 C12.1797925,30.6247581 14.4768464,32.4838659 14.4768464,34.4273544 C14.4768464,36.3255121 12.0696233,37.8124159 8.99630783,37.8124159 C8.62645397,37.8124159 8.25761551,37.7900236 7.90020012,37.7460583 C5.62370778,37.4667006 3.45687697,38.9399506 2.74585389,41.2477237 C2.66665389,41.5046891 2.61842312,41.7354391 2.60268465,41.9336929 C2.58669235,42.1346776 2.43666927,42.2930622 2.2493308,42.3069891 C2.24044619,42.3080814 2.23156157,42.3083545 2.2229308,42.3083545 L2.2229308,42.3083545 Z M9.12576937,31.2531082 C7.22573088,31.2531082 5.48053854,32.1772005 4.54714622,33.1471697 C4.53978468,33.1545428 4.5321693,33.162189 4.52430007,33.1690159 C3.2469462,34.2979159 2.4214385,36.4669659 2.4214385,38.6952737 C2.4214385,38.8839698 2.43387696,39.3867044 2.45621542,39.9402314 C3.54140775,37.8834159 5.71813855,36.6567544 7.98625397,36.932289 C8.31523859,36.9727044 8.65488474,36.9934582 8.99580013,36.9934582 C11.5538079,36.9934582 13.7148002,35.8184082 13.7148002,34.4276274 C13.7148002,33.0963774 11.8792386,31.4254197 9.51288476,31.2664889 C9.38342322,31.2574774 9.25421552,31.2531082 9.12576937,31.2531082 Z" id="Shape" fill="#3A312A" fill-rule="nonzero"></path>
                    <path d="M56.6026162,57.6943278 L56.6026162,61.0340586 L54.3306931,61.0340586 L54.3306931,58.4616739 C54.3306931,58.2350201 54.1606162,58.0520586 53.9499239,58.0520586 C53.7595393,58.0520586 53.6046931,58.2022509 53.57677,58.3961355 C53.5691546,58.4234432 53.5666162,58.4534816 53.5666162,58.4807893 L53.5666162,61.0340586 L52.5410777,61.0340586 L52.5410777,57.6943278 C52.5410777,57.0799047 52.4014623,56.5009816 52.1552315,55.9903278 L52.8228469,53.9695585 L53.1401546,53.9695585 C55.0490777,53.9695585 56.6026162,55.6407893 56.6026162,57.6943278 L56.6026162,57.6943278 Z" id="Path" fill-opacity="0.207686844" fill="#000000" fill-rule="nonzero"></path>
                    <polygon id="Path" fill="#ED6E7A" fill-rule="nonzero" transform="translate(26.672447, 25.444078) rotate(-36.995898) translate(-26.672447, -25.444078) " points="25.8622488 23.148489 27.644297 23.0853372 27.482645 27.739667 25.7005968 27.8028188"></polygon>
                    <path d="M27.2993773,28.3249043 C27.1838773,28.3249043 27.0699004,28.2686504 26.9950158,28.1618773 L24.323285,24.3499965 C24.2623619,24.2631581 24.2362157,24.1539273 24.2501773,24.046335 C24.2641388,23.9387427 24.3174465,23.8415273 24.3981696,23.7762619 L25.7831542,22.6541888 C25.9506927,22.5184696 26.1895619,22.5542426 26.3162312,22.7347465 L28.987962,26.5466273 C29.048885,26.6334658 29.0750312,26.7426966 29.0610697,26.8502889 C29.0471081,26.9578812 28.9938004,27.0550966 28.9130774,27.1203619 L27.5280927,28.242435 C27.4595543,28.2978697 27.379085,28.3249043 27.2993773,28.3249043 L27.2993773,28.3249043 Z M25.1607235,24.1839657 L27.3740081,27.3415543 L28.1507773,26.712385 L25.9374927,23.5547965 L25.1607235,24.1839657 Z" id="Shape" fill="#3A312A" fill-rule="nonzero"></path>
                    <polygon id="Path" fill="#ED6E7A" fill-rule="nonzero" transform="translate(30.713525, 25.428189) rotate(-143.004102) translate(-30.713525, -25.428189) " points="29.7416745 23.0694482 31.5237227 23.1326001 31.6853747 27.7869298 29.9033266 27.723778"></polygon>
                    <path d="M30.0690928,28.3249043 C29.9893851,28.3249043 29.9089158,28.2978697 29.8403774,28.242435 L28.4556466,27.1203619 C28.3749235,27.0550966 28.3216158,26.9576081 28.3076543,26.8502889 C28.2934389,26.7424235 28.3198389,26.6334658 28.380762,26.5466273 L31.0524928,22.7347465 C31.179162,22.5542426 31.4180312,22.5184696 31.5855697,22.6541888 L32.9705543,23.7762619 C33.0512774,23.8415273 33.1045851,23.9390157 33.1185466,24.046335 C33.132762,24.1542004 33.106362,24.2631581 33.045439,24.3499965 L30.3737081,28.1618773 C30.2985697,28.2686504 30.1845928,28.3249043 30.0690928,28.3249043 L30.0690928,28.3249043 Z M29.2179466,26.712385 L29.9947158,27.3415543 L32.2080005,24.1839657 L31.4312312,23.5547965 L29.2179466,26.712385 Z" id="Shape" fill="#3A312A" fill-rule="nonzero"></path>
                </g>
            </g>
        </g>
    </g>
</svg>