<?xml version="1.0" encoding="UTF-8"?>
<svg width="51px" height="52px" viewBox="0 0 51 52" version="1.1" xmlns="http://www.w3.org/2000/svg" xmlns:xlink="http://www.w3.org/1999/xlink">
    <title>Rectangle Copy 27</title>
    <g id="Page-1" stroke="none" stroke-width="1" fill="none" fill-rule="evenodd">
        <g id="Layout-2-Copy" transform="translate(-297.000000, -4028.000000)" fill-rule="nonzero">
            <g id="Group" transform="translate(291.000000, 4022.000000)">
                <g id="technology-(1)" transform="translate(6.057692, 6.153846)">
                    <path d="M48.4279971,15.6761387 L1.97199988,15.6761387 C1.7511999,15.6761387 1.57199991,15.4940943 1.57199991,15.2697896 C1.57199991,15.0454848 1.7511999,14.8634404 1.97199988,14.8634404 L48.4279971,14.8634404 C48.6487971,14.8634404 48.8279971,15.0454848 48.8279971,15.2697896 C48.8279971,15.4940943 48.6487971,15.6761387 48.4279971,15.6761387 Z" id="Path" fill="#000000"></path>
                    <path d="M48.4279971,26.0063477 L1.97199988,26.0063477 C1.7511999,26.0063477 1.57199991,25.8243032 1.57199991,25.5999985 C1.57199991,25.3756937 1.7511999,25.1936493 1.97199988,25.1936493 L48.4279971,25.1936493 C48.6487971,25.1936493 48.8279971,25.3756937 48.8279971,25.5999985 C48.8279971,25.8243032 48.6487971,26.0063477 48.4279971,26.0063477 Z" id="Path" fill="#000000"></path>
                    <path d="M48.4279971,36.3365566 L1.97199988,36.3365566 C1.7511999,36.3365566 1.57199991,36.1545121 1.57199991,35.9302074 C1.57199991,35.7059026 1.7511999,35.5238582 1.97199988,35.5238582 L48.4279971,35.5238582 C48.6487971,35.5238582 48.8279971,35.7059026 48.8279971,35.9302074 C48.8279971,36.1545121 48.6487971,36.3365566 48.4279971,36.3365566 Z" id="Path" fill="#000000"></path>
                    <path d="M35.3689979,49.6028415 C35.1481979,49.6028415 34.9689979,49.4207971 34.9689979,49.1964923 L34.9689979,2.00350464 C34.9689979,1.77919989 35.1481979,1.59715546 35.3689979,1.59715546 C35.5897979,1.59715546 35.7689979,1.77919989 35.7689979,2.00350464 L35.7689979,49.1964923 C35.7689979,49.4210002 35.5897979,49.6028415 35.3689979,49.6028415 Z" id="Path" fill="#000000"></path>
                    <path d="M25.1999985,49.6028415 C24.9791985,49.6028415 24.7999985,49.4207971 24.7999985,49.1964923 L24.7999985,2.00350464 C24.7999985,1.77919989 24.9791985,1.59715546 25.1999985,1.59715546 C25.4207985,1.59715546 25.5999985,1.77919989 25.5999985,2.00350464 L25.5999985,49.1964923 C25.5999985,49.4210002 25.4207985,49.6028415 25.1999985,49.6028415 Z" id="Path" fill="#000000"></path>
                    <path d="M15.0309991,49.6028415 C14.8101991,49.6028415 14.6309991,49.4207971 14.6309991,49.1964923 L14.6309991,2.00350464 C14.6309991,1.77919989 14.8101991,1.59715546 15.0309991,1.59715546 C15.2517991,1.59715546 15.4309991,1.77919989 15.4309991,2.00350464 L15.4309991,49.1964923 C15.4309991,49.4210002 15.2519991,49.6028415 15.0309991,49.6028415 Z" id="Path" fill="#000000"></path>
                    <path d="M38.0429977,40.63695 L12.3569993,40.63695 C11.2749993,40.63695 10.3977994,39.7458262 10.3977994,38.6466517 L10.3977994,12.5531421 C10.3977994,11.4539676 11.2749993,10.5628438 12.3569993,10.5628438 L38.0429977,10.5628438 C39.1249977,10.5628438 40.0021976,11.4539676 40.0021976,12.5531421 L40.0021976,38.6468548 C40.0021976,39.7460294 39.1249977,40.63695 38.0429977,40.63695 Z" id="Path" fill="#526FAA"></path>
                    <ellipse id="Oval" fill="#FCC24C" cx="15.0311991" cy="2.00350464" rx="1.57219991" ry="1.59715546"></ellipse>
                    <ellipse id="Oval" fill="#FCC24C" cx="35.3687979" cy="2.00350464" rx="1.57219991" ry="1.59715546"></ellipse>
                    <ellipse id="Oval" fill="#FCC24C" cx="15.0311991" cy="49.1964923" rx="1.57219991" ry="1.59715546"></ellipse>
                    <ellipse id="Oval" fill="#FCC24C" cx="35.3687979" cy="49.1964923" rx="1.57219991" ry="1.59715546"></ellipse>
                    <ellipse id="Oval" fill="#FCC24C" cx="48.4277971" cy="15.2697896" rx="1.57219991" ry="1.59715546"></ellipse>
                    <ellipse id="Oval" fill="#FCC24C" cx="48.4277971" cy="35.9302074" rx="1.57219991" ry="1.59715546"></ellipse>
                    <ellipse id="Oval" fill="#FCC24C" cx="1.97219988" cy="15.2697896" rx="1.57219991" ry="1.59715546"></ellipse>
                    <ellipse id="Oval" fill="#FCC24C" cx="1.97219988" cy="35.9302074" rx="1.57219991" ry="1.59715546"></ellipse>
                    <path d="M38.0429979,10.5628438 L36.0429979,10.5628438 C37.1249978,10.5628438 38.0021977,11.4539676 38.0021977,12.5531421 L38.0021977,38.6468548 C38.0021977,39.7460294 37.1249978,40.6371531 36.0429979,40.6371531 L38.0429979,40.6371531 C39.1249977,40.6371531 40.0021976,39.7460294 40.0021976,38.6468548 L40.0021976,12.5531421 C40.0019976,11.4539676 39.1249977,10.5628438 38.0429979,10.5628438 Z" id="Path" fill="#34518C"></path>
                    <path d="M12.3569993,40.63695 L14.3569991,40.63695 C13.2749992,40.63695 12.3977994,39.7458262 12.3977994,38.6466517 L12.3977994,12.5531421 C12.3977994,11.4539676 13.2749992,10.5628438 14.3569991,10.5628438 L12.3569993,10.5628438 C11.2749993,10.5628438 10.3977994,11.4539676 10.3977994,12.5531421 L10.3977994,38.6468548 C10.3977994,39.7460294 11.2749993,40.63695 12.3569993,40.63695 Z" id="Path" fill="#708DC8"></path>
                    <path d="M33.409798,35.9302074 L16.990199,35.9302074 C15.9081991,35.9302074 15.0309991,35.0390836 15.0309991,33.9399091 L15.0309991,17.2598847 C15.0309991,16.1607101 15.9081991,15.2695864 16.990199,15.2695864 L33.409598,15.2695864 C34.4915979,15.2695864 35.3687979,16.1607101 35.3687979,17.2598847 L35.3687979,33.9399091 C35.3687979,35.0392868 34.4917979,35.9302074 33.409798,35.9302074 Z" id="Path" fill="#F4EFED"></path>
                    <path d="M38.0429977,41.0435023 L12.3569993,41.0435023 C11.0561993,41.0435023 9.9977994,39.9683024 9.9977994,38.6468548 L9.9977994,12.5531421 C9.9977994,11.2316946 11.0561993,10.1564946 12.3569993,10.1564946 L38.0429977,10.1564946 C39.3437977,10.1564946 40.4021976,11.2316946 40.4021976,12.5531421 L40.4021976,38.6468548 C40.4021976,39.9683024 39.3437977,41.0435023 38.0429977,41.0435023 Z M12.3569993,10.969193 C11.4971993,10.969193 10.7977994,11.6796945 10.7977994,12.5531421 L10.7977994,38.6468548 C10.7977994,39.5203024 11.4971993,40.230804 12.3569993,40.230804 L38.0429977,40.230804 C38.9027977,40.230804 39.6021976,39.5203024 39.6021976,38.6468548 L39.6021976,12.5531421 C39.6021976,11.6796945 38.9027977,10.969193 38.0429977,10.969193 L12.3569993,10.969193 Z" id="Shape" fill="#000000"></path>
                    <path d="M12.1977993,20.797967 C11.9769993,20.797967 11.7977993,20.6159226 11.7977993,20.3916178 L11.7977993,17.9535227 C11.7977993,17.729218 11.9769993,17.5471736 12.1977993,17.5471736 C12.4185993,17.5471736 12.5977992,17.729218 12.5977992,17.9535227 L12.5977992,20.3916178 C12.5977992,20.6161258 12.4187993,20.797967 12.1977993,20.797967 L12.1977993,20.797967 Z" id="Path" fill="#000000"></path>
                    <path d="M33.409798,36.3365566 L16.990199,36.3365566 C15.6893991,36.3365566 14.6309991,35.2613566 14.6309991,33.9401123 L14.6309991,17.2598847 C14.6309991,15.9384371 15.6893991,14.8634404 16.990199,14.8634404 L33.409798,14.8634404 C34.7105979,14.8634404 35.7689979,15.9386403 35.7689979,17.2598847 L35.7689979,33.9401123 C35.7689979,35.2615598 34.7105979,36.3365566 33.409798,36.3365566 L33.409798,36.3365566 Z M16.990199,15.6761387 C16.130399,15.6761387 15.4309991,16.3866403 15.4309991,17.2598847 L15.4309991,33.9401123 C15.4309991,34.8133567 16.130399,35.5238582 16.990199,35.5238582 L33.409798,35.5238582 C34.269598,35.5238582 34.9689979,34.8133567 34.9689979,33.9401123 L34.9689979,17.2598847 C34.9689979,16.3866403 34.269598,15.6761387 33.409798,15.6761387 L16.990199,15.6761387 Z" id="Shape" fill="#000000"></path>
                    <path d="M15.0309991,4.00680611 C13.9433992,4.00680611 13.0589992,3.10816489 13.0589992,2.00350464 C13.0589992,0.898641216 13.9435992,0 15.0309991,0 C16.118399,0 17.003199,0.898641216 17.003199,2.00350464 C17.003399,3.10816489 16.118599,4.00680611 15.0309991,4.00680611 Z M15.0309991,0.812698364 C14.3847991,0.812698364 13.8589992,1.34684436 13.8589992,2.00350464 C13.8589992,2.66016492 14.3847991,3.19410775 15.0309991,3.19410775 C15.6773991,3.19410775 16.203199,2.65996175 16.203199,2.00350464 C16.203199,1.34704754 15.6775991,0.812698364 15.0309991,0.812698364 Z" id="Shape" fill="#000000"></path>
                    <path d="M35.3689979,4.00680611 C34.281398,4.00680611 33.396798,3.10816489 33.396798,2.00350464 C33.396798,0.898641216 34.281598,0 35.3689979,0 C36.4563978,0 37.3409978,0.898641216 37.3409978,2.00350464 C37.3409978,3.10816489 36.4563978,4.00680611 35.3689979,4.00680611 L35.3689979,4.00680611 Z M35.3689979,0.812698364 C34.7225979,0.812698364 34.196798,1.34684436 34.196798,2.00350464 C34.196798,2.66016492 34.7225979,3.19410775 35.3689979,3.19410775 C36.0151979,3.19410775 36.5409978,2.65996175 36.5409978,2.00350464 C36.5409978,1.34704754 36.0151979,0.812698364 35.3689979,0.812698364 Z" id="Shape" fill="#000000"></path>
                    <path d="M15.0309991,51.1999969 C13.9433992,51.1999969 13.0589992,50.3013557 13.0589992,49.1964923 C13.0589992,48.0918321 13.9435992,47.1931908 15.0309991,47.1931908 C16.118399,47.1931908 17.003199,48.0918321 17.003199,49.1964923 C17.003399,50.3013557 16.118599,51.1999969 15.0309991,51.1999969 Z M15.0309991,48.0058892 C14.3847991,48.0058892 13.8589992,48.5400352 13.8589992,49.1964923 C13.8589992,49.8529494 14.3847991,50.3872986 15.0309991,50.3872986 C15.6773991,50.3872986 16.203199,49.8531526 16.203199,49.1964923 C16.203199,48.539832 15.6775991,48.0058892 15.0309991,48.0058892 Z" id="Shape" fill="#000000"></path>
                    <path d="M35.3689979,51.1999969 C34.281398,51.1999969 33.396798,50.3013557 33.396798,49.1964923 C33.396798,48.0918321 34.281598,47.1931908 35.3689979,47.1931908 C36.4563978,47.1931908 37.3409978,48.0918321 37.3409978,49.1964923 C37.3409978,50.3013557 36.4563978,51.1999969 35.3689979,51.1999969 L35.3689979,51.1999969 Z M35.3689979,48.0058892 C34.7225979,48.0058892 34.196798,48.5400352 34.196798,49.1964923 C34.196798,49.8529494 34.7225979,50.3872986 35.3689979,50.3872986 C36.0151979,50.3872986 36.5409978,49.8531526 36.5409978,49.1964923 C36.5409978,48.539832 36.0151979,48.0058892 35.3689979,48.0058892 Z" id="Shape" fill="#000000"></path>
                    <path d="M48.4279971,17.273091 C47.3403972,17.273091 46.4557972,16.3744498 46.4557972,15.2697896 C46.4557972,14.1649261 47.3405972,13.2662849 48.4279971,13.2662849 C49.515397,13.2662849 50.399997,14.1649261 50.399997,15.2697896 C50.399997,16.3744498 49.515397,17.273091 48.4279971,17.273091 Z M48.4279971,14.0789833 C47.7815972,14.0789833 47.2557972,14.6131293 47.2557972,15.2697896 C47.2557972,15.9264498 47.7815972,16.4603927 48.4279971,16.4603927 C49.0741971,16.4603927 49.599997,15.9262467 49.599997,15.2697896 C49.599997,14.6133325 49.0741971,14.0789833 48.4279971,14.0789833 Z" id="Shape" fill="#000000"></path>
                    <path d="M48.4279971,37.933712 C47.3403972,37.933712 46.4557972,37.0350708 46.4557972,35.9302074 C46.4557972,34.8255471 47.3405972,33.9269059 48.4279971,33.9269059 C49.515397,33.9269059 50.399997,34.8255471 50.399997,35.9302074 C50.399997,37.0350708 49.515397,37.933712 48.4279971,37.933712 L48.4279971,37.933712 Z M48.4279971,34.7396043 C47.7815972,34.7396043 47.2557972,35.2737503 47.2557972,35.9302074 C47.2557972,36.5866645 47.7815972,37.1210137 48.4279971,37.1210137 C49.0741971,37.1210137 49.599997,36.5868677 49.599997,35.9302074 C49.599997,35.2735471 49.0741971,34.7396043 48.4279971,34.7396043 Z" id="Shape" fill="#000000"></path>
                    <path d="M1.97199988,17.273091 C0.884399947,17.273091 0,16.3744498 0,15.2697896 C0,14.1649261 0.884599947,13.2662849 1.97199988,13.2662849 C3.05939982,13.2662849 3.9441998,14.1649261 3.9441998,15.2697896 C3.94439976,16.3744498 3.05959982,17.273091 1.97199988,17.273091 Z M1.97199988,14.0789833 C1.32579992,14.0789833 0.799999952,14.6131293 0.799999952,15.2697896 C0.799999952,15.9264498 1.32579992,16.4603927 1.97199988,16.4603927 C2.61839984,16.4603927 3.14419981,15.9262467 3.14419981,15.2697896 C3.14419981,14.6133325 2.61859984,14.0789833 1.97199988,14.0789833 Z" id="Shape" fill="#000000"></path>
                    <path d="M1.97199988,37.933712 C0.884399947,37.933712 0,37.0350708 0,35.9302074 C0,34.8255471 0.884599947,33.9269059 1.97199988,33.9269059 C3.05939982,33.9269059 3.9441998,34.8255471 3.9441998,35.9302074 C3.94439976,37.0350708 3.05959982,37.933712 1.97199988,37.933712 L1.97199988,37.933712 Z M1.97199988,34.7396043 C1.32579992,34.7396043 0.799999952,35.2737503 0.799999952,35.9302074 C0.799999952,36.5866645 1.32579992,37.1210137 1.97199988,37.1210137 C2.61839984,37.1210137 3.14419981,36.5868677 3.14419981,35.9302074 C3.14419981,35.2735471 2.61859984,34.7396043 1.97199988,34.7396043 Z" id="Shape" fill="#000000"></path>
                    <path d="M30.6245982,23.155605 C30.6245982,20.0407353 28.0803983,17.5292942 24.9879985,17.6491672 C22.1777987,17.7580688 19.8875988,20.0836052 19.7795988,22.9386145 C19.6909988,25.2816239 21.0431987,27.3137761 23.0079986,28.1965697 C23.3995986,28.3725189 23.6545986,28.7634269 23.6545986,29.1984237 L23.6545986,31.9410775 C23.6545986,32.7864869 24.2939986,33.5136488 25.1251985,33.553471 C26.0125984,33.5959345 26.7451984,32.8775092 26.7451984,31.9853695 L26.7451984,29.1982205 C26.7451984,28.7644427 26.9981984,28.3731285 27.3887984,28.197992 C29.2943983,27.3430333 30.6245982,25.4075921 30.6245982,23.155605 Z" id="Path" fill="#FCC24C"></path>
                    <path d="M25.2013985,33.9614456 C25.1697985,33.9614456 25.1381985,33.9608361 25.1063985,33.9592107 C24.0679986,33.9094329 23.2545986,33.0229822 23.2545986,31.9408743 L23.2545986,29.1980173 C23.2545986,28.9267792 23.0941986,28.6793126 22.8459986,28.5677697 C20.6481988,27.5803412 19.2873989,25.3643159 19.3795988,22.9225637 C19.4957988,19.8544242 21.9523987,17.3596434 24.9725985,17.2426148 C26.5699984,17.1810529 28.0877983,17.7663989 29.2389983,18.8919862 C30.3903982,20.0179798 31.0245982,21.5320368 31.0245982,23.1551986 C31.0245982,25.4973953 29.6609982,27.6223984 27.5503984,28.5689888 C27.3043984,28.6793126 27.1453984,28.9261697 27.1453984,29.197611 L27.1453984,31.98476 C27.1453984,32.5302838 26.9313984,33.0382203 26.5425984,33.4149059 C26.1771984,33.7694456 25.7039985,33.9614456 25.2013985,33.9614456 L25.2013985,33.9614456 Z M25.2015985,18.0512497 C25.1355985,18.0512497 25.0695985,18.0524688 25.0031985,18.05511 C22.3983987,18.1560878 20.2793988,20.3079099 20.1791988,22.9540558 C20.0997988,25.0609763 21.2735987,26.9728492 23.1697986,27.8247602 C23.7073986,28.0663348 24.0547986,28.605357 24.0547986,29.1982205 L24.0547986,31.9410775 C24.0547986,32.5776235 24.5433985,33.1188806 25.1439985,33.1475282 C25.4593985,33.1629695 25.7615985,33.0489885 25.9903985,32.827325 C26.2191984,32.6056615 26.3451984,32.3065886 26.3451984,31.9853695 L26.3451984,29.1982205 C26.3451984,28.6051539 26.6911984,28.0667412 27.2269984,27.8261825 C29.0477983,27.0094206 30.2243982,25.1763795 30.2243982,23.1558081 C30.2243982,21.7555289 29.6773982,20.4493194 28.6839983,19.4779417 C27.7389983,18.5534973 26.5087984,18.0512497 25.2015985,18.0512497 L25.2015985,18.0512497 Z" id="Shape" fill="#690589"></path>
                    <path d="M23.6545986,29.1982205 L23.6545986,31.9408743 C23.6545986,32.7862838 24.2939986,33.5134456 25.1251985,33.5532678 C26.0125984,33.5957313 26.7451984,32.877306 26.7451984,31.9851663 L26.7451984,29.1982205 L23.6545986,29.1982205 Z" id="Path" fill="#8852A8"></path>
                    <path d="M25.2015985,33.9614456 C25.1699985,33.9614456 25.1383985,33.9608361 25.1065985,33.9592107 C24.0681986,33.9096361 23.2545986,33.0229822 23.2545986,31.9408743 L23.2545986,29.1982205 C23.2545986,28.9739157 23.4337986,28.7918713 23.6545986,28.7918713 L26.7451984,28.7918713 C26.9659984,28.7918713 27.1451984,28.9739157 27.1451984,29.1982205 L27.1451984,31.9851663 C27.1451984,32.5306901 26.9311984,33.0386266 26.5423984,33.4153123 C26.1771984,33.7694456 25.7039985,33.9614456 25.2015985,33.9614456 L25.2015985,33.9614456 Z M24.0545986,29.6045697 L24.0545986,31.9408743 C24.0545986,32.5774203 24.5431985,33.1186774 25.1439985,33.147325 C25.4617985,33.1633758 25.7617985,33.0487853 25.9901985,32.8271219 C26.2191984,32.6052552 26.3449984,32.3063854 26.3449984,31.9849632 L26.3449984,29.6045697 L24.0545986,29.6045697 Z" id="Shape" fill="#690589"></path>
                    <path d="M26.6039984,31.5836934 L23.7959986,31.5836934 C23.5751986,31.5836934 23.3959986,31.4016489 23.3959986,31.1773442 C23.3959986,30.9530394 23.5751986,30.770995 23.7959986,30.770995 L26.6037984,30.770995 C26.8245984,30.770995 27.0037984,30.9530394 27.0037984,31.1773442 C27.0037984,31.4016489 26.8247984,31.5836934 26.6039984,31.5836934 Z" id="Path" fill="#690589"></path>
                    <path d="M30.6245982,23.155605 C30.6245982,20.0407353 28.0803983,17.5292942 24.9879985,17.6491672 C22.1777987,17.7580688 19.8875988,20.0836052 19.7795988,22.9386145 C19.6909988,25.2816239 21.0431987,27.3137761 23.0079986,28.1965697 C23.3995986,28.3725189 23.6545986,28.7634269 23.6545986,29.1984237 L23.6545986,31.9410775 C23.6545986,32.7864869 24.2939986,33.5136488 25.1251985,33.553471 C26.0125984,33.5959345 26.7451984,32.8775092 26.7451984,31.9853695 L26.7451984,29.1982205 C26.7451984,28.7644427 26.9981984,28.3731285 27.3887984,28.197992 C29.2943983,27.3430333 30.6245982,25.4075921 30.6245982,23.155605 Z" id="Path" fill="#FCC24C"></path>
                    <path d="M25.2013985,33.9614456 C25.1697985,33.9614456 25.1381985,33.9608361 25.1063985,33.9592107 C24.0679986,33.9094329 23.2545986,33.0229822 23.2545986,31.9408743 L23.2545986,29.1980173 C23.2545986,28.9267792 23.0941986,28.6793126 22.8459986,28.5677697 C20.6481988,27.5803412 19.2873989,25.3643159 19.3795988,22.9225637 C19.4957988,19.8544242 21.9523987,17.3596434 24.9725985,17.2426148 C26.5699984,17.1810529 28.0877983,17.7663989 29.2389983,18.8919862 C30.3903982,20.0179798 31.0245982,21.5320368 31.0245982,23.1551986 C31.0245982,25.4973953 29.6609982,27.6223984 27.5503984,28.5689888 C27.3043984,28.6793126 27.1453984,28.9261697 27.1453984,29.197611 L27.1453984,31.98476 C27.1453984,32.5302838 26.9313984,33.0382203 26.5425984,33.4149059 C26.1771984,33.7694456 25.7039985,33.9614456 25.2013985,33.9614456 L25.2013985,33.9614456 Z M25.2015985,18.0512497 C25.1355985,18.0512497 25.0695985,18.0524688 25.0031985,18.05511 C22.3983987,18.1560878 20.2793988,20.3079099 20.1791988,22.9540558 C20.0997988,25.0609763 21.2735987,26.9728492 23.1697986,27.8247602 C23.7073986,28.0663348 24.0547986,28.605357 24.0547986,29.1982205 L24.0547986,31.9410775 C24.0547986,32.5776235 24.5433985,33.1188806 25.1439985,33.1475282 C25.4593985,33.1629695 25.7615985,33.0489885 25.9903985,32.827325 C26.2191984,32.6056615 26.3451984,32.3065886 26.3451984,31.9853695 L26.3451984,29.1982205 C26.3451984,28.6051539 26.6911984,28.0667412 27.2269984,27.8261825 C29.0477983,27.0094206 30.2243982,25.1763795 30.2243982,23.1558081 C30.2243982,21.7555289 29.6773982,20.4493194 28.6839983,19.4779417 C27.7389983,18.5534973 26.5087984,18.0512497 25.2015985,18.0512497 L25.2015985,18.0512497 Z" id="Shape" fill="#000000"></path>
                    <path d="M23.6545986,29.1982205 L23.6545986,31.9408743 C23.6545986,32.7862838 24.2939986,33.5134456 25.1251985,33.5532678 C26.0125984,33.5957313 26.7451984,32.877306 26.7451984,31.9851663 L26.7451984,29.1982205 L23.6545986,29.1982205 Z" id="Path" fill="#000000"></path>
                    <path d="M25.2015985,33.9614456 C25.1699985,33.9614456 25.1383985,33.9608361 25.1065985,33.9592107 C24.0681986,33.9096361 23.2545986,33.0229822 23.2545986,31.9408743 L23.2545986,29.1982205 C23.2545986,28.9739157 23.4337986,28.7918713 23.6545986,28.7918713 L26.7451984,28.7918713 C26.9659984,28.7918713 27.1451984,28.9739157 27.1451984,29.1982205 L27.1451984,31.9851663 C27.1451984,32.5306901 26.9311984,33.0386266 26.5423984,33.4153123 C26.1771984,33.7694456 25.7039985,33.9614456 25.2015985,33.9614456 L25.2015985,33.9614456 Z M24.0545986,29.6045697 L24.0545986,31.9408743 C24.0545986,32.5774203 24.5431985,33.1186774 25.1439985,33.147325 C25.4617985,33.1633758 25.7617985,33.0487853 25.9901985,32.8271219 C26.2191984,32.6052552 26.3449984,32.3063854 26.3449984,31.9849632 L26.3449984,29.6045697 L24.0545986,29.6045697 Z" id="Shape" fill="#1C1C1C"></path>
                    <path d="M26.6039984,31.5836934 L23.7959986,31.5836934 C23.5751986,31.5836934 23.3959986,31.4016489 23.3959986,31.1773442 C23.3959986,30.9530394 23.5751986,30.770995 23.7959986,30.770995 L26.6037984,30.770995 C26.8245984,30.770995 27.0037984,30.9530394 27.0037984,31.1773442 C27.0037984,31.4016489 26.8247984,31.5836934 26.6039984,31.5836934 Z" id="Path" fill="#690589"></path>
                </g>
            </g>
        </g>
    </g>
</svg>